<svg width="32" height="32" viewBox="0 0 32 32" fill="none" xmlns="http://www.w3.org/2000/svg">
<path fill-rule="evenodd" clip-rule="evenodd" d="M14.6887 0.0205428C11.2965 0.374512 8.52348 1.48346 5.94146 3.51867C5.13653 4.15308 3.87178 5.45906 3.2304 6.31813C1.5473 8.57225 0.561933 10.9226 0.125221 13.7245C-0.0429351 14.8033 -0.0414665 17.1815 0.128025 18.295C0.857791 23.0894 3.63921 27.25 7.77956 29.7405C11.5176 31.9891 16.1142 32.5947 20.3613 31.3983C22.3447 30.8396 24.3637 29.798 26.0371 28.4703C26.7223 27.9267 27.9297 26.7198 28.4736 26.035C30.8905 22.9916 32.1277 19.2701 31.9896 15.4593C31.8376 11.2702 30.2116 7.55532 27.2437 4.61667C24.8049 2.20194 21.7539 0.6721 18.3269 0.145583C17.6541 0.0422279 15.2671 -0.0398422 14.6887 0.0205428ZM18.427 8.14162C19.2316 8.42173 19.8234 8.80105 20.4648 9.44754C21.1126 10.1004 21.4919 10.7475 21.7421 11.6265C21.9374 12.3127 21.9519 13.5344 21.7724 14.1877C21.2917 15.9374 20.0424 17.234 18.2935 17.7987C17.889 17.9293 17.6446 17.9535 16.4744 17.979L15.1226 18.0085V18.6355V19.2625H17.545C19.9246 19.2625 19.9727 19.2652 20.2648 19.4127C20.4283 19.4953 20.6299 19.6648 20.7128 19.7895C21.0229 20.2558 20.8357 20.9719 20.3293 21.2564C20.0856 21.3932 19.9999 21.3977 17.6063 21.3977H15.1348L15.1121 22.3938C15.0918 23.2791 15.0737 23.4109 14.9496 23.5781C14.4587 24.2398 13.5419 24.2348 13.1511 23.5683C12.9971 23.3059 12.9865 23.2264 12.9865 22.347V21.4065L11.8563 21.3854C10.6287 21.3625 10.5438 21.3381 10.2296 20.9174C9.88508 20.4562 10.098 19.6896 10.6475 19.4127C10.9177 19.2765 11.0403 19.2625 11.9659 19.2625H12.9865V18.6287V17.9948H11.8949C10.8727 17.9948 10.7892 17.9852 10.5826 17.8446C10.0697 17.4957 9.9258 16.9824 10.1951 16.4617C10.4547 15.9598 10.6368 15.8967 11.9017 15.8706L12.9865 15.8481V12.2734V8.69856L13.1505 8.41886C13.4427 7.92036 13.475 7.91449 15.8235 7.93638C17.8924 7.95566 17.8931 7.95573 18.427 8.14162ZM15.1226 12.9582V15.8721L16.3743 15.8492C17.6145 15.8265 17.6299 15.8244 18.0598 15.6196C20.3246 14.5409 20.3696 11.4405 18.1365 10.3366L17.6335 10.088L16.3781 10.0661L15.1226 10.0442V12.9582Z" fill="#DD2A1B"/>
</svg>
