<svg width="20" height="20" viewBox="0 0 20 20" fill="none" xmlns="http://www.w3.org/2000/svg">
<path fill-rule="evenodd" clip-rule="evenodd" d="M9.70362 0.0885644C9.60113 0.137289 9.48291 0.232073 9.44093 0.299174C9.39895 0.366275 8.85382 1.74103 8.22955 3.35422C7.00647 6.51481 6.98995 6.54881 6.6445 6.61329C6.56268 6.62858 5.14921 6.74202 3.50347 6.86543C1.11269 7.04466 0.482753 7.10531 0.369582 7.16708C0.0313669 7.35173 -0.108689 7.86596 0.0941152 8.17823C0.151549 8.2667 1.24274 9.25858 2.51897 10.3824C3.97875 11.668 4.86906 12.4838 4.91948 12.5823C4.96356 12.6683 4.9996 12.8079 4.9996 12.8925C4.9996 12.9771 4.83726 13.7244 4.63888 14.5532C3.70663 18.4479 3.5316 19.2466 3.57073 19.4281C3.64638 19.7795 4.0339 20.0536 4.36328 19.9889C4.46175 19.9696 5.35604 19.4152 6.64923 18.5718C7.81756 17.8098 8.99236 17.0438 9.25992 16.8696C9.80518 16.5146 9.9736 16.4603 10.2178 16.5608C10.3087 16.5982 11.5295 17.3777 12.9306 18.2929C14.5012 19.319 15.5402 19.9694 15.6399 19.9889C15.8579 20.0317 16.0733 19.9496 16.2535 19.7549C16.5253 19.4613 16.5268 19.471 15.7211 16.0767C15.3265 14.4141 15.0036 12.977 15.0036 12.883C15.0036 12.789 15.0328 12.653 15.0685 12.5807C15.1042 12.5084 16.1897 11.5194 17.4807 10.3828C18.7718 9.24623 19.8576 8.26899 19.8938 8.21115C20.1434 7.81237 19.9303 7.23207 19.4909 7.11382C19.3933 7.08754 17.9869 6.96877 16.3657 6.84985C14.7446 6.73099 13.3562 6.61315 13.2804 6.58799C13.2046 6.56284 13.0907 6.48489 13.0273 6.41475C12.9513 6.33067 12.5249 5.28833 11.7753 3.35422C11.1501 1.74103 10.6042 0.366275 10.5623 0.299174C10.4768 0.162633 10.172 0 10.0016 0C9.94019 0 9.80612 0.03984 9.70362 0.0885644Z" fill="#FDCD00"/>
</svg>
