<svg width="32" height="32" viewBox="0 0 32 32" fill="none" xmlns="http://www.w3.org/2000/svg">
<g clip-path="url(#clip0_104_27642)">
<path d="M0.683437 15.8085C0.682687 18.4971 1.39069 21.1223 2.73694 23.4362L0.554688 31.3422L8.70869 29.2208C10.964 30.439 13.4909 31.0774 16.0587 31.0775H16.0654C24.5423 31.0775 31.4427 24.2331 31.4463 15.8205C31.4479 11.744 29.8494 7.91067 26.9452 5.0267C24.0414 2.14298 20.1796 0.554015 16.0648 0.552155C7.58694 0.552155 0.687063 7.39618 0.683563 15.8085" fill="#DD2A1B"/>
<path d="M0.13375 15.8035C0.132875 18.5889 0.86625 21.308 2.2605 23.7048L0 31.8942L8.44637 29.6967C10.7736 30.9558 13.3939 31.6196 16.0601 31.6206H16.067C24.848 31.6206 31.9963 24.53 32 15.8162C32.0015 11.5932 30.3455 7.62208 27.3375 4.63479C24.3291 1.64788 20.3291 0.00173643 16.067 0C7.2845 0 0.13725 7.08961 0.13375 15.8035ZM5.16388 23.292L4.8485 22.7953C3.52275 20.7036 2.823 18.2865 2.824 15.8045C2.82675 8.56174 8.76725 2.66915 16.072 2.66915C19.6095 2.67064 22.934 4.03895 25.4345 6.52155C27.9349 9.0044 29.3108 12.3049 29.3099 15.8152C29.3066 23.058 23.366 28.9513 16.067 28.9513H16.0618C13.6851 28.9501 11.3542 28.3168 9.3215 27.12L8.83775 26.8353L3.8255 28.1393L5.16388 23.292Z" fill="url(#paint0_linear_104_27642)"/>
<path d="M16.0664 0.44043C20.2129 0.442119 24.1018 2.0426 27.0273 4.94727C29.9524 7.85221 31.561 11.7113 31.5596 15.8164C31.5557 24.2836 24.6082 31.1805 16.0674 31.1807H16.0605C13.4672 31.1797 10.9189 30.5336 8.65625 29.3096L8.50293 29.2266L8.33594 29.2705L0.62793 31.2754L2.68457 23.8223L2.73438 23.6436L2.64062 23.4834C1.28566 21.1541 0.573375 18.5113 0.574219 15.8037C0.57762 7.33631 7.52407 0.440749 16.0664 0.44043ZM16.0723 2.22852C8.52774 2.22852 2.38663 8.31546 2.38379 15.8047C2.38288 18.2097 3.01863 20.5563 4.22754 22.6221L4.47656 23.0312L4.68652 23.3623L3.40137 28.0225L3.19824 28.7578L3.93652 28.5654L8.77148 27.3066L9.09766 27.499C11.0672 28.6586 13.307 29.3063 15.6016 29.3838L16.0615 29.3916H16.0674C23.6061 29.3914 29.7466 23.3043 29.75 15.8154C29.7509 12.1874 28.3284 8.7742 25.7451 6.20898C23.1619 3.64422 19.7254 2.23007 16.0723 2.22852Z" stroke="#141414" stroke-opacity="0.1" stroke-width="0.880634"/>
<path d="M12.0845 9.19665C11.7862 8.53891 11.4723 8.52564 11.1887 8.5141C10.9565 8.50418 10.691 8.50493 10.4257 8.50493C10.1602 8.50493 9.72883 8.60403 9.3642 8.99907C8.9992 9.39448 7.9707 10.35 7.9707 12.2935C7.9707 14.2369 9.39733 16.1152 9.5962 16.379C9.79533 16.6424 12.3503 20.7582 16.3968 22.3416C19.7598 23.6574 20.4442 23.3957 21.1741 23.3297C21.9041 23.264 23.5296 22.3744 23.8612 21.452C24.1931 20.5297 24.1931 19.7392 24.0936 19.5739C23.9941 19.4094 23.7286 19.3105 23.3305 19.113C22.9323 18.9156 20.975 17.9598 20.6101 17.828C20.2451 17.6962 19.9797 17.6305 19.7142 18.026C19.4487 18.421 18.6863 19.3105 18.454 19.5739C18.2218 19.838 17.9895 19.8709 17.5915 19.6733C17.1931 19.4751 15.911 19.0585 14.3898 17.7129C13.2063 16.6658 12.4073 15.3728 12.1751 14.9772C11.9428 14.5823 12.1502 14.3682 12.3498 14.1714C12.5287 13.9944 12.7481 13.7101 12.9473 13.4796C13.1458 13.2489 13.2121 13.0843 13.3448 12.8208C13.4777 12.5571 13.4112 12.3264 13.3118 12.1289C13.2121 11.9313 12.4385 9.97767 12.0845 9.19665Z" fill="white"/>
</g>
<defs>
<linearGradient id="paint0_linear_104_27642" x1="1600" y1="3189.42" x2="1600" y2="0" gradientUnits="userSpaceOnUse">
<stop stop-color="#F9F9F9"/>
<stop offset="1" stop-color="white"/>
</linearGradient>
<clipPath id="clip0_104_27642">
<rect width="32" height="32" fill="white"/>
</clipPath>
</defs>
</svg>
