<svg width="447" height="458" viewBox="0 0 447 458" fill="none" xmlns="http://www.w3.org/2000/svg">
<path d="M359.251 359.25C425.387 293.114 425.387 185.886 359.251 119.75C293.115 53.6139 185.887 53.6139 119.751 119.75C53.6149 185.886 53.6149 293.114 119.751 359.25C185.887 425.386 293.115 425.386 359.251 359.25Z" fill="#FCD9D9"/>
<mask id="mask0_104_21602" style="mask-type:luminance" maskUnits="userSpaceOnUse" x="70" y="70" width="339" height="339">
<path d="M359.252 359.25C425.388 293.114 425.388 185.886 359.252 119.75C293.116 53.6139 185.888 53.6139 119.752 119.75C53.6159 185.886 53.6159 293.114 119.752 359.25C185.888 425.386 293.116 425.386 359.252 359.25Z" fill="white"/>
</mask>
<g mask="url(#mask0_104_21602)">
<path d="M396.015 156.685H332.811C331.302 156.685 330.076 155.458 330.076 153.95V106.627C330.076 105.118 331.302 103.892 332.811 103.892H396.015C397.523 103.892 398.75 105.118 398.75 106.627V153.95C398.762 155.458 397.536 156.685 396.015 156.685Z" fill="#EA9292"/>
</g>
<mask id="mask1_104_21602" style="mask-type:luminance" maskUnits="userSpaceOnUse" x="70" y="70" width="339" height="339">
<path d="M359.252 359.25C425.388 293.114 425.388 185.886 359.252 119.75C293.116 53.6139 185.888 53.6139 119.752 119.75C53.6159 185.886 53.6159 293.114 119.752 359.25C185.888 425.386 293.116 425.386 359.252 359.25Z" fill="white"/>
</mask>
<g mask="url(#mask1_104_21602)">
<path d="M361.948 166.287L362.034 146.751H346.803V156.697C346.803 156.697 353.155 157.003 356.65 159.517C360.12 162.007 361.948 166.287 361.948 166.287Z" fill="#EA9292"/>
</g>
<mask id="mask2_104_21602" style="mask-type:luminance" maskUnits="userSpaceOnUse" x="70" y="70" width="339" height="339">
<path d="M359.252 359.25C425.388 293.114 425.388 185.886 359.252 119.75C293.116 53.6139 185.888 53.6139 119.752 119.75C53.6159 185.886 53.6159 293.114 119.752 359.25C185.888 425.386 293.116 425.386 359.252 359.25Z" fill="white"/>
</mask>
<g mask="url(#mask2_104_21602)">
<path d="M384.609 204.658C385.284 206.927 379.631 216.075 378.404 217.657C378.306 217.779 378.196 217.865 378.061 217.951C377.816 218.294 377.583 218.552 377.386 218.687C375.351 220.036 365.871 218.908 361.346 217.583C356.833 216.259 347.796 209.87 347.796 209.87L295.358 200.121L294.745 205.43L276.007 204.449C276.007 204.449 276.4 225.91 275.958 262.062C275.934 264.183 275.897 266.55 275.848 269.101C275.112 309.998 272.12 401.677 272.12 401.677L271.764 401.738C274.057 403.222 276.461 405.822 280.704 412.738C285.327 420.268 276.657 428.411 266.111 417.423C260.556 411.623 258.729 407.993 258.508 404.13L258.348 404.154L248.832 295.626L244.172 296.852L244.552 403.247H244.528C245.607 406.398 244.258 410.776 242.75 412.456C240.309 415.203 238.041 417.251 229.996 421.323C221.216 425.75 215.207 417.791 223.067 410.139C226.023 407.257 228.868 404.951 231.357 403.247H231.222C231.222 403.247 217.672 313.174 215.194 280.186C214.937 276.814 214.716 273.319 214.532 269.751C213.6 252.349 212.791 233.121 212.264 219.472C212.251 219.349 212.251 219.288 212.251 219.288C211.822 208.521 211.577 201.273 211.577 201.273H190.546L190.19 192.91L143.038 201.825L142.352 201.972C142.352 201.972 138.121 202.181 134.111 205.627C130.113 209.06 120.302 211.513 116.305 212.85C115.324 213.168 112.797 212.617 113.3 211.231C113.619 210.385 115.017 209.109 112.797 210.225C111.865 210.704 110.308 209.073 111.338 207.662C112.258 206.387 111.632 206.546 110.651 207.012C109.401 207.613 107.77 205.418 109.413 203.812C110.136 203.113 110.921 202.095 109.302 202.831C107.549 203.628 106.139 202.168 107.647 200.047C108.996 198.134 110.026 197.325 111.718 196.172C115.017 193.903 122.853 191.917 122.853 191.917C122.853 191.917 120.56 190.065 118.635 188.961C116.697 187.845 117.053 184.485 119.088 184.694C121.112 184.914 124.852 185.993 129.475 187.391C134.086 188.789 141.309 192.26 141.309 192.26L143.038 194.001L189.319 172.357L231.235 152.736L236.655 150.197V139.577L236.483 139.528L235.22 139.075L235.159 139.05C233.565 138.376 230.842 136.978 227.617 134.268C226.673 133.47 225.9 132.367 225.312 131.055C225.299 131.018 225.275 130.981 225.262 130.944C225.25 130.895 225.226 130.858 225.226 130.834C225.213 130.809 225.213 130.797 225.213 130.797C221.277 121.637 224.637 102.138 227.176 93.9464C227.776 92.0334 228.61 90.3779 229.616 88.9676C228.439 85.8773 227.298 81.6097 228.586 79.0345C230.793 74.632 236.299 76.1404 236.299 76.1404C236.299 76.1404 234.975 69.8739 238.053 66.661C241.131 63.4358 258.912 61.9152 264.345 66.661C269.765 71.3946 268.747 78.3355 268.747 78.3355C268.747 78.3355 272.635 77.8327 276.363 80.8862C280.091 83.9397 276.363 92.0579 276.363 92.0579C276.363 92.0579 281.146 94.0078 281.464 97.8338C281.771 101.415 273.788 108.76 270.207 115.542C271.384 117.295 272.292 120.312 271.593 122.973C270.562 124.212 269.275 125.07 267.95 125.647C267.926 126.247 267.926 126.812 267.914 127.388C267.828 131.226 267.766 134.464 265.191 137.137C261.708 140.755 253.921 143.465 248.82 143.109L248.648 150.712L256.374 154.686L298.154 176.109L348.961 202.181C348.961 202.181 348.961 202.168 348.973 202.168C349.255 201.85 352.615 198.024 355.754 196.626C358.231 195.51 363.787 194.087 367.036 193.253L372.334 181.824L385.566 187.956L380.747 198.379C380.881 198.502 381.016 198.637 381.139 198.772C381.102 198.796 383.935 202.401 384.609 204.658Z" fill="#EA9292"/>
</g>
<mask id="mask3_104_21602" style="mask-type:luminance" maskUnits="userSpaceOnUse" x="70" y="70" width="339" height="339">
<path d="M359.252 359.25C425.388 293.114 425.388 185.886 359.252 119.75C293.116 53.6139 185.888 53.6139 119.752 119.75C53.6159 185.886 53.6159 293.114 119.752 359.25C185.888 425.386 293.116 425.386 359.252 359.25Z" fill="white"/>
</mask>
<g mask="url(#mask3_104_21602)">
<path d="M336.426 375.581C336.426 387.06 327.119 396.367 315.64 396.367C304.162 396.367 294.854 387.06 294.854 375.581C294.854 367.328 299.674 360.203 306.639 356.831C306.615 356.524 306.603 356.218 306.603 355.911V239.375C306.603 234.506 310.564 230.545 315.432 230.545H315.861C320.73 230.545 324.691 234.506 324.691 239.375V355.911C324.691 356.218 324.678 356.524 324.654 356.831C331.607 360.203 336.426 367.328 336.426 375.581Z" fill="#EA9292"/>
<path d="M315.641 398.354C303.083 398.354 292.868 388.139 292.868 375.581C292.868 367.328 297.442 359.639 304.616 355.642V239.375C304.616 233.415 309.472 228.559 315.432 228.559H315.862C321.821 228.559 326.678 233.415 326.678 239.375V355.642C333.852 359.639 338.426 367.328 338.426 375.581C338.426 388.139 328.21 398.354 315.641 398.354ZM315.432 232.532C311.668 232.532 308.589 235.598 308.589 239.363V355.899C308.589 356.144 308.602 356.39 308.626 356.635L308.749 358.008L307.51 358.609C300.937 361.785 296.841 368.285 296.841 375.569C296.841 385.931 305.278 394.369 315.641 394.369C326.003 394.369 334.44 385.931 334.44 375.569C334.44 368.395 330.258 361.749 323.771 358.609L322.533 358.008L322.655 356.635C322.68 356.39 322.692 356.144 322.692 355.899V239.375C322.692 235.61 319.626 232.544 315.862 232.544H315.432V232.532Z" fill="#EA9292"/>
</g>
<mask id="mask4_104_21602" style="mask-type:luminance" maskUnits="userSpaceOnUse" x="70" y="70" width="339" height="339">
<path d="M359.252 359.25C425.388 293.114 425.388 185.886 359.252 119.75C293.116 53.6139 185.888 53.6139 119.752 119.75C53.6159 185.886 53.6159 293.114 119.752 359.25C185.888 425.386 293.116 425.386 359.252 359.25Z" fill="white"/>
</mask>
<g mask="url(#mask4_104_21602)">
<path d="M388.841 375.581C388.841 387.06 379.533 396.367 368.055 396.367C356.576 396.367 347.269 387.06 347.269 375.581C347.269 367.328 352.088 360.203 359.053 356.831C359.029 356.524 359.017 356.218 359.017 355.911V239.375C359.017 234.506 362.978 230.545 367.846 230.545H368.275C373.144 230.545 377.105 234.506 377.105 239.375V355.911C377.105 356.218 377.092 356.524 377.068 356.831C384.021 360.203 388.841 367.328 388.841 375.581Z" fill="#EA9292"/>
<path d="M368.054 398.354C355.496 398.354 345.281 388.139 345.281 375.581C345.281 367.328 349.855 359.639 357.029 355.642V239.375C357.029 233.415 361.886 228.559 367.845 228.559H368.275C374.234 228.559 379.091 233.415 379.091 239.375V355.642C386.265 359.639 390.839 367.328 390.839 375.581C390.827 388.139 380.611 398.354 368.054 398.354ZM367.845 232.532C364.081 232.532 361.015 235.598 361.015 239.363V355.899C361.015 356.144 361.027 356.402 361.052 356.647L361.162 358.008L359.936 358.609C353.461 361.749 349.279 368.395 349.279 375.569C349.279 385.931 357.716 394.369 368.078 394.369C378.441 394.369 386.878 385.931 386.878 375.569C386.878 368.395 382.696 361.749 376.221 358.609L374.995 358.008L375.105 356.647C375.13 356.402 375.142 356.144 375.142 355.899V239.375C375.142 235.61 372.076 232.544 368.299 232.544H367.845V232.532Z" fill="#EA9292"/>
</g>
<mask id="mask5_104_21602" style="mask-type:luminance" maskUnits="userSpaceOnUse" x="70" y="70" width="339" height="339">
<path d="M359.252 359.25C425.388 293.114 425.388 185.886 359.252 119.75C293.116 53.6139 185.888 53.6139 119.752 119.75C53.6159 185.886 53.6159 293.114 119.752 359.25C185.888 425.386 293.116 425.386 359.252 359.25Z" fill="white"/>
</mask>
<g mask="url(#mask5_104_21602)">
<path d="M441.253 375.581C441.253 387.06 431.945 396.367 420.467 396.367C408.988 396.367 399.681 387.06 399.681 375.581C399.681 367.328 404.5 360.203 411.466 356.831C411.441 356.524 411.429 356.218 411.429 355.911V239.375C411.429 234.506 415.365 230.545 420.258 230.545H420.687C425.556 230.545 429.517 234.506 429.517 239.375V355.911C429.517 356.218 429.505 356.524 429.48 356.831C436.433 360.203 441.253 367.328 441.253 375.581Z" fill="#EA9292"/>
<path d="M420.467 398.354C407.91 398.354 397.694 388.139 397.694 375.581C397.694 367.328 402.268 359.639 409.442 355.641V239.375C409.442 233.415 414.299 228.559 420.258 228.559H420.688C426.648 228.559 431.504 233.415 431.504 239.375V355.641C438.678 359.639 443.252 367.328 443.252 375.581C443.24 388.139 433.024 398.354 420.467 398.354ZM420.258 232.532C416.494 232.532 413.416 235.598 413.416 239.363V355.899C413.416 356.144 413.428 356.402 413.452 356.647L413.563 358.008L412.337 358.609C405.862 361.748 401.68 368.395 401.68 375.569C401.68 385.931 410.117 394.368 420.479 394.368C430.842 394.368 439.279 385.931 439.279 375.569C439.279 368.395 435.097 361.748 428.622 358.609L427.396 358.008L427.506 356.647C427.531 356.402 427.543 356.144 427.543 355.899V239.375C427.543 235.61 424.477 232.544 420.712 232.544H420.258V232.532Z" fill="#EA9292"/>
</g>
<mask id="mask6_104_21602" style="mask-type:luminance" maskUnits="userSpaceOnUse" x="70" y="70" width="339" height="339">
<path d="M359.252 359.25C425.388 293.114 425.388 185.886 359.252 119.75C293.116 53.6139 185.888 53.6139 119.752 119.75C53.6159 185.886 53.6159 293.114 119.752 359.25C185.888 425.386 293.116 425.386 359.252 359.25Z" fill="white"/>
</mask>
<g mask="url(#mask6_104_21602)">
<path d="M162.869 396.944H58.8775C57.4059 396.944 56.2041 395.742 56.2041 394.27V242.379C56.2041 240.908 57.4059 239.706 58.8775 239.706H162.869C164.34 239.706 165.542 240.908 165.542 242.379V394.258C165.542 395.742 164.34 396.944 162.869 396.944Z" fill="#EA9292"/>
</g>
<mask id="mask7_104_21602" style="mask-type:luminance" maskUnits="userSpaceOnUse" x="70" y="70" width="339" height="339">
<path d="M359.252 359.25C425.388 293.114 425.388 185.886 359.252 119.75C293.116 53.6139 185.888 53.6139 119.752 119.75C53.6159 185.886 53.6159 293.114 119.752 359.25C185.888 425.386 293.116 425.386 359.252 359.25Z" fill="white"/>
</mask>
<g mask="url(#mask7_104_21602)">
<path d="M175.144 237.18L155.608 237.094V252.325H165.554C165.554 252.325 165.86 245.972 168.374 242.477C170.864 238.995 175.144 237.18 175.144 237.18Z" fill="#EA9292"/>
</g>
<mask id="mask8_104_21602" style="mask-type:luminance" maskUnits="userSpaceOnUse" x="70" y="70" width="339" height="339">
<path d="M359.252 359.25C425.388 293.114 425.388 185.886 359.252 119.75C293.116 53.6139 185.888 53.6139 119.752 119.75C53.6159 185.886 53.6159 293.114 119.752 359.25C185.888 425.386 293.116 425.386 359.252 359.25Z" fill="white"/>
</mask>
<g mask="url(#mask8_104_21602)">
<path d="M182.035 141.613H58.1655C56.694 141.613 55.4922 140.411 55.4922 138.94V68.8194C55.4922 67.3478 56.694 66.146 58.1655 66.146H182.035C183.507 66.146 184.709 67.3478 184.709 68.8194V138.94C184.709 140.424 183.519 141.613 182.035 141.613Z" fill="#EA9292"/>
</g>
<path d="M165.368 231.073C165.356 231.073 165.331 231.073 165.319 231.073H73.2475C68.3545 231.073 64.3936 235.034 64.3936 239.927V380.082C64.3936 384.975 68.3545 388.936 73.2475 388.936H165.319C170.212 388.936 174.173 384.975 174.173 380.082V246.353C174.173 246.353 174.48 239.976 177.006 236.456C179.52 232.974 183.812 231.146 183.812 231.146L165.368 231.073Z" fill="#FCF9F9"/>
<path d="M95.9835 361.479C88.6625 361.479 82.7148 355.543 82.7148 348.21V286.061C82.7148 278.739 88.6502 272.792 95.9835 272.792C103.305 272.792 109.252 278.727 109.252 286.061V348.21C109.252 355.543 103.317 361.479 95.9835 361.479Z" fill="#FCF9F9"/>
<path d="M95.9827 362.999C87.8277 362.999 81.1934 356.365 81.1934 348.222V286.073C81.1934 277.918 87.8277 271.284 95.9827 271.284C104.138 271.284 110.76 277.918 110.76 286.073V348.222C110.772 356.365 104.138 362.999 95.9827 362.999ZM95.9827 274.313C89.5078 274.313 84.2346 279.586 84.2346 286.061V348.21C84.2346 354.685 89.5078 359.958 95.9827 359.958C102.458 359.958 107.731 354.685 107.731 348.21V286.061C107.731 279.586 102.458 274.313 95.9827 274.313Z" fill="#939AA0"/>
<path d="M109.253 317.135V349.547C109.253 356.144 103.305 361.479 95.9962 361.479C88.6752 361.479 82.7275 356.144 82.7275 349.547V317.135H109.253Z" fill="#FF7C76"/>
<path d="M95.9954 362.987C87.8404 362.987 81.2061 356.954 81.2061 349.547V317.135C81.2061 316.301 81.8805 315.615 82.7267 315.615H109.264C110.098 315.615 110.785 316.289 110.785 317.135V349.547C110.772 356.954 104.138 362.987 95.9954 362.987ZM84.235 318.656V349.547C84.235 355.286 89.5082 359.958 95.9709 359.958C102.458 359.958 107.731 355.286 107.731 349.547V318.656H84.235Z" fill="#DD2A1B"/>
<path d="M161.898 373.963H76.4121V376.992H161.898V373.963Z" fill="#939AA0"/>
<path d="M156.391 343.93C156.391 353.594 148.568 361.417 138.904 361.417C129.253 361.417 121.417 353.594 121.417 343.93C121.417 334.267 129.241 326.443 138.904 326.443C148.568 326.443 156.391 334.279 156.391 343.93Z" fill="#FCF9F9"/>
<path d="M138.904 362.938C128.432 362.938 119.896 354.415 119.896 343.93C119.896 333.445 128.419 324.922 138.904 324.922C149.377 324.922 157.912 333.445 157.912 343.93C157.912 354.415 149.389 362.938 138.904 362.938ZM138.904 327.964C130.099 327.964 122.938 335.125 122.938 343.93C122.938 352.735 130.099 359.897 138.904 359.897C147.709 359.897 154.871 352.735 154.871 343.93C154.871 335.125 147.709 327.964 138.904 327.964Z" fill="#939AA0"/>
<path d="M156.39 343.93C156.39 353.581 148.554 361.417 138.891 361.417C129.239 361.417 121.403 353.581 121.403 343.93H156.39Z" fill="#FCF9F9"/>
<path d="M138.903 362.938C128.43 362.938 119.907 354.415 119.907 343.942V342.422H157.923V343.942C157.911 354.415 149.388 362.938 138.903 362.938ZM123.01 345.451C123.77 353.545 130.613 359.897 138.903 359.897C147.205 359.897 154.048 353.545 154.808 345.451H123.01Z" fill="#939AA0"/>
<path d="M156.39 299.66C156.39 309.311 148.554 317.147 138.891 317.147C129.239 317.147 121.403 309.311 121.403 299.66H156.39Z" fill="#FCF9F9"/>
<path d="M138.903 318.656C128.43 318.656 119.907 310.133 119.907 299.66C119.907 298.826 120.582 298.14 121.428 298.14H156.402C157.236 298.14 157.923 298.814 157.923 299.66C157.911 310.133 149.388 318.656 138.903 318.656ZM123.01 301.181C123.77 309.275 130.613 315.627 138.903 315.627C147.205 315.627 154.048 309.275 154.808 301.181H123.01Z" fill="#939AA0"/>
<path d="M161.897 242.698H76.4111V250.694H161.897V242.698Z" fill="#939AA0"/>
<path d="M161.898 258.468H76.4121V261.497H161.898V258.468Z" fill="#939AA0"/>
<path d="M165.307 390.444H73.2476C67.533 390.444 62.873 385.796 62.873 380.07V239.914C62.873 234.2 67.5208 229.54 73.2476 229.54H136.746C137.58 229.54 138.267 230.214 138.267 231.06C138.267 231.894 137.592 232.581 136.746 232.581H73.2476C69.2008 232.581 65.9143 235.868 65.9143 239.914V380.07C65.9143 384.116 69.2008 387.403 73.2476 387.403H165.307C169.354 387.403 172.64 384.116 172.64 380.07V324.53C172.64 323.696 173.315 323.009 174.161 323.009C174.995 323.009 175.681 323.684 175.681 324.53V380.07C175.681 385.784 171.034 390.444 165.307 390.444Z" fill="#939AA0"/>
<path d="M174.172 314.168C173.338 314.168 172.651 313.493 172.651 312.647V305.032C172.651 304.198 173.326 303.511 174.172 303.511C175.006 303.511 175.693 304.185 175.693 305.032V312.647C175.68 313.493 175.006 314.168 174.172 314.168Z" fill="#939AA0"/>
<path d="M380.488 97.9686H329.682C324.667 97.9686 320.607 102.028 320.607 107.043V141.92C320.607 146.935 324.667 150.994 329.682 150.994H337.396C337.396 150.994 343.772 151.301 347.292 153.827C350.775 156.341 352.602 160.633 352.602 160.633L352.639 150.994H380.488C385.504 150.994 389.563 146.935 389.563 141.92V107.043C389.563 102.028 385.504 97.9686 380.488 97.9686Z" fill="#FCF9F9"/>
<path d="M380.488 152.503H373.461C372.627 152.503 371.941 151.828 371.941 150.982C371.941 150.148 372.615 149.462 373.461 149.462H380.488C384.645 149.462 388.042 146.077 388.042 141.908V107.031C388.042 102.862 384.658 99.4772 380.488 99.4772H341.602C340.768 99.4772 340.081 98.8027 340.081 97.9565C340.081 97.1226 340.756 96.4359 341.602 96.4359H380.488C386.325 96.4359 391.071 101.182 391.071 107.031V141.908C391.083 147.757 386.325 152.503 380.488 152.503Z" fill="#939AA0"/>
<path d="M376.477 109.422L357.985 132.109L352.062 139.504L352.013 139.541L351.988 139.504L346.065 132.109L333.691 116.719H345.648L352.025 124.678L364.472 109.422H376.477Z" fill="#81F2EF"/>
<path d="M352.013 141.037C351.632 141.037 351.264 140.914 350.982 140.644L332.514 117.663C332.146 117.21 332.073 116.584 332.33 116.057C332.588 115.53 333.115 115.198 333.704 115.198H345.66C346.126 115.198 346.555 115.407 346.85 115.763L352.062 122.25L363.319 108.441C363.613 108.086 364.043 107.877 364.496 107.877H376.502C377.091 107.877 377.618 108.221 377.875 108.748C378.121 109.275 378.047 109.901 377.679 110.354L353.263 140.436C353.165 140.559 353.043 140.669 352.908 140.755C352.626 140.951 352.319 141.037 352.013 141.037ZM336.855 118.24L352.025 137.125L356.807 131.165L373.289 110.931H365.195L353.202 125.634C352.92 125.99 352.478 126.198 352.025 126.198C351.571 126.198 351.13 125.99 350.848 125.634L344.924 118.252H336.855V118.24Z" fill="#2D918A"/>
<path d="M188.337 130.601H63.9649C62.4811 130.601 61.2793 129.399 61.2793 127.915V57.5004C61.2793 56.0166 62.4811 54.8148 63.9649 54.8148H188.337C189.821 54.8148 191.023 56.0166 191.023 57.5004V127.903C191.023 129.399 189.821 130.601 188.337 130.601Z" fill="#FCF9F9"/>
<path d="M177.987 81.8917H134.784V84.9207H177.987V81.8917Z" fill="#939AA0"/>
<path d="M177.987 104.505H134.784V107.534H177.987V104.505Z" fill="#939AA0"/>
<path d="M177.987 93.1985H134.784V96.2275H177.987V93.1985Z" fill="#939AA0"/>
<path d="M177.987 115.75H134.784V118.779H177.987V115.75Z" fill="#939AA0"/>
<path d="M178 66.563H125.207V74.5585H178V66.563Z" fill="#939AA0"/>
<path d="M123.024 83.4247V102.15H108.026V117.271H89.3245V102.15H74.3145V83.4247H89.3245V68.5618H108.026V83.4247H123.024Z" fill="#81F2EF"/>
<path d="M108.026 118.792H89.3246C88.4907 118.792 87.804 118.117 87.804 117.271V103.671H74.3146C73.4807 103.671 72.7939 102.997 72.7939 102.151V83.4248C72.7939 82.5909 73.4684 81.9042 74.3146 81.9042H87.804V68.5619C87.804 67.728 88.4785 67.0413 89.3246 67.0413H108.026C108.86 67.0413 109.547 67.7157 109.547 68.5619V81.9164H123.024C123.858 81.9164 124.544 82.5909 124.544 83.437V102.163C124.544 102.997 123.87 103.683 123.024 103.683H109.547V117.283C109.547 118.105 108.872 118.792 108.026 118.792ZM90.8453 115.75H106.518V102.151C106.518 101.317 107.192 100.63 108.038 100.63H121.515V84.9454H108.038C107.204 84.9454 106.518 84.2709 106.518 83.4248V70.0825H90.8453V83.4248C90.8453 84.2587 90.1708 84.9454 89.3246 84.9454H75.8352V100.63H89.3246C90.1585 100.63 90.8453 101.304 90.8453 102.151V115.75Z" fill="#2D918A"/>
<path d="M61.2921 113.347C60.4582 113.347 59.7715 112.673 59.7715 111.826V63.6814C59.7715 57.9668 64.4192 53.3068 70.1461 53.3068H95.9845C96.8184 53.3068 97.5051 53.9812 97.5051 54.8274C97.5051 55.6613 96.8306 56.348 95.9845 56.348H70.1461C66.0993 56.348 62.8127 59.6345 62.8127 63.6814V111.839C62.8005 112.673 62.126 113.347 61.2921 113.347Z" fill="#939AA0"/>
<path d="M173.094 56.3356H167.085C166.251 56.3356 165.564 55.6611 165.564 54.8149C165.564 53.981 166.239 53.2943 167.085 53.2943H173.094C173.928 53.2943 174.615 53.9688 174.615 54.8149C174.602 55.6611 173.928 56.3356 173.094 56.3356Z" fill="#939AA0"/>
<path d="M182.169 132.122H139.224C138.39 132.122 137.703 131.447 137.703 130.601C137.703 129.767 138.378 129.08 139.224 129.08H182.169C186.216 129.08 189.503 125.794 189.503 121.747V63.6811C189.503 59.6343 186.216 56.3478 182.169 56.3478C181.335 56.3478 180.649 55.6733 180.649 54.8272C180.649 53.9933 181.323 53.3065 182.169 53.3065C187.884 53.3065 192.544 57.9542 192.544 63.6811V121.747C192.544 127.462 187.884 132.122 182.169 132.122Z" fill="#939AA0"/>
<path d="M422.992 344.298V352.858C422.992 353.164 422.98 353.471 422.956 353.777C429.946 357.162 434.79 364.324 434.79 372.601C434.79 384.129 425.445 393.473 413.918 393.473C402.39 393.473 393.046 384.129 393.046 372.601C393.046 364.311 397.878 357.162 404.88 353.777C404.855 353.471 404.843 353.164 404.843 352.858V235.843C404.843 230.95 408.804 226.977 413.709 226.977H414.138C419.031 226.977 423.005 230.95 423.005 235.843V243.25V344.298H422.992Z" fill="#FCF9F9"/>
<path d="M413.917 394.994C401.581 394.994 391.537 384.95 391.537 372.614C391.537 364.41 396.136 356.77 403.334 352.882V352.87V235.868C403.334 230.141 407.994 225.493 413.709 225.493H414.138C419.865 225.493 424.513 230.153 424.513 235.868V243.275C424.513 244.108 423.838 244.795 422.992 244.795C422.158 244.795 421.471 244.121 421.471 243.275V235.868C421.471 231.821 418.173 228.522 414.126 228.522H413.697C409.65 228.522 406.351 231.821 406.351 235.868V352.87C406.351 353.128 406.363 353.397 406.388 353.655L406.486 354.697L405.542 355.151C398.87 358.376 394.566 365.231 394.566 372.614C394.566 383.283 403.248 391.965 413.917 391.965C424.586 391.965 433.269 383.283 433.269 372.614C433.269 365.231 428.964 358.376 422.293 355.151L421.349 354.697L421.447 353.655C421.471 353.397 421.484 353.128 421.484 352.87V344.31C421.484 343.477 422.158 342.79 423.004 342.79C423.838 342.79 424.525 343.464 424.525 344.31V352.87V352.882C431.723 356.782 436.322 364.422 436.322 372.614C436.31 384.95 426.266 394.994 413.917 394.994Z" fill="#939AA0"/>
<path d="M422.991 325.646C422.157 325.646 421.471 324.971 421.471 324.125V287.14C421.471 286.306 422.145 285.619 422.991 285.619C423.825 285.619 424.512 286.293 424.512 287.14V324.125C424.512 324.959 423.838 325.646 422.991 325.646Z" fill="#939AA0"/>
<path d="M422.991 260.443C422.157 260.443 421.471 259.768 421.471 258.922V252.631C421.471 251.797 422.145 251.111 422.991 251.111C423.825 251.111 424.512 251.785 424.512 252.631V258.922C424.512 259.768 423.838 260.443 422.991 260.443Z" fill="#939AA0"/>
<path d="M422.992 340.165V352.858C422.992 353.164 422.98 353.471 422.956 353.777C429.946 357.162 434.79 364.324 434.79 372.601C434.79 384.129 425.445 393.473 413.918 393.473C402.39 393.473 393.046 384.129 393.046 372.601C393.046 364.311 397.878 357.162 404.88 353.777C404.855 353.471 404.843 353.164 404.843 352.858V307.742H422.992V328.282V340.165Z" fill="#BCE4ED"/>
<path d="M413.917 394.994C401.581 394.994 391.537 384.95 391.537 372.614C391.537 364.41 396.136 356.77 403.334 352.882V352.87V307.754C403.334 306.92 404.009 306.233 404.855 306.233H423.004C423.838 306.233 424.525 306.908 424.525 307.754V328.295C424.525 329.129 423.85 329.815 423.004 329.815C422.17 329.815 421.484 329.141 421.484 328.295V309.262H406.363V352.87C406.363 353.127 406.376 353.397 406.4 353.655C406.461 354.28 406.118 354.881 405.554 355.151C398.883 358.376 394.578 365.231 394.578 372.614C394.578 383.282 403.261 391.965 413.93 391.965C424.598 391.965 433.281 383.282 433.281 372.614C433.281 365.231 428.976 358.376 422.305 355.151C421.741 354.881 421.398 354.28 421.459 353.655C421.484 353.397 421.496 353.127 421.496 352.87V340.178C421.496 339.344 422.17 338.657 423.017 338.657C423.85 338.657 424.537 339.331 424.537 340.178V352.87V352.882C431.736 356.782 436.334 364.422 436.334 372.614C436.31 384.95 426.266 394.994 413.917 394.994Z" fill="#6A8F9B"/>
<path d="M413.917 381.799C419.274 381.799 423.617 377.456 423.617 372.099C423.617 366.741 419.274 362.398 413.917 362.398C408.56 362.398 404.217 366.741 404.217 372.099C404.217 377.456 408.56 381.799 413.917 381.799Z" fill="#FCF9F9"/>
<path d="M352.221 284.932V235.855C352.221 230.962 356.195 226.989 361.088 226.989H361.517C366.41 226.989 370.383 230.962 370.383 235.855V352.87C370.383 353.176 370.371 353.483 370.346 353.79C377.336 357.174 382.18 364.336 382.18 372.613C382.18 384.141 372.836 393.485 361.308 393.485C349.781 393.485 340.437 384.141 340.437 372.613C340.437 364.324 345.268 357.174 352.27 353.79C352.246 353.483 352.234 353.176 352.234 352.87V307.754V284.932H352.221Z" fill="#FCF9F9"/>
<path d="M361.296 394.994C348.947 394.994 338.916 384.95 338.916 372.614C338.916 364.41 343.515 356.77 350.713 352.882V352.87V307.754H353.742V352.87C353.742 353.128 353.754 353.397 353.779 353.655L353.877 354.697L352.933 355.151C346.262 358.376 341.957 365.231 341.957 372.614C341.957 383.283 350.64 391.965 361.308 391.965C371.977 391.965 380.66 383.283 380.66 372.614C380.66 365.231 376.355 358.376 369.684 355.151L368.752 354.697L368.838 353.655C368.863 353.385 368.875 353.128 368.875 352.858V235.855C368.875 231.808 365.576 228.51 361.529 228.51H361.1C357.053 228.51 353.754 231.808 353.754 235.855V284.932H350.725V235.855C350.725 230.128 355.385 225.481 361.1 225.481H361.529C367.256 225.481 371.904 230.141 371.904 235.855V352.858V352.87C379.102 356.77 383.701 364.41 383.701 372.601C383.689 384.95 373.645 394.994 361.296 394.994Z" fill="#939AA0"/>
<path d="M352.22 289.752V254.777H370.369V352.858C370.369 353.164 370.357 353.471 370.333 353.777C377.323 357.162 382.167 364.324 382.167 372.601C382.167 384.129 372.822 393.473 361.295 393.473C349.767 393.473 340.423 384.129 340.423 372.601C340.423 364.311 345.255 357.162 352.257 353.777C352.232 353.471 352.22 353.164 352.22 352.858V304.382V289.752Z" fill="#FF7769"/>
<path d="M361.296 394.994C348.947 394.994 338.916 384.95 338.916 372.614C338.916 364.41 343.515 356.77 350.713 352.882V352.87V304.406C350.713 303.572 351.388 302.886 352.234 302.886C353.08 302.886 353.754 303.56 353.754 304.406V352.87C353.754 353.127 353.767 353.397 353.791 353.655C353.852 354.28 353.509 354.881 352.945 355.151C346.274 358.376 341.97 365.231 341.97 372.614C341.97 383.283 350.652 391.965 361.321 391.965C371.99 391.965 380.672 383.283 380.672 372.614C380.672 365.231 376.368 358.376 369.696 355.151C369.132 354.881 368.789 354.28 368.85 353.655C368.875 353.385 368.887 353.128 368.887 352.858V256.286H353.779V289.739C353.779 290.573 353.104 291.26 352.258 291.26C351.412 291.26 350.738 290.586 350.738 289.739V254.765C350.738 253.931 351.412 253.244 352.258 253.244H370.408C371.242 253.244 371.928 253.919 371.928 254.765V352.845V352.858C379.127 356.757 383.725 364.397 383.725 372.589C383.689 384.95 373.645 394.994 361.296 394.994Z" fill="#DD2A1B"/>
<path d="M374.088 375.373C373.401 376.942 372.285 378.193 370.912 379.027L370.347 379.346L361.322 384.509L352.284 379.346L351.708 379.027C350.346 378.193 349.218 376.93 348.531 375.373C346.766 371.277 348.642 366.507 352.725 364.741C355.718 363.453 359.041 364.078 361.31 366.114C363.59 364.078 366.914 363.453 369.894 364.741C373.99 366.507 375.866 371.265 374.088 375.373Z" fill="#FCF9F9"/>
<path d="M299.601 241.19V235.855C299.601 230.962 303.575 226.989 308.467 226.989H308.897C313.79 226.989 317.763 230.962 317.763 235.855V352.87C317.763 353.176 317.751 353.483 317.726 353.79C324.716 357.174 329.56 364.336 329.56 372.613C329.56 384.141 320.216 393.485 308.688 393.485C297.161 393.485 287.816 384.141 287.816 372.613C287.816 364.324 292.648 357.174 299.65 353.79C299.626 353.483 299.614 353.176 299.614 352.87V271.553V241.19H299.601Z" fill="#FCF9F9"/>
<path d="M308.676 394.994C296.339 394.994 286.296 384.95 286.296 372.614C286.296 364.41 290.895 356.77 298.093 352.882V352.87V271.553C298.093 270.719 298.767 270.033 299.614 270.033C300.448 270.033 301.134 270.707 301.134 271.553V352.87C301.134 353.14 301.147 353.397 301.171 353.667C301.22 354.293 300.889 354.881 300.325 355.163C293.654 358.388 289.349 365.244 289.349 372.626C289.349 383.295 298.032 391.977 308.701 391.977C319.37 391.977 328.052 383.295 328.052 372.626C328.052 365.244 323.747 358.388 317.076 355.163C316.512 354.893 316.169 354.293 316.23 353.667C316.255 353.41 316.267 353.14 316.267 352.882V235.88C316.267 231.833 312.968 228.534 308.921 228.534H308.492C304.445 228.534 301.147 231.833 301.147 235.88V241.214C301.147 242.048 300.472 242.735 299.626 242.735C298.792 242.735 298.105 242.06 298.105 241.214V235.88C298.105 230.153 302.765 225.505 308.48 225.505H308.909C314.636 225.505 319.284 230.165 319.284 235.88V352.882V352.895C326.482 356.794 331.081 364.434 331.081 372.626C331.069 384.95 321.025 394.994 308.676 394.994Z" fill="#939AA0"/>
<path d="M329.546 372.601C329.546 384.129 320.202 393.473 308.675 393.473C297.147 393.473 287.803 384.129 287.803 372.601C287.803 368.297 289.103 364.311 291.335 360.988C293.407 357.91 296.264 355.408 299.637 353.777C299.612 353.471 299.6 353.164 299.6 352.858V313.174V288.464H317.749V352.858C317.749 353.164 317.737 353.471 317.713 353.777C324.715 357.162 329.546 364.311 329.546 372.601Z" fill="#81F2EF"/>
<path d="M308.676 394.994C296.339 394.994 286.296 384.95 286.296 372.614C286.296 368.15 287.608 363.845 290.085 360.154C292.121 357.113 294.88 354.611 298.093 352.882V352.87V288.476C298.093 287.642 298.767 286.956 299.614 286.956H317.763C318.597 286.956 319.284 287.63 319.284 288.476V352.87V352.882C326.482 356.782 331.081 364.422 331.081 372.614C331.069 384.95 321.025 394.994 308.676 394.994ZM301.122 289.972V352.858C301.122 353.128 301.134 353.385 301.159 353.655C301.208 354.28 300.877 354.869 300.313 355.151C297.198 356.659 294.537 358.965 292.611 361.847C290.465 365.035 289.337 368.763 289.337 372.614C289.337 383.283 298.019 391.965 308.688 391.965C319.357 391.965 328.04 383.283 328.04 372.614C328.04 365.231 323.735 358.376 317.064 355.151C316.5 354.881 316.157 354.28 316.218 353.655C316.242 353.397 316.255 353.127 316.255 352.87V289.985H301.122V289.972Z" fill="#2D918A"/>
<path d="M317.689 375.52C317.689 380.499 313.654 384.521 308.688 384.521C303.709 384.521 299.687 380.487 299.687 375.52C299.687 373.607 300.287 371.829 301.305 370.37L301.747 369.781L308.688 362.411L315.629 369.781L316.07 370.37C317.088 371.829 317.689 373.607 317.689 375.52Z" fill="#FCF9F9"/>
<path d="M273.835 91.4201C274.19 95.6754 262.945 105.204 261.069 112.844C259.205 120.508 261.743 126.444 257.5 130.871C253.245 135.298 242.588 138.376 238.161 136.156C233.734 133.949 223.482 86.3064 223.482 86.3064C223.482 86.3064 223.372 86.1102 223.188 85.73C222.55 84.3933 220.981 80.9597 220.416 77.6731C220.367 77.3788 220.318 77.0845 220.282 76.7902C220.098 75.2083 220.171 73.6876 220.76 72.5226C222.967 68.0956 228.498 69.6163 228.498 69.6163C228.498 69.6163 228.486 69.5672 228.473 69.4814C228.473 69.4814 228.473 69.4691 228.473 69.4569C228.387 69.0276 228.191 67.8013 228.204 66.3175C228.216 65.4223 228.314 64.4412 228.535 63.4602C228.547 63.3989 228.559 63.3253 228.571 63.264C228.878 62.099 229.381 60.983 230.239 60.1124C233.33 56.8749 251.197 55.342 256.642 60.1124C262.087 64.8704 261.069 71.8482 261.069 71.8482C261.069 71.8482 264.981 71.3331 268.733 74.3989C270.058 75.478 270.438 77.1826 270.389 78.9608C270.291 82.2105 268.733 85.6319 268.733 85.6319C268.733 85.6319 273.516 87.5817 273.835 91.4201Z" fill="#773128"/>
<path d="M370.174 212.715C368.138 214.076 358.61 212.935 354.06 211.611C349.535 210.274 340.46 203.873 340.46 203.873L281.144 192.836L278.311 192.309L262.442 186.631L206.192 182.327L134.293 195.926C134.293 195.926 130.663 198.416 127.033 202.279C123.403 206.129 113.887 209.637 110.036 211.39C109.092 211.819 106.505 211.55 106.873 210.103C107.093 209.22 108.356 207.809 106.247 209.171C105.364 209.735 103.635 208.288 104.518 206.755C105.303 205.381 104.69 205.614 103.77 206.191C102.58 206.926 100.704 204.915 102.2 203.125C102.85 202.352 103.525 201.236 101.992 202.144C100.324 203.125 98.7543 201.825 100.03 199.544C101.182 197.484 102.114 196.564 103.684 195.227C106.738 192.628 114.341 189.795 114.341 189.795C114.341 189.795 111.851 188.201 109.816 187.293C107.768 186.386 107.768 182.989 109.816 182.989C111.851 182.989 115.702 183.663 120.472 184.571C125.23 185.478 132.944 188.875 132.944 188.875L228.891 143.968V133.311L228.719 133.262C228.498 133.201 228.069 133.066 227.456 132.808L227.394 132.784C225.8 132.109 223.066 130.699 219.828 127.989C218.81 127.13 218.013 125.953 217.388 124.506C213.427 115.309 216.824 95.7368 219.374 87.496C222.318 77.9675 231.27 75.0244 238.431 75.6988C246.034 76.4224 249.296 77.4893 254.054 83.1426C258.813 88.8204 256.237 106.541 256.237 106.541C256.237 106.541 259.524 106.455 261.572 108.049C263.362 109.435 265.3 114.266 263.509 117.896C263.252 118.424 262.908 118.926 262.479 119.392C259.082 123.022 254.079 121.968 254.079 121.968C254.079 121.968 253.122 127.719 250.228 130.184C246.194 133.618 241.154 134.206 241.154 134.206L240.933 144.495L247.248 147.732L341.65 196.159C341.65 196.159 347.536 192.959 352.748 192.051C357.972 191.144 373.62 194.087 375.668 195.902C377.654 197.729 372.21 211.353 370.174 212.715Z" fill="#F9AA8F"/>
<path d="M378.336 181.869L365.061 175.722L352.632 202.561L365.907 208.709L378.336 181.869Z" fill="#FCF9F9"/>
<path d="M365.918 210.152C365.722 210.152 365.513 210.115 365.317 210.017L352.036 203.873C351.693 203.714 351.435 203.432 351.3 203.076C351.178 202.72 351.19 202.328 351.349 201.997L363.784 175.153C363.944 174.81 364.226 174.552 364.581 174.417C364.937 174.294 365.329 174.307 365.66 174.466L378.941 180.622C379.653 180.953 379.959 181.787 379.628 182.498L367.193 209.342C366.96 209.845 366.445 210.152 365.918 210.152ZM354.513 201.886L365.219 206.841L376.464 182.572L365.758 177.618L354.513 201.886Z" fill="#6A8F9B"/>
<path d="M341.601 196.172C341.601 196.172 345.108 192.002 348.419 190.592C353.631 188.36 356.451 189.194 361.43 188.385C365.685 187.686 367.782 191.193 361.822 192.235C356.464 193.179 354.563 196.441 351.816 199.52C349.057 202.647 341.601 196.172 341.601 196.172Z" fill="#F9AA8F"/>
<path d="M373.914 192.75C371.302 189.918 369.769 191.451 369.941 193.351C370.027 194.296 368.543 193.094 367.513 194.001C366.495 194.909 367.047 196.932 367.047 196.932C367.047 196.932 365.968 196.491 365.171 197.055C364.374 197.619 364.03 200.795 365.171 201.703C366.299 202.61 364.239 201.053 363.944 202.23C363.687 203.248 363.724 204.069 366.152 206.963C368.58 209.858 363.81 211.672 363.81 211.672C363.81 211.672 369.941 213.254 371.192 211.672C372.443 210.091 378.108 200.893 377.434 198.637C376.747 196.38 373.914 192.75 373.914 192.75Z" fill="#F9AA8F"/>
<path d="M340.46 203.861L281.144 192.824V178.341L290.01 175.116L292.377 190.592L340.46 203.861Z" fill="#D87360"/>
<path d="M134.292 195.927L185.773 179.702V186.177L134.292 195.927Z" fill="#CC6148"/>
<path d="M290.587 170.002L288.146 191.095L287.19 199.397L268.378 198.416C268.378 198.416 268.783 219.962 268.329 256.261C268.304 258.395 268.268 260.762 268.219 263.325C268.133 263.349 268.01 263.374 267.814 263.435C266.109 263.925 263.816 264.477 260.922 265.029C260.542 265.09 260.149 265.176 259.745 265.238C259.696 265.25 259.647 265.262 259.61 265.262C254.643 266.133 248.046 266.93 239.621 267.285C236.715 267.408 233.6 267.469 230.24 267.469C226.916 267.469 224.071 267.408 221.607 267.273C213.893 266.856 209.907 265.777 206.646 263.987C205.714 246.512 204.904 227.21 204.365 213.512C204.352 213.389 204.352 213.328 204.352 213.328C203.923 202.524 203.678 195.24 203.678 195.24H182.585L181.347 166.213L223.409 146.469C223.409 146.469 226.622 157.432 233.845 157.678C244.048 158.009 248.855 148.1 248.855 148.1L290.587 170.002Z" fill="#FCF9F9"/>
<path d="M215.229 404.927C207.332 412.604 213.353 420.611 222.17 416.16C230.251 412.076 232.532 410.016 234.985 407.257C237.438 404.498 239.498 394.54 231.257 394.503C228.498 394.503 222.207 398.158 215.229 404.927Z" fill="#1E5259"/>
<path d="M258.432 412.248C269.027 423.285 277.722 415.105 273.087 407.539C265.716 395.521 263.852 396.478 258.616 393.78C253.649 391.217 251.761 390.616 251.552 391.707C250.167 399.31 249.701 403.149 258.432 412.248Z" fill="#1E5259"/>
<path d="M268.219 263.325C267.483 304.394 264.478 396.428 264.478 396.428L250.645 398.918L241.092 289.96L236.42 291.186L236.813 398.01H223.434C223.434 398.01 209.834 307.57 207.332 274.459C207.075 271.075 206.854 267.568 206.67 263.987C208.411 264.943 210.386 265.704 213.01 266.268C213.01 266.268 213.12 266.292 213.317 266.329C213.648 266.39 214.016 266.464 214.383 266.538C214.408 266.538 214.445 266.538 214.482 266.55C218.185 267.163 223.115 267.47 230.276 267.47C233.575 267.47 236.666 267.408 239.535 267.286C254.373 266.672 263.571 264.661 268.219 263.325Z" fill="#6A8F9B"/>
<path d="M226.131 102.249C225.874 103.794 225.064 104.946 224.329 104.824C223.593 104.701 223.2 103.352 223.458 101.807C223.716 100.262 224.525 99.1092 225.261 99.2318C225.996 99.3545 226.389 100.703 226.131 102.249Z" fill="#773128"/>
<path d="M243.705 102.249C243.447 103.794 242.638 104.946 241.902 104.824C241.166 104.701 240.762 103.352 241.019 101.807C241.277 100.262 242.086 99.1092 242.822 99.2318C243.57 99.3545 243.962 100.703 243.705 102.249Z" fill="#773128"/>
<path d="M222.44 93.0021C222.44 93.0021 224.672 91.8249 226.377 91.6654C228.069 91.506 230.473 91.5673 230.473 91.5673C230.473 91.5673 231.184 89.8627 230.436 89.3722C229.676 88.8817 226.046 89.3109 224.709 90.1939C223.36 91.0645 222.44 93.0021 222.44 93.0021Z" fill="#773128"/>
<path d="M241.999 89.7033C240.687 89.9241 240.65 92.389 240.65 92.389C240.65 92.389 244.035 92.4012 245.752 93.3577C247.469 94.3143 248.989 95.7736 248.989 95.7736C248.989 95.7736 247.64 91.8126 245.973 90.7702C244.415 89.7769 242.98 89.5439 241.999 89.7033Z" fill="#773128"/>
<path d="M228.068 111.826H236.8C236.8 111.826 235.156 116.363 233.513 116.645C231.87 116.94 228.068 111.826 228.068 111.826Z" fill="#FCF9F9"/>
<path d="M231.697 107.522C231.575 107.522 231.464 107.497 231.354 107.423C229.87 106.541 229.331 105.363 229.588 103.573C229.784 102.285 230.753 101.574 231.612 100.936C232.016 100.642 232.384 100.36 232.678 100.041C233.255 99.3911 233.476 97.4658 233.476 96.3989C233.476 96.031 233.77 95.7367 234.138 95.7367C234.506 95.7367 234.8 96.031 234.8 96.3989C234.8 96.73 234.763 99.6977 233.672 100.924C233.292 101.341 232.838 101.672 232.409 102.003C231.661 102.555 231.023 103.021 230.913 103.757C230.729 105.008 231.023 105.658 232.041 106.258C232.36 106.442 232.458 106.859 232.274 107.166C232.151 107.399 231.93 107.522 231.697 107.522Z" fill="#CC6148"/>
<path d="M253.821 115.358C253.662 115.358 253.502 115.297 253.38 115.186C253.11 114.941 253.085 114.524 253.318 114.254C253.392 114.168 255.121 112.28 259.156 112.635C259.524 112.672 259.793 112.991 259.757 113.359C259.72 113.727 259.413 114.009 259.033 113.96C255.722 113.653 254.373 115.076 254.312 115.137C254.189 115.284 254.005 115.358 253.821 115.358Z" fill="#CC6148"/>
<path d="M263.926 116.658C263.669 117.185 262.859 118.939 262.43 119.405C259.033 123.035 254.03 121.98 254.03 121.98C254.03 121.98 253.073 127.731 250.179 130.196C246.145 133.63 241.105 134.219 241.105 134.219L240.884 144.507L248.646 148.481L238.149 145.844L237.377 135.641L228.866 133.311L228.694 133.262L227.431 132.808L227.37 132.784C225.776 132.109 223.041 130.699 219.804 127.989C218.786 127.13 217.989 125.953 217.363 124.506C217.363 124.506 219.448 130.711 232.447 130.454C243.57 130.233 249.664 127.731 252.117 123.783C253.245 121.992 253.368 120.606 253.368 120.606C253.368 120.606 260.235 121.072 263.926 116.658Z" fill="#CC6148"/>
<path d="M270.378 78.9731C269.127 81.1559 267.263 82.1247 265.767 82.1738C263.621 82.2106 259.978 80.6409 258.568 77.3176C257.477 74.6933 256.949 74.5706 255.135 75.1347C252.388 76.0667 245.263 78.1269 238.015 77.1214C236.36 76.9252 235.146 76.3978 234.214 75.7847C229.64 76.2262 224.906 78.2496 221.828 82.5417C221.264 81.0824 220.736 79.341 220.454 77.6855C220.369 77.4034 220.332 77.1214 220.295 76.7903C220.136 75.2083 220.209 73.7122 220.786 72.5472C223.017 68.1325 228.511 69.6286 228.511 69.6286C228.511 69.6286 228.511 69.5918 228.511 69.506C228.511 69.506 228.511 69.506 228.511 69.4692C228.425 69.0277 228.229 67.8137 228.229 66.3544C228.229 65.4224 228.315 64.4536 228.548 63.4848L228.671 63.8895C228.671 63.681 228.634 63.4848 228.585 63.2763C228.904 62.099 229.394 61.0076 230.289 60.1247C233.367 56.8872 251.21 55.3543 256.68 60.1247C262.149 64.895 261.168 70.5238 261.168 70.5238C261.168 70.5238 265.055 69.8003 268.82 72.8293C270.096 73.9207 270.451 77.1949 270.378 78.9731Z" fill="#A54D3C"/>
<path d="M205.752 176.588C195.427 176.588 187.026 168.187 187.026 157.862C187.026 147.536 195.427 139.136 205.752 139.136C216.078 139.136 224.478 147.536 224.478 157.862C224.478 168.187 216.078 176.588 205.752 176.588ZM205.752 142.165C197.107 142.165 190.068 149.204 190.068 157.862C190.068 166.507 197.107 173.546 205.752 173.546C214.41 173.546 221.449 166.507 221.449 157.862C221.449 149.204 214.41 142.165 205.752 142.165Z" fill="#DD2A1B"/>
<path d="M215.636 157.862C215.636 163.319 211.209 167.734 205.764 167.734C200.307 167.734 195.893 163.307 195.893 157.862C195.893 152.405 200.32 147.99 205.764 147.99C211.209 147.99 215.636 152.405 215.636 157.862Z" fill="#DD2A1B"/>
<path d="M205.752 169.757C199.191 169.757 193.856 164.423 193.856 157.862C193.856 151.301 199.191 145.967 205.752 145.967C212.312 145.967 217.659 151.301 217.659 157.862C217.659 164.423 212.312 169.757 205.752 169.757ZM205.752 150.014C201.423 150.014 197.903 153.533 197.903 157.862C197.903 162.191 201.423 165.71 205.752 165.71C210.081 165.71 213.612 162.191 213.612 157.862C213.612 153.533 210.081 150.014 205.752 150.014Z" fill="#DD2A1B"/>
<path d="M220.16 382.191C209.835 382.191 201.435 373.791 201.435 363.465C201.435 353.14 209.835 344.74 220.16 344.74C230.486 344.74 238.886 353.14 238.886 363.465C238.886 373.791 230.486 382.191 220.16 382.191ZM220.16 347.781C211.515 347.781 204.476 354.82 204.476 363.478C204.476 372.123 211.515 379.162 220.16 379.162C228.818 379.162 235.857 372.123 235.857 363.478C235.845 354.82 228.806 347.781 220.16 347.781Z" fill="#DD2A1B"/>
<path d="M230.033 363.465C230.033 368.923 225.606 373.337 220.161 373.337C214.704 373.337 210.289 368.91 210.289 363.465C210.289 358.008 214.716 353.594 220.161 353.594C225.618 353.594 230.033 358.008 230.033 363.465Z" fill="#DD2A1B"/>
<path d="M220.161 375.373C213.6 375.373 208.266 370.038 208.266 363.478C208.266 356.917 213.6 351.582 220.161 351.582C226.722 351.582 232.056 356.917 232.056 363.478C232.056 370.026 226.722 375.373 220.161 375.373ZM220.161 355.617C215.832 355.617 212.312 359.136 212.312 363.465C212.312 367.794 215.832 371.314 220.161 371.314C224.49 371.314 228.009 367.794 228.009 363.465C228.009 359.136 224.49 355.617 220.161 355.617Z" fill="#DD2A1B"/>
<path d="M257.551 256.997C247.225 256.997 238.825 248.597 238.825 238.271C238.825 227.946 247.225 219.546 257.551 219.546C267.877 219.546 276.277 227.946 276.277 238.271C276.277 248.597 267.877 256.997 257.551 256.997ZM257.551 222.575C248.905 222.575 241.866 229.614 241.866 238.271C241.866 246.917 248.905 253.956 257.551 253.956C266.209 253.956 273.248 246.917 273.248 238.271C273.248 229.614 266.209 222.575 257.551 222.575Z" fill="#DD2A1B"/>
<path d="M267.434 238.271C267.434 243.728 263.007 248.143 257.562 248.143C252.105 248.143 247.69 243.716 247.69 238.271C247.69 232.814 252.117 228.399 257.562 228.399C263.007 228.387 267.434 232.814 267.434 238.271Z" fill="#DD2A1B"/>
<path d="M257.55 250.166C250.989 250.166 245.654 244.832 245.654 238.271C245.654 231.71 250.989 226.376 257.55 226.376C264.11 226.376 269.457 231.71 269.457 238.271C269.457 244.832 264.11 250.166 257.55 250.166ZM257.55 230.411C253.221 230.411 249.701 233.93 249.701 238.259C249.701 242.588 253.221 246.107 257.55 246.107C261.878 246.107 265.41 242.588 265.41 238.259C265.41 233.942 261.878 230.411 257.55 230.411Z" fill="#DD2A1B"/>
<path d="M50.9525 293.811C53.0588 293.811 54.7663 292.103 54.7663 289.997C54.7663 287.891 53.0588 286.183 50.9525 286.183C48.8462 286.183 47.1387 287.891 47.1387 289.997C47.1387 292.103 48.8462 293.811 50.9525 293.811Z" fill="#FCD9D9"/>
<path d="M37.1444 300.752C37.1444 301.684 36.3841 302.444 35.4521 302.444C34.5201 302.444 33.7598 301.684 33.7598 300.752C33.7598 299.82 34.5201 299.059 35.4521 299.059C36.3841 299.059 37.1444 299.82 37.1444 300.752Z" fill="#FCD9D9"/>
<path d="M53.2346 258.395C53.2346 259.241 52.5479 259.916 51.714 259.916C50.8678 259.916 50.1934 259.229 50.1934 258.395C50.1934 257.549 50.8801 256.874 51.714 256.874C52.5479 256.874 53.2346 257.561 53.2346 258.395Z" fill="#FCD9D9"/>
<path d="M73.6036 157.776C73.6036 160.081 71.7396 161.945 69.4341 161.945C67.1286 161.945 65.2646 160.081 65.2646 157.776C65.2646 155.47 67.1286 153.606 69.4341 153.606C71.7396 153.606 73.6036 155.483 73.6036 157.776Z" fill="#FCD9D9"/>
<path d="M55.0741 134.329C55.0741 135.678 53.9827 136.769 52.6337 136.769C51.2848 136.769 50.1934 135.678 50.1934 134.329C50.1934 132.98 51.2848 131.889 52.6337 131.889C53.9827 131.889 55.0741 132.98 55.0741 134.329Z" fill="#FCD9D9"/>
<path d="M322.802 72.8416C322.802 74.35 321.576 75.5763 320.068 75.5763C318.559 75.5763 317.333 74.35 317.333 72.8416C317.333 71.3332 318.559 70.1069 320.068 70.1069C321.576 70.1192 322.802 71.3332 322.802 72.8416Z" fill="#FCD9D9"/>
<path d="M324.911 412.935C324.911 415.191 323.084 417.018 320.828 417.018C318.571 417.018 316.744 415.191 316.744 412.935C316.744 410.678 318.571 408.851 320.828 408.851C323.084 408.851 324.911 410.678 324.911 412.935Z" fill="#FCD9D9"/>
<path d="M339.173 396.698C339.173 398.17 337.983 399.36 336.512 399.36C335.04 399.36 333.851 398.17 333.851 396.698C333.851 395.227 335.04 394.037 336.512 394.037C337.983 394.037 339.173 395.227 339.173 396.698Z" fill="#FCD9D9"/>
<path d="M434.789 303.511C436.475 303.511 437.842 302.144 437.842 300.457C437.842 298.771 436.475 297.404 434.789 297.404C433.102 297.404 431.735 298.771 431.735 300.457C431.735 302.144 433.102 303.511 434.789 303.511Z" fill="#FCD9D9"/>
<path d="M428.742 258.922C428.742 260.161 429.748 261.154 430.974 261.154C432.213 261.154 433.206 260.149 433.206 258.922C433.206 257.684 432.2 256.69 430.974 256.69C429.735 256.69 428.742 257.696 428.742 258.922Z" fill="#FCF9F9"/>
<path d="M295.21 126.284C295.21 124.285 296.829 122.654 298.84 122.654C300.839 122.654 302.47 124.273 302.47 126.284C302.47 128.295 300.851 129.914 298.84 129.914C296.829 129.914 295.21 128.283 295.21 126.284Z" fill="#FCF9F9"/>
<path d="M295.208 105.658C295.208 106.737 294.338 107.608 293.258 107.608C292.179 107.608 291.309 106.737 291.309 105.658C291.309 104.579 292.179 103.708 293.258 103.708C294.338 103.708 295.208 104.579 295.208 105.658Z" fill="#FCF9F9"/>
<path d="M125.635 171.989C127.356 171.989 128.75 170.594 128.75 168.874C128.75 167.154 127.356 165.759 125.635 165.759C123.915 165.759 122.521 167.154 122.521 168.874C122.521 170.594 123.915 171.989 125.635 171.989Z" fill="#FCF9F9"/>
<path d="M383.186 296.092C383.186 298.189 384.89 299.893 386.987 299.893C389.084 299.893 390.789 298.189 390.789 296.092C390.789 293.995 389.084 292.29 386.987 292.29C384.89 292.278 383.186 293.982 383.186 296.092Z" fill="#FCF9F9"/>
<path d="M390.788 267.261C390.788 268.328 391.647 269.186 392.713 269.186C393.78 269.186 394.639 268.328 394.639 267.261C394.639 266.194 393.78 265.336 392.713 265.336C391.659 265.336 390.788 266.206 390.788 267.261Z" fill="#FCF9F9"/>
<path d="M136.746 155.716C136.746 156.464 136.145 157.065 135.397 157.065C134.649 157.065 134.048 156.464 134.048 155.716C134.048 154.968 134.649 154.367 135.397 154.367C136.145 154.367 136.746 154.968 136.746 155.716Z" fill="#FCF9F9"/>
<path d="M158.734 217.792C158.734 218.822 157.9 219.656 156.87 219.656C155.84 219.656 155.006 218.822 155.006 217.792C155.006 216.762 155.84 215.928 156.87 215.928C157.9 215.928 158.734 216.762 158.734 217.792Z" fill="#FCF9F9"/>
<path d="M155.005 399.556C155.005 400.88 153.926 401.959 152.602 401.959C151.277 401.959 150.198 400.88 150.198 399.556C150.198 398.231 151.277 397.152 152.602 397.152C153.926 397.152 155.005 398.231 155.005 399.556Z" fill="#FCD9D9"/>
</svg>
