<svg width="390" height="291" viewBox="0 0 390 291" fill="none" xmlns="http://www.w3.org/2000/svg">
<path d="M198.502 383C304.263 383 390 297.263 390 191.5C390 85.7375 304.263 0 198.502 0C92.7405 0 7.00391 85.7375 7.00391 191.5C7.00391 297.263 92.7405 383 198.502 383Z" fill="url(#paint0_linear_104_26971)"/>
<path d="M69.2692 172.729C66.2875 189.489 60.3842 205.728 51.8994 220.497" stroke="#DA6B5C" stroke-miterlimit="10"/>
<path d="M45.8061 230.203C50.8989 229.472 53.2403 225.81 54.3209 222.008C55.4115 218.176 55.3114 214.243 56.242 212.342C55.3114 214.263 52.0196 216.435 49.3681 219.156C46.6966 221.908 44.6054 225.18 45.8061 230.203Z" fill="#DA6B5C"/>
<path d="M56.2423 212.342C54.8215 215.234 52.4001 218.536 49.2283 220.697C46.0765 222.878 42.2144 223.889 38.082 222.518C38.082 222.518 39.1726 220.977 40.9737 219.356C42.7947 217.745 45.3361 216.014 48.4479 215.704C51.5897 215.414 53.5207 214.524 54.7014 213.773C55.2917 213.393 55.682 213.033 55.9121 212.763C56.1522 212.502 56.2423 212.342 56.2423 212.342Z" fill="#DA6B5C"/>
<path d="M56.2419 212.342C54.8211 215.244 53.4503 219.036 53.02 222.928C52.6198 226.831 53.1601 230.893 55.8917 234.335C55.8917 234.335 57.0923 232.484 57.9028 229.842C58.7333 227.211 59.1635 223.799 57.8027 220.877C56.482 217.966 56.0417 215.844 56.0017 214.443C55.9817 213.743 56.0417 213.223 56.1018 212.873C56.1718 212.512 56.2419 212.342 56.2419 212.342Z" fill="#DA6B5C"/>
<path d="M62.9252 109.843C60.1737 135.128 51.2586 159.692 37.2207 180.894" stroke="#DA6B5C" stroke-miterlimit="10"/>
<path d="M27.0156 194.612C33.2391 193.031 37.1513 187.888 39.5127 182.595C41.874 177.252 42.8345 171.859 44.3154 169.067C42.8145 171.889 38.5621 175.351 34.75 179.433C30.8978 183.535 27.3658 188.168 27.0156 194.612Z" fill="#DA6B5C"/>
<path d="M44.325 169.057C43.7747 170.128 43.1043 171.218 42.3639 172.319C41.6234 173.42 40.843 174.54 39.9825 175.631C38.2015 177.772 36.2904 179.863 34.1092 181.524C33.0286 182.355 31.968 183.135 30.8273 183.756C29.6867 184.376 28.5461 184.876 27.4054 185.246C25.1541 185.997 22.8128 186.097 20.6416 185.467C20.6416 185.467 21.0919 184.916 21.8823 184.086C22.6828 183.255 23.7334 182.075 25.0641 180.874C27.6956 178.463 31.1175 175.761 34.6995 174.87C38.3516 174.02 40.7029 172.499 42.2338 171.288C42.9942 170.678 43.5145 170.118 43.8347 169.718C44.1849 169.307 44.325 169.057 44.325 169.057Z" fill="#DA6B5C"/>
<path d="M44.3257 169.057C43.7654 170.128 43.175 171.258 42.5647 172.439C41.9643 173.62 41.394 174.87 40.8237 176.151C39.633 178.663 38.6225 181.384 37.752 184.016C37.3217 185.336 37.0115 186.697 36.7214 187.988C36.4412 189.289 36.2511 190.579 36.1811 191.83C36.071 194.362 36.3412 196.713 37.3617 198.804C37.3617 198.804 37.862 198.164 38.6125 197.073C39.3629 195.993 40.2634 194.402 41.1839 192.611C42.9849 188.999 44.4858 184.346 43.7854 180.554C43.145 176.802 43.205 173.91 43.5452 171.999C43.7153 171.038 43.9154 170.308 44.0655 169.808C44.1956 169.317 44.3257 169.057 44.3257 169.057Z" fill="#DA6B5C"/>
<path d="M112.883 221.137C119.116 235.025 122.788 250.054 123.689 265.252" stroke="#DA6B5C" stroke-miterlimit="10"/>
<path d="M123.879 275.498C127.741 272.477 127.711 268.554 126.55 265.183C125.379 261.781 123.178 258.909 122.928 257.038C123.178 258.939 121.587 262.191 120.847 265.523C120.086 268.875 120.116 272.307 123.879 275.498Z" fill="#DA6B5C"/>
<path d="M122.929 257.028C123.299 259.889 123.049 263.551 121.558 266.723C120.097 269.905 117.416 272.526 113.203 273.507C113.203 273.507 113.273 271.846 113.904 269.775C114.544 267.704 115.745 265.192 118.196 263.421C120.677 261.65 121.818 260.029 122.408 258.869C122.698 258.288 122.829 257.828 122.879 257.518C122.939 257.198 122.929 257.028 122.929 257.028Z" fill="#DA6B5C"/>
<path d="M122.929 257.028C123.289 259.889 124.199 263.391 125.95 266.513C127.741 269.625 130.403 272.416 134.575 273.687C134.575 273.687 134.565 271.696 133.815 269.295C133.074 266.893 131.584 264.112 128.862 262.601C126.171 261.09 124.66 259.729 123.869 258.709C123.479 258.198 123.239 257.778 123.099 257.488C122.959 257.198 122.929 257.028 122.929 257.028Z" fill="#DA6B5C"/>
<path d="M328.795 168.697C331.406 190.349 338.66 211.412 349.907 230.092" stroke="#DA6B5C" stroke-miterlimit="10"/>
<path d="M358.071 242.279C358.511 236.426 355.7 232.314 352.418 228.721C349.186 225.159 345.404 222.178 344.203 219.726C345.404 222.158 345.814 226.94 347.525 231.673C349.246 236.376 352.378 240.949 358.071 242.279Z" fill="#DA6B5C"/>
<path d="M344.203 219.726C345.094 221.587 346.114 223.679 346.925 225.94C347.815 228.161 348.525 230.563 349.066 232.914C349.566 235.295 349.856 237.667 349.706 239.938C349.536 242.219 348.996 244.37 347.785 246.282C347.785 246.282 347.385 245.711 346.804 244.731C346.224 243.76 345.534 242.349 344.863 240.738C343.553 237.517 342.592 233.364 343.643 229.952C344.643 226.57 344.843 224.009 344.703 222.308C344.633 221.457 344.503 220.807 344.403 220.377C344.303 219.946 344.203 219.726 344.203 219.726Z" fill="#DA6B5C"/>
<path d="M344.203 219.726C345.094 221.587 346.374 223.549 347.785 225.46C349.276 227.331 350.917 229.152 352.808 230.593C354.649 232.063 356.7 233.184 358.781 233.784C360.853 234.405 363.034 234.455 365.165 233.844C365.165 233.844 364.805 233.354 364.154 232.614C363.504 231.873 362.624 230.833 361.493 229.782C359.262 227.671 356.27 225.33 352.908 224.629C349.496 223.959 347.355 222.678 345.994 221.637C345.314 221.117 344.864 220.637 344.593 220.287C344.323 219.936 344.203 219.726 344.203 219.726Z" fill="#DA6B5C"/>
<path d="M334.248 131.596C337.5 144.773 344.304 157.04 353.719 166.816" stroke="#DA6B5C" stroke-miterlimit="10"/>
<path d="M360.423 172.989C360.713 168.276 358.532 166.315 355.82 164.885C353.149 163.464 349.917 162.623 348.866 161.272C349.897 162.593 350.227 165.925 351.708 168.857C353.179 171.748 355.88 174.17 360.423 172.989Z" fill="#DA6B5C"/>
<path d="M348.866 161.262C349.647 162.293 350.497 163.454 351.197 164.814C351.948 166.135 352.548 167.646 353.008 169.227C353.879 172.419 354.029 176.101 352.198 180.033C352.198 180.033 351.848 179.723 351.348 179.163C350.837 178.602 350.217 177.752 349.617 176.741C348.436 174.7 347.535 171.859 348.396 168.947C349.226 166.065 349.406 164.144 349.286 162.963C349.226 162.373 349.126 161.953 349.036 161.673C348.956 161.393 348.866 161.262 348.866 161.262Z" fill="#DA6B5C"/>
<path d="M348.866 161.262C349.647 162.283 350.727 163.274 351.928 164.164C353.179 165.005 354.569 165.745 356.13 166.115C357.651 166.525 359.322 166.586 360.993 166.225C362.654 165.885 364.385 165.065 366.056 163.744C366.056 163.744 365.786 163.524 365.285 163.234C364.785 162.943 364.115 162.533 363.234 162.203C361.493 161.523 359.102 160.992 356.28 161.713C353.429 162.473 351.578 162.293 350.417 162.003C349.837 161.863 349.447 161.663 349.206 161.513C348.966 161.383 348.866 161.262 348.866 161.262Z" fill="#DA6B5C"/>
<path d="M277.035 214.904C268.561 225.129 262.637 237.437 259.886 250.434" stroke="#DA6B5C" stroke-miterlimit="10"/>
<path d="M258.526 259.259C262.608 256.958 263.008 254.096 262.668 251.094C262.338 248.143 261.187 245.051 261.698 243.46C261.197 245.031 258.666 247.122 257.085 249.924C255.514 252.675 255.014 256.177 258.526 259.259Z" fill="#DA6B5C"/>
<path d="M261.697 243.45C260.957 245.861 259.616 248.713 257.505 251.174C255.353 253.616 252.392 255.727 248.109 256.347C248.109 256.347 248.35 254.546 249.39 252.485C250.421 250.434 252.252 248.163 255.133 247.282C257.975 246.382 259.656 245.471 260.556 244.731C261.007 244.36 261.297 244.04 261.467 243.82C261.637 243.59 261.697 243.45 261.697 243.45Z" fill="#DA6B5C"/>
<path d="M261.697 243.45C260.957 245.851 260.717 249.073 261.827 252.015C262.888 254.957 265.269 257.548 269.331 258.859C269.331 258.859 269.431 257.498 269.041 255.697C268.631 253.896 267.73 251.635 265.539 249.734C263.308 247.822 262.397 246.222 261.967 245.121C261.757 244.571 261.687 244.15 261.677 243.87C261.657 243.6 261.697 243.45 261.697 243.45Z" fill="#DA6B5C"/>
<path d="M114.005 94.1068C135.217 105.593 149.645 88.9338 198.302 88.9338C246.96 88.9338 261.388 105.593 282.6 94.1068L282.14 103.972C270.723 110.196 255.625 167.489 237.875 186.27C233.302 191.113 230.941 197.676 231.581 204.3C232.051 209.163 233.452 214.896 236.704 220.82C239.836 226.513 241.167 233.037 240.296 239.47C238.705 251.217 234.143 272.579 221.465 308.34H175.149C162.472 272.579 157.91 251.207 156.319 239.47C155.448 233.037 156.779 226.513 159.911 220.82C163.163 214.896 164.563 209.163 165.034 204.3C165.674 197.676 163.313 191.103 158.74 186.27C140.99 167.499 125.882 110.206 114.475 103.972L114.005 94.1068Z" fill="#EFB9AD"/>
<path d="M149.785 120.882C166.425 129.157 173.118 177.164 189.848 186.65C193.46 188.691 195.801 192.413 195.801 196.556C195.801 208.082 189.758 203.69 195.801 220.339V225.332C195.801 227.974 192.779 229.444 190.678 227.834C188.617 226.263 186.016 224.632 183.034 223.501C179.752 222.26 176.46 225.312 177.471 228.674C178.701 232.746 178.061 237.149 175.73 240.701C173.829 243.593 173.038 247.065 173.499 250.487L181.263 308.33H215.322L223.087 250.487C223.547 247.065 222.756 243.593 220.855 240.701C218.524 237.149 217.884 232.746 219.114 228.674C220.135 225.312 216.843 222.26 213.551 223.501C210.569 224.632 207.968 226.263 205.907 227.834C203.806 229.434 200.784 227.974 200.784 225.332V220.339C206.827 203.69 200.784 208.082 200.784 196.556C200.784 192.403 203.125 188.691 206.737 186.65C223.467 177.164 230.16 129.157 246.8 120.882" fill="#E1806A"/>
<path d="M197.872 185.339C187.006 185.339 175.269 158.914 177.07 154.632C178.871 150.349 193.659 154.982 200.113 165.098C200.113 165.098 211.249 152.731 218.223 154.982C225.197 157.233 205.886 185.339 197.872 185.339Z" fill="#BE5F5A"/>
<path d="M207.838 151.06C207.047 151.81 203.415 154.071 200.604 158.274C200.724 157.093 201.114 155.212 201.714 153.501C205.416 142.425 210.019 148.908 207.838 151.06Z" fill="#BE5F5A"/>
<path d="M196.911 153.861C194.139 150.249 191.468 148.608 190.757 147.788C188.786 145.467 195.78 139.003 196.911 153.861Z" fill="#BE5F5A"/>
<path d="M63.7959 111.884C73.1612 148.355 75.2223 185.366 70.5697 221.127" stroke="#588B7E" stroke-miterlimit="10"/>
<path d="M67.9188 237.767C56.4223 207.469 68.9994 196.563 72.1812 181.755C73.9522 173.22 71.6309 173.24 73.7221 181.745C77.134 196.073 88.8906 213.403 67.9188 237.767Z" fill="#588B7E"/>
<path d="M72.0406 161.233C73.3013 175.511 63.6859 198.474 45.4756 204.938C43.9747 198.684 48.5273 190.539 53.0198 185.417C63.7959 173.049 72.841 173.49 72.0406 161.233Z" fill="#588B7E"/>
<path d="M72.041 161.233C73.2317 174.81 83.3874 199.235 98.616 209.19C101.648 201.256 97.9056 184.816 78.2245 172.649C74.1322 170.138 72.2111 163.764 72.041 161.233Z" fill="#588B7E"/>
<path d="M68.9291 135.988C71.2104 149.766 64.3565 173.58 46.2964 181.865C45.3458 179.233 45.9362 174.951 46.7166 172.199C52.81 151.837 71.3505 151.347 68.9291 135.988Z" fill="#588B7E"/>
<path d="M68.9297 135.988C71.1609 149.546 83.8681 172.99 99.597 181.414C100.187 179.193 100.187 174.51 98.5764 169.858C91.5224 148.325 71.311 151.067 68.9297 135.988Z" fill="#588B7E"/>
<path d="M58.4834 88.3708C77.0839 121.7 124.02 123.261 161.662 113.886" stroke="#588B7E" stroke-width="0.75" stroke-miterlimit="10"/>
<path d="M178.38 108.873C153.236 131.976 130.283 120.099 114.604 118.848C131.584 120.209 139.849 106.141 178.38 108.873Z" fill="#588B7E"/>
<path d="M100.177 116.337C100.267 116.357 140.009 126.703 150.695 136.619C144.382 139.24 127.582 139.25 114.795 126.453C112.654 124.311 109.432 118.388 100.177 116.337Z" fill="#588B7E"/>
<path d="M100.177 116.337C119.448 120.519 138.819 110.163 143.971 97.2059C133.996 96.7457 123.35 104.67 115.946 111.374C112.824 114.206 109.832 118.478 100.177 116.337Z" fill="#588B7E"/>
<path d="M75.7227 106.841C75.8127 106.901 126.882 138.6 119.848 139.26C105.93 140.331 91.2314 130.985 84.9979 116.077C83.5771 112.605 78.8744 108.892 75.7227 106.841Z" fill="#588B7E"/>
<path d="M75.7227 106.841C84.6777 113.105 109.412 114.706 119.627 101.809C122.059 98.7268 121.378 99.137 120.788 99.027C100.717 94.8946 89.2703 115.707 75.7227 106.841Z" fill="#588B7E"/>
<path d="M332.808 111.884C323.442 148.355 321.381 185.366 326.034 221.127" stroke="#588B7E" stroke-miterlimit="10"/>
<path d="M328.676 237.767C340.172 207.469 327.595 196.563 324.413 181.755C322.642 173.22 324.964 173.24 322.872 181.745C319.46 196.073 307.704 213.403 328.676 237.767Z" fill="#588B7E"/>
<path d="M324.553 161.233C323.293 175.511 332.908 198.474 351.118 204.938C352.619 198.684 348.067 190.539 343.574 185.417C332.808 173.049 323.763 173.49 324.553 161.233Z" fill="#588B7E"/>
<path d="M324.553 161.233C323.362 174.81 313.207 199.235 297.978 209.19C294.946 201.256 298.688 184.816 318.369 172.649C322.462 170.138 324.393 163.764 324.553 161.233Z" fill="#588B7E"/>
<path d="M327.666 135.988C325.384 149.766 332.238 173.58 350.298 181.865C351.249 179.233 350.658 174.951 349.878 172.199C343.795 151.837 325.244 151.347 327.666 135.988Z" fill="#588B7E"/>
<path d="M327.665 135.988C325.434 149.546 312.727 172.99 296.998 181.414C296.408 179.193 296.408 174.51 298.019 169.858C305.083 148.325 325.294 151.067 327.665 135.988Z" fill="#588B7E"/>
<path d="M338.111 88.3708C319.51 121.7 272.574 123.261 234.933 113.886" stroke="#588B7E" stroke-width="0.75" stroke-miterlimit="10"/>
<path d="M218.223 108.873C243.367 131.976 266.32 120.099 281.999 118.848C265.019 120.209 256.754 106.141 218.223 108.873Z" fill="#588B7E"/>
<path d="M296.417 116.337C296.327 116.357 256.584 126.703 245.898 136.619C252.212 139.24 269.011 139.25 281.799 126.453C283.95 124.311 287.162 118.388 296.417 116.337Z" fill="#588B7E"/>
<path d="M296.417 116.337C277.146 120.519 257.775 110.163 252.622 97.2059C262.598 96.7457 273.244 104.67 280.648 111.374C283.78 114.206 286.761 118.478 296.417 116.337Z" fill="#588B7E"/>
<path d="M320.87 106.841C320.78 106.901 269.711 138.6 276.745 139.26C290.663 140.331 305.361 130.985 311.595 116.077C313.016 112.605 317.728 108.892 320.87 106.841Z" fill="#588B7E"/>
<path d="M320.871 106.841C311.916 113.105 287.182 114.706 276.966 101.809C274.535 98.7268 275.215 99.137 275.805 99.027C295.887 94.8946 307.333 115.707 320.871 106.841Z" fill="#588B7E"/>
<path d="M93.7012 190.612C103.717 198.777 113.823 205.18 127.53 205.671" stroke="#BE5F5A" stroke-miterlimit="10"/>
<path d="M129.652 205.661C129.772 206.581 128.901 207.372 127.681 207.352C126.45 207.302 125.419 206.501 125.389 205.571C125.359 204.65 126.27 203.95 127.401 204C128.531 204.02 129.532 204.73 129.652 205.661Z" fill="#BE5F5A" stroke="#BE5F5A" stroke-miterlimit="10"/>
<path d="M95.6025 194.374C106.539 204.12 115.524 215.206 123.768 227.263" stroke="#BE5F5A" stroke-miterlimit="10"/>
<path d="M125.21 229.555C124.35 229.885 123.029 229.134 122.248 227.914C121.448 226.703 121.478 225.402 122.288 225.012C123.099 224.622 124.42 225.332 125.27 226.613C126.101 227.894 126.071 229.224 125.21 229.555Z" fill="#BE5F5A" stroke="#BE5F5A" stroke-miterlimit="10"/>
<path d="M98.7148 194.244C108.29 203.52 117.415 209.333 130.213 213.636" stroke="#BE5F5A" stroke-miterlimit="10"/>
<path d="M132.333 214.126C132.273 215.046 131.253 215.597 130.042 215.297C128.831 214.976 127.951 213.976 128.091 213.075C128.231 212.175 129.271 211.705 130.392 211.995C131.523 212.275 132.383 213.205 132.333 214.126Z" fill="#BE5F5A" stroke="#BE5F5A" stroke-miterlimit="10"/>
<path d="M98.8145 197.216C105.378 205.911 111.532 214.916 117.295 224.182" stroke="#BE5F5A" stroke-miterlimit="10"/>
<path d="M118.365 225.913C117.515 226.243 116.344 225.732 115.764 224.792C115.174 223.851 115.384 222.811 116.214 222.451C117.045 222.09 118.195 222.581 118.816 223.541C119.416 224.522 119.226 225.582 118.365 225.913Z" fill="#BE5F5A" stroke="#BE5F5A" stroke-miterlimit="10"/>
<path d="M96.083 190.902C108.33 198.187 122.498 204.13 137.636 200.278" stroke="#BE5F5A" stroke-miterlimit="10"/>
<path d="M139.988 199.647C140.248 200.518 139.408 201.548 138.057 201.879C136.696 202.179 135.416 201.668 135.236 200.758C135.056 199.867 135.966 198.937 137.247 198.667C138.517 198.367 139.728 198.777 139.988 199.647Z" fill="#BE5F5A" stroke="#BE5F5A" stroke-miterlimit="10"/>
<path d="M95.043 191.913C107.05 203.73 119.036 215.567 131.053 227.373" stroke="#BE5F5A" stroke-miterlimit="10"/>
<path d="M133.334 229.605C132.684 230.195 131.133 229.675 129.892 228.444C128.642 227.233 128.161 225.742 128.802 225.142C129.442 224.542 130.953 225.052 132.224 226.283C133.474 227.533 133.985 229.014 133.334 229.605Z" fill="#BE5F5A" stroke="#BE5F5A" stroke-miterlimit="10"/>
<path d="M89.3996 231.646C89.4196 231.636 89.4496 231.626 89.4797 231.626C94.1723 230.205 95.393 224.902 92.9616 219.619C90.7004 214.716 88.1589 209.293 85.4274 204.42C90.1801 210.894 92.7315 214.056 98.2046 220.189C100.916 223.231 105.149 224.072 107.54 222.13C107.6 222.08 107.66 222.03 107.72 221.98C115.484 215.056 103.438 197.866 103.438 197.866C103.438 197.866 121.488 206.501 125.78 196.276C125.81 196.205 125.84 196.135 125.87 196.065C127.061 193.194 125.87 189.822 123.159 188.321C117.706 185.299 115.014 183.638 109.751 180.006C113.803 181.977 118.416 183.218 122.508 183.848C126.921 184.539 130.943 181.447 132.114 177.085C132.124 177.065 132.124 177.034 132.134 177.014C134.265 169.1 129.352 162.736 121.578 163.537C118.756 163.827 117.335 163.937 114.434 164.067C95.413 163.787 76.0421 159.164 63.2549 144.966C67.4973 164.407 66.1865 185.759 66.947 205.691C67.1071 209.253 67.2371 211.044 67.5773 214.676C69.3483 224.622 79.454 233.967 89.3996 231.646Z" fill="#BE5F5A"/>
<path d="M76.9524 206.411C76.9724 206.411 76.9924 206.401 77.0024 206.401C80.4343 205.761 81.8851 202.259 80.6945 198.477C79.5938 194.965 78.2831 191.063 76.7322 187.531C79.5838 192.283 81.1047 194.635 84.3265 199.257C85.9274 201.549 88.799 202.479 90.7001 201.358C90.7501 201.328 90.7901 201.298 90.8402 201.278C96.5034 197.906 90.1098 184.249 90.1098 184.249C90.1098 184.249 103.017 190.892 106.439 185.289C106.469 185.239 106.499 185.199 106.529 185.149C107.67 183.268 107.079 180.747 105.218 179.386C101.446 176.644 99.5851 175.193 95.9431 172.142C98.7947 173.903 102.097 175.233 105.068 176.134C108.27 177.105 111.512 175.404 112.693 172.402C112.703 172.382 112.703 172.372 112.713 172.352C114.844 166.899 111.312 161.466 105.458 161.265C103.337 161.195 102.267 161.135 100.115 160.965C86.3777 159.014 72.6399 155.352 63.2246 144.946C66.0762 158.584 64.3452 173.502 63.5448 187.46C63.3947 189.902 63.3447 191.133 63.2846 193.614C63.1346 200.488 70.7288 207.562 76.9524 206.411Z" fill="#DA6B5C"/>
<path d="M114.004 94.107C105.529 89.2442 98.2149 85.0518 91.6112 82.7905C88.6395 81.7699 85.5278 81.1996 82.366 81.0695C71.9201 80.6693 61.9945 85.5421 55.791 94.097C49.4074 102.902 47.8465 114.229 51.6087 124.384L57.9022 141.384C61.4742 151.03 63.3953 168.75 60.0434 182.168C60.0434 182.168 77.3532 179.786 74.2814 161.606C74.2814 161.606 83.7368 166.058 93.7024 157.954C93.7024 157.954 70.4893 151.38 66.0668 139.433L59.4231 121.493C56.6315 113.948 57.7921 105.534 62.5348 98.9898C67.1674 92.5961 74.2914 89.1141 82.0358 89.4043C84.3871 89.4943 86.6984 89.9246 88.8997 90.675C94.753 92.6862 101.747 96.6885 109.851 101.341C130.603 113.238 159.019 129.527 198.291 129.527V121.183C161.24 121.193 133.935 105.534 114.004 94.107Z" fill="#E1806A"/>
<path d="M302.89 190.612C292.874 198.777 282.768 205.18 269.061 205.671" stroke="#BE5F5A" stroke-miterlimit="10"/>
<path d="M266.94 205.661C266.82 206.581 267.69 207.372 268.911 207.352C270.142 207.302 271.172 206.501 271.202 205.571C271.232 204.65 270.322 203.95 269.191 204C268.06 204.02 267.07 204.73 266.94 205.661Z" fill="#BE5F5A" stroke="#BE5F5A" stroke-miterlimit="10"/>
<path d="M300.999 194.374C290.063 204.12 281.078 215.206 272.833 227.263" stroke="#BE5F5A" stroke-miterlimit="10"/>
<path d="M271.382 229.555C272.242 229.885 273.563 229.134 274.343 227.914C275.144 226.703 275.114 225.402 274.303 225.012C273.493 224.622 272.172 225.332 271.322 226.613C270.501 227.894 270.531 229.224 271.382 229.555Z" fill="#BE5F5A" stroke="#BE5F5A" stroke-miterlimit="10"/>
<path d="M297.887 194.244C288.312 203.52 279.187 209.333 266.39 213.636" stroke="#BE5F5A" stroke-miterlimit="10"/>
<path d="M264.269 214.126C264.329 215.046 265.349 215.597 266.56 215.297C267.771 214.976 268.651 213.976 268.511 213.075C268.371 212.175 267.33 211.705 266.21 211.995C265.069 212.275 264.209 213.205 264.269 214.126Z" fill="#BE5F5A" stroke="#BE5F5A" stroke-miterlimit="10"/>
<path d="M297.777 197.216C291.214 205.911 285.06 214.916 279.297 224.182" stroke="#BE5F5A" stroke-miterlimit="10"/>
<path d="M278.226 225.913C279.076 226.243 280.247 225.732 280.827 224.792C281.418 223.851 281.208 222.811 280.377 222.451C279.547 222.09 278.396 222.581 277.776 223.541C277.175 224.522 277.376 225.582 278.226 225.913Z" fill="#BE5F5A" stroke="#BE5F5A" stroke-miterlimit="10"/>
<path d="M300.519 190.902C288.272 198.187 274.104 204.13 258.966 200.278" stroke="#BE5F5A" stroke-miterlimit="10"/>
<path d="M256.604 199.647C256.344 200.518 257.184 201.548 258.535 201.879C259.896 202.179 261.176 201.668 261.356 200.758C261.537 199.867 260.626 198.937 259.345 198.667C258.085 198.367 256.874 198.777 256.604 199.647Z" fill="#BE5F5A" stroke="#BE5F5A" stroke-miterlimit="10"/>
<path d="M301.549 191.913C289.543 203.73 277.556 215.567 265.539 227.373" stroke="#BE5F5A" stroke-miterlimit="10"/>
<path d="M263.258 229.605C263.908 230.195 265.459 229.675 266.7 228.444C267.951 227.233 268.431 225.742 267.791 225.142C267.15 224.542 265.639 225.052 264.369 226.283C263.118 227.533 262.608 229.014 263.258 229.605Z" fill="#BE5F5A" stroke="#BE5F5A" stroke-miterlimit="10"/>
<path d="M307.192 231.646C307.172 231.636 307.142 231.626 307.112 231.626C302.42 230.205 301.199 224.902 303.63 219.619C305.892 214.716 308.433 209.293 311.164 204.42C306.412 210.894 303.86 214.056 298.387 220.189C295.676 223.231 291.443 224.072 289.052 222.13C288.992 222.08 288.932 222.03 288.872 221.98C281.108 215.056 293.154 197.866 293.154 197.866C293.154 197.866 275.104 206.501 270.812 196.276C270.782 196.205 270.752 196.135 270.722 196.065C269.531 193.194 270.722 189.822 273.433 188.321C278.886 185.299 281.578 183.638 286.841 180.006C282.788 181.977 278.176 183.218 274.084 183.848C269.671 184.539 265.649 181.447 264.478 177.085C264.468 177.065 264.468 177.034 264.458 177.014C262.327 169.1 267.24 162.736 275.014 163.537C277.836 163.827 279.256 163.937 282.158 164.067C301.179 163.787 320.55 159.164 333.337 144.966C329.095 164.407 330.405 185.759 329.645 205.691C329.485 209.253 329.355 211.044 329.015 214.676C327.244 224.622 317.148 233.967 307.192 231.646Z" fill="#BE5F5A"/>
<path d="M319.64 206.411C319.62 206.411 319.6 206.401 319.59 206.401C316.158 205.761 314.707 202.259 315.898 198.477C316.998 194.965 318.309 191.063 319.86 187.531C317.008 192.283 315.488 194.635 312.266 199.257C310.665 201.549 307.793 202.479 305.892 201.358C305.842 201.328 305.802 201.298 305.752 201.278C300.089 197.906 306.483 184.249 306.483 184.249C306.483 184.249 293.575 190.892 290.153 185.289C290.123 185.239 290.093 185.199 290.063 185.149C288.923 183.268 289.513 180.747 291.374 179.386C295.146 176.644 297.007 175.193 300.649 172.142C297.798 173.903 294.496 175.233 291.524 176.134C288.322 177.105 285.08 175.404 283.9 172.402C283.89 172.382 283.89 172.372 283.88 172.352C281.749 166.899 285.281 161.466 291.134 161.265C293.255 161.195 294.326 161.135 296.477 160.965C310.215 159.014 323.952 155.352 333.368 144.946C330.516 158.584 332.247 173.502 333.048 187.46C333.198 189.902 333.248 191.133 333.308 193.614C333.458 200.488 325.863 207.562 319.64 206.411Z" fill="#DA6B5C"/>
<path d="M282.599 94.107C291.074 89.2442 298.388 85.0518 304.992 82.7905C307.963 81.7699 311.075 81.1996 314.237 81.0695C324.683 80.6693 334.608 85.5421 340.812 94.097C347.196 102.902 348.756 114.229 344.994 124.384L338.701 141.384C335.129 151.03 333.208 168.75 336.56 182.168C336.56 182.168 319.25 179.786 322.321 161.606C322.321 161.606 312.866 166.058 302.901 157.954C302.901 157.954 326.114 151.38 330.536 139.433L337.18 121.483C339.971 113.938 338.811 105.524 334.068 98.9798C329.435 92.5861 322.311 89.1041 314.567 89.3943C312.216 89.4843 309.904 89.9146 307.703 90.665C301.85 92.6762 294.856 96.6785 286.751 101.331C266 113.228 237.584 129.517 198.312 129.517V121.173C235.352 121.193 262.658 105.534 282.599 94.107Z" fill="#E1806A"/>
<path d="M149.784 120.882C149.784 120.882 175.829 129.537 198.302 129.537C220.774 129.537 246.819 120.882 246.819 120.882" fill="#E1806A"/>
<path d="M83.6875 167.756C105.19 203.797 136.437 232.544 172.738 250.874" stroke="#BBC494" stroke-miterlimit="10"/>
<path d="M189.937 258.648C150.034 262.36 143.471 233.544 129.993 222.478C145.862 235.505 163.662 226.66 189.937 258.648Z" fill="#BBC494"/>
<path d="M118.307 211.771C127.112 220.617 144.631 246.171 145.122 266.043C139.769 264.472 131.154 257.468 126.801 245.441C120.958 229.011 128.542 221.667 118.307 211.771Z" fill="#BBC494"/>
<path d="M118.307 211.771C129.373 222.928 155.638 231.473 172.597 220.366C167.935 215.304 157.999 213.613 150.985 213.763C132.855 214.053 128.092 221.237 118.307 211.771Z" fill="#BBC494"/>
<path d="M99.2861 190.549C106.52 199.675 121.138 228.371 118.857 247.822C111.213 244.19 102.458 232.213 102.378 215.504C102.348 205.248 106.54 199.494 99.2861 190.549Z" fill="#BBC494"/>
<path d="M99.2861 190.549C108.832 202.636 133.085 215.003 152.036 206.088C147.013 198.404 132.465 196.213 122.689 196.293C112.434 196.363 106.49 199.444 99.2861 190.549Z" fill="#BBC494"/>
<path d="M282.83 196.813C281.909 198.764 269.952 206.669 268.121 207.919C263.809 210.991 257.505 215.154 253.703 230.032C255.284 230.382 257.795 230.592 260.737 230.322C284.43 227.641 282.079 198.364 282.83 196.813Z" fill="#689484"/>
<path d="M253.703 230.032C257.645 230.913 262.968 230.512 267.541 228.601C284.16 221.447 282.049 198.424 282.83 196.813C276.806 210.501 266.49 222.268 253.703 230.032Z" fill="#BBC494"/>
<path d="M341.202 84.7686C336.119 89.7914 321.151 84.7886 304.281 101.058C307.063 103.759 311.575 105.861 316.238 106.261C333.988 107.542 340.832 85.1388 341.202 84.7686Z" fill="#689484"/>
<path d="M304.281 101.058C312.656 109.213 328.085 108.572 336.73 94.0239C339.591 89.4813 340.572 85.3989 341.202 84.7686C331.947 95.0945 318.149 101.188 304.281 101.058Z" fill="#BBC494"/>
<path d="M54.0405 87.3501C53.9004 90.4019 41.9437 107.562 39.4923 116.747C37.6413 123.781 39.002 131.946 40.9131 138.99C41.7136 141.851 41.1632 141.691 43.8548 140.27C73.5315 124.902 53.8804 90.5719 54.0405 87.3501Z" fill="#689484"/>
<path d="M41.6338 141.331C56.122 135.538 64.1665 121.58 58.2432 100.258C49.6683 68.0992 60.4444 99.6973 41.6338 141.331Z" fill="#BBC494"/>
<path d="M345.585 110.934C345.735 112.175 337.541 130.495 353.109 136.108C354.5 136.629 354.24 136.739 354.45 135.298C354.92 131.816 355.13 127.794 353.88 124.502C352.359 120.549 345.765 112.465 345.585 110.934Z" fill="#689484"/>
<path d="M354.25 136.479C357.502 121.59 346.085 115.146 345.585 110.934C346.455 119.959 349.447 128.774 354.25 136.479Z" fill="#BBC494"/>
<path d="M236.323 71.9813C237.524 71.2209 261.357 70.2203 265.6 52.17C266.66 47.3572 266.09 42.0441 264.369 38.262C241.866 49.3783 242.537 68.1691 236.323 71.9813Z" fill="#689484"/>
<path d="M264.369 38.272C241.867 49.3784 242.537 68.1792 236.313 71.9913C249.291 64.5671 259.436 52.3701 264.369 38.272Z" fill="#BBC494"/>
<path d="M127.091 83.5478C126.11 83.1976 115.884 71.1907 102.727 72.4314C96.3933 72.9617 90.2798 77.5744 87.5783 83.0175C86.5277 85.0487 86.4477 84.6184 88.5588 85.1888C110.381 90.6619 106.129 85.3989 123.699 83.5378C125.43 83.3777 126.67 83.3977 127.091 83.5478Z" fill="#689484"/>
<path d="M86.8281 84.6786C101.026 89.4113 106.179 87.4402 110.622 86.3295C113.203 85.5791 124.579 82.6674 127.101 83.5479C114.334 78.1748 99.2651 78.5951 86.8281 84.6786Z" fill="#BBC494"/>
<path d="M145.032 73.402C140.609 70.2702 139.248 52.1999 119.187 50.7791C118.387 71.641 142.971 71.9312 145.032 73.402Z" fill="#689484"/>
<path d="M119.187 50.7791C118.387 71.651 142.971 71.9412 145.032 73.402C135.586 66.8783 126.901 59.2739 119.187 50.7791Z" fill="#BBC494"/>
<path d="M188.896 66.4182C214.331 31.108 186.795 25.0045 183.023 42.6546C171.466 28.7966 149.944 47.0171 188.896 66.4182Z" fill="#BE5F5A"/>
<path d="M210.309 41.4837C235.193 30.2072 222.106 18.2804 214.541 26.7152C212.57 15.5588 195.16 18.7506 210.309 41.4837Z" fill="#BE5F5A"/>
<path d="M346.515 261.28C346.515 262.751 345.325 263.942 343.854 263.942C342.383 263.942 341.192 262.751 341.192 261.28C341.192 259.809 343.854 256.147 343.854 256.147C343.854 256.147 346.515 259.809 346.515 261.28Z" fill="#BE5F5A"/>
<path d="M354.27 261.28C354.27 262.751 353.08 263.942 351.609 263.942C350.138 263.942 348.947 262.751 348.947 261.28C348.947 259.809 351.609 256.147 351.609 256.147C351.609 256.147 354.27 259.809 354.27 261.28Z" fill="#BE5F5A"/>
<path d="M362.034 261.28C362.034 262.751 360.843 263.942 359.372 263.942C357.902 263.942 356.711 262.751 356.711 261.28C356.711 259.809 359.372 256.147 359.372 256.147C359.372 256.147 362.034 259.809 362.034 261.28Z" fill="#BE5F5A"/>
<path d="M369.799 261.28C369.799 262.751 368.608 263.942 367.137 263.942C365.666 263.942 364.476 262.751 364.476 261.28C364.476 259.809 367.137 256.147 367.137 256.147C367.137 256.147 369.799 259.809 369.799 261.28Z" fill="#EFB9AD"/>
<path d="M377.553 261.28C377.553 262.751 376.362 263.942 374.891 263.942C373.42 263.942 372.229 262.751 372.229 261.28C372.229 259.809 374.891 256.147 374.891 256.147C374.891 256.147 377.553 259.809 377.553 261.28Z" fill="#EFB9AD"/>
<path d="M298.096 281.748C303.389 268.58 312.834 257.123 324.761 249.419" stroke="#BE5F5A" stroke-miterlimit="10"/>
<path d="M326.962 248.048C327.583 249.109 327.122 250.529 325.962 251.27C324.821 252.04 323.31 251.85 322.61 250.85C321.899 249.849 322.32 248.368 323.56 247.548C324.811 246.747 326.352 246.997 326.962 248.048Z" fill="#BE5F5A" stroke="#BE5F5A" stroke-miterlimit="10"/>
<path d="M296.646 275.624C298.607 264.608 299.057 253.321 297.976 242.185" stroke="#BE5F5A" stroke-miterlimit="10"/>
<path d="M297.756 240.154C298.967 240.014 300.067 240.824 300.178 241.975C300.278 243.125 299.377 244.126 298.156 244.226C296.936 244.316 295.865 243.506 295.765 242.405C295.655 241.294 296.546 240.294 297.756 240.154Z" fill="#BE5F5A" stroke="#BE5F5A" stroke-miterlimit="10"/>
<path d="M298.227 281.067C300.388 266.949 306.561 253.471 315.857 242.625" stroke="#BE5F5A" stroke-miterlimit="10"/>
<path d="M317.588 240.684C318.488 241.524 318.448 243.025 317.538 244.076C316.647 245.146 315.146 245.397 314.186 244.636C313.225 243.876 313.215 242.335 314.166 241.184C315.146 240.064 316.697 239.853 317.588 240.684Z" fill="#BE5F5A" stroke="#BE5F5A" stroke-miterlimit="10"/>
<path d="M303.97 269.521C304.29 269.2 306.271 268.5 308.602 267.93C310.934 267.319 313.555 266.889 315.466 266.039C317.367 265.178 318.908 263.697 320.169 262.426C320.789 261.806 321.32 261.196 321.7 260.775C322.08 260.345 322.29 260.065 322.29 260.065C322.29 260.065 322.01 259.865 321.5 259.585C320.989 259.295 320.239 258.954 319.298 258.654C317.447 258.074 314.756 257.874 312.284 258.984C309.803 260.075 307.552 262.577 306.221 264.878C304.85 267.169 304.3 269.21 303.97 269.521Z" fill="#689484"/>
<path d="M322.3 260.075C322.3 260.075 322.02 259.875 321.51 259.595C320.999 259.305 320.249 258.964 319.308 258.664C317.457 258.084 314.766 257.884 312.294 258.994C309.813 260.085 307.562 262.587 306.231 264.888C304.85 267.179 304.3 269.22 303.97 269.531C308.792 264.438 315.366 261.046 322.3 260.075Z" fill="#BBC494"/>
<path d="M287.89 258.754C287.78 258.354 288.221 256.483 288.341 254.102C288.481 251.73 288.261 248.829 287.24 246.718C286.229 244.606 284.398 243.155 282.858 242.335C281.307 241.505 280.066 241.244 280.066 241.244C280.066 241.244 279.846 242.505 279.826 244.176C279.806 245.857 279.956 247.928 280.836 249.789C281.727 251.64 283.468 253.551 284.979 255.242C286.5 256.913 287.78 258.344 287.89 258.754Z" fill="#689484"/>
<path d="M280.076 241.244C280.076 241.244 279.856 242.505 279.836 244.176C279.816 245.857 279.966 247.928 280.846 249.789C281.737 251.64 283.478 253.551 284.989 255.242C286.499 256.923 287.78 258.354 287.9 258.754C286.279 252.541 283.628 246.597 280.076 241.244Z" fill="#BBC494"/>
<path d="M325.192 280.387C315.996 308.653 297.106 327.844 282.998 323.261C268.89 318.669 264.908 292.034 274.103 263.767L325.192 280.387Z" fill="#F0B478"/>
<path d="M278.576 320.84C264.228 309.123 277.605 270.491 284.379 272.692C291.373 274.974 303.86 279.026 323.431 285.4C324.052 283.769 324.642 282.098 325.202 280.387L274.114 263.767C265.959 288.802 268.16 312.545 278.576 320.84Z" fill="#E8A569"/>
<path d="M323.461 283.889L273.442 267.62C271.411 266.959 270.301 264.778 270.961 262.747C271.621 260.716 273.803 259.605 275.834 260.265L325.852 276.535C327.883 277.195 328.994 279.376 328.333 281.407C327.673 283.439 325.492 284.549 323.461 283.889Z" fill="#F0B478"/>
<path d="M301.219 294.425C300.839 294.825 299.108 295.926 297.667 297.387C296.216 298.807 295.125 300.508 295.125 300.508C295.125 300.508 294.975 298.507 295.446 296.246C295.866 293.995 296.986 291.623 297.507 291.083C298.527 289.972 299.728 290.453 300.638 291.473C301.559 292.504 301.969 293.604 301.219 294.425Z" fill="#DA6B5C"/>
<path d="M112.503 266.153H108.061V270.595H112.503V266.153Z" fill="#EFB9AD"/>
<path d="M119.236 266.153H114.794V270.595H119.236V266.153Z" fill="#EFB9AD"/>
<path d="M125.971 266.153H121.528V270.595H125.971V266.153Z" fill="#EFB9AD"/>
<path d="M132.704 266.153H128.262V270.595H132.704V266.153Z" fill="#EFB9AD"/>
<path d="M139.438 266.153H134.995V270.595H139.438V266.153Z" fill="#EFB9AD"/>
<path d="M146.172 266.153H141.729V270.595H146.172V266.153Z" fill="#EFB9AD"/>
<path d="M152.905 266.153H148.463V270.595H152.905V266.153Z" fill="#EFB9AD"/>
<path d="M112.503 272.356H108.061V276.799H112.503V272.356Z" fill="#BE5F5A"/>
<path d="M119.236 272.356H114.794V276.799H119.236V272.356Z" fill="#BE5F5A"/>
<path d="M125.971 272.356H121.528V276.799H125.971V272.356Z" fill="#BE5F5A"/>
<path d="M132.704 272.356H128.262V276.799H132.704V272.356Z" fill="#BE5F5A"/>
<path d="M139.438 272.356H134.995V276.799H139.438V272.356Z" fill="#BE5F5A"/>
<path d="M146.172 272.356H141.729V276.799H146.172V272.356Z" fill="#EFB9AD"/>
<path d="M152.905 272.356H148.463V276.799H152.905V272.356Z" fill="#EFB9AD"/>
<path d="M112.503 278.56H108.061V283.002H112.503V278.56Z" fill="#EFB9AD"/>
<path d="M119.236 278.56H114.794V283.002H119.236V278.56Z" fill="#EFB9AD"/>
<path d="M125.971 278.56H121.528V283.002H125.971V278.56Z" fill="#EFB9AD"/>
<path d="M132.704 278.56H128.262V283.002H132.704V278.56Z" fill="#EFB9AD"/>
<path d="M139.438 278.56H134.995V283.002H139.438V278.56Z" fill="#EFB9AD"/>
<path d="M146.172 278.56H141.729V283.002H146.172V278.56Z" fill="#EFB9AD"/>
<path d="M152.905 278.56H148.463V283.002H152.905V278.56Z" fill="#EFB9AD"/>
<path d="M112.503 284.764H108.061V289.206H112.503V284.764Z" fill="#EFB9AD"/>
<path d="M119.236 284.764H114.794V289.206H119.236V284.764Z" fill="#EFB9AD"/>
<path d="M125.971 284.764H121.528V289.206H125.971V284.764Z" fill="#EFB9AD"/>
<path d="M132.704 284.764H128.262V289.206H132.704V284.764Z" fill="#EFB9AD"/>
<path d="M139.438 284.764H134.995V289.206H139.438V284.764Z" fill="#EFB9AD"/>
<path d="M146.172 284.764H141.729V289.206H146.172V284.764Z" fill="#EFB9AD"/>
<path d="M152.905 284.764H148.463V289.206H152.905V284.764Z" fill="#EFB9AD"/>
<path d="M13.3167 232.863C10.6752 229.661 5.93248 229.211 2.73068 231.852C-0.471128 234.494 -0.921384 239.236 1.72011 242.438L22.0616 267.052L33.6481 257.477L13.3167 232.863Z" fill="#EFB9AD"/>
<path d="M53.9993 282.101L33.6578 257.487L22.0713 267.063L42.4128 291.677C45.0542 294.879 49.7969 295.329 52.9987 292.687C56.2005 290.046 56.6408 285.293 53.9993 282.101Z" fill="#E1806A"/>
<path d="M23.7352 252.87L16.3584 243.948L12.0225 247.529L19.3993 256.451L23.7352 252.87Z" fill="#DA6B5C"/>
<path d="M23.5449 252.635L16.3594 243.944L12.2318 247.353L19.4173 256.044L23.5449 252.635Z" fill="#E4E5D1"/>
<path d="M21.5606 250.653L17.6484 253.885" stroke="#BE5F5A" stroke-miterlimit="10"/>
<path d="M18.1192 246.501L14.207 249.733" stroke="#BE5F5A" stroke-miterlimit="10"/>
<path d="M43.8142 288.415C43.6041 288.165 43.6441 287.784 43.8942 287.574L49.6975 282.782C49.9477 282.571 50.3279 282.611 50.538 282.862C50.7481 283.112 50.7081 283.492 50.458 283.702L44.6547 288.495C44.3945 288.705 44.0243 288.675 43.8142 288.415Z" fill="#DA6B5C"/>
<path d="M45.405 290.356C45.1949 290.106 45.2349 289.726 45.4851 289.516L51.2884 284.723C51.5385 284.513 51.9187 284.553 52.1288 284.803C52.3389 285.053 52.2989 285.433 52.0488 285.643L46.2455 290.436C45.9954 290.646 45.6151 290.606 45.405 290.356Z" fill="#DA6B5C"/>
<path d="M42.2136 286.484C42.0035 286.233 42.0435 285.853 42.2937 285.643L48.0969 280.85C48.3471 280.64 48.7273 280.68 48.9374 280.93C49.1475 281.181 49.1075 281.561 48.8574 281.771L43.0541 286.564C42.7939 286.774 42.4237 286.734 42.2136 286.484Z" fill="#DA6B5C"/>
<path d="M5.19214 241.678C5.40226 241.928 5.78247 241.968 6.03261 241.758L11.8359 236.965C12.086 236.755 12.1261 236.375 11.9159 236.125C11.7058 235.875 11.3256 235.835 11.0755 236.045L5.27219 240.837C5.02205 241.048 4.98202 241.428 5.19214 241.678Z" fill="#E1806A"/>
<path d="M3.59058 239.747C3.8007 239.997 4.18091 240.037 4.43105 239.827L10.2343 235.034C10.4845 234.824 10.5245 234.444 10.3144 234.194C10.1043 233.944 9.72403 233.904 9.47389 234.114L3.67062 238.907C3.42048 239.117 3.38046 239.487 3.59058 239.747Z" fill="#E1806A"/>
<path d="M6.79304 243.619C7.00315 243.869 7.38337 243.91 7.63351 243.699L13.4368 238.907C13.6869 238.697 13.7269 238.316 13.5168 238.066C13.3067 237.816 12.9265 237.776 12.6764 237.986L6.87308 242.779C6.61294 242.989 6.58292 243.359 6.79304 243.619Z" fill="#E1806A"/>
<path d="M99.9984 316.134L77.7759 326.78C75.9348 327.66 73.7236 326.88 72.8331 325.039L38.3836 253.087C37.5031 251.246 38.2836 249.035 40.1246 248.145L62.3472 237.498C64.1882 236.618 66.3994 237.398 67.2899 239.239L101.739 311.191C102.62 313.042 101.839 315.253 99.9984 316.134Z" fill="#F0B478"/>
<path d="M87.1415 317.815C86.6412 318.055 86.0409 317.845 85.8108 317.344L56.8044 256.749C56.5643 256.249 56.7744 255.649 57.2747 255.419C57.775 255.179 58.3753 255.389 58.6054 255.889L87.6118 316.484C87.8519 316.974 87.6318 317.574 87.1415 317.815Z" fill="#EED694"/>
<path d="M68.4404 293.411C68.8806 292.15 68.2203 290.759 66.9596 290.319C65.6989 289.878 64.3081 290.539 63.8678 291.8C63.4276 293.06 64.0879 294.451 65.3487 294.891C66.6094 295.332 67.9901 294.671 68.4404 293.411Z" fill="#EED694"/>
<path d="M67.9995 293.25C68.3597 292.23 67.8194 291.109 66.7988 290.749L65.498 294.451C66.5186 294.811 67.6393 294.271 67.9995 293.25Z" fill="#F0B478"/>
<path d="M64.6074 285.406C65.0476 284.145 64.3873 282.754 63.1266 282.314C61.8658 281.874 60.4751 282.534 60.0348 283.795C59.5946 285.056 60.2549 286.446 61.5156 286.887C62.7764 287.327 64.1571 286.667 64.6074 285.406Z" fill="#EED694"/>
<path d="M64.1674 285.246C64.5276 284.225 63.9873 283.105 62.9668 282.744L61.666 286.447C62.6866 286.807 63.8072 286.276 64.1674 285.246Z" fill="#F0B478"/>
<path d="M60.7763 277.401C61.2166 276.141 60.5562 274.75 59.2955 274.309C58.0348 273.869 56.644 274.53 56.2038 275.79C55.7635 277.051 56.4239 278.442 57.6846 278.882C58.9453 279.332 60.3361 278.662 60.7763 277.401Z" fill="#EED694"/>
<path d="M60.3354 277.251C60.6956 276.23 60.1553 275.11 59.1347 274.75L57.834 278.452C58.8546 278.802 59.9752 278.272 60.3354 277.251Z" fill="#F0B478"/>
<path d="M56.9433 269.397C57.3836 268.136 56.7232 266.745 55.4625 266.305C54.2018 265.865 52.811 266.525 52.3708 267.786C51.9305 269.046 52.5909 270.437 53.8516 270.877C55.1123 271.328 56.5031 270.667 56.9433 269.397Z" fill="#EED694"/>
<path d="M56.5131 269.247C56.8733 268.226 56.333 267.105 55.3125 266.745L54.0117 270.447C55.0323 270.807 56.1529 270.267 56.5131 269.247Z" fill="#F0B478"/>
<path d="M53.1113 261.402C53.5516 260.141 52.8912 258.75 51.6305 258.31C50.3698 257.87 48.979 258.53 48.5387 259.791C48.0985 261.052 48.7588 262.443 50.0196 262.883C51.2803 263.323 52.6711 262.663 53.1113 261.402Z" fill="#EED694"/>
<path d="M52.6811 261.242C53.0413 260.221 52.501 259.101 51.4804 258.74L50.1797 262.443C51.2003 262.803 52.3209 262.263 52.6811 261.242Z" fill="#F0B478"/>
<path d="M49.2793 253.398C49.7195 252.137 49.0591 250.746 47.7984 250.306C46.5377 249.856 45.1469 250.526 44.7067 251.787C44.2664 253.047 44.9268 254.438 46.1875 254.878C47.4482 255.319 48.839 254.658 49.2793 253.398Z" fill="#EED694"/>
<path d="M48.8491 253.237C49.2093 252.217 48.669 251.096 47.6484 250.736L46.3477 254.438C47.3682 254.798 48.4889 254.268 48.8491 253.237Z" fill="#F0B478"/>
<path d="M86.7812 294.461C87.2215 293.2 86.5611 291.81 85.3004 291.369C84.0397 290.929 82.6489 291.589 82.2086 292.85C81.7684 294.111 82.4288 295.502 83.6895 295.942C84.9502 296.392 86.331 295.722 86.7812 294.461Z" fill="#EED694"/>
<path d="M82.9492 286.456C83.3894 285.196 82.7291 283.805 81.4684 283.365C80.2076 282.924 78.8169 283.585 78.3766 284.846C77.9364 286.106 78.5967 287.497 79.8574 287.937C81.1182 288.388 82.4989 287.727 82.9492 286.456Z" fill="#EED694"/>
<path d="M82.5092 286.307C82.8694 285.286 82.3291 284.165 81.3085 283.805L80.0078 287.507C81.0284 287.868 82.149 287.327 82.5092 286.307Z" fill="#F0B478"/>
<path d="M79.1172 278.462C79.5574 277.201 78.897 275.811 77.6363 275.37C76.3756 274.93 74.9848 275.59 74.5446 276.851C74.1043 278.112 74.7647 279.503 76.0254 279.943C77.2861 280.383 78.6669 279.723 79.1172 278.462Z" fill="#EED694"/>
<path d="M78.6762 278.302C79.0364 277.281 78.4961 276.16 77.4755 275.8L76.1748 279.502C77.1954 279.863 78.316 279.322 78.6762 278.302Z" fill="#F0B478"/>
<path d="M75.2851 270.457C75.7254 269.197 75.065 267.806 73.8043 267.366C72.5436 266.925 71.1528 267.586 70.7125 268.846C70.2723 270.107 70.9327 271.498 72.1934 271.938C73.4541 272.379 74.8349 271.718 75.2851 270.457Z" fill="#EED694"/>
<path d="M74.8452 270.307C75.2054 269.287 74.665 268.166 73.6445 267.806L72.3438 271.508C73.3643 271.858 74.485 271.328 74.8452 270.307Z" fill="#F0B478"/>
<path d="M71.4531 262.453C71.8933 261.192 71.233 259.801 69.9723 259.361C68.7115 258.921 67.3208 259.581 66.8805 260.842C66.4403 262.103 67.1006 263.493 68.3613 263.934C69.6221 264.384 71.0028 263.713 71.4531 262.453Z" fill="#EED694"/>
<path d="M71.0131 262.302C71.3733 261.282 70.833 260.161 69.8124 259.801L68.5117 263.503C69.5323 263.863 70.6529 263.323 71.0131 262.302Z" fill="#F0B478"/>
<path d="M67.6211 254.448C68.0613 253.187 67.4009 251.797 66.1402 251.356C64.8795 250.916 63.4887 251.576 63.0485 252.837C62.6082 254.098 63.2686 255.489 64.5293 255.929C65.79 256.379 67.1808 255.719 67.6211 254.448Z" fill="#EED694"/>
<path d="M67.1811 254.298C67.5413 253.277 67.001 252.157 65.9804 251.796L64.6797 255.498C65.7003 255.859 66.8209 255.318 67.1811 254.298Z" fill="#F0B478"/>
<path d="M63.7881 246.453C64.2383 245.193 63.5679 243.802 62.3072 243.362C61.0465 242.921 59.6557 243.582 59.2155 244.843C58.7752 246.103 59.4356 247.494 60.6963 247.934C61.957 248.375 63.3478 247.714 63.7881 246.453Z" fill="#EED694"/>
<path d="M63.3579 246.293C63.7181 245.273 63.1778 244.152 62.1572 243.792L60.8564 247.494C61.877 247.854 62.9977 247.314 63.3579 246.293Z" fill="#F0B478"/>
<path d="M56.5332 249.925C56.9734 248.665 56.313 247.274 55.0523 246.834C53.7916 246.393 52.4008 247.054 51.9606 248.314C51.5203 249.575 52.1807 250.966 53.4414 251.406C54.7021 251.847 56.0929 251.186 56.5332 249.925Z" fill="#EED694"/>
<path d="M56.103 249.766C56.4632 248.745 55.9229 247.624 54.9023 247.264L53.6016 250.966C54.6221 251.326 55.7428 250.796 56.103 249.766Z" fill="#F0B478"/>
<defs>
<linearGradient id="paint0_linear_104_26971" x1="198.502" y1="369.034" x2="198.502" y2="16.3117" gradientUnits="userSpaceOnUse">
<stop stop-color="white"/>
<stop offset="1" stop-color="#FAE7E3"/>
</linearGradient>
</defs>
</svg>
