<svg width="270" height="235" viewBox="0 0 270 235" fill="none" xmlns="http://www.w3.org/2000/svg">
<g clip-path="url(#clip0_104_25825)">
<path fill-rule="evenodd" clip-rule="evenodd" d="M43.5455 217.966C-3.74226 198.936 10.3787 140.146 49.0805 117.407C66.6845 107.066 86.5295 100.543 87.8201 73.7585C90.1637 25.0775 142.058 24.6779 175.052 50.0796C202.527 71.2313 195.766 97.1568 216.772 114.086C240.16 132.937 280.098 172.417 237.703 213.052L149.791 226.638L43.5455 217.966Z" fill="#F2DAD8"/>
<mask id="mask0_104_25825" style="mask-type:luminance" maskUnits="userSpaceOnUse" x="13" y="33" width="244" height="194">
<path d="M43.5455 217.966C-3.74226 198.936 10.3787 140.146 49.0805 117.407C66.6845 107.066 86.5295 100.543 87.8201 73.7585C90.1637 25.0775 142.058 24.6779 175.052 50.0796C202.527 71.2313 195.766 97.1568 216.772 114.086C240.16 132.937 280.098 172.417 237.703 213.052L149.791 226.638L43.5455 217.966Z" fill="white"/>
</mask>
<g mask="url(#mask0_104_25825)">
<path fill-rule="evenodd" clip-rule="evenodd" d="M245.074 236.493H244.879V233.48H233.982H233.977H223.079V236.493H222.885V233.48H211.988H211.982H201.085V236.493H200.891V233.48H189.994H179.096V236.493H178.902V233.48H167.994H157.097V236.493H156.902V233.48H146.005H146H135.103V236.493H134.908V233.48H124.011H124.006H113.108V236.493H112.914V233.48H102.017H91.1196V236.493H90.9252V233.48H80.028H69.1308V236.493H68.9364V233.48H58.0392H58.0338H47.115V236.493H46.9206V233.48H36.0234H25.1208V236.493H24.9264V233.48H14.0292H7.47363V233.318H13.932V228.037H7.47363V227.88H14.0238H14.0292H24.9264V222.599H14.0292H7.47363V222.437H13.932V217.156H7.47363V216.994H14.0238H14.0292H24.9264V211.712H14.0292H7.47363V211.55H13.932V206.269H7.47363V206.107H14.0238H14.0292H24.9264V200.826H14.0292H7.47363V200.664H13.932V195.383H7.47363V195.221H14.0238H14.0292H24.9264V189.94H14.0292H7.47363V189.778H13.932V184.496H7.47363V184.334H14.0238H14.0292H24.9264V179.053H14.0292H7.47363V178.891H13.932V173.61H7.47363V173.448H14.0238H14.0292H24.9264V168.167H14.0292H7.47363V168.005H13.932V162.724H7.47363V162.562H14.0238H14.0292H24.9264V157.28H14.0292H7.47363V157.14H13.932V151.859H7.47363V151.697H14.0238H14.0292H24.9264V146.416H14.0292H7.47363V146.254H13.932V140.972H7.47363V140.81H14.0238H14.0292H24.9264V135.529H14.0292H7.47363V135.367H13.932V130.086H7.47363V129.924H14.0238H14.0292H24.9264V124.643H14.0292H7.47363V124.481H13.932V119.2H7.47363V119.038H14.0238H14.0292H24.9264V113.756H14.0292H7.47363V113.594H13.932V108.313H7.47363V108.151H14.0238H14.0292H24.9264V102.87H14.0292H7.47363V102.708H13.932V97.4268H7.47363V97.2648H14.0238H14.0292H24.9264V91.9836H14.0292H7.47363V91.8216H13.932V86.5404H7.47363V86.4H14.0238H14.0292H24.9264V81.1188H14.0292H7.47363V80.9568H13.932V75.6756H7.47363V75.5136H14.0238H14.0292H24.9264V70.2324H14.0292H7.47363V70.0704H13.932V64.7892H7.47363V64.6272H14.0238H14.0292H24.9264V59.346H14.0292H7.47363V59.184H13.932V53.9028H7.47363V53.7408H14.0238H14.0292H24.9264V48.4596H14.0292H7.47363V48.2976H13.932V43.0164H7.47363V42.8544H14.0238H14.0292H24.9264V37.5732H14.0292H7.47363V37.4112H13.932V32.13H7.47363V31.968H14.0238H14.0292H24.9264V26.6868H14.0292H7.47363V26.5248H13.932V23.5116H14.1264V26.5248H25.0236H25.029H35.9262V23.5116H36.1206V26.5248H47.0178H47.0232H57.9204V23.5116H58.1148V26.5248H69.012H69.0174H79.9146V23.5116H80.109V26.5248H91.0062H91.0116H101.909V23.5116H102.103V26.5248H113H113.006H123.903V23.5116H124.097V26.5248H135H145.897V23.5116H146.092V26.5248H156.989H156.994H167.891V23.5116H168.086V26.5248H178.988H178.994H189.891V23.5116H190.085V26.5248H200.983H200.988H211.885V23.5116H212.08V26.5248H222.982H222.988H233.885V23.5116H234.079V26.5248H244.982H244.987H255.884V23.5116H256.079V26.5248H262.532V26.6868H255.982H255.976H245.079V31.968H255.976H255.982H262.532V32.13H256.079V37.4112H262.532V37.5732H255.982H255.976H245.079V42.8544H255.976H255.982H262.532V43.0164H256.079V48.2976H262.532V48.4596H255.982H255.976H245.079V53.7408H255.976H255.982H262.532V53.9028H256.079V59.184H262.532V59.346H255.982H255.976H245.079V64.6272H255.976H255.982H262.532V64.7892H256.079V70.0704H262.532V70.2324H255.982H255.976H245.079V75.5136H255.976H255.982H262.532V75.6756H256.079V80.9568H262.532V81.1188H255.982H255.976H245.079V86.4H255.976H255.982H262.532V86.562H256.079V91.8432H262.532V92.0052H255.982H255.976H245.079V97.2864H255.976H255.982H262.532V97.4484H256.079V102.73H262.532V102.892H255.982H255.976H245.079V108.173H255.976H255.982H262.532V108.335H256.079V113.616H262.532V113.778H255.982H255.976H245.079V119.059H255.976H255.982H262.532V119.221H256.079V124.502H262.532V124.664H255.982H255.976H245.079V129.946H255.976H255.982H262.532V130.108H256.079V135.389H262.532V135.551H255.982H255.976H245.079V140.832H255.976H255.982H262.532V140.994H256.079V146.275H262.532V146.437H255.982H255.976H245.079V151.718H255.976H255.982H262.532V151.88H256.079V157.14H262.532V157.302H255.982H255.976H245.079V162.583H255.976H255.982H262.532V162.745H256.079V168.026H262.532V168.188H255.982H255.976H245.079V173.47H255.976H255.982H262.532V173.632H256.079V178.913H262.532V179.075H255.982H255.976H245.079V184.356H255.976H255.982H262.532V184.518H256.079V189.799H262.532V189.961H255.982H255.976H245.079V195.242H255.976H255.982H262.532V195.404H256.079V200.686H262.532V200.848H255.982H255.976H245.079V206.129H255.976H255.982H262.532V206.291H256.079V211.572H262.532V211.734H255.982H255.976H245.079V217.015H255.976H255.982H262.532V217.177H256.079V222.458H262.532V222.62H255.982H255.976H245.079V227.88H255.976H255.982H262.532V228.042H256.079V233.323H262.532V233.485H255.982H255.976H245.079V236.493H245.074ZM255.879 228.042H244.982H234.079V233.323H244.982H244.987H255.884V228.042H255.879ZM233.885 228.042H222.988H212.085V233.323H222.988H222.993H233.89V228.042H233.885ZM211.891 228.042H200.988H200.983H190.085V233.323H200.983H200.988H211.885V228.042H211.891ZM189.891 228.042H178.994H168.091V233.323H178.994H178.999H189.896V228.042H189.891ZM167.897 228.042H157H156.994H146.097V233.323H156.994H157H167.897V228.042ZM145.903 228.042H135H124.103V233.323H135H145.897V228.042H145.903ZM123.908 228.042H113.011H102.114V233.323H113.011H113.017H123.914V228.042H123.908ZM101.909 228.042H91.0116H80.1144V233.323H91.0116H91.017H101.914V228.042H101.909ZM79.9146 228.042H69.0174H58.1202V233.323H69.0174H69.0228H79.92V228.042H79.9146ZM57.9204 228.042H47.0232H36.1152V233.323H47.0124H47.0178H57.915V228.042H57.9204ZM35.9262 228.042H25.0236H14.121V233.323H25.0182H25.0236H35.9208V228.042H35.9262ZM244.885 222.599H233.982H233.977H223.079V227.88H233.977H233.982H244.879V222.599H244.885ZM222.885 222.599H211.988H211.982H201.085V227.88H211.982H211.988H222.885V222.599ZM200.891 222.599H189.994H179.096V227.88H189.994H189.999H200.896V222.599H200.891ZM178.897 222.599H167.994H157.097V227.88H167.994H167.999H178.897V222.599ZM156.897 222.599H146H145.994H135.097V227.88H145.994H146H156.897V222.599ZM134.903 222.599H124.006H124H113.103V227.88H124H124.006H134.903V222.599ZM112.909 222.599H102.011H91.1142V227.88H102.011H102.017H112.914V222.599H112.909ZM90.9144 222.599H80.0172H69.12V227.88H80.0172H80.0226H90.9198V222.599H90.9144ZM68.9148 222.599H58.0176H58.0122H47.115V227.88H58.0122H58.0176H68.9148V222.599ZM46.9206 222.599H36.0234H25.1208V227.88H36.018H36.0234H46.9206V222.599ZM255.879 217.156H244.982H234.079V222.437H244.982H244.987H255.884V217.156H255.879ZM233.885 217.156H222.988H212.085V222.437H222.988H222.993H233.89V217.156H233.885ZM211.891 217.156H200.988H200.983H190.085V222.437H200.983H200.988H211.885V217.156H211.891ZM189.891 217.156H178.994H168.091V222.437H178.994H178.999H189.896V217.156H189.891ZM167.897 217.156H157H156.994H146.097V222.437H156.994H157H167.897V217.156ZM145.903 217.156H135H124.103V222.437H135H145.897V217.156H145.903ZM123.908 217.156H113.011H102.114V222.437H113.011H113.017H123.914V217.156H123.908ZM101.909 217.156H91.0116H80.1144V222.437H91.0116H91.017H101.914V217.156H101.909ZM79.9146 217.156H69.0174H58.1202V222.437H69.0174H69.0228H79.92V217.156H79.9146ZM57.9204 217.156H47.0232H36.1152V222.437H47.0124H47.0178H57.915V217.156H57.9204ZM35.9262 217.156H25.0236H14.121V222.437H25.0182H25.0236H35.9208V217.156H35.9262ZM244.885 211.718H233.982H233.977H223.079V216.999H233.977H233.982H244.879V211.718H244.885ZM222.885 211.718H211.988H211.982H201.085V216.999H211.982H211.988H222.885V211.718ZM200.891 211.718H189.994H179.096V216.999H189.994H189.999H200.896V211.718H200.891ZM178.897 211.718H167.994H157.097V216.999H167.994H167.999H178.897V211.718ZM156.897 211.718H146H145.994H135.097V216.999H145.994H146H156.897V211.718ZM134.903 211.718H124.006H124H113.103V216.999H124H124.006H134.903V211.718ZM112.909 211.718H102.011H91.1142V216.999H102.011H102.017H112.914V211.718H112.909ZM90.9144 211.718H80.0172H69.12V216.999H80.0172H80.0226H90.9198V211.718H90.9144ZM68.9148 211.718H58.0176H58.0122H47.115V216.999H58.0122H58.0176H68.9148V211.718ZM46.9206 211.718H36.0234H25.1208V216.999H36.018H36.0234H46.9206V211.718ZM255.879 206.275H244.982H234.079V211.556H244.982H244.987H255.884V206.275H255.879ZM233.885 206.275H222.988H212.085V211.556H222.988H222.993H233.89V206.275H233.885ZM211.891 206.275H200.988H200.983H190.085V211.556H200.983H200.988H211.885V206.275H211.891ZM189.891 206.275H178.994H168.091V211.556H178.994H178.999H189.896V206.275H189.891ZM167.897 206.275H157H156.994H146.097V211.556H156.994H157H167.897V206.275ZM145.903 206.275H135H124.103V211.556H135H145.897V206.275H145.903ZM123.908 206.275H113.011H102.114V211.556H113.011H113.017H123.914V206.275H123.908ZM101.909 206.275H91.0116H80.1144V211.556H91.0116H91.017H101.914V206.275H101.909ZM79.9146 206.275H69.0174H58.1202V211.556H69.0174H69.0228H79.92V206.275H79.9146ZM57.9204 206.275H47.0232H36.1152V211.556H47.0124H47.0178H57.915V206.275H57.9204ZM35.9262 206.275H25.0236H14.121V211.556H25.0182H25.0236H35.9208V206.275H35.9262ZM244.885 200.831H233.982H233.977H223.079V206.113H233.977H233.982H244.879V200.831H244.885ZM222.885 200.831H211.988H211.982H201.085V206.113H211.982H211.988H222.885V200.831ZM200.891 200.831H189.994H179.096V206.113H189.994H189.999H200.896V200.831H200.891ZM178.897 200.831H167.994H157.097V206.113H167.994H167.999H178.897V200.831ZM156.897 200.831H146H145.994H135.097V206.113H145.994H146H156.897V200.831ZM134.903 200.831H124.006H124H113.103V206.113H124H124.006H134.903V200.831ZM112.909 200.831H102.011H91.1142V206.113H102.011H102.017H112.914V200.831H112.909ZM90.9144 200.831H80.0172H69.12V206.113H80.0172H80.0226H90.9198V200.831H90.9144ZM68.9148 200.831H58.0176H58.0122H47.115V206.113H58.0122H58.0176H68.9148V200.831ZM46.9206 200.831H36.0234H25.1208V206.113H36.018H36.0234H46.9206V200.831ZM255.879 195.394H244.982H234.079V200.675H244.982H244.987H255.884V195.394H255.879ZM233.885 195.394H222.988H212.085V200.675H222.988H222.993H233.89V195.394H233.885ZM211.891 195.394H200.988H200.983H190.085V200.675H200.983H200.988H211.885V195.394H211.891ZM189.891 195.394H178.994H168.091V200.675H178.994H178.999H189.896V195.394H189.891ZM167.897 195.394H157H156.994H146.097V200.675H156.994H157H167.897V195.394ZM145.903 195.394H135H124.103V200.675H135H145.897V195.394H145.903ZM123.908 195.394H113.011H102.114V200.675H113.011H113.017H123.914V195.394H123.908ZM101.909 195.394H91.0116H80.1144V200.675H91.0116H91.017H101.914V195.394H101.909ZM79.9146 195.394H69.0174H58.1202V200.675H69.0174H69.0228H79.92V195.394H79.9146ZM57.9204 195.394H47.0232H36.1152V200.675H47.0124H47.0178H57.915V195.394H57.9204ZM35.9262 195.394H25.0236H14.121V200.675H25.0182H25.0236H35.9208V195.394H35.9262ZM244.885 189.95H233.982H233.977H223.079V195.232H233.977H233.982H244.879V189.95H244.885ZM222.885 189.95H211.988H211.982H201.085V195.232H211.982H211.988H222.885V189.95ZM200.891 189.95H189.994H179.096V195.232H189.994H189.999H200.896V189.95H200.891ZM178.897 189.95H167.994H157.097V195.232H167.994H167.999H178.897V189.95ZM156.897 189.95H146H145.994H135.097V195.232H145.994H146H156.897V189.95ZM134.903 189.95H124.006H124H113.103V195.232H124H124.006H134.903V189.95ZM112.909 189.95H102.011H91.1142V195.232H102.011H102.017H112.914V189.95H112.909ZM90.9144 189.95H80.0172H69.12V195.232H80.0172H80.0226H90.9198V189.95H90.9144ZM68.9148 189.95H58.0176H58.0122H47.115V195.232H58.0122H58.0176H68.9148V189.95ZM46.9206 189.95H36.0234H25.1208V195.232H36.018H36.0234H46.9206V189.95ZM255.879 184.507H244.982H234.079V189.788H244.982H244.987H255.884V184.507H255.879ZM233.885 184.507H222.988H212.085V189.788H222.988H222.993H233.89V184.507H233.885ZM211.891 184.507H200.988H200.983H190.085V189.788H200.983H200.988H211.885V184.507H211.891ZM189.891 184.507H178.994H168.091V189.788H178.994H178.999H189.896V184.507H189.891ZM167.897 184.507H157H156.994H146.097V189.788H156.994H157H167.897V184.507ZM145.903 184.507H135H124.103V189.788H135H145.897V184.507H145.903ZM123.908 184.507H113.011H102.114V189.788H113.011H113.017H123.914V184.507H123.908ZM101.909 184.507H91.0116H80.1144V189.788H91.0116H91.017H101.914V184.507H101.909ZM79.9146 184.507H69.0174H58.1202V189.788H69.0174H69.0228H79.92V184.507H79.9146ZM57.9204 184.507H47.0232H36.1152V189.788H47.0124H47.0178H57.915V184.507H57.9204ZM35.9262 184.507H25.0236H14.121V189.788H25.0182H25.0236H35.9208V184.507H35.9262ZM244.885 179.069H233.982H233.977H223.079V184.351H233.977H233.982H244.879V179.069H244.885ZM222.885 179.069H211.988H211.982H201.085V184.351H211.982H211.988H222.885V179.069ZM200.891 179.069H189.994H179.096V184.351H189.994H189.999H200.896V179.069H200.891ZM178.897 179.069H167.994H157.097V184.351H167.994H167.999H178.897V179.069ZM156.897 179.069H146H145.994H135.097V184.351H145.994H146H156.897V179.069ZM134.903 179.069H124.006H124H113.103V184.351H124H124.006H134.903V179.069ZM112.909 179.069H102.011H91.1142V184.351H102.011H102.017H112.914V179.069H112.909ZM90.9144 179.069H80.0172H69.12V184.351H80.0172H80.0226H90.9198V179.069H90.9144ZM68.9148 179.069H58.0176H58.0122H47.115V184.351H58.0122H58.0176H68.9148V179.069ZM46.9206 179.069H36.0234H25.1208V184.351H36.018H36.0234H46.9206V179.069ZM255.879 173.626H244.982H234.079V178.907H244.982H244.987H255.884V173.626H255.879ZM233.885 173.626H222.988H212.085V178.907H222.988H222.993H233.89V173.626H233.885ZM211.891 173.626H200.988H200.983H190.085V178.907H200.983H200.988H211.885V173.626H211.891ZM189.891 173.626H178.994H168.091V178.907H178.994H178.999H189.896V173.626H189.891ZM167.897 173.626H157H156.994H146.097V178.907H156.994H157H167.897V173.626ZM145.903 173.626H135H124.103V178.907H135H145.897V173.626H145.903ZM123.908 173.626H113.011H102.114V178.907H113.011H113.017H123.914V173.626H123.908ZM101.909 173.626H91.0116H80.1144V178.907H91.0116H91.017H101.914V173.626H101.909ZM79.9146 173.626H69.0174H58.1202V178.907H69.0174H69.0228H79.92V173.626H79.9146ZM57.9204 173.626H47.0232H36.1152V178.907H47.0124H47.0178H57.915V173.626H57.9204ZM35.9262 173.626H25.0236H14.121V178.907H25.0182H25.0236H35.9208V173.626H35.9262ZM244.885 168.183H233.982H233.977H223.079V173.464H233.977H233.982H244.879V168.183H244.885ZM222.885 168.183H211.988H211.982H201.085V173.464H211.982H211.988H222.885V168.183ZM200.891 168.183H189.994H179.096V173.464H189.994H189.999H200.896V168.183H200.891ZM178.897 168.183H167.994H157.097V173.464H167.994H167.999H178.897V168.183ZM156.897 168.183H146H145.994H135.097V173.464H145.994H146H156.897V168.183ZM134.903 168.183H124.006H124H113.103V173.464H124H124.006H134.903V168.183ZM112.909 168.183H102.011H91.1142V173.464H102.011H102.017H112.914V168.183H112.909ZM90.9144 168.183H80.0172H69.12V173.464H80.0172H80.0226H90.9198V168.183H90.9144ZM68.9148 168.183H58.0176H58.0122H47.115V173.464H58.0122H58.0176H68.9148V168.183ZM46.9206 168.183H36.0234H25.1208V173.464H36.018H36.0234H46.9206V168.183ZM255.879 162.745H244.982H234.079V168.026H244.982H244.987H255.884V162.745H255.879ZM233.885 162.745H222.988H212.085V168.026H222.988H222.993H233.89V162.745H233.885ZM211.891 162.745H200.988H200.983H190.085V168.026H200.983H200.988H211.885V162.745H211.891ZM189.891 162.745H178.994H168.091V168.026H178.994H178.999H189.896V162.745H189.891ZM167.897 162.745H157H156.994H146.097V168.026H156.994H157H167.897V162.745ZM145.903 162.745H135H124.103V168.026H135H145.897V162.745H145.903ZM123.908 162.745H113.011H102.114V168.026H113.011H113.017H123.914V162.745H123.908ZM101.909 162.745H91.0116H80.1144V168.026H91.0116H91.017H101.914V162.745H101.909ZM79.9146 162.745H69.0174H58.1202V168.026H69.0174H69.0228H79.92V162.745H79.9146ZM57.9204 162.745H47.0232H36.1152V168.026H47.0124H47.0178H57.915V162.745H57.9204ZM35.9262 162.745H25.0236H14.121V168.026H25.0182H25.0236H35.9208V162.745H35.9262ZM244.885 157.302H233.982H233.977H223.079V162.583H233.977H233.982H244.879V157.302H244.885ZM222.885 157.302H211.988H211.982H201.085V162.583H211.982H211.988H222.885V157.302ZM200.891 157.302H189.994H179.096V162.583H189.994H189.999H200.896V157.302H200.891ZM178.897 157.302H167.994H157.097V162.583H167.994H167.999H178.897V157.302ZM156.897 157.302H146H145.994H135.097V162.583H145.994H146H156.897V157.302ZM134.903 157.302H124.006H124H113.103V162.583H124H124.006H134.903V157.302ZM112.909 157.302H102.011H91.1142V162.583H102.011H102.017H112.914V157.302H112.909ZM90.9144 157.302H80.0172H69.12V162.583H80.0172H80.0226H90.9198V157.302H90.9144ZM68.9148 157.302H58.0176H58.0122H47.115V162.583H58.0122H58.0176H68.9148V157.302ZM46.9206 157.302H36.0234H25.1208V162.583H36.018H36.0234H46.9206V157.302ZM255.879 151.859H244.982H234.079V157.14H244.982H244.987H255.884V151.859H255.879ZM233.885 151.859H222.988H212.085V157.14H222.988H222.993H233.89V151.859H233.885ZM211.891 151.859H200.988H200.983H190.085V157.14H200.983H200.988H211.885V151.859H211.891ZM189.891 151.859H178.994H168.091V157.14H178.994H178.999H189.896V151.859H189.891ZM167.897 151.859H157H156.994H146.097V157.14H156.994H157H167.897V151.859ZM145.903 151.859H135H124.103V157.14H135H145.897V151.859H145.903ZM123.908 151.859H113.011H102.114V157.14H113.011H113.017H123.914V151.859H123.908ZM101.909 151.859H91.0116H80.1144V157.14H91.0116H91.017H101.914V151.859H101.909ZM79.9146 151.859H69.0174H58.1202V157.14H69.0174H69.0228H79.92V151.859H79.9146ZM57.9204 151.859H47.0232H36.1152V157.14H47.0124H47.0178H57.915V151.859H57.9204ZM35.9262 151.859H25.0236H14.121V157.14H25.0182H25.0236H35.9208V151.859H35.9262ZM244.885 146.421H233.982H233.977H223.079V151.702H233.977H233.982H244.879V146.421H244.885ZM222.885 146.421H211.988H211.982H201.085V151.702H211.982H211.988H222.885V146.421ZM200.891 146.421H189.994H179.096V151.702H189.994H189.999H200.896V146.421H200.891ZM178.897 146.421H167.994H157.097V151.702H167.994H167.999H178.897V146.421ZM156.897 146.421H146H145.994H135.097V151.702H145.994H146H156.897V146.421ZM134.903 146.421H124.006H124H113.103V151.702H124H124.006H134.903V146.421ZM112.909 146.421H102.011H91.1142V151.702H102.011H102.017H112.914V146.421H112.909ZM90.9144 146.421H80.0172H69.12V151.702H80.0172H80.0226H90.9198V146.421H90.9144ZM68.9148 146.421H58.0176H58.0122H47.115V151.702H58.0122H58.0176H68.9148V146.421ZM46.9206 146.421H36.0234H25.1208V151.702H36.018H36.0234H46.9206V146.421ZM255.879 140.978H244.982H234.079V146.259H244.982H244.987H255.884V140.978H255.879ZM233.885 140.978H222.988H212.085V146.259H222.988H222.993H233.89V140.978H233.885ZM211.891 140.978H200.988H200.983H190.085V146.259H200.983H200.988H211.885V140.978H211.891ZM189.891 140.978H178.994H168.091V146.259H178.994H178.999H189.896V140.978H189.891ZM167.897 140.978H157H156.994H146.097V146.259H156.994H157H167.897V140.978ZM145.903 140.978H135H124.103V146.259H135H145.897V140.978H145.903ZM123.908 140.978H113.011H102.114V146.259H113.011H113.017H123.914V140.978H123.908ZM101.909 140.978H91.0116H80.1144V146.259H91.0116H91.017H101.914V140.978H101.909ZM79.9146 140.978H69.0174H58.1202V146.259H69.0174H69.0228H79.92V140.978H79.9146ZM57.9204 140.978H47.0232H36.1152V146.259H47.0124H47.0178H57.915V140.978H57.9204ZM35.9262 140.978H25.0236H14.121V146.259H25.0182H25.0236H35.9208V140.978H35.9262ZM244.885 135.535H233.982H233.977H223.079V140.816H233.977H233.982H244.879V135.535H244.885ZM222.885 135.535H211.988H211.982H201.085V140.816H211.982H211.988H222.885V135.535ZM200.891 135.535H189.994H179.096V140.816H189.994H189.999H200.896V135.535H200.891ZM178.897 135.535H167.994H157.097V140.816H167.994H167.999H178.897V135.535ZM156.897 135.535H146H145.994H135.097V140.816H145.994H146H156.897V135.535ZM134.903 135.535H124.006H124H113.103V140.816H124H124.006H134.903V135.535ZM112.909 135.535H102.011H91.1142V140.816H102.011H102.017H112.914V135.535H112.909ZM90.9144 135.535H80.0172H69.12V140.816H80.0172H80.0226H90.9198V135.535H90.9144ZM68.9148 135.535H58.0176H58.0122H47.115V140.816H58.0122H58.0176H68.9148V135.535ZM46.9206 135.535H36.0234H25.1208V140.816H36.018H36.0234H46.9206V135.535ZM255.879 130.097H244.982H234.079V135.378H244.982H244.987H255.884V130.097H255.879ZM233.885 130.097H222.988H212.085V135.378H222.988H222.993H233.89V130.097H233.885ZM211.891 130.097H200.988H200.983H190.085V135.378H200.983H200.988H211.885V130.097H211.891ZM189.891 130.097H178.994H168.091V135.378H178.994H178.999H189.896V130.097H189.891ZM167.897 130.097H157H156.994H146.097V135.378H156.994H157H167.897V130.097ZM145.903 130.097H135H124.103V135.378H135H145.897V130.097H145.903ZM123.908 130.097H113.011H102.114V135.378H113.011H113.017H123.914V130.097H123.908ZM101.909 130.097H91.0116H80.1144V135.378H91.0116H91.017H101.914V130.097H101.909ZM79.9146 130.097H69.0174H58.1202V135.378H69.0174H69.0228H79.92V130.097H79.9146ZM57.9204 130.097H47.0232H36.1152V135.378H47.0124H47.0178H57.915V130.097H57.9204ZM35.9262 130.097H25.0236H14.121V135.378H25.0182H25.0236H35.9208V130.097H35.9262ZM244.885 124.654H233.982H233.977H223.079V129.935H233.977H233.982H244.879V124.654H244.885ZM222.885 124.654H211.988H211.982H201.085V129.935H211.982H211.988H222.885V124.654ZM200.891 124.654H189.994H179.096V129.935H189.994H189.999H200.896V124.654H200.891ZM178.897 124.654H167.994H157.097V129.935H167.994H167.999H178.897V124.654ZM156.897 124.654H146H145.994H135.097V129.935H145.994H146H156.897V124.654ZM134.903 124.654H124.006H124H113.103V129.935H124H124.006H134.903V124.654ZM112.909 124.654H102.011H91.1142V129.935H102.011H102.017H112.914V124.654H112.909ZM90.9144 124.654H80.0172H69.12V129.935H80.0172H80.0226H90.9198V124.654H90.9144ZM68.9148 124.654H58.0176H58.0122H47.115V129.935H58.0122H58.0176H68.9148V124.654ZM46.9206 124.654H36.0234H25.1208V129.935H36.018H36.0234H46.9206V124.654ZM255.879 119.21H244.982H234.079V124.492H244.982H244.987H255.884V119.21H255.879ZM233.885 119.21H222.988H212.085V124.492H222.988H222.993H233.89V119.21H233.885ZM211.891 119.21H200.988H200.983H190.085V124.492H200.983H200.988H211.885V119.21H211.891ZM189.891 119.21H178.994H168.091V124.492H178.994H178.999H189.896V119.21H189.891ZM167.897 119.21H157H156.994H146.097V124.492H156.994H157H167.897V119.21ZM145.903 119.21H135H124.103V124.492H135H145.897V119.21H145.903ZM123.908 119.21H113.011H102.114V124.492H113.011H113.017H123.914V119.21H123.908ZM101.909 119.21H91.0116H80.1144V124.492H91.0116H91.017H101.914V119.21H101.909ZM79.9146 119.21H69.0174H58.1202V124.492H69.0174H69.0228H79.92V119.21H79.9146ZM57.9204 119.21H47.0232H36.1152V124.492H47.0124H47.0178H57.915V119.21H57.9204ZM35.9262 119.21H25.0236H14.121V124.492H25.0182H25.0236H35.9208V119.21H35.9262ZM244.885 113.773H233.982H233.977H223.079V119.054H233.977H233.982H244.879V113.773H244.885ZM222.885 113.773H211.988H211.982H201.085V119.054H211.982H211.988H222.885V113.773ZM200.891 113.773H189.994H179.096V119.054H189.994H189.999H200.896V113.773H200.891ZM178.897 113.773H167.994H157.097V119.054H167.994H167.999H178.897V113.773ZM156.897 113.773H146H145.994H135.097V119.054H145.994H146H156.897V113.773ZM134.903 113.773H124.006H124H113.103V119.054H124H124.006H134.903V113.773ZM112.909 113.773H102.011H91.1142V119.054H102.011H102.017H112.914V113.773H112.909ZM90.9144 113.773H80.0172H69.12V119.054H80.0172H80.0226H90.9198V113.773H90.9144ZM68.9148 113.773H58.0176H58.0122H47.115V119.054H58.0122H58.0176H68.9148V113.773ZM46.9206 113.773H36.0234H25.1208V119.054H36.018H36.0234H46.9206V113.773ZM255.879 108.329H244.982H234.079V113.611H244.982H244.987H255.884V108.329H255.879ZM233.885 108.329H222.988H212.085V113.611H222.988H222.993H233.89V108.329H233.885ZM211.891 108.329H200.988H200.983H190.085V113.611H200.983H200.988H211.885V108.329H211.891ZM189.891 108.329H178.994H168.091V113.611H178.994H178.999H189.896V108.329H189.891ZM167.897 108.329H157H156.994H146.097V113.611H156.994H157H167.897V108.329ZM145.903 108.329H135H124.103V113.611H135H145.897V108.329H145.903ZM123.908 108.329H113.011H102.114V113.611H113.011H113.017H123.914V108.329H123.908ZM101.909 108.329H91.0116H80.1144V113.611H91.0116H91.017H101.914V108.329H101.909ZM79.9146 108.329H69.0174H58.1202V113.611H69.0174H69.0228H79.92V108.329H79.9146ZM57.9204 108.329H47.0232H36.1152V113.611H47.0124H47.0178H57.915V108.329H57.9204ZM35.9262 108.329H25.0236H14.121V113.611H25.0182H25.0236H35.9208V108.329H35.9262ZM244.885 102.886H233.982H233.977H223.079V108.167H233.977H233.982H244.879V102.886H244.885ZM222.885 102.886H211.988H211.982H201.085V108.167H211.982H211.988H222.885V102.886ZM200.891 102.886H189.994H179.096V108.167H189.994H189.999H200.896V102.886H200.891ZM178.897 102.886H167.994H157.097V108.167H167.994H167.999H178.897V102.886ZM156.897 102.886H146H145.994H135.097V108.167H145.994H146H156.897V102.886ZM134.903 102.886H124.006H124H113.103V108.167H124H124.006H134.903V102.886ZM112.909 102.886H102.011H91.1142V108.167H102.011H102.017H112.914V102.886H112.909ZM90.9144 102.886H80.0172H69.12V108.167H80.0172H80.0226H90.9198V102.886H90.9144ZM68.9148 102.886H58.0176H58.0122H47.115V108.167H58.0122H58.0176H68.9148V102.886ZM46.9206 102.886H36.0234H25.1208V108.167H36.018H36.0234H46.9206V102.886ZM255.879 97.443H244.982H234.079V102.724H244.982H244.987H255.884V97.443H255.879ZM233.885 97.443H222.988H212.085V102.724H222.988H222.993H233.89V97.443H233.885ZM211.891 97.443H200.988H200.983H190.085V102.724H200.983H200.988H211.885V97.443H211.891ZM189.891 97.443H178.994H168.091V102.724H178.994H178.999H189.896V97.443H189.891ZM167.897 97.443H157H156.994H146.097V102.724H156.994H157H167.897V97.443ZM145.903 97.443H135H124.103V102.724H135H145.897V97.443H145.903ZM123.908 97.443H113.011H102.114V102.724H113.011H113.017H123.914V97.443H123.908ZM101.909 97.443H91.0116H80.1144V102.724H91.0116H91.017H101.914V97.443H101.909ZM79.9146 97.443H69.0174H58.1202V102.724H69.0174H69.0228H79.92V97.443H79.9146ZM57.9204 97.443H47.0232H36.1152V102.724H47.0124H47.0178H57.915V97.443H57.9204ZM35.9262 97.443H25.0236H14.121V102.724H25.0182H25.0236H35.9208V97.443H35.9262ZM244.885 92.0052H233.982H233.977H223.079V97.2864H233.977H233.982H244.879V92.0052H244.885ZM222.885 92.0052H211.988H211.982H201.085V97.2864H211.982H211.988H222.885V92.0052ZM200.891 92.0052H189.994H179.096V97.2864H189.994H189.999H200.896V92.0052H200.891ZM178.897 92.0052H167.994H157.097V97.2864H167.994H167.999H178.897V92.0052ZM156.897 92.0052H146H145.994H135.097V97.2864H145.994H146H156.897V92.0052ZM134.903 92.0052H124.006H124H113.103V97.2864H124H124.006H134.903V92.0052ZM112.909 92.0052H102.011H91.1142V97.2864H102.011H102.017H112.914V92.0052H112.909ZM90.9144 92.0052H80.0172H69.12V97.2864H80.0172H80.0226H90.9198V92.0052H90.9144ZM68.9148 92.0052H58.0176H58.0122H47.115V97.2864H58.0122H58.0176H68.9148V92.0052ZM46.9206 92.0052H36.0234H25.1208V97.2864H36.018H36.0234H46.9206V92.0052ZM255.879 86.562H244.982H234.079V91.8432H244.982H244.987H255.884V86.562H255.879ZM233.885 86.562H222.988H212.085V91.8432H222.988H222.993H233.89V86.562H233.885ZM211.891 86.562H200.988H200.983H190.085V91.8432H200.983H200.988H211.885V86.562H211.891ZM189.891 86.562H178.994H168.091V91.8432H178.994H178.999H189.896V86.562H189.891ZM167.897 86.562H157H156.994H146.097V91.8432H156.994H157H167.897V86.562ZM145.903 86.562H135H124.103V91.8432H135H145.897V86.562H145.903ZM123.908 86.562H113.011H102.114V91.8432H113.011H113.017H123.914V86.562H123.908ZM101.909 86.562H91.0116H80.1144V91.8432H91.0116H91.017H101.914V86.562H101.909ZM79.9146 86.562H69.0174H58.1202V91.8432H69.0174H69.0228H79.92V86.562H79.9146ZM57.9204 86.562H47.0232H36.1152V91.8432H47.0124H47.0178H57.915V86.562H57.9204ZM35.9262 86.562H25.0236H14.121V91.8432H25.0182H25.0236H35.9208V86.562H35.9262ZM244.885 81.1242H233.982H233.977H223.079V86.4H233.977H233.982H244.879V81.1242H244.885ZM222.885 81.1242H211.988H211.982H201.085V86.4H211.982H211.988H222.885V81.1242ZM200.891 81.1242H189.994H179.096V86.4H189.994H189.999H200.896V81.1242H200.891ZM178.897 81.1242H167.994H157.097V86.4H167.994H167.999H178.897V81.1242ZM156.897 81.1242H146H145.994H135.097V86.4H145.994H146H156.897V81.1242ZM134.903 81.1242H124.006H124H113.103V86.4H124H124.006H134.903V81.1242ZM112.909 81.1242H102.011H91.1142V86.4H102.011H102.017H112.914V81.1242H112.909ZM90.9144 81.1242H80.0172H69.12V86.4H80.0172H80.0226H90.9198V81.1242H90.9144ZM68.9148 81.1242H58.0176H58.0122H47.115V86.4H58.0122H58.0176H68.9148V81.1242ZM46.9206 81.1242H36.0234H25.1208V86.4H36.018H36.0234H46.9206V81.1242ZM255.879 75.681H244.982H234.079V80.9622H244.982H244.987H255.884V75.681H255.879ZM233.885 75.681H222.988H212.085V80.9622H222.988H222.993H233.89V75.681H233.885ZM211.891 75.681H200.988H200.983H190.085V80.9622H200.983H200.988H211.885V75.681H211.891ZM189.891 75.681H178.994H168.091V80.9622H178.994H178.999H189.896V75.681H189.891ZM167.897 75.681H157H156.994H146.097V80.9622H156.994H157H167.897V75.681ZM145.903 75.681H135H124.103V80.9622H135H145.897V75.681H145.903ZM123.908 75.681H113.011H102.114V80.9622H113.011H113.017H123.914V75.681H123.908ZM101.909 75.681H91.0116H80.1144V80.9622H91.0116H91.017H101.914V75.681H101.909ZM79.9146 75.681H69.0174H58.1202V80.9622H69.0174H69.0228H79.92V75.681H79.9146ZM57.9204 75.681H47.0232H36.1152V80.9622H47.0124H47.0178H57.915V75.681H57.9204ZM35.9262 75.681H25.0236H14.121V80.9622H25.0182H25.0236H35.9208V75.681H35.9262ZM244.885 70.2378H233.982H233.977H223.079V75.519H233.977H233.982H244.879V70.2378H244.885ZM222.885 70.2378H211.988H211.982H201.085V75.519H211.982H211.988H222.885V70.2378ZM200.891 70.2378H189.994H179.096V75.519H189.994H189.999H200.896V70.2378H200.891ZM178.897 70.2378H167.994H157.097V75.519H167.994H167.999H178.897V70.2378ZM156.897 70.2378H146H145.994H135.097V75.519H145.994H146H156.897V70.2378ZM134.903 70.2378H124.006H124H113.103V75.519H124H124.006H134.903V70.2378ZM112.909 70.2378H102.011H91.1142V75.519H102.011H102.017H112.914V70.2378H112.909ZM90.9144 70.2378H80.0172H69.12V75.519H80.0172H80.0226H90.9198V70.2378H90.9144ZM68.9148 70.2378H58.0176H58.0122H47.115V75.519H58.0122H58.0176H68.9148V70.2378ZM46.9206 70.2378H36.0234H25.1208V75.519H36.018H36.0234H46.9206V70.2378ZM255.879 64.7946H244.982H234.079V70.0758H244.982H244.987H255.884V64.7946H255.879ZM233.885 64.7946H222.988H212.085V70.0758H222.988H222.993H233.89V64.7946H233.885ZM211.891 64.7946H200.988H200.983H190.085V70.0758H200.983H200.988H211.885V64.7946H211.891ZM189.891 64.7946H178.994H168.091V70.0758H178.994H178.999H189.896V64.7946H189.891ZM167.897 64.7946H157H156.994H146.097V70.0758H156.994H157H167.897V64.7946ZM145.903 64.7946H135H124.103V70.0758H135H145.897V64.7946H145.903ZM123.908 64.7946H113.011H102.114V70.0758H113.011H113.017H123.914V64.7946H123.908ZM101.909 64.7946H91.0116H80.1144V70.0758H91.0116H91.017H101.914V64.7946H101.909ZM79.9146 64.7946H69.0174H58.1202V70.0758H69.0174H69.0228H79.92V64.7946H79.9146ZM57.9204 64.7946H47.0232H36.1152V70.0758H47.0124H47.0178H57.915V64.7946H57.9204ZM35.9262 64.7946H25.0236H14.121V70.0758H25.0182H25.0236H35.9208V64.7946H35.9262ZM244.885 59.3568H233.982H233.977H223.079V64.638H233.977H233.982H244.879V59.3568H244.885ZM222.885 59.3568H211.988H211.982H201.085V64.638H211.982H211.988H222.885V59.3568ZM200.891 59.3568H189.994H179.096V64.638H189.994H189.999H200.896V59.3568H200.891ZM178.897 59.3568H167.994H157.097V64.638H167.994H167.999H178.897V59.3568ZM156.897 59.3568H146H145.994H135.097V64.638H145.994H146H156.897V59.3568ZM134.903 59.3568H124.006H124H113.103V64.638H124H124.006H134.903V59.3568ZM112.909 59.3568H102.011H91.1142V64.638H102.011H102.017H112.914V59.3568H112.909ZM90.9144 59.3568H80.0172H69.12V64.638H80.0172H80.0226H90.9198V59.3568H90.9144ZM68.9148 59.3568H58.0176H58.0122H47.115V64.638H58.0122H58.0176H68.9148V59.3568ZM46.9206 59.3568H36.0234H25.1208V64.638H36.018H36.0234H46.9206V59.3568ZM255.879 53.9136H244.982H234.079V59.1948H244.982H244.987H255.884V53.9136H255.879ZM233.885 53.9136H222.988H212.085V59.1948H222.988H222.993H233.89V53.9136H233.885ZM211.891 53.9136H200.988H200.983H190.085V59.1948H200.983H200.988H211.885V53.9136H211.891ZM189.891 53.9136H178.994H168.091V59.1948H178.994H178.999H189.896V53.9136H189.891ZM167.897 53.9136H157H156.994H146.097V59.1948H156.994H157H167.897V53.9136ZM145.903 53.9136H135H124.103V59.1948H135H145.897V53.9136H145.903ZM123.908 53.9136H113.011H102.114V59.1948H113.011H113.017H123.914V53.9136H123.908ZM101.909 53.9136H91.0116H80.1144V59.1948H91.0116H91.017H101.914V53.9136H101.909ZM79.9146 53.9136H69.0174H58.1202V59.1948H69.0174H69.0228H79.92V53.9136H79.9146ZM57.9204 53.9136H47.0232H36.1152V59.1948H47.0124H47.0178H57.915V53.9136H57.9204ZM35.9262 53.9136H25.0236H14.121V59.1948H25.0182H25.0236H35.9208V53.9136H35.9262ZM244.885 48.4704H233.982H233.977H223.079V53.7516H233.977H233.982H244.879V48.4704H244.885ZM222.885 48.4704H211.988H211.982H201.085V53.7516H211.982H211.988H222.885V48.4704ZM200.891 48.4704H189.994H179.096V53.7516H189.994H189.999H200.896V48.4704H200.891ZM178.897 48.4704H167.994H157.097V53.7516H167.994H167.999H178.897V48.4704ZM156.897 48.4704H146H145.994H135.097V53.7516H145.994H146H156.897V48.4704ZM134.903 48.4704H124.006H124H113.103V53.7516H124H124.006H134.903V48.4704ZM112.909 48.4704H102.011H91.1142V53.7516H102.011H102.017H112.914V48.4704H112.909ZM90.9144 48.4704H80.0172H69.12V53.7516H80.0172H80.0226H90.9198V48.4704H90.9144ZM68.9148 48.4704H58.0176H58.0122H47.115V53.7516H58.0122H58.0176H68.9148V48.4704ZM46.9206 48.4704H36.0234H25.1208V53.7516H36.018H36.0234H46.9206V48.4704ZM255.879 43.0326H244.982H234.079V48.3138H244.982H244.987H255.884V43.0326H255.879ZM233.885 43.0326H222.988H212.085V48.3138H222.988H222.993H233.89V43.0326H233.885ZM211.891 43.0326H200.988H200.983H190.085V48.3138H200.983H200.988H211.885V43.0326H211.891ZM189.891 43.0326H178.994H168.091V48.3138H178.994H178.999H189.896V43.0326H189.891ZM167.897 43.0326H157H156.994H146.097V48.3138H156.994H157H167.897V43.0326ZM145.903 43.0326H135H124.103V48.3138H135H145.897V43.0326H145.903ZM123.908 43.0326H113.011H102.114V48.3138H113.011H113.017H123.914V43.0326H123.908ZM101.909 43.0326H91.0116H80.1144V48.3138H91.0116H91.017H101.914V43.0326H101.909ZM79.9146 43.0326H69.0174H58.1202V48.3138H69.0174H69.0228H79.92V43.0326H79.9146ZM57.9204 43.0326H47.0232H36.1152V48.3138H47.0124H47.0178H57.915V43.0326H57.9204ZM35.9262 43.0326H25.0236H14.121V48.3138H25.0182H25.0236H35.9208V43.0326H35.9262ZM244.885 37.5894H233.982H233.977H223.079V42.8706H233.977H233.982H244.879V37.5894H244.885ZM222.885 37.5894H211.988H211.982H201.085V42.8706H211.982H211.988H222.885V37.5894ZM200.891 37.5894H189.994H179.096V42.8706H189.994H189.999H200.896V37.5894H200.891ZM178.897 37.5894H167.994H157.097V42.8706H167.994H167.999H178.897V37.5894ZM156.897 37.5894H146H145.994H135.097V42.8706H145.994H146H156.897V37.5894ZM134.903 37.5894H124.006H124H113.103V42.8706H124H124.006H134.903V37.5894ZM112.909 37.5894H102.011H91.1142V42.8706H102.011H102.017H112.914V37.5894H112.909ZM90.9144 37.5894H80.0172H69.12V42.8706H80.0172H80.0226H90.9198V37.5894H90.9144ZM68.9148 37.5894H58.0176H58.0122H47.115V42.8706H58.0122H58.0176H68.9148V37.5894ZM46.9206 37.5894H36.0234H25.1208V42.8706H36.018H36.0234H46.9206V37.5894ZM255.879 32.1462H244.982H234.079V37.4274H244.982H244.987H255.884V32.1462H255.879ZM233.885 32.1462H222.988H212.085V37.4274H222.988H222.993H233.89V32.1462H233.885ZM211.891 32.1462H200.988H200.983H190.085V37.4274H200.983H200.988H211.885V32.1462H211.891ZM189.891 32.1462H178.994H168.091V37.4274H178.994H178.999H189.896V32.1462H189.891ZM167.897 32.1462H157H156.994H146.097V37.4274H156.994H157H167.897V32.1462ZM145.903 32.1462H135H124.103V37.4274H135H145.897V32.1462H145.903ZM123.908 32.1462H113.011H102.114V37.4274H113.011H113.017H123.914V32.1462H123.908ZM101.909 32.1462H91.0116H80.1144V37.4274H91.0116H91.017H101.914V32.1462H101.909ZM79.9146 32.1462H69.0174H58.1202V37.4274H69.0174H69.0228H79.92V32.1462H79.9146ZM57.9204 32.1462H47.0232H36.1152V37.4274H47.0124H47.0178H57.915V32.1462H57.9204ZM35.9262 32.1462H25.0236H14.121V37.4274H25.0182H25.0236H35.9208V32.1462H35.9262ZM244.885 26.7084H233.982H233.977H223.079V31.9896H233.977H233.982H244.879V26.7084H244.885ZM222.885 26.7084H211.988H211.982H201.085V31.9896H211.982H211.988H222.885V26.7084ZM200.891 26.7084H189.994H179.096V31.9896H189.994H189.999H200.896V26.7084H200.891ZM178.897 26.7084H167.994H157.097V31.9896H167.994H167.999H178.897V26.7084ZM156.897 26.7084H146H145.994H135.097V31.9896H145.994H146H156.897V26.7084ZM134.903 26.7084H124.006H124H113.103V31.9896H124H124.006H134.903V26.7084ZM112.909 26.7084H102.011H91.1142V31.9896H102.011H102.017H112.914V26.7084H112.909ZM90.9144 26.7084H80.0172H69.12V31.9896H80.0172H80.0226H90.9198V26.7084H90.9144ZM68.9148 26.7084H58.0176H58.0122H47.115V31.9896H58.0122H58.0176H68.9148V26.7084ZM46.9206 26.7084H36.0234H25.1208V31.9896H36.018H36.0234H46.9206V26.7084Z" fill="#E3A9AB"/>
<path fill-rule="evenodd" clip-rule="evenodd" d="M28.2471 119.232C23.4087 123.784 15.7947 123.552 11.2425 118.714C6.69031 113.875 6.92251 106.261 11.7609 101.709C22.8849 91.2816 33.0585 95.4018 51.1107 102.703C60.3447 106.439 72.4191 111.326 88.1925 115.263C106.412 119.81 123.492 119.216 140.189 115.22C157.464 111.083 174.625 103.259 192.321 93.636C234.668 70.5942 273.526 88.5978 273.639 88.6464C279.704 91.3788 282.404 98.5068 279.671 104.571C276.939 110.635 269.811 113.335 263.747 110.603C263.666 110.565 235.494 97.5024 203.812 114.745C184.491 125.258 165.488 133.861 145.746 138.591C125.431 143.456 104.641 144.175 82.4415 138.634C64.7511 134.217 51.8883 129.017 42.0603 125.037C33.1233 121.419 28.3983 119.086 28.2471 119.232Z" fill="white"/>
<path fill-rule="evenodd" clip-rule="evenodd" d="M46.0783 172.195C45.1441 172.195 44.2531 172.363 43.4269 172.67C43.0543 172.26 42.5143 172.001 41.9149 172.001C41.6341 172.001 41.3695 172.055 41.1265 172.157C40.9915 170.402 39.5281 169.02 37.7353 169.02C36.9577 169.02 36.2449 169.279 35.6725 169.717C35.3053 169.214 34.7113 168.885 34.0417 168.885C33.9283 168.885 33.8203 168.896 33.7123 168.912C33.9391 168.383 34.0633 167.8 34.0633 167.189C34.0633 164.765 32.0977 162.805 29.6731 162.805C29.2195 162.805 28.7875 162.875 28.3771 162.999C28.0585 162.319 27.3727 161.854 26.5735 161.854H26.5141C26.5249 161.698 26.5303 161.536 26.5303 161.379C26.5303 157.027 22.9987 153.495 18.6463 153.495C14.2939 153.495 10.7623 157.027 10.7623 161.379C10.7623 161.438 10.7623 161.503 10.7623 161.563C10.3843 161.465 9.9847 161.417 9.5743 161.417C8.7589 161.417 7.9921 161.622 7.3171 161.978C6.1669 160.412 4.3147 159.392 2.2195 159.392C-1.2689 159.392 -4.0985 162.221 -4.0985 165.71C-4.0985 166.396 -3.9905 167.054 -3.7853 167.675C-3.8501 167.67 -3.9095 167.67 -3.9743 167.67C-5.6915 167.67 -7.0847 169.063 -7.0847 170.78C-7.0847 170.98 -7.0631 171.18 -7.0307 171.369C-7.0523 171.369 -7.0739 171.369 -7.0955 171.369C-8.0675 171.369 -8.8559 172.141 -8.8883 173.102C-9.1583 173.054 -9.4337 173.021 -9.7199 173.021C-10.8431 173.021 -11.8907 173.41 -12.6467 174.128C-14.6663 176.04 -12.4631 176.537 -10.3355 176.537H-7.5653H-5.3891H39.2095H42.6925H48.4111C50.6251 176.537 53.7895 176.899 51.5917 174.582C50.2147 173.108 48.2545 172.195 46.0783 172.195Z" fill="white"/>
<path fill-rule="evenodd" clip-rule="evenodd" d="M11.0755 143.834C9.80114 144.893 7.90574 144.72 6.84734 143.446C5.78894 142.171 5.96174 140.276 7.23614 139.217C13.0519 134.39 24.8455 129.335 41.8717 128.941C54.0217 128.66 68.9203 130.723 86.3137 136.922C106.045 143.953 124.519 145.287 142.571 142.895C160.742 140.481 178.573 134.282 196.857 126.284C235.251 109.496 270.043 129.335 270.146 129.389C271.599 130.194 272.117 132.025 271.312 133.477C270.508 134.93 268.677 135.448 267.225 134.644C267.133 134.59 234.895 116.208 199.26 131.798C180.528 139.99 162.195 146.351 143.349 148.856C124.389 151.373 104.998 149.974 84.3103 142.603C67.6514 136.663 53.4763 134.687 41.9851 134.957C26.5303 135.308 16.0921 139.671 11.0755 143.834Z" fill="white"/>
<path fill-rule="evenodd" clip-rule="evenodd" d="M145.034 72.8351C146.265 72.8351 147.447 73.0565 148.538 73.4615C149.03 72.9161 149.742 72.5759 150.536 72.5759C150.903 72.5759 151.254 72.6515 151.578 72.7865C151.757 70.4645 153.695 68.6339 156.066 68.6339C157.092 68.6339 158.042 68.9795 158.798 69.5573C159.284 68.8877 160.067 68.4557 160.958 68.4557C161.104 68.4557 161.25 68.4665 161.396 68.4935C161.093 67.7915 160.931 67.0193 160.931 66.2093C160.931 63.0017 163.529 60.4043 166.736 60.4043C167.336 60.4043 167.908 60.4961 168.453 60.6635C168.875 59.7671 169.787 59.1461 170.84 59.1461H170.916C170.905 58.9355 170.894 58.7249 170.894 58.5143C170.894 52.7525 175.565 48.0815 181.327 48.0815C187.089 48.0815 191.76 52.7525 191.76 58.5143C191.76 58.5953 191.76 58.6763 191.754 58.7573C192.257 58.6277 192.786 58.5629 193.331 58.5629C194.411 58.5629 195.426 58.8329 196.317 59.3027C197.84 57.2291 200.292 55.8791 203.062 55.8791C207.679 55.8791 211.421 59.6213 211.421 64.2383C211.421 65.1455 211.275 66.0203 211.005 66.8357C211.092 66.8303 211.173 66.8303 211.259 66.8303C213.533 66.8303 215.374 68.6717 215.374 70.9451C215.374 71.2097 215.347 71.4743 215.298 71.7281C215.325 71.7281 215.358 71.7281 215.385 71.7281C216.67 71.7281 217.718 72.7487 217.755 74.0231C218.112 73.9529 218.479 73.9205 218.857 73.9205C220.342 73.9205 221.73 74.4389 222.729 75.3839C225.402 77.9111 222.48 78.5699 219.672 78.5699H216.006H213.128H154.106H149.499H141.929C138.996 78.5699 134.806 79.0505 137.717 75.9833C139.569 74.0393 142.161 72.8351 145.034 72.8351Z" fill="white"/>
</g>
<path fill-rule="evenodd" clip-rule="evenodd" d="M43.5456 217.966C23.0257 209.709 14.0779 193.963 13.6729 176.931H256.306C255.841 188.503 250.565 200.723 237.703 213.052L189.092 220.563H75.3841L43.5456 217.966Z" fill="#E8BAC8"/>
<path fill-rule="evenodd" clip-rule="evenodd" d="M250.684 214H19.3216C16.9442 214 15 218.981 15 225.073C15 231.164 16.9442 236.146 19.3216 236.146H39.9493C42.3863 236.146 44.3847 241.252 44.3847 247.51C44.3847 253.754 42.3917 258.874 39.9493 258.874H31.447C29.9306 258.874 28.6905 262.052 28.6905 265.937C28.6905 269.822 29.9306 273 31.447 273C90.3029 273 159.383 273 218.239 273C220.714 273 222.74 267.81 222.74 261.469C222.74 255.128 220.714 249.938 218.239 249.938H197.66C196.182 249.938 194.974 246.844 194.974 243.056C194.974 239.268 196.182 236.174 197.66 236.174H250.678C253.056 236.174 255 231.192 255 225.101C255.005 218.981 253.061 214 250.684 214ZM230.906 272.986C228.448 272.986 226.438 267.838 226.438 261.539V261.372C226.438 255.072 228.448 249.925 230.906 249.925C233.365 249.925 235.374 255.072 235.374 261.372V261.539C235.374 267.838 233.365 272.986 230.906 272.986Z" fill="#1D3F4D"/>
<path fill-rule="evenodd" clip-rule="evenodd" d="M210.95 143.748C217.5 137.079 222.371 145.551 221.691 154.056C221.048 162.119 214.098 189.783 215.384 201.425H212.721C206.214 186.494 202.564 152.285 210.95 143.748Z" fill="#638C9A"/>
<path fill-rule="evenodd" clip-rule="evenodd" d="M213.704 201.42C207.37 177.897 215.389 145.379 215.416 145.271C215.465 145.071 215.67 144.947 215.87 144.995C216.069 145.044 216.194 145.249 216.145 145.449C216.118 145.562 208.088 178.113 214.471 201.42H213.704Z" fill="#92B8C9"/>
<path fill-rule="evenodd" clip-rule="evenodd" d="M227.113 158.441C234.014 154.786 235.758 162.761 233.064 169.366C230.833 174.836 220.978 191.02 217.258 201.415H213.748C213.451 187.051 218.964 162.761 227.113 158.441Z" fill="#1D3F4D"/>
<path fill-rule="evenodd" clip-rule="evenodd" d="M215.027 201.42C217.312 181.985 230.234 160.861 230.282 160.785C230.374 160.639 230.563 160.591 230.714 160.677C230.866 160.769 230.909 160.963 230.822 161.109C230.779 161.185 217.933 182.174 215.654 201.415H215.027V201.42Z" fill="#7BA7B5"/>
<path fill-rule="evenodd" clip-rule="evenodd" d="M197.937 167.664C191.246 164.743 190.188 172.303 193.158 178.265C195.166 182.298 202.413 192.629 207.295 201.42H212.868C210.961 188.125 204.854 170.688 197.937 167.664Z" fill="#7BA7B5"/>
<path fill-rule="evenodd" clip-rule="evenodd" d="M210.88 201.42C206.128 185.312 195.193 170.138 195.15 170.073C195.058 169.943 194.874 169.911 194.739 170.003C194.61 170.1 194.577 170.283 194.675 170.413C194.718 170.472 205.539 185.495 210.281 201.42H210.88Z" fill="#1D3F4D"/>
<path fill-rule="evenodd" clip-rule="evenodd" d="M221.437 196.101H201.835C201.247 196.101 200.771 196.582 200.771 197.165V202.003C200.771 202.592 201.252 203.067 201.835 203.067H221.437C222.026 203.067 222.501 202.586 222.501 202.003V197.165C222.506 196.582 222.026 196.101 221.437 196.101Z" fill="#B62351"/>
<path fill-rule="evenodd" clip-rule="evenodd" d="M218.078 200.038H205.199L201.835 203.072L204.584 213.651H211.636H218.694L221.437 203.072L218.078 200.038Z" fill="#B62351"/>
<path fill-rule="evenodd" clip-rule="evenodd" d="M201.835 203.072L202.402 205.249L219.947 208.823L221.437 203.072H201.835Z" fill="#97234E"/>
<path fill-rule="evenodd" clip-rule="evenodd" d="M56.6296 136.139L52.1422 131.274C52.1422 131.274 51.5428 130.739 51.1594 131.296C50.776 131.852 51.4618 132.937 51.7696 133.499C52.0774 134.06 54.1132 138.029 54.1132 138.029L56.9482 137.651L56.6296 136.139Z" fill="#D6725F"/>
<path fill-rule="evenodd" clip-rule="evenodd" d="M55.3874 136.015L49.1882 132.052C49.1882 132.052 48.3944 131.647 48.1406 132.349C47.8868 133.051 48.9344 134.028 49.4204 134.546C49.9064 135.065 53.222 138.758 53.222 138.758L56.165 137.554L55.3874 136.015Z" fill="#D6725F"/>
<path fill-rule="evenodd" clip-rule="evenodd" d="M212.852 136.139L217.339 131.274C217.339 131.274 217.939 130.739 218.322 131.296C218.705 131.852 218.02 132.937 217.712 133.499C217.404 134.06 215.368 138.029 215.368 138.029L212.533 137.651L212.852 136.139Z" fill="#D6725F"/>
<path fill-rule="evenodd" clip-rule="evenodd" d="M214.099 136.015L220.293 132.052C220.293 132.052 221.092 131.647 221.346 132.349C221.599 133.051 220.557 134.028 220.066 134.546C219.58 135.065 216.264 138.758 216.264 138.758L213.321 137.554L214.099 136.015Z" fill="#D6725F"/>
<path fill-rule="evenodd" clip-rule="evenodd" d="M126.268 57.4182C142.495 37.6974 163.939 59.9724 152.528 85.7034C151.465 87.7122 178.897 114.712 150.503 129.875C135.918 137.662 114.313 122.229 114.313 122.229C100.089 100.969 118.465 88.7166 118.282 85.779C118.066 82.2258 116.932 78.9102 114.696 73.6614C111.013 64.989 117.693 55.0152 126.268 57.4182Z" fill="#30295E"/>
<path fill-rule="evenodd" clip-rule="evenodd" d="M114.069 138.748C114.069 138.748 94.489 165.553 90.8224 164.738C87.1558 163.917 48.3892 136.377 47.4982 135.707C46.6072 135.038 46.9528 133.866 47.8924 133.936C48.8374 134.006 53.8108 136.755 54.1348 136.971C54.4588 137.187 54.4804 136.852 54.4804 136.852C53.5246 132.43 57.5368 131.36 58.5952 131.296C59.6536 131.231 60.4528 131.695 60.4474 132.251C60.442 132.808 59.6374 133.034 59.6374 133.034C57.1588 133.294 56.5648 135.421 57.5368 136.825C58.5034 138.235 60.604 138.958 62.1862 137.57C63.7738 136.188 62.5858 134.352 62.0998 133.812C61.6192 133.272 61.1278 132.705 61.6462 132.181C62.17 131.657 62.7208 132.133 62.7208 132.133C67.7536 135.621 65.2534 139.622 65.2534 139.622C65.2534 139.622 64.7404 141.026 65.9446 141.826C67.1488 142.625 87.442 152.528 88.8298 152.653C89.8666 152.744 99.8134 133.034 105.618 121.203C108.443 115.447 112.455 108.751 118.011 106.99C118.011 106.996 122.704 116.926 114.069 138.748Z" fill="#E6AD83"/>
<path fill-rule="evenodd" clip-rule="evenodd" d="M155.93 138.748C155.93 138.748 175.505 165.553 179.177 164.738C182.844 163.917 221.611 136.377 222.502 135.707C223.393 135.038 223.047 133.866 222.102 133.936C221.157 134.006 216.184 136.755 215.86 136.971C215.536 137.187 215.514 136.852 215.514 136.852C216.47 132.43 212.458 131.36 211.399 131.296C210.341 131.231 209.542 131.695 209.547 132.251C209.552 132.808 210.357 133.034 210.357 133.034C212.836 133.294 213.43 135.421 212.463 136.825C211.496 138.235 209.396 138.958 207.814 137.57C206.226 136.188 207.414 134.352 207.9 133.812C208.381 133.272 208.872 132.705 208.354 132.181C207.835 131.657 207.279 132.133 207.279 132.133C202.246 135.621 204.752 139.622 204.752 139.622C204.752 139.622 205.265 141.026 204.061 141.826C202.856 142.625 182.563 152.528 181.175 152.653C180.139 152.744 170.192 133.034 164.387 121.203C161.563 115.447 157.594 108.664 152.037 106.904C152.032 106.909 147.296 116.926 155.93 138.748Z" fill="#E6AD83"/>
<path fill-rule="evenodd" clip-rule="evenodd" d="M164.003 182.272L196.468 184.091C196.468 184.091 193.86 193.709 193.493 194.767C193.12 195.831 135.043 212.62 135.043 212.62C135.043 212.62 76.9662 195.826 76.5936 194.767C76.221 193.703 73.6182 184.091 73.6182 184.091L106.083 182.272H164.003Z" fill="#B62351"/>
<path fill-rule="evenodd" clip-rule="evenodd" d="M163.355 213.3C163.355 213.3 165.056 211.426 166.195 211.302C167.335 211.172 184.55 216.427 186.893 217.188C191.246 218.597 192.688 231.023 182.401 229.721C177.908 229.149 166.454 227.567 164.489 227.065C162.523 226.557 161.913 223.43 161.913 223.43L163.355 213.3Z" fill="#B62351"/>
<path fill-rule="evenodd" clip-rule="evenodd" d="M141.761 104.949L151.945 106.807L153.933 121.824C153.933 121.824 156.341 129.168 156.589 131.76C156.843 134.357 153.738 140.875 152.728 143.532C151.713 146.189 151.719 160.871 151.843 161.887C151.967 162.902 158.836 182.272 158.836 182.272C158.836 182.272 153.852 187.391 135.049 187.391C116.246 187.391 111.262 182.272 111.262 182.272C111.262 182.272 118.125 162.902 118.255 161.887C118.379 160.871 118.384 146.189 117.369 143.532C116.354 140.875 113.254 134.357 113.508 131.76C113.762 129.163 116.165 121.824 116.165 121.824L118.152 106.807L128.337 104.949L135.054 111.51L141.761 104.949Z" fill="#CF5392"/>
<path fill-rule="evenodd" clip-rule="evenodd" d="M79.9413 185.074C79.9413 185.074 163.431 213.224 165.52 214.061C167.335 214.79 169.041 224.375 161.908 223.425C158.916 223.025 84.5583 209.45 77.4033 207.76C60.7497 203.818 61.5866 178.691 79.9413 185.074Z" fill="#E6AD83"/>
<path fill-rule="evenodd" clip-rule="evenodd" d="M142.808 206.312C155.287 210.541 164.835 213.786 165.52 214.061C166.638 214.51 167.707 218.295 166.719 220.93C166.06 221.648 165.261 222.442 164.376 223.268C163.706 223.49 162.891 223.56 161.902 223.425C160.552 223.247 144.752 220.396 127.132 217.166L142.808 206.312Z" fill="#D6725F"/>
<path fill-rule="evenodd" clip-rule="evenodd" d="M158.835 211.75C158.684 214.245 158.123 218.587 156.108 222.421C159.365 222.998 161.46 223.366 161.913 223.425C169.052 224.375 167.346 214.79 165.526 214.061C165.186 213.926 162.723 213.079 158.835 211.75Z" fill="white"/>
<path fill-rule="evenodd" clip-rule="evenodd" d="M158.835 211.75C158.684 214.245 158.123 218.587 156.108 222.421L158.781 222.896C161.201 219.1 161.487 214.866 161.438 212.641L158.835 211.75Z" fill="#DEDAE3"/>
<path fill-rule="evenodd" clip-rule="evenodd" d="M168.323 215.282C168.291 215.163 168.361 215.044 168.474 215.012C168.593 214.979 168.712 215.05 168.744 215.163L170.154 220.244L172.33 217.528L171.968 216.221C171.936 216.108 172.006 215.984 172.119 215.951C172.238 215.919 172.357 215.989 172.389 216.103L172.67 217.107L172.999 216.697C173.075 216.605 173.21 216.589 173.307 216.664C173.399 216.74 173.415 216.875 173.34 216.972L172.816 217.631L173.745 220.984L175.921 218.268L175.613 217.166C175.581 217.053 175.651 216.929 175.764 216.896C175.883 216.864 176.002 216.934 176.034 217.048L176.256 217.847L176.72 217.269C176.796 217.177 176.931 217.161 177.028 217.237C177.12 217.312 177.136 217.447 177.06 217.539L176.401 218.365L177.336 221.719L179.512 219.002L179.263 218.106C179.231 217.993 179.301 217.868 179.415 217.836C179.528 217.804 179.652 217.874 179.685 217.987L179.852 218.581L180.446 217.836C180.522 217.744 180.657 217.728 180.754 217.804C180.846 217.879 180.862 218.014 180.786 218.111L179.992 219.1L180.927 222.453L183.362 219.413C183.438 219.321 183.573 219.305 183.67 219.38C183.767 219.456 183.778 219.591 183.702 219.688L181.072 222.977L181.904 225.968C181.936 226.082 181.866 226.206 181.753 226.238C181.634 226.271 181.515 226.201 181.483 226.087L180.738 223.398L179.339 225.148C179.263 225.239 179.128 225.256 179.031 225.18C178.939 225.104 178.923 224.969 178.999 224.872L180.597 222.88L179.668 219.526L177.492 222.242L178.264 225.029C178.297 225.142 178.227 225.266 178.113 225.299C178 225.331 177.876 225.261 177.843 225.148L177.152 222.664L175.618 224.581C175.543 224.672 175.408 224.689 175.311 224.613C175.219 224.537 175.203 224.402 175.278 224.305L177.006 222.145L176.077 218.792L173.901 221.508L174.619 224.089C174.652 224.203 174.582 224.327 174.468 224.359C174.355 224.392 174.231 224.321 174.198 224.208L173.566 221.929L171.898 224.008C171.822 224.1 171.687 224.116 171.59 224.041C171.498 223.965 171.482 223.83 171.558 223.733L173.421 221.405L172.492 218.052L170.316 220.768L170.974 223.144C171.007 223.258 170.937 223.382 170.823 223.414C170.71 223.447 170.586 223.376 170.553 223.263L169.975 221.189L168.177 223.436C168.102 223.528 167.967 223.544 167.869 223.468C167.778 223.393 167.761 223.258 167.837 223.16L169.835 220.666L168.323 215.282Z" fill="white"/>
<path fill-rule="evenodd" clip-rule="evenodd" d="M184.809 217.296C188.719 218.565 190.009 229.711 180.775 228.544C176.741 228.031 166.465 226.611 164.705 226.157C163.457 225.833 162.815 224.332 162.55 223.484C162.345 223.474 162.134 223.452 161.913 223.425C161.913 223.425 162.523 226.552 164.489 227.059C166.449 227.567 177.908 229.149 182.401 229.716C192.693 231.023 191.251 218.597 186.893 217.183C184.55 216.421 167.335 211.172 166.195 211.297C165.056 211.426 163.355 213.295 163.355 213.295C163.576 213.37 163.787 213.44 163.976 213.511C164.467 213.025 165.488 212.096 166.238 212.015C167.259 211.901 182.708 216.616 184.809 217.296Z" fill="white"/>
<path fill-rule="evenodd" clip-rule="evenodd" d="M106.736 213.3C106.736 213.3 105.035 211.426 103.896 211.302C102.756 211.172 85.5409 216.427 83.2027 217.188C78.8503 218.597 77.4085 231.023 87.6955 229.721C92.1883 229.149 103.642 227.567 105.607 227.065C107.568 226.557 108.183 223.43 108.183 223.43L106.736 213.3Z" fill="#B62351"/>
<path fill-rule="evenodd" clip-rule="evenodd" d="M190.144 185.074C190.144 185.074 106.655 213.224 104.559 214.061C102.745 214.79 101.039 224.375 108.172 223.425C111.164 223.025 185.522 209.45 192.677 207.76C209.336 203.818 208.499 178.691 190.144 185.074Z" fill="#E6AD83"/>
<path fill-rule="evenodd" clip-rule="evenodd" d="M111.256 211.75C111.407 214.245 111.974 218.587 113.983 222.421C110.727 222.998 108.631 223.366 108.178 223.425C101.039 224.375 102.745 214.79 104.565 214.061C104.9 213.926 107.362 213.079 111.256 211.75Z" fill="white"/>
<path fill-rule="evenodd" clip-rule="evenodd" d="M111.256 211.75C111.407 214.245 111.974 218.587 113.983 222.421L111.31 222.896C108.891 219.1 108.605 214.866 108.653 212.641L111.256 211.75Z" fill="#DEDAE3"/>
<path fill-rule="evenodd" clip-rule="evenodd" d="M101.768 215.282C101.8 215.163 101.73 215.044 101.617 215.012C101.503 214.979 101.379 215.05 101.347 215.163L99.9373 220.244L97.7611 217.528L98.1229 216.221C98.1553 216.108 98.0851 215.984 97.9717 215.951C97.8583 215.919 97.7341 215.989 97.7017 216.103L97.4209 217.107L97.0915 216.697C97.0159 216.605 96.8809 216.589 96.7837 216.664C96.6919 216.74 96.6757 216.875 96.7513 216.972L97.2751 217.631L96.3409 220.984L94.1647 218.268L94.4725 217.166C94.5049 217.053 94.4347 216.929 94.3213 216.896C94.2079 216.864 94.0837 216.934 94.0513 217.048L93.8299 217.847L93.3655 217.269C93.2899 217.177 93.1549 217.161 93.0577 217.237C92.9659 217.312 92.9497 217.447 93.0253 217.539L93.6841 218.365L92.7499 221.719L90.5737 219.002L90.8221 218.106C90.8545 217.993 90.7843 217.868 90.6709 217.836C90.5575 217.804 90.4333 217.874 90.4009 217.987L90.2389 218.581L89.6449 217.836C89.5693 217.744 89.4343 217.728 89.3371 217.804C89.2453 217.879 89.2291 218.014 89.3047 218.111L90.0985 219.1L89.1643 222.453L86.7289 219.413C86.6533 219.321 86.5183 219.305 86.4211 219.38C86.3293 219.456 86.3131 219.591 86.3887 219.688L89.0185 222.977L88.1869 225.968C88.1545 226.082 88.2247 226.206 88.3381 226.238C88.4515 226.271 88.5757 226.201 88.6081 226.087L89.3533 223.398L90.7519 225.148C90.8275 225.239 90.9625 225.256 91.0597 225.18C91.1515 225.104 91.1677 224.969 91.0921 224.872L89.4937 222.88L90.4279 219.526L92.6041 222.242L91.8319 225.029C91.7995 225.142 91.8697 225.266 91.9831 225.299C92.0965 225.331 92.2207 225.261 92.2531 225.148L92.9443 222.664L94.4779 224.581C94.5535 224.672 94.6885 224.689 94.7857 224.613C94.8775 224.537 94.8937 224.402 94.8181 224.305L93.0901 222.145L94.0189 218.792L96.1951 221.508L95.4769 224.089C95.4445 224.203 95.5147 224.327 95.6281 224.359C95.7415 224.392 95.8657 224.321 95.8981 224.208L96.5299 221.929L98.1985 224.008C98.2741 224.1 98.4091 224.116 98.5063 224.041C98.5981 223.965 98.6143 223.83 98.5387 223.733L96.6757 221.405L97.6099 218.052L99.7861 220.768L99.1273 223.144C99.0949 223.258 99.1651 223.382 99.2785 223.414C99.3919 223.447 99.5161 223.376 99.5485 223.263L100.126 221.189L101.925 223.436C102 223.528 102.135 223.544 102.232 223.468C102.324 223.393 102.34 223.258 102.265 223.16L100.267 220.666L101.768 215.282Z" fill="white"/>
<path fill-rule="evenodd" clip-rule="evenodd" d="M85.2817 217.296C81.3721 218.565 80.0815 229.711 89.3155 228.544C93.3493 228.031 103.626 226.611 105.391 226.157C106.639 225.833 107.281 224.332 107.546 223.484C107.751 223.474 107.962 223.452 108.183 223.425C108.183 223.425 107.573 226.552 105.607 227.059C103.647 227.567 92.1883 229.149 87.6955 229.716C77.4085 231.023 78.8503 218.597 83.2027 217.183C85.5463 216.421 102.762 211.172 103.896 211.297C105.035 211.426 106.736 213.295 106.736 213.295C106.515 213.37 106.309 213.44 106.115 213.511C105.624 213.025 104.603 212.096 103.852 212.015C102.832 211.901 87.3823 216.616 85.2817 217.296Z" fill="white"/>
<path d="M135.043 203.683L111.256 211.75" stroke="#D6725F" stroke-width="1.4173" stroke-miterlimit="2.6131" stroke-linecap="round" stroke-linejoin="round"/>
<path fill-rule="evenodd" clip-rule="evenodd" d="M134.984 93.1824H135.108C138.769 93.1824 141.761 96.0876 141.761 99.6354V107.217C141.761 110.765 138.769 113.67 135.108 113.67H134.984C131.328 113.67 128.331 110.765 128.331 107.217V99.6354C128.331 96.0876 131.323 93.1824 134.984 93.1824Z" fill="#D6725F"/>
<path fill-rule="evenodd" clip-rule="evenodd" d="M150.406 79.8066C150.52 79.8228 150.628 79.8444 150.736 79.866H150.741C152.755 80.3034 154.273 82.08 154.3 84.2292C154.327 86.724 152.329 88.7706 149.834 88.803C147.339 88.8354 145.287 86.832 145.26 84.3372C145.244 82.8846 145.908 81.5886 146.961 80.7462C146.837 82.08 147.037 83.7324 148.738 83.9106L148.705 81.3024C148.7 80.2494 149.688 79.7688 150.406 79.8066Z" fill="#D6725F"/>
<path fill-rule="evenodd" clip-rule="evenodd" d="M119.502 79.5907C119.389 79.6069 119.281 79.6231 119.173 79.6447H119.167C117.148 80.0551 115.603 81.8101 115.549 83.9593C115.485 86.4541 117.456 88.5277 119.95 88.5925C122.445 88.6573 124.519 86.6863 124.584 84.1915C124.621 82.7389 123.973 81.4321 122.931 80.5789C123.034 81.9127 122.812 83.5651 121.111 83.7163L121.176 81.1081C121.209 80.0551 120.226 79.5637 119.502 79.5907Z" fill="#D6725F"/>
<path fill-rule="evenodd" clip-rule="evenodd" d="M134.924 102.433C126.489 102.433 119.453 92.0214 119.453 83.8026V72.8838C119.453 64.3734 126.414 57.4128 134.924 57.4128C143.435 57.4128 150.395 64.3734 150.395 72.8838V83.5704C150.395 92.583 144.261 102.433 134.924 102.433Z" fill="#E6AD83"/>
<path fill-rule="evenodd" clip-rule="evenodd" d="M143.672 87.2316C142.489 87.2532 141.544 88.2306 141.566 89.4132C141.587 90.5958 142.565 91.5408 143.747 91.5192C144.93 91.4976 145.875 90.5202 145.853 89.3376C145.832 88.155 144.854 87.21 143.672 87.2316Z" fill="#D6725F"/>
<path fill-rule="evenodd" clip-rule="evenodd" d="M125.917 87.5773C124.734 87.5989 123.789 88.5763 123.811 89.7589C123.833 90.9415 124.81 91.8865 125.993 91.8649C127.175 91.8433 128.12 90.8659 128.099 89.6833C128.077 88.4953 127.1 87.5557 125.917 87.5773Z" fill="#D6725F"/>
<path fill-rule="evenodd" clip-rule="evenodd" d="M130.248 78.354C130.572 78.4998 130.718 78.8886 130.572 79.2126C130.426 79.5366 130.037 79.6824 129.713 79.5366C129.708 79.5366 127.753 78.6078 125.89 79.785C125.588 79.974 125.183 79.8822 124.994 79.5798C124.805 79.2774 124.897 78.8724 125.199 78.6834C127.661 77.1336 130.243 78.354 130.248 78.354Z" fill="#30295E"/>
<path fill-rule="evenodd" clip-rule="evenodd" d="M145.551 78.6456C145.865 78.8184 145.978 79.2126 145.805 79.5258C145.632 79.839 145.238 79.9524 144.925 79.7796C144.92 79.7796 143.046 78.6942 141.091 79.7148C140.772 79.8822 140.378 79.758 140.216 79.4394C140.049 79.1208 140.173 78.7266 140.492 78.5592C143.067 77.2146 145.541 78.6402 145.551 78.6456Z" fill="#30295E"/>
<path fill-rule="evenodd" clip-rule="evenodd" d="M131.511 91.1358C131.489 93.3336 133.261 95.1372 135.458 95.1534C137.656 95.175 139.46 93.4092 139.476 91.206H139.471C139.476 90.828 139.168 90.5148 138.79 90.5094L132.213 90.45C131.835 90.4446 131.522 90.7524 131.516 91.1304H131.511V91.1358Z" fill="#30295E"/>
<path fill-rule="evenodd" clip-rule="evenodd" d="M132.97 94.2516C133.645 94.8078 134.514 95.148 135.459 95.1588C136.231 95.1642 136.955 94.9536 137.571 94.5756C137.274 93.7548 136.383 93.1339 135.308 93.0853C134.282 93.0367 133.375 93.5226 132.97 94.2516Z" fill="#B94440"/>
<path fill-rule="evenodd" clip-rule="evenodd" d="M138.569 90.5148L132.386 90.4608C132.283 91.1466 132.591 91.8378 133.05 91.9944C133.606 92.1834 138.083 92.1078 138.402 91.7568C138.558 91.5786 138.585 91.0332 138.569 90.5148Z" fill="white"/>
<path fill-rule="evenodd" clip-rule="evenodd" d="M135.691 85.3686C135.978 86.1678 136.485 87.6096 136.442 87.8418C136.383 88.1712 134.671 88.3926 134.217 87.9336C133.915 87.6258 134.287 86.3676 134.611 85.5252C135.054 84.375 135.303 84.294 135.691 85.3686Z" fill="#F1D3C8"/>
<path fill-rule="evenodd" clip-rule="evenodd" d="M144.039 84.4507C144.039 84.0889 143.894 83.7487 143.64 83.4949C143.381 83.2411 143.04 83.1007 142.679 83.1007C142.317 83.1007 141.977 83.2465 141.723 83.5003C141.469 83.7541 141.329 84.0997 141.329 84.4615C141.329 84.7639 141.086 85.0069 140.789 85.0069C140.492 85.0069 140.243 84.7639 140.243 84.4669C140.243 83.8189 140.497 83.1979 140.951 82.7389C141.41 82.2799 142.025 82.0207 142.673 82.0153C143.321 82.0153 143.942 82.2691 144.401 82.7227C144.639 82.9603 144.822 83.2357 144.947 83.5381C145.017 83.5543 145.152 83.5651 145.276 83.4733C145.346 83.4193 145.443 83.4355 145.492 83.5057C145.546 83.5759 145.53 83.6731 145.46 83.7217C145.319 83.8297 145.168 83.8567 145.044 83.8567V83.8675C145.173 83.8945 145.341 83.8999 145.519 83.8189C145.595 83.7811 145.692 83.8135 145.724 83.8945C145.762 83.9701 145.73 84.0619 145.649 84.0997C145.454 84.1915 145.265 84.2077 145.098 84.1915V84.1969C145.233 84.2509 145.4 84.2833 145.584 84.2617C145.67 84.2509 145.746 84.3103 145.757 84.3967C145.767 84.4831 145.708 84.5587 145.622 84.5695C145.433 84.5911 145.254 84.5695 145.109 84.5263C145.071 84.7909 144.844 84.9961 144.574 84.9961C144.288 84.9907 144.045 84.7477 144.039 84.4507Z" fill="#30295E"/>
<path fill-rule="evenodd" clip-rule="evenodd" d="M126.727 84.4507C126.727 84.0889 126.873 83.7487 127.127 83.4949C127.381 83.2411 127.726 83.1007 128.088 83.1007C128.45 83.1007 128.79 83.2465 129.044 83.5003C129.298 83.7541 129.438 84.0997 129.438 84.4615C129.438 84.7639 129.681 85.0069 129.978 85.0069C130.275 85.0069 130.524 84.7639 130.524 84.4669C130.529 83.8189 130.275 83.1979 129.816 82.7389C129.357 82.2799 128.742 82.0207 128.094 82.0153C127.446 82.0153 126.825 82.2691 126.36 82.7227C126.123 82.9603 125.939 83.2357 125.82 83.5381C125.75 83.5543 125.61 83.5651 125.491 83.4733C125.421 83.4193 125.323 83.4355 125.275 83.5057C125.221 83.5759 125.237 83.6731 125.302 83.7217C125.442 83.8297 125.593 83.8567 125.718 83.8567L125.712 83.8675C125.583 83.8945 125.415 83.8999 125.237 83.8189C125.161 83.7811 125.07 83.8135 125.032 83.8945C124.994 83.9701 125.026 84.0619 125.107 84.0997C125.302 84.1915 125.496 84.2077 125.658 84.1915V84.1969C125.523 84.2509 125.356 84.2833 125.172 84.2617C125.086 84.2509 125.01 84.3103 124.999 84.3967C124.989 84.4831 125.048 84.5587 125.134 84.5695C125.323 84.5911 125.496 84.5695 125.647 84.5263C125.685 84.7909 125.912 84.9961 126.182 84.9961C126.479 84.9907 126.727 84.7477 126.727 84.4507Z" fill="#30295E"/>
<path fill-rule="evenodd" clip-rule="evenodd" d="M119.501 79.5906L119.453 82.1124C119.453 82.1124 122.536 80.973 122.029 77.301C122.029 77.301 130.447 75.7836 132.974 67.932C132.974 67.932 138.418 69.8328 142.343 68.31C142.343 68.31 144.179 75.0168 148.229 76.221C148.229 76.221 148.386 81.2214 150.395 81.5994V79.3206L152.026 75.9672L150.697 64.5138C150.697 64.5138 144.622 55.6524 143.607 55.1502C142.592 54.6426 133.482 53.379 133.482 53.379L122.725 59.454C122.725 59.454 118.929 64.5192 118.929 65.6586C118.929 66.798 115.279 74.0556 119.501 79.5906Z" fill="#30295E"/>
<path d="M88.5225 152.582L91.4277 153.5M181.408 152.604L178.902 153.295" stroke="#D6725F" stroke-width="0.7087" stroke-miterlimit="2.6131" stroke-linecap="round" stroke-linejoin="round"/>
<path fill-rule="evenodd" clip-rule="evenodd" d="M124.983 126.014C127.262 123.665 131.047 123.611 133.396 125.89L135.265 127.705L137.079 125.836C139.358 123.487 143.143 123.433 145.492 125.712C151.562 131.603 142.765 138.715 135.486 142.835C128.741 139.865 119.081 132.089 124.983 126.014Z" fill="white"/>
<path fill-rule="evenodd" clip-rule="evenodd" d="M90.9035 102.805L94.7051 105.311L93.4577 107.201C94.9913 108.21 95.0831 110.792 94.0733 112.325L92.8205 114.226L91.0925 116.845L91.0763 116.867L90.8495 117.207L90.8333 117.196C90.5957 117.498 90.3203 117.752 89.9963 117.92C89.4455 118.2 89.0891 118.249 88.9055 118.487C88.7759 118.659 88.7165 118.919 88.7705 119.464C88.8299 120.058 88.5221 120.738 88.1711 121.273L87.8255 121.797L80.3033 133.202L79.9577 133.725C78.9479 135.259 76.8689 135.686 75.3353 134.676L71.5391 132.17C70.0055 131.16 69.5789 129.076 70.5887 127.548L70.9343 127.024L78.4511 115.619L78.7967 115.095C79.1153 114.615 79.5365 114.242 80.0117 113.988C80.6921 113.627 80.8703 113.54 80.9783 113.324C81.0647 113.146 81.1295 112.898 81.1781 112.255C81.2051 111.839 81.3131 111.429 81.5021 111.04L81.4805 111.024L81.7181 110.662L83.4461 108.043L84.6989 106.142C85.7087 104.609 88.1171 103.68 89.6507 104.69L90.9035 102.805Z" fill="#8FCADA"/>
<path fill-rule="evenodd" clip-rule="evenodd" d="M90.9035 102.805L92.3291 103.745L91.0817 105.635C92.6153 106.644 92.7071 109.226 91.6973 110.759L90.4445 112.66L88.7165 115.279L88.7003 115.301L88.4735 115.641L88.4573 115.63C88.2197 115.932 87.9497 116.186 87.6203 116.354C87.0695 116.634 86.7131 116.683 86.5295 116.921C86.3999 117.093 86.3405 117.353 86.3945 117.898C86.4539 118.492 86.1461 119.172 85.7951 119.707L85.4495 120.231L77.9327 131.636L77.5871 132.159C76.5773 133.693 74.4929 134.12 72.9647 133.11L71.5391 132.17C70.0055 131.16 69.5789 129.076 70.5887 127.548L70.9343 127.024L78.4511 115.619L78.7967 115.095C79.1153 114.615 79.5365 114.242 80.0117 113.988C80.6921 113.627 80.8703 113.54 80.9783 113.324C81.0647 113.146 81.1295 112.898 81.1781 112.255C81.2051 111.839 81.3131 111.429 81.5021 111.04L81.4805 111.024L81.7181 110.662L83.4461 108.043L84.6989 106.142C85.7087 104.609 88.1171 103.68 89.6507 104.69L90.9035 102.805Z" fill="#B0DAED"/>
<path fill-rule="evenodd" clip-rule="evenodd" d="M94.1866 101.963L92.5774 100.904C92.1022 100.591 91.438 100.753 91.0978 101.261L89.8936 103.086L92.3668 104.717L94.84 106.348L96.0442 104.522C96.379 104.009 96.2656 103.334 95.7904 103.021L94.1866 101.963Z" fill="#387286"/>
<path d="M84.6166 106.274L82.0957 110.097L91.4677 116.277L93.9885 112.454L84.6166 106.274Z" fill="#5293AA"/>
<path d="M58.3334 102.091L40.9062 108.812L41.9632 111.553L59.3903 104.832L58.3334 102.091Z" fill="#255262"/>
<path d="M58.3314 102.09L40.9043 108.811L41.3609 109.995L58.788 103.274L58.3314 102.09Z" fill="#387286"/>
<path fill-rule="evenodd" clip-rule="evenodd" d="M40.0144 116.44C39.0262 116.748 37.9408 116.235 37.5628 115.258L35.1598 109.021C34.7818 108.038 35.2408 106.931 36.1804 106.499L36.0994 106.294C35.7106 105.289 36.202 104.15 37.1956 103.739C36.9796 102.794 37.4872 101.795 38.4214 101.439C39.442 101.045 40.603 101.558 40.9972 102.578L46.219 116.111C46.6132 117.131 46.1002 118.292 45.0796 118.687C44.1454 119.048 43.1032 118.649 42.628 117.801C41.6182 118.163 40.4896 117.65 40.1008 116.64L40.0144 116.44ZM54.8752 95.0939C53.8546 95.4881 53.3416 96.6437 53.7358 97.6697L58.9576 111.202C59.3518 112.223 60.5074 112.736 61.5334 112.342C62.4676 111.98 62.9752 110.986 62.7592 110.041C63.7474 109.631 64.2388 108.491 63.8554 107.487L63.7744 107.282C64.714 106.844 65.173 105.737 64.795 104.76L62.392 98.5229C62.014 97.5401 60.9286 97.0271 59.9404 97.3403L59.8648 97.1351C59.476 96.1307 58.3474 95.6177 57.3376 95.9741C56.8516 95.1263 55.804 94.7321 54.8752 95.0939Z" fill="#387286"/>
<path fill-rule="evenodd" clip-rule="evenodd" d="M57.7969 108.2L58.9525 111.202C59.0389 111.429 59.1631 111.629 59.3197 111.802C59.8543 112.406 60.7345 112.649 61.5283 112.342C62.4625 111.98 62.9701 110.986 62.7541 110.041C63.7423 109.631 64.2337 108.491 63.8503 107.487L63.7693 107.282C64.5739 106.909 65.0275 106.04 64.9033 105.181C64.8817 105.041 64.8439 104.895 64.7899 104.76L63.6343 101.758C64.0123 102.74 63.5533 103.847 62.6137 104.279L62.6893 104.485C63.0781 105.489 62.5867 106.628 61.5931 107.039C61.8091 107.984 61.3015 108.983 60.3673 109.339C59.3467 109.733 58.1911 109.22 57.7969 108.2Z" fill="#255262"/>
<path fill-rule="evenodd" clip-rule="evenodd" d="M46.2136 116.111L45.058 113.108C45.4522 114.129 44.9392 115.29 43.9186 115.684C42.9844 116.046 41.9422 115.646 41.467 114.799C40.4572 115.16 39.3286 114.647 38.9398 113.638L38.8588 113.432C37.8706 113.74 36.7852 113.227 36.4072 112.25L37.5628 115.252C37.9408 116.235 39.0262 116.748 40.0144 116.435L40.09 116.64C40.4788 117.644 41.6074 118.157 42.6172 117.801C43.0924 118.649 44.14 119.043 45.0688 118.687C46.0948 118.292 46.6078 117.137 46.2136 116.111Z" fill="#255262"/>
<path fill-rule="evenodd" clip-rule="evenodd" d="M36.1695 106.504C35.2353 106.942 34.7817 108.043 35.1597 109.021L36.4071 112.255C36.7851 113.233 37.8597 113.746 38.8479 113.443L36.1695 106.504Z" fill="#255262"/>
<path fill-rule="evenodd" clip-rule="evenodd" d="M59.7676 96.9462L62.7484 104.679C62.7322 104.614 62.7106 104.549 62.6836 104.485L62.608 104.279C63.5476 103.842 64.0066 102.735 63.6286 101.758L62.3812 98.523C62.0032 97.5402 60.9178 97.0272 59.9296 97.3404L59.854 97.1352C59.827 97.0704 59.8 97.0056 59.7676 96.9462Z" fill="#255262"/>
<path fill-rule="evenodd" clip-rule="evenodd" d="M210.244 89.505C210.39 88.1928 210.984 85.698 211.821 85.5306C212.312 85.4334 212.939 85.6332 212.42 86.7888C211.913 87.912 211.087 89.7534 211.033 92.6586C210.984 95.2668 210.077 91.0116 210.244 89.505Z" fill="#387286"/>
<path fill-rule="evenodd" clip-rule="evenodd" d="M210.563 90.5202C210.401 88.371 208.576 86.7078 205.94 86.7402C203.305 86.7726 202.555 87.0966 202.555 87.0966C202.555 87.0966 204.769 92.4372 210.563 90.5202Z" fill="#387286"/>
<path fill-rule="evenodd" clip-rule="evenodd" d="M210.562 90.5202C210.725 88.371 212.55 86.7078 215.185 86.7402C217.82 86.7726 218.571 87.0966 218.571 87.0966C218.571 87.0966 216.362 92.4372 210.562 90.5202Z" fill="#387286"/>
<path fill-rule="evenodd" clip-rule="evenodd" d="M208.424 106.018C209.952 106.153 210.352 105.327 210.87 105.327C211.4 105.327 212.053 106.153 213.252 106.018C220.455 105.208 226.217 89.9046 209.985 90.3258C196.253 90.6822 200.924 105.354 208.424 106.018Z" fill="#CC342A"/>
<path fill-rule="evenodd" clip-rule="evenodd" d="M205.832 91.7946C203.332 93.0366 201.869 95.175 202.56 96.5628C203.251 97.956 205.838 98.0748 208.338 96.8328C210.838 95.5908 212.302 93.4524 211.61 92.0646C210.919 90.6714 208.333 90.5526 205.832 91.7946Z" fill="#D1544B"/>
<path fill-rule="evenodd" clip-rule="evenodd" d="M172.26 104.857C174.042 102.254 177.628 101.579 180.23 103.361L182.309 104.782L183.729 102.708C185.511 100.105 189.097 99.4301 191.7 101.212C198.434 105.813 191.241 114.016 184.998 119.129C178.108 117.401 167.648 111.596 172.26 104.857Z" fill="#CC342A"/>
<path fill-rule="evenodd" clip-rule="evenodd" d="M173.296 106.024C172.152 107.746 172.168 109.571 173.323 110.095C174.484 110.624 176.347 109.652 177.492 107.93C178.637 106.207 178.621 104.382 177.46 103.858C176.304 103.334 174.441 104.301 173.296 106.024Z" fill="#D1544B"/>
<path fill-rule="evenodd" clip-rule="evenodd" d="M184.329 103.442C183.454 104.571 183.373 105.829 184.145 106.25C184.917 106.672 186.251 106.094 187.126 104.965C188.001 103.837 188.082 102.578 187.309 102.157C186.537 101.736 185.198 102.314 184.329 103.442Z" fill="#D1544B"/>
</g>
<defs>
<clipPath id="clip0_104_25825">
<rect width="270" height="270" fill="white"/>
</clipPath>
</defs>
</svg>
