<svg width="297" height="258" viewBox="0 0 297 258" fill="none" xmlns="http://www.w3.org/2000/svg">
<path d="M307.381 86.9713L198.845 111.385L217.044 192.294L325.58 167.88L307.381 86.9713Z" fill="#D65A51"/>
<path d="M318.147 84.5497L209.611 108.964L227.811 189.872L336.347 165.458L318.147 84.5497Z" fill="#AF3831"/>
<path d="M327.102 124.357L218.565 148.771L219.257 151.844L327.793 127.43L327.102 124.357Z" fill="#D65A51"/>
<path d="M290.797 127.707L293.811 141.209L282.538 143.722L285.051 154.996L271.549 158.005L269.031 146.737L257.752 149.251L254.745 135.754L266.024 133.24L263.505 121.966L277.012 118.951L279.525 130.226L290.797 127.707Z" fill="white"/>
<path d="M239.163 137.405L230.782 139.29L234.623 156.367L243.004 154.481L239.163 137.405Z" fill="#E49124"/>
<path d="M287.956 91.3406L283.725 92.2924L280.958 79.991C280.338 77.2349 277.589 75.4966 274.832 76.1168L237.925 84.4185C235.168 85.0387 233.429 87.7865 234.049 90.5425L236.816 102.844L232.585 103.796L229.818 91.4943C228.674 86.4078 231.882 81.3401 236.97 80.1956L273.882 71.8926C278.97 70.7481 284.039 73.954 285.183 79.0405L287.95 91.3418L287.956 91.3406Z" fill="#222D48"/>
<path d="M237.225 92.5572L227.518 94.7407L229.7 104.444L239.407 102.261L237.225 92.5572Z" fill="#E49124"/>
<path d="M288.508 81.0208L278.801 83.2043L280.983 92.9079L290.691 90.7244L288.508 81.0208Z" fill="#E49124"/>
<path d="M69.1238 157.396C73.5445 153.844 80.0128 154.551 83.5649 158.969L155.573 248.605C159.125 253.023 158.417 259.49 153.996 263.036L118.136 291.829C113.716 295.381 107.247 294.674 103.701 290.254L31.6869 200.62C28.1348 196.201 28.8439 189.741 33.2646 186.189L69.1238 157.396Z" fill="#D65A51"/>
<path d="M107.034 254.787C108.598 253.529 108.852 251.242 107.593 249.673C106.335 248.11 104.047 247.856 102.477 249.115L94.4705 255.543C92.9065 256.801 92.6524 259.088 93.9115 260.657C95.1695 262.22 97.4577 262.474 99.0272 261.215L107.034 254.787Z" fill="#BC4B4B"/>
<path d="M98.2134 254.742L94.2107 257.958C92.6467 259.216 92.3926 261.504 93.6518 263.072C94.9097 264.636 97.1979 264.889 98.7674 263.63L102.77 260.414L98.2134 254.742Z" fill="#AF3831"/>
<path d="M106.772 257.197C108.336 255.939 108.59 253.651 107.332 252.088C106.075 250.525 103.786 250.271 102.217 251.53L98.2141 254.747L102.77 260.413L106.772 257.197Z" fill="#FEFEFE"/>
<path d="M94.6559 239.384C96.22 238.126 96.474 235.839 95.2149 234.27C93.957 232.707 91.6687 232.453 90.0992 233.712L82.0925 240.14C80.5285 241.398 80.2745 243.685 81.5336 245.254C82.7915 246.818 85.0798 247.071 86.6493 245.812L94.6559 239.384Z" fill="#BC4B4B"/>
<path d="M85.8335 239.333L81.8308 242.55C80.2668 243.807 80.0128 246.095 81.2719 247.664C82.5298 249.227 84.8181 249.481 86.3875 248.222L90.3903 245.005L85.8335 239.333Z" fill="#AF3831"/>
<path d="M94.3915 241.788C95.9555 240.53 96.2095 238.243 94.9516 236.68C93.6937 235.116 91.4055 234.863 89.836 236.122L85.8333 239.338L90.3888 245.005L94.3915 241.788Z" fill="#FEFEFE"/>
<path d="M84.5702 246.44C85.265 245.882 86.0579 245.71 86.3428 246.059C86.6223 246.409 86.283 247.144 85.5882 247.702C84.888 248.261 84.0951 248.433 83.8169 248.089C83.5319 247.74 83.8712 247.004 84.5702 246.44Z" fill="#FEFEFE"/>
<path d="M82.277 223.976C83.8411 222.718 84.0951 220.43 82.836 218.862C81.5781 217.298 79.2898 217.045 77.7203 218.304L69.7136 224.732C68.1496 225.989 67.8956 228.277 69.1547 229.846C70.4126 231.409 72.7009 231.663 74.2704 230.404L82.277 223.976Z" fill="#BC4B4B"/>
<path d="M73.4546 223.925L69.4519 227.141C67.8879 228.399 67.6339 230.687 68.893 232.256C70.1509 233.819 72.4392 234.072 74.0086 232.813L78.0114 229.597L73.4546 223.925Z" fill="#AF3831"/>
<path d="M82.0145 226.38C83.5785 225.122 83.8326 222.835 82.5747 221.271C81.3168 219.708 79.0285 219.454 77.459 220.713L73.4563 223.93L78.0118 229.597L82.0145 226.38Z" fill="#FEFEFE"/>
<path d="M72.1923 231.037C72.8871 230.48 73.6799 230.307 73.9649 230.656C74.2443 231.006 73.9051 231.741 73.2103 232.299C72.51 232.858 71.7172 233.031 71.4389 232.686C71.1528 232.332 71.492 231.596 72.1923 231.037Z" fill="#FEFEFE"/>
<path d="M69.903 208.566C71.467 207.308 71.7211 205.02 70.4619 203.452C69.204 201.888 66.9158 201.635 65.3463 202.894L57.3396 209.322C55.7756 210.58 55.5216 212.867 56.7807 214.436C58.0386 215.999 60.3269 216.253 61.8963 214.994L69.903 208.566Z" fill="#BC4B4B"/>
<path d="M61.0826 208.52L57.0798 211.737C55.5158 212.994 55.2618 215.282 56.5209 216.851C57.7788 218.414 60.0671 218.668 61.6366 217.409L65.6393 214.192L61.0826 208.52Z" fill="#AF3831"/>
<path d="M69.6366 210.977C71.2006 209.719 71.4547 207.431 70.1968 205.868C68.9388 204.305 66.6506 204.051 65.0811 205.31L61.0784 208.527L65.6339 214.193L69.6366 210.977Z" fill="#FEFEFE"/>
<path d="M59.8134 215.629C60.5081 215.071 61.301 214.898 61.5859 215.247C61.8654 215.597 61.5262 216.333 60.8314 216.89C60.1311 217.449 59.3383 217.622 59.06 217.277C58.7739 216.923 59.1131 216.187 59.8134 215.629Z" fill="#FEFEFE"/>
<path d="M57.5241 193.163C59.0881 191.905 59.3422 189.618 58.083 188.049C56.8251 186.486 54.5369 186.232 52.9674 187.491L44.9607 193.919C43.3967 195.177 43.1427 197.464 44.4018 199.033C45.6597 200.596 47.948 200.85 49.5174 199.591L57.5241 193.163Z" fill="#BC4B4B"/>
<path d="M48.7017 193.112L44.699 196.329C43.135 197.586 42.8809 199.874 44.1401 201.443C45.398 203.006 47.6862 203.26 49.2557 202.001L53.2584 198.784L48.7017 193.112Z" fill="#AF3831"/>
<path d="M57.2608 195.567C58.8248 194.309 59.0789 192.022 57.821 190.459C56.5619 188.89 54.2748 188.642 52.7053 189.901L48.7026 193.117L53.2581 198.784L57.2608 195.567Z" fill="#FEFEFE"/>
<path d="M47.4333 200.22C48.1281 199.663 48.921 199.49 49.2059 199.839C49.4854 200.189 49.1461 200.924 48.4514 201.482C47.7511 202.041 46.9582 202.214 46.68 201.869C46.4005 201.519 46.7398 200.783 47.4333 200.22Z" fill="#FEFEFE"/>
<path d="M143.68 250.712C145.244 249.454 145.498 247.167 144.24 245.603C142.981 244.035 140.694 243.787 139.125 245.046L131.118 251.474C129.554 252.731 129.3 255.019 130.559 256.588C131.817 258.151 134.105 258.405 135.675 257.146L143.68 250.712Z" fill="#BC4B4B"/>
<path d="M134.859 250.661L130.856 253.878C129.292 255.135 129.038 257.423 130.297 258.992C131.555 260.555 133.843 260.808 135.413 259.55L139.416 256.333L134.859 250.661Z" fill="#AF3831"/>
<path d="M143.42 253.116C144.984 251.858 145.238 249.571 143.98 248.007C142.722 246.444 140.434 246.191 138.864 247.45L134.862 250.666L139.417 256.333L143.42 253.116Z" fill="#FEFEFE"/>
<path d="M133.596 257.768C134.29 257.211 135.083 257.038 135.368 257.387C135.648 257.737 135.308 258.472 134.614 259.03C133.913 259.589 133.12 259.761 132.841 259.412C132.557 259.068 132.895 258.327 133.596 257.768Z" fill="#FEFEFE"/>
<path d="M131.307 235.302C132.871 234.044 133.125 231.757 131.866 230.188C130.608 228.625 128.32 228.371 126.751 229.63L118.744 236.058C117.18 237.316 116.926 239.603 118.185 241.172C119.443 242.736 121.731 242.989 123.301 241.73L131.307 235.302Z" fill="#BC4B4B"/>
<path d="M122.484 235.251L118.481 238.468C116.917 239.726 116.663 242.013 117.922 243.582C119.18 245.145 121.468 245.399 123.038 244.14L127.041 240.923L122.484 235.251Z" fill="#AF3831"/>
<path d="M131.044 237.706C132.608 236.449 132.862 234.161 131.604 232.598C130.346 231.034 128.058 230.781 126.488 232.04L122.486 235.257L127.041 240.923L131.044 237.706Z" fill="#FEFEFE"/>
<path d="M121.217 242.359C121.912 241.802 122.705 241.629 122.989 241.978C123.269 242.328 122.93 243.064 122.235 243.621C121.535 244.18 120.742 244.353 120.462 244.003C120.184 243.658 120.518 242.924 121.217 242.359Z" fill="#FEFEFE"/>
<path d="M118.927 219.894C120.491 218.636 120.745 216.348 119.486 214.78C118.228 213.216 115.94 212.963 114.371 214.222L106.364 220.65C104.8 221.907 104.546 224.195 105.805 225.764C107.063 227.327 109.351 227.581 110.921 226.322L118.927 219.894Z" fill="#BC4B4B"/>
<path d="M110.108 219.848L106.105 223.065C104.541 224.323 104.287 226.61 105.546 228.179C106.804 229.742 109.092 229.996 110.662 228.737L114.665 225.52L110.108 219.848Z" fill="#AF3831"/>
<path d="M118.666 222.298C120.23 221.04 120.484 218.753 119.226 217.189C117.968 215.626 115.68 215.372 114.11 216.631L110.108 219.848L114.663 225.515L118.666 222.298Z" fill="#FEFEFE"/>
<path d="M108.838 226.957C109.532 226.399 110.325 226.227 110.61 226.575C110.89 226.925 110.55 227.661 109.856 228.219C109.155 228.778 108.363 228.95 108.083 228.6C107.804 228.25 108.143 227.515 108.838 226.957Z" fill="#FEFEFE"/>
<path d="M106.548 204.486C108.112 203.228 108.366 200.94 107.106 199.372C105.849 197.808 103.56 197.555 101.991 198.814L93.9841 205.242C92.4201 206.499 92.1661 208.787 93.4252 210.356C94.6831 211.919 96.9714 212.173 98.5409 210.914L106.548 204.486Z" fill="#BC4B4B"/>
<path d="M97.7271 204.44L93.7244 207.657C92.1604 208.914 91.9063 211.202 93.1655 212.771C94.4234 214.334 96.7116 214.588 98.2811 213.329L102.284 210.112L97.7271 204.44Z" fill="#AF3831"/>
<path d="M106.286 206.895C107.85 205.637 108.104 203.35 106.846 201.787C105.588 200.223 103.3 199.97 101.731 201.229L97.7278 204.445L102.283 210.112L106.286 206.895Z" fill="#FEFEFE"/>
<path d="M96.4638 211.547C97.1585 210.99 97.9514 210.817 98.2363 211.166C98.5158 211.516 98.1765 212.251 97.4818 212.809C96.7815 213.368 95.9887 213.541 95.7104 213.196C95.4255 212.847 95.7635 212.106 96.4638 211.547Z" fill="#FEFEFE"/>
<path d="M94.1706 189.083C95.7346 187.825 95.9886 185.538 94.7295 183.969C93.4716 182.405 91.1833 182.152 89.6139 183.411L81.6072 189.839C80.0432 191.097 79.7891 193.384 81.0483 194.953C82.3062 196.516 84.5944 196.77 86.1639 195.511L94.1706 189.083Z" fill="#BC4B4B"/>
<path d="M85.3492 189.031L81.3464 192.248C79.7824 193.506 79.5284 195.793 80.7875 197.362C82.0454 198.926 84.3337 199.179 85.9032 197.92L89.9059 194.703L85.3492 189.031Z" fill="#AF3831"/>
<path d="M93.9081 191.487C95.4721 190.229 95.7261 187.942 94.4682 186.378C93.2103 184.815 90.9221 184.561 89.3526 185.82L85.3499 189.037L89.9054 194.704L93.9081 191.487Z" fill="#FEFEFE"/>
<path d="M84.0848 196.139C84.7796 195.581 85.5725 195.409 85.8574 195.757C86.1369 196.107 85.7976 196.843 85.1028 197.401C84.4026 197.959 83.6097 198.132 83.3315 197.788C83.0466 197.439 83.3858 196.703 84.0848 196.139Z" fill="#FEFEFE"/>
<path d="M81.7956 173.672C83.3596 172.415 83.6136 170.127 82.3545 168.558C81.0966 166.995 78.8083 166.741 77.2389 168L69.2322 174.429C67.6682 175.686 67.4141 177.974 68.6733 179.543C69.9324 181.111 72.2194 181.359 73.7889 180.101L81.7956 173.672Z" fill="#BC4B4B"/>
<path d="M72.9751 173.627L68.9724 176.844C67.4084 178.102 67.1544 180.389 68.4135 181.958C69.6714 183.521 71.9597 183.775 73.5292 182.516L77.5319 179.299L72.9751 173.627Z" fill="#AF3831"/>
<path d="M81.5282 176.078C83.0922 174.82 83.3463 172.533 82.0883 170.97C80.8304 169.406 78.5422 169.153 76.9727 170.412L72.97 173.628L77.5255 179.295L81.5282 176.078Z" fill="#FEFEFE"/>
<path d="M71.7069 180.736C72.4017 180.178 73.1946 180.005 73.4795 180.354C73.759 180.704 73.4197 181.44 72.7249 181.998C72.0247 182.556 71.2318 182.729 70.9536 182.384C70.6674 182.03 71.0067 181.295 71.7069 180.736Z" fill="#FEFEFE"/>
<path d="M130.152 270.073L57.1084 179.151" stroke="white" stroke-width="1.4702" stroke-miterlimit="10" stroke-linecap="round" stroke-linejoin="round"/>
<path d="M321.646 294.399L138.569 335.58C131.363 337.201 124.212 332.678 122.592 325.475L69.4086 89.0418C67.7884 81.839 72.3143 74.6891 79.5197 73.0683L262.591 31.8887C269.796 30.2679 276.948 34.7911 278.568 41.9939L331.751 278.427C333.377 285.629 328.851 292.778 321.646 294.399Z" fill="#3E5977"/>
<path d="M276.97 44.2715L330.152 280.705C331.773 287.908 327.241 295.059 320.035 296.68L136.97 337.858C129.765 339.479 122.607 334.957 120.987 327.754L67.8041 91.3208C66.184 84.118 70.7161 76.9667 77.9215 75.346L260.992 34.1663C268.198 32.5455 275.349 37.0687 276.97 44.2715Z" fill="#2B405C"/>
<path d="M306.285 273.704L139.558 311.207C136.17 311.969 132.806 309.842 132.044 306.455L85.5943 99.9533C84.8323 96.5659 86.961 93.2031 90.3495 92.4409L257.076 54.9377C260.464 54.1755 263.828 56.3029 264.59 59.6902L311.039 266.185C311.802 269.579 309.673 272.942 306.285 273.704Z" fill="white"/>
<path opacity="0.1" d="M326.562 264.744L330.154 280.711C331.774 287.914 327.242 295.065 320.037 296.686L136.972 337.864C129.767 339.485 122.609 334.963 120.989 327.76L83.5303 161.233C86.6652 169.875 89.9959 178.446 93.6827 186.864C98.733 198.401 104.449 209.664 111.155 220.326C128.884 248.513 154.754 272.976 186.756 282.221C201.633 286.522 217.284 287.413 232.764 287.186C255.835 286.851 279.047 284.051 300.843 276.489C309.745 273.408 318.413 269.494 326.562 264.744Z" fill="#212A49"/>
<path d="M220.632 63.373C217.916 53.1821 213.293 44.8953 205.778 45.5537C185.684 47.3285 188.878 43.1704 181.543 34.7992C178.97 31.8654 175.451 30.0443 171.547 29.8111C163.074 29.296 152.494 33.065 149.975 41.9C146.93 52.6061 151.603 54.9946 132.685 61.9952C132.013 62.2455 131.395 62.5566 130.837 62.9269C124.951 66.7975 125.147 76.9664 127.51 87.4684C128.11 90.138 174.844 78.7394 174.844 78.7394C174.844 78.7394 221.957 69.0282 221.357 66.3586C221.136 65.3498 220.892 64.353 220.632 63.373ZM164.914 36.3303C169.191 35.3683 173.243 37.202 173.968 40.4256C174.693 43.6492 171.815 47.0351 167.538 47.997C163.262 48.959 159.21 47.1253 158.486 43.908C157.755 40.6858 160.637 37.2922 164.914 36.3303Z" fill="#3E5977"/>
<path d="M221.363 66.3573C221.964 69.0269 174.85 78.7381 174.85 78.7381C174.85 78.7381 128.117 90.1367 127.516 87.4671C125.155 76.9714 124.951 66.7976 130.843 62.9256C130.655 63.8277 130.537 64.7408 130.56 65.6682C130.618 68.5457 131.868 71.453 134.163 73.2451C137.607 75.9365 142.355 76.0065 146.722 75.8906C166.105 75.3671 185.52 73.487 204.348 68.8484C209.916 67.477 215.483 65.841 220.639 63.3717C220.892 64.3531 221.136 65.3499 221.363 66.3573Z" fill="#2B405C"/>
<path d="M211.083 64.727C208.972 64.7257 206.885 65.2744 204.838 65.7349C202.703 66.2151 200.556 66.6717 198.41 67.1016C194.173 67.9487 189.913 68.6887 185.64 69.3455C177.037 70.6655 168.372 71.5894 159.687 72.1341C154.754 72.4433 149.821 72.726 144.886 72.877C144.577 72.8869 144.549 73.3497 144.862 73.3587C162.32 73.9295 179.813 72.2702 196.964 69.0276C199.357 68.5753 201.742 68.0916 204.121 67.5764C206.519 67.0569 209.054 66.6189 211.243 65.4651C211.588 65.2948 211.48 64.7239 211.083 64.727Z" fill="#2B405C"/>
<path d="M198.438 64.2244C195.979 64.1162 193.375 64.9533 190.954 65.3391C188.386 65.7513 185.797 66.0956 183.211 66.3664C177.967 66.9109 172.66 67.2317 167.39 67.2198C167.012 67.2187 166.981 67.7879 167.363 67.8079C172.704 68.1079 177.997 68.1015 183.324 67.631C185.919 67.4042 188.503 67.0943 191.072 66.6884C193.52 66.3032 196.384 66.0954 198.6 64.9422C198.931 64.7684 198.812 64.2395 198.438 64.2244Z" fill="#2B405C"/>
<path d="M199.384 169.1C196.777 173.278 194.784 177.861 193.227 182.53C192.608 184.396 192.058 186.332 191.665 188.293C189.405 183.807 186.392 179.768 182.218 176.652C179.888 174.914 177.503 178.725 179.811 180.455C187.269 186.02 190.316 195.416 192.295 204.125C192.336 204.308 192.392 204.467 192.458 204.618L196.741 203.654C196.737 203.49 196.718 203.316 196.678 203.139C195.165 196.501 195.425 190.417 197.512 183.901C198.896 179.581 200.781 175.367 203.184 171.519C204.718 169.044 200.921 166.637 199.384 169.1Z" fill="#CE6B6B"/>
<path d="M210.078 152.48C210.304 157.397 211.256 162.302 212.629 167.027C213.173 168.916 213.82 170.821 214.611 172.66C210.203 170.245 205.432 168.626 200.22 168.429C197.316 168.315 197.513 172.809 200.396 172.921C209.701 173.275 217.537 179.285 224.106 185.335C224.239 185.457 224.382 185.564 224.52 185.645L227.5 182.422C227.403 182.285 227.289 182.158 227.154 182.03C222.147 177.421 218.904 172.27 216.927 165.717C215.613 161.375 214.778 156.84 214.571 152.303C214.443 149.408 209.948 149.579 210.078 152.48Z" fill="#A54341"/>
<path d="M213.734 100.221C210.916 100.815 207.732 102.279 205.528 104.131C202.349 106.797 201.223 108.294 196.831 108.33C193.092 108.357 189.419 107.033 185.669 107.335C181.282 107.686 177.015 109.136 174.601 112.933C173.966 113.936 175.143 114.902 176.086 114.683C179.181 113.967 182.832 114.402 185.976 114.555C188.399 114.678 192.272 114.892 194.071 116.299C195.535 117.452 195.992 119.955 196.236 122.216C196.426 124.005 196.374 125.889 196.515 127.722C196.502 127.93 196.502 128.135 196.489 128.343C191.958 128.761 187.174 131.821 186.482 136.012C184.881 145.692 195.523 152.347 194.406 161.442C194.076 164.096 192.245 169.899 194.186 172.234C197.408 176.113 207.145 169.802 208.499 166.263C210.133 161.993 209.904 156.918 209.358 152.344C213.302 149.076 216.555 143.475 217.5 138.441C219.167 129.526 206.44 111.513 216.349 105.672C217.447 105.022 220.918 103.626 220.246 101.786C219.326 99.314 215.704 99.8045 213.734 100.221Z" fill="#F28683"/>
<path d="M186.777 111.134C171.612 112.468 152.661 113.35 139.447 121.502C130.883 126.789 122.452 134.169 119.154 143.986C113.232 161.987 117.596 186.922 123.136 204.164C130.599 227.37 143.081 213.847 157.723 204.752C165.044 200.201 174.54 197.88 181.201 193.544C191.863 185.728 197.307 170.804 199.203 158.491C201.019 148.948 201.203 138.495 200.11 128.872C199.603 124.382 198.975 117.882 195.862 114.283C193.255 111.251 190.091 110.838 186.777 111.134Z" fill="#D65A51"/>
<path d="M239.93 142.014C242.023 135.465 246.781 129.228 251.452 124.255C256.609 118.763 271.016 100.209 261.332 93.5166C257.83 91.0963 252.913 93.8029 249.655 95.409C245.123 97.6457 241.34 99.3035 236.246 100.105C227.394 101.495 217.351 101.002 209.673 105.878C203.559 109.76 204.592 119.767 205.001 125.939C205.635 135.494 203.426 149.855 207.29 158.855C212.175 169.478 222.678 162.69 229.199 157.175C235.116 152.827 237.659 148.598 239.93 142.014Z" fill="#D65A51"/>
<path d="M195.786 114.181C195.861 114.839 195.931 115.471 195.999 116.071C197.092 125.694 196.909 136.147 195.093 145.697C193.199 158.016 187.754 172.934 177.092 180.749C170.437 185.084 160.935 187.407 153.614 191.957C140.046 200.387 128.332 212.62 120.743 195.885C121.495 198.785 122.305 201.56 123.142 204.163C130.605 227.369 143.086 213.845 157.729 204.751C165.05 200.2 174.546 197.879 181.207 193.543C191.869 185.727 197.313 170.803 199.208 158.49C201.025 148.947 201.208 138.494 200.116 128.87C199.609 124.381 198.98 117.881 195.868 114.281C195.839 114.241 195.813 114.214 195.786 114.181Z" fill="#AF3831"/>
<g opacity="0.5">
<path d="M249.251 117.402C244.58 122.375 239.822 128.611 237.729 135.161C235.457 141.744 232.909 145.975 226.992 150.323C220.713 155.624 210.763 162.103 205.667 153.128C206.024 155.185 206.545 157.118 207.285 158.85C212.169 169.473 222.672 162.685 229.193 157.17C235.118 152.827 237.659 148.591 239.93 142.008C242.024 135.458 246.782 129.222 251.453 124.249C256.406 118.967 269.913 101.621 262.347 94.3404C261.596 102.566 252.987 113.419 249.251 117.402Z" fill="#AF3831"/>
</g>
<path d="M174.751 121.717C176.186 120.097 179.424 119.898 181.691 119.858C184.42 119.813 187.623 120.078 189.793 121.899C190.983 122.894 192.956 122.252 193.729 121.073C194.656 119.66 194.094 118.133 192.904 117.137C189.871 114.598 185.264 114.12 181.467 114.186C178.086 114.246 173.399 114.738 170.985 117.45C169.956 118.608 169.619 120.199 170.736 121.462C171.663 122.524 173.722 122.881 174.751 121.717Z" fill="#F28683"/>
<path d="M216.271 115.176C217.168 112.136 220.843 111.204 223.569 110.617C227.672 109.734 225.64 103.556 221.582 104.429C216.267 105.572 211.543 108.308 209.927 113.772C208.723 117.806 215.085 119.173 216.271 115.176Z" fill="#F28683"/>
<path d="M165.668 172.531C166.05 174.23 163.317 176.287 159.563 177.132C155.809 177.976 152.458 177.288 152.076 175.588C151.694 173.888 154.427 171.831 158.181 170.987C161.935 170.142 165.287 170.837 165.668 172.531Z" fill="#AF3831"/>
<path d="M178.736 158.643C178.948 159.588 177.432 160.729 175.341 161.2C173.256 161.669 171.39 161.288 171.178 160.343C170.965 159.399 172.482 158.258 174.573 157.787C176.658 157.318 178.523 157.699 178.736 158.643Z" fill="#AF3831"/>
<path d="M225.809 140.871C226.022 141.816 224.505 142.957 222.414 143.427C220.329 143.896 218.463 143.516 218.251 142.571C218.039 141.627 219.561 140.484 221.646 140.015C223.731 139.546 225.597 139.927 225.809 140.871Z" fill="#AF3831"/>
<path d="M232.136 131.814C232.411 133.036 230.443 134.524 227.741 135.132C225.039 135.739 222.625 135.244 222.349 134.016C222.074 132.795 224.043 131.313 226.745 130.705C229.447 130.098 231.862 130.593 232.136 131.814Z" fill="#AF3831"/>
<path d="M143.496 168.363C143.708 169.307 142.191 170.449 140.1 170.919C138.016 171.388 136.15 171.008 135.938 170.063C135.725 169.119 137.242 167.977 139.333 167.507C141.424 167.037 143.283 167.419 143.496 168.363Z" fill="#AF3831"/>
<path d="M152.878 181.863C153.259 183.557 150.527 185.62 146.773 186.464C143.019 187.309 139.668 186.62 139.286 184.92C138.903 183.22 141.637 181.164 145.391 180.319C149.145 179.475 152.497 180.169 152.878 181.863Z" fill="#AF3831"/>
<path d="M142.774 230.512L255.579 205.138C256.291 204.978 256.735 204.276 256.575 203.564L256.167 201.751C256.007 201.04 255.305 200.596 254.593 200.756L141.788 226.13C141.076 226.29 140.632 226.992 140.792 227.703L141.2 229.517C141.36 230.228 142.062 230.672 142.774 230.512Z" fill="#BAD0EE"/>
<path d="M144.774 239.409L240.001 217.989C240.713 217.829 241.157 217.127 240.997 216.416L240.589 214.602C240.429 213.891 239.727 213.447 239.015 213.607L143.789 235.027C143.077 235.187 142.633 235.889 142.793 236.6L143.201 238.414C143.361 239.125 144.063 239.569 144.774 239.409Z" fill="#E1EDF9"/>
<path d="M146.776 248.311L277.753 218.85C278.465 218.69 278.909 217.988 278.749 217.276L278.341 215.463C278.181 214.752 277.479 214.308 276.767 214.468L145.791 243.929C145.079 244.089 144.635 244.791 144.795 245.503L145.203 247.316C145.361 248.021 146.065 248.471 146.776 248.311Z" fill="#BAD0EE"/>
<path d="M148.777 257.208L261.583 231.834C262.294 231.674 262.739 230.972 262.579 230.26L262.171 228.447C262.011 227.736 261.309 227.292 260.597 227.452L147.792 252.826C147.08 252.986 146.636 253.688 146.796 254.399L147.204 256.213C147.362 256.918 148.066 257.368 148.777 257.208Z" fill="#E1EDF9"/>
<path d="M292.199 233.124C291.224 235.241 289.747 236.909 287.762 238.13L257.422 211.263L261.859 206.257L292.199 233.124Z" fill="#222D48"/>
<path d="M298.24 242.717C298.167 242.803 298.095 242.888 298.021 242.967C296.12 245.046 292.87 245.158 290.763 243.287L272.678 227.276C270.522 225.364 270.319 222.067 272.23 219.905C274.143 217.749 277.441 217.546 279.603 219.457L297.688 235.468C299.79 237.34 300.071 240.58 298.24 242.717Z" fill="#AF3831"/>
<path opacity="0.3" d="M266.879 193.236C266.45 197.753 265.044 202.163 262.746 206.098C261.582 208.091 259.743 211.67 257.351 212.001C255.215 212.298 250.951 210.069 249.47 208.66C244.626 204.056 247.266 195.853 247.831 190.101C248.645 181.736 247.215 175.177 237.614 174.361C233.041 173.974 227.658 174.061 224.99 169.546C223.981 167.841 223.172 164.141 223.999 162.258C225.295 159.3 230.511 159.182 233.355 158.972C250.654 157.724 265.688 170.73 266.939 188.022C267.067 189.765 267.046 191.507 266.879 193.236Z" fill="#FFF3F8"/>
<path d="M229.914 165.125C231.17 164.842 232.463 164.649 233.756 164.559C247.951 163.533 260.328 174.24 261.357 188.429C261.805 194.629 260 200.781 256.281 205.745C252.594 210.669 247.278 214.118 241.322 215.458C240.066 215.74 238.773 215.934 237.48 216.024C230.606 216.521 223.948 214.309 218.736 209.805C213.523 205.295 210.381 199.03 209.884 192.152C209.436 185.952 211.241 179.8 214.96 174.836C218.642 169.913 223.952 166.466 229.914 165.125ZM228.686 159.667C213.776 163.021 203.156 176.854 204.291 192.556C205.537 209.849 220.576 222.854 237.875 221.605C239.466 221.488 241.032 221.257 242.544 220.916C257.454 217.563 268.074 203.729 266.94 188.028C265.694 170.734 250.655 157.73 233.355 158.978C231.764 159.095 230.204 159.326 228.686 159.667Z" fill="#E49124"/>
<g opacity="0.3">
<path d="M210.164 198.706C210.935 202.999 213.284 206.989 216.305 210.093C219.305 213.18 223.185 215.69 227.444 216.572C228.556 216.798 229.843 216.371 230.173 215.162C230.455 214.123 229.947 212.678 228.762 212.434C227.818 212.24 226.897 211.971 226.002 211.616C225.82 211.542 225.637 211.469 225.459 211.394C225.338 211.341 225.217 211.288 225.102 211.234C225.307 211.331 225.294 211.322 225.069 211.212C224.653 210.996 224.244 210.784 223.842 210.554C222.97 210.044 222.13 209.471 221.34 208.84C221.278 208.791 220.832 208.416 221.136 208.674C220.93 208.497 220.723 208.314 220.521 208.13C220.167 207.808 219.822 207.473 219.487 207.13C218.822 206.442 218.194 205.718 217.615 204.953C217.534 204.846 217.452 204.738 217.369 204.625C217.496 204.808 217.487 204.793 217.343 204.585C217.212 204.385 217.077 204.192 216.951 203.991C216.678 203.565 216.42 203.135 216.177 202.691C215.953 202.283 215.745 201.865 215.547 201.445C215.449 201.238 215.36 201.023 215.267 200.814C215.23 200.725 214.98 200.071 215.148 200.537C214.818 199.631 214.568 198.701 214.401 197.753C214.201 196.634 212.903 195.813 211.806 196.111C210.628 196.434 209.947 197.51 210.164 198.706Z" fill="#FFF3F8"/>
</g>
</svg>
