<svg width="298" height="253" viewBox="0 0 298 253" fill="none" xmlns="http://www.w3.org/2000/svg">
<path d="M321.506 71.2204C317.575 38.3354 287.224 7.499 248.185 12.1667C209.146 16.8344 181.569 54.597 185.501 87.482C181.569 54.597 145.866 24.4006 106.827 29.0683C67.7876 33.7361 45.5628 70.8586 49.4947 103.744C49.7807 106.135 50.2476 108.47 50.8514 110.752L50.8338 110.754C50.8338 110.754 69.0353 213.835 203.347 236.816C328.454 182.818 321.84 78.351 321.84 78.351L321.823 78.3532C321.889 75.9908 321.792 73.6122 321.506 71.2204Z" fill="#EAEFED"/>
<mask id="mask0_104_26125" style="mask-type:luminance" maskUnits="userSpaceOnUse" x="49" y="11" width="273" height="226">
<path d="M321.505 71.2211C317.574 38.3361 287.223 7.49973 248.184 12.1675C209.145 16.8352 181.568 54.5977 185.5 87.4827C181.568 54.5977 145.865 24.4014 106.826 29.0691C67.7866 33.7368 45.5618 70.8593 49.4937 103.744C49.7797 106.136 50.2466 108.471 50.8504 110.753L50.8328 110.755C50.8328 110.755 69.0343 213.836 203.346 236.817C328.453 182.819 321.839 78.3518 321.839 78.3518L321.822 78.3539C321.888 75.9916 321.791 73.6129 321.505 71.2211Z" fill="white"/>
</mask>
<g mask="url(#mask0_104_26125)">
<path d="M77.5881 185.357C77.5881 185.357 79.1217 189.73 77.5082 192.394C75.9035 195.057 72.9703 199.176 74.7837 204.393C76.5971 209.61 81.7527 218.617 85.2084 220.29C88.6631 221.954 92.9048 222.494 93.1061 227.993C93.3064 233.484 92.2755 246.256 92.4822 250.528C92.6868 254.783 91.088 273.729 93.2575 281.625C95.4181 289.522 101.576 291.65 103.383 291.058C105.19 290.457 100.176 280.69 101.713 277.086C103.251 273.492 105.075 271.994 106.028 266.499C106.981 260.997 109.633 258.647 112.54 257.521C115.446 256.395 114.14 252.281 117.06 248.718C119.979 245.155 123.975 239.449 124.009 235.918C124.043 232.387 124.356 228.124 128.893 227.922C133.431 227.719 135.824 224.175 135.793 218.002C135.76 211.82 136.328 208.637 137.617 206.253C138.899 203.88 139.774 200.132 135.618 197.46C131.46 194.779 127.065 197.372 123.593 194.887C120.128 192.392 116.653 192.503 115.194 192.57C113.745 192.645 114.734 183.861 109.724 183.099C104.712 182.329 103.033 182.046 100.917 179.909C98.8007 177.772 91.9425 176.444 88.2999 177.846C84.6671 179.256 82.5178 180.73 79.4409 181.179C76.365 181.636 75.6486 180.657 72.6175 180.965C69.5787 181.284 66.9912 179.991 67.0505 176.895C67.1086 173.791 64.4526 172.972 61.0866 171.825C57.7206 170.679 58.6098 167.493 55.5135 168.678C52.4163 169.854 47.2525 165.342 47.153 162.266C47.0446 159.19 45.8289 149.247 51.6344 150.074C57.4488 150.901 63.9001 151.893 67.6199 154.053C71.3386 156.205 66.2674 146.857 68.1115 144.55C69.9468 142.245 76.3518 140.306 76.1715 137.078C75.9814 133.843 77.1981 125.989 81.6538 122.261C86.1007 118.533 91.0644 117.931 92.9992 115.56C94.9339 113.189 99.0977 103.802 97.2772 100.77C95.448 97.7392 89.9828 91.6786 87.3729 88.7769C84.763 85.8752 81.5818 88.968 78.4783 88.8199C75.3836 88.6707 75.0976 83.1367 72.2903 82.9979C69.4742 82.8602 65.3374 85.2168 65.8545 88.4941C66.3716 91.7713 69.6107 96.9432 67.4923 99.0496C65.3826 101.155 64.2943 103.872 60.2365 100.83C56.1798 97.7971 48.8876 96.8786 46.3939 93.6766C43.9001 90.4745 42.7049 86.9113 47.6941 82.4833C52.6834 78.0553 58.7697 72.6278 58.5049 70.1887C58.2411 67.7584 54.7245 64.4549 52.6986 65.091C50.665 65.737 51.7353 69.6016 49.1177 69.6281C46.4903 69.6468 43.1131 61.8237 40.3749 60.9158C37.6366 60.0078 40.8351 69.7769 37.548 71.0114C34.262 72.2548 30.8714 73.072 25.4933 72.4528C20.1141 71.8247 18.8688 72.5555 15.2992 73.6716C11.7374 74.7778 10.948 73.8606 6.78028 72.667C2.60375 71.4745 1.11796 70.7927 -6.7218 72.4015C-14.5605 74.0191 -18.3871 76.0522 -22.833 74.3278C-27.2788 72.6035 -34.8703 76.4385 -40.5602 76.8771C-46.2599 77.3079 -53.1261 81.8977 -52.5672 86.647C-51.3692 96.8165 -32.4696 97.5646 -25.9673 98.0852C-19.4739 98.6069 -11.168 103.066 -8.39367 108.839C-5.60943 114.62 1.77601 115.197 3.85344 121.949C5.93087 128.701 8.00004 140.171 10.371 143.469C12.742 146.766 26.479 153.261 29.6658 158.744C32.8615 164.225 38.9514 169.002 43.2974 171.911C47.6434 174.82 57.097 174.89 60.7562 176.842C64.4055 178.787 70.5289 188.108 77.5881 185.357Z" fill="#BFD8CD"/>
<path d="M77.3808 17.246C72.5692 16.3532 69.7269 15.5472 62.8829 17.1801C56.0378 18.8042 48.5798 23.4558 43.8625 24.548C39.1363 25.6412 34.5941 28.4223 33.5486 31.7969C32.4953 35.1814 42.1388 37.0631 44.4019 39.308C46.6737 41.5519 54.2983 43.1558 58.3099 40.7246C62.3215 38.2934 63.3517 32.1724 67.0273 29.3248C70.6831 26.4617 79.0085 17.5438 77.3808 17.246Z" fill="#BFD8CD"/>
<path d="M30.6984 35.4854C27.4836 34.9299 24.6073 36.3838 23.3439 37.4122C22.0805 38.4405 23.5544 42.0152 23.7459 44.1408C23.9286 46.2674 23.6288 50.4928 26.0094 53.6457C28.3811 56.7997 28.5096 61.6901 32.7728 61.2878C37.0359 60.8855 40.1248 57.3203 42.9314 55.06C45.7381 52.7997 55.7817 51.8943 57.3391 48.3869C58.8866 44.8717 55.7746 45.7003 50.5094 46.0255C45.2531 46.3496 41.9465 43.755 38.3038 40.9678C34.6424 38.1739 32.6982 35.8282 30.6984 35.4854Z" fill="#BFD8CD"/>
<path d="M51.0632 53.8014C45.7161 55.2374 45.6927 58.8568 46.9199 61.7896C48.1383 64.7234 54.3643 59.1181 56.7172 60.6182C59.07 62.1183 63.7783 65.8881 62.3951 69.5806C61.0032 73.2741 65.3299 75.6483 70.4973 75.7018C75.6734 75.7544 80.7167 77.837 82.7964 74.285C84.8762 70.733 85.3384 67.0433 80.1393 64.854C74.9391 62.6559 74.1444 58.5524 70.9119 56.7277C67.6795 54.9031 63.2716 50.5781 59.8567 51.1923C56.4516 51.8143 51.0632 53.8014 51.0632 53.8014Z" fill="#BFD8CD"/>
<path d="M90.0792 17.0703C86.2226 18.9279 77.1766 24.7362 76.4007 27.7473C75.6159 30.7595 70.7264 32.1319 70.4101 35.3208C70.0947 38.5186 74.8558 38.3163 81.2959 39.1398C87.736 39.9632 90.3228 42.2231 91.5228 47.3971C92.714 52.5722 101.321 52.7427 99.9808 58.9634C98.6416 65.193 97.7304 68.7932 100.68 73.3373C103.629 77.8814 110.859 83.0685 112.627 82.2215C114.387 81.3756 115.828 67.8468 120.398 64.5521C124.977 61.2564 138.167 54.8721 138.612 53.127C139.055 51.3732 139.437 32.5731 138.526 29.2176C137.615 25.8621 145.701 19.4345 145.517 15.4281C145.333 11.4216 136.119 14.8509 131.602 14.5495C127.076 14.2491 122.953 10.4362 116.41 10.7709C109.868 11.1145 94.1545 15.097 90.0792 17.0703Z" fill="#BFD8CD"/>
<path d="M174.288 110.558C174.288 110.558 166.156 110.394 165.337 111.628C164.519 112.863 165.495 117.661 165.127 119.299C164.76 120.936 165.189 123.928 166.328 124.025C167.465 124.113 169.593 125.747 170.36 125.28C171.135 124.811 173.871 122.926 175.486 122.294C177.101 121.663 176.879 119.209 177.888 117.03C178.889 114.851 178.455 111.224 182.774 109.338C187.091 107.443 190.116 108.057 191.299 109.124C192.481 110.182 198.157 112.019 198.48 114.8C198.813 117.581 201.934 113.537 201.574 112.622C201.204 111.7 196.37 108.446 194.862 107.355C193.363 106.263 192.645 103.771 193.778 103.224C194.912 102.685 199.454 107.684 200.479 108.027C201.513 108.368 203.458 109.899 203.42 111.381C203.374 112.864 206.699 118.983 207.792 119.067C208.883 119.143 210.698 117.493 210.105 116.275C209.503 115.049 207.351 113.14 208.58 112.044C209.807 110.94 213.408 111.279 214.885 110.019C216.352 108.752 213.762 107.656 214.839 104.85C215.908 102.046 216.342 97.9656 218.171 98.3019C220.009 98.6372 220.623 103.774 221.846 103.377C223.06 102.981 226.706 100.71 229.903 103.515C233.11 106.318 232.416 107.547 229.541 108.267C226.667 108.986 220.987 108.609 219.746 109.975C218.496 111.342 213.42 112.728 213.547 114.091C213.674 115.454 215.489 119.185 217.191 118.606C218.893 118.026 225.83 116.203 226.542 116.548C227.253 116.884 225.889 126.348 224.076 126.967C222.271 127.577 220.757 127.857 219.062 128.417C217.367 128.978 212.897 128.698 210.846 127.484C208.796 126.27 206.075 128.198 203.134 129.785C200.183 131.364 196.029 129.014 194.493 127.98C192.964 126.937 194.221 123.913 193.857 122.667C193.503 121.42 188.094 120.393 186.135 121.666C184.176 122.938 178.113 124.97 176.174 125.73C174.243 126.489 171.338 125.753 170.935 125.981C170.542 126.207 170.145 129.548 168.314 130.537C166.474 131.536 166.805 134.379 166.041 137.487C165.286 140.594 160.581 145.463 160.564 151.821C160.553 158.169 162.05 164.256 165.423 168.902C168.796 173.548 172.934 175.166 177.774 174.426C182.614 173.686 191.224 170.884 194.168 172.466C197.105 174.066 197.905 178.366 197.531 181.741C197.166 185.123 199.06 187.502 202.692 192.519C206.316 197.538 208.088 199.94 206.768 204.243C205.45 208.554 205.523 210.962 207.798 215.175C210.064 219.389 209.852 221.205 210.624 225.266C211.394 229.319 214.911 238.755 217.957 238.874C221.005 239.002 226.52 235.084 228.471 231.35C230.422 227.617 233.122 220.132 235.499 217.646C237.878 215.168 235.908 209.693 237.112 207.722C238.325 205.742 242.758 202.052 241.837 197.194C240.917 192.336 238.412 186.127 239.994 181.623C241.566 177.12 249.268 169.27 249.969 165.856C250.661 162.444 252.365 157.844 250.373 158.244C248.382 158.643 246.908 159.858 243.043 159.926C239.179 159.994 236.001 152.344 234.64 150.985C233.279 149.626 228.016 142.341 227.785 140.113C227.545 137.877 223.599 131.653 225.195 131.39C226.782 131.12 231.816 138.816 233.419 141.149C235.022 143.482 238.28 148.437 239.67 151.458C241.059 154.478 242.728 155.496 244.2 155.016C245.673 154.536 257.685 146.009 259.185 143.44C260.684 140.87 261.104 136.675 259.081 135.915C257.058 135.154 255.732 132.367 255.335 133.31C254.938 134.253 253.474 136.37 252.082 136.474C250.681 136.579 246.058 131.205 245.169 129.306C244.279 127.399 245.851 125.581 246.619 125.57C247.396 125.558 250.459 131.431 253.495 131.014C256.541 130.605 257 131.902 259.313 132.843C261.626 133.784 270.39 130.257 271.706 132.883C273.032 135.518 276.4 139.752 278.211 138.811C280.021 137.869 280.039 141.313 281.943 145.338C283.845 149.354 287.568 158.72 288.79 158.914C290.012 159.117 292.815 153.16 292.522 150.107C292.228 147.053 291.973 145.07 294.419 142.486C296.874 139.9 299.7 135.033 301.908 133.677C304.107 132.321 308.05 137.168 308.491 139.89C308.943 142.62 311.765 141.459 312.805 144.172C313.837 146.896 316.844 156.115 318.439 158.825C320.033 161.534 324.639 161.834 322.973 159.643C321.308 157.461 316.799 149.227 317.972 147.216C319.136 145.206 324.593 152.843 326.866 151.363C329.139 149.873 328.241 142.363 326.099 139.557C323.947 136.744 324.516 131.779 326.705 130.712C328.903 129.643 337.192 127.676 338.927 124.533C340.663 121.398 344.198 115.282 342.62 112.185C341.044 109.097 335.168 102.745 337.325 99.9898C339.482 97.2343 345.294 97.8194 346.637 101.043C347.978 104.257 351.067 106.305 352.031 104.713C352.985 103.122 350.513 95.6109 353.085 92.7342C355.657 89.8575 363.135 81.9271 363.753 78.2724C364.372 74.6177 363.446 67.8531 361.061 66.6792C358.676 65.5052 357.181 64.0009 357.997 62.5247C358.804 61.0407 362.548 52.8585 369.17 52.8814C375.8 52.9033 377.481 54.0183 380.208 52.6627C382.936 51.316 382.632 46.384 386.531 46.0789C390.439 45.7728 394.446 41.131 395.027 42.6998C395.608 44.2685 392.191 47.6313 390.233 50.4077C388.274 53.1753 384.73 58.2452 385.456 63.0461C386.182 67.8471 387.545 68.1677 388.851 67.5728C390.157 66.978 393.48 56.7693 393.73 53.9912C393.979 51.2131 396.497 47.1344 399.531 47.1564C402.575 47.1775 412.491 42.2857 413.844 40.065C415.199 37.853 411.238 34.504 413.405 33.9943C415.562 33.4857 422.391 36.6619 424.945 35.0584C427.499 33.455 421.744 28.933 419.242 28.5787C416.731 28.2254 406.443 25.2212 404.661 26.2489C402.879 27.2766 398.107 26.7908 395.934 25.7437C393.77 24.7044 387.387 23.7578 383.414 24.7162C379.442 25.6835 377.372 22.5113 374.367 22.1366C371.361 21.7618 362.114 20.4236 358.857 22.3617C355.6 24.2998 350.191 25.5911 348.072 25.5222C345.953 25.4533 342.73 22.6607 340.711 21.1116C338.692 19.5626 330.874 20.7481 328.555 21.1059C326.237 21.4637 320.315 20.7842 317.303 22.1558C314.302 23.5352 307.843 24.3522 309.94 23.0362C312.037 21.7203 319.844 17.376 319.666 14.8371C319.488 12.2981 316.348 11.2501 312.813 11.7534C309.286 12.2557 304.401 10.4495 302.679 12.5084C300.959 14.5762 293.138 16.2722 289.682 19.1562C286.216 22.0325 287.731 24.0087 284.829 25.0987C281.927 26.1887 277.491 28.5095 278.289 31.6725C279.087 34.8268 274.306 33.5901 272.167 35.8242C270.019 38.0594 272.663 42.3626 270.487 44.7355C268.302 47.1094 264.789 47.2787 265.776 46.0328C266.762 44.778 269.368 41.6644 268.616 38.1466C267.865 34.6288 268.836 29.7323 265.721 29.5676C262.598 29.4039 260.807 33.2794 261.227 35.5925C261.647 37.9057 263.947 42.1067 263.212 42.9196C262.479 43.7414 259.87 40.8485 254.816 40.3248C249.754 39.8021 250.69 43.5216 248.517 44.1933C246.343 44.865 240.871 45.0269 237.331 47.894C233.801 50.76 232.609 50.6609 230.398 51.6951C228.187 52.7293 226.531 56.0873 224.296 57.0707C222.063 58.0629 220.412 59.5941 219.014 57.3263C217.616 55.0585 213.247 51.8837 215.133 52.249C217.02 52.6143 225.627 52.6414 225.954 50.8836C226.273 49.1357 217.002 45.6607 215.508 45.0605C214.014 44.4603 208.958 40.9201 204.483 42.2429C199.999 43.5668 192.527 48.2558 190.664 52.1221C188.801 55.9883 185.251 63.7802 182.985 65.6267C180.728 67.4721 178.86 71.1421 179.74 74.0895C180.619 77.028 183.197 78.8414 184.369 78.0209C185.533 77.2103 187.308 73.5784 187.935 74.4793C188.562 75.389 189.86 79.1369 190.91 80.8823C191.959 82.6278 192.852 82.6195 194.433 81.2489C196.013 79.8783 196.201 74.789 195.797 72.3128C195.394 69.8365 194.751 64.6137 197.363 62.3679C199.967 60.1318 200.968 55.6347 203.003 56.3492C205.038 57.0637 202.994 60.2355 202.208 63.015C201.431 65.7935 201.03 70.5949 202.589 70.4712C204.149 70.3474 210.487 67.9961 210.879 69.48C211.271 70.964 204.077 71.842 204.712 74.7561C205.356 77.6779 203.133 78.83 201.858 80.5849C200.583 82.3397 194.513 87.5325 190.963 87.3125C187.42 87.0825 182.485 87.9949 180.594 91.0319C178.703 94.069 177.597 97.4598 174.898 99.6534C172.187 101.813 174.546 109.274 174.288 110.558Z" fill="#BFD8CD"/>
<path d="M168.75 97.7571C171.566 98.4142 176.246 93.2711 176.148 91.2508C176.049 89.2305 172.534 87.4396 171.651 85.4326C170.767 83.4256 170.771 80.623 169.571 79.3343C168.379 78.0444 163.795 80.1054 164.071 81.7375C164.347 83.3696 165.367 84.7247 166.945 86.774C168.523 88.8234 167.369 97.4299 168.75 97.7571Z" fill="#BFD8CD"/>
<path d="M161.553 95.923C164.04 97.1207 166.012 93.5637 165.739 91.054C165.465 88.5443 165.291 85.9602 163.431 86.2631C161.562 86.5672 158.715 94.5525 161.553 95.923Z" fill="#BFD8CD"/>
</g>
<path d="M32.3752 110.929C34.2385 111.476 35.9673 112.245 37.5693 113.226C39.1792 114.198 40.6613 115.372 42.01 116.777C42.5742 117.381 43.1161 118.024 43.6202 118.724C42.0243 115.102 40.7088 111.356 39.6537 107.543C37.612 106.999 35.9774 106.121 34.4878 105.108C32.8964 103.991 31.5007 102.717 30.2822 101.278C29.0647 99.8483 28.0254 98.2627 27.1985 96.5085C26.3871 94.7346 25.7296 92.8258 25.6009 90.4779C27.8983 90.991 29.668 91.9521 31.2838 93.048C32.8752 94.1647 34.2709 95.4391 35.4806 96.879C36.4604 98.0419 37.3175 99.3002 38.0539 100.671C37.5884 98.2741 37.2188 95.8565 36.9374 93.4283C35.8668 91.7301 35.2807 90.0456 34.8556 88.3598C34.4149 86.4699 34.2254 84.5858 34.2772 82.6996C34.3212 80.8234 34.6153 78.9441 35.1626 77.0883C35.7364 75.2293 36.5239 73.3626 37.9954 71.5306C39.3612 73.4531 40.0441 75.3498 40.5123 77.2454C40.9529 79.1353 41.1424 81.0194 41.0808 82.8977C41.028 84.775 40.7328 86.6455 40.1865 88.5101C39.7159 90.0346 39.0932 91.5592 38.0849 93.0763C38.6917 98.375 39.7128 103.624 41.2282 108.742C41.1754 108.301 41.1403 107.858 41.114 107.413C41.025 105.472 41.2013 103.58 41.5998 101.751C41.9972 99.9134 42.6246 98.1285 43.5094 96.4024C44.4218 94.682 45.5443 92.999 47.3292 91.4697C48.3183 93.6073 48.6284 95.6024 48.7448 97.5489C48.8338 99.4898 48.6575 101.382 48.2502 103.212C47.844 105.051 47.2166 106.836 46.3318 108.562C45.4561 110.215 44.3879 111.829 42.731 113.307C43.1078 114.363 43.5099 115.407 43.9384 116.448C45.7528 120.851 47.9845 125.078 50.5965 129.044C50.513 128.795 50.4196 128.537 50.3449 128.287C49.7907 126.419 49.4954 124.548 49.4325 122.676C49.3686 120.794 49.5459 118.911 49.9811 117.015C50.4438 115.124 51.1191 113.218 52.4809 111.291C53.9618 113.128 54.7463 114.977 55.3358 116.84C55.89 118.708 56.1843 120.57 56.2394 122.453C56.2945 124.335 56.1172 126.218 55.682 128.114C55.2677 129.811 54.676 131.52 53.5841 133.235C55.5895 135.869 57.7674 138.374 60.1214 140.707C61.8157 142.384 63.5876 143.963 65.4227 145.471C65.1963 145.149 64.9788 144.826 64.7701 144.502C63.7488 142.842 62.9879 141.116 62.441 139.311C61.8953 137.514 61.5735 135.646 61.511 133.702C61.475 131.754 61.6365 129.739 62.4456 127.529C64.3474 128.922 65.5927 130.51 66.6305 132.158C67.6518 133.818 68.4128 135.544 68.9508 137.351C69.4878 139.148 69.8007 141.018 69.872 142.961C69.9092 144.693 69.782 146.472 69.1891 148.396C72.5187 150.809 76.0237 152.968 79.6678 154.868C80.049 155.065 80.4391 155.26 80.8192 155.447C80.5079 155.162 80.2043 154.867 79.9084 154.562C78.5686 153.156 77.4552 151.624 76.5517 149.977C75.6394 148.332 74.937 146.572 74.4699 144.685C74.0282 142.786 73.7622 140.786 74.1005 138.454C76.2458 139.415 77.7956 140.706 79.1609 142.101C80.5008 143.507 81.6141 145.039 82.5099 146.696C83.4134 148.342 84.1069 150.103 84.5828 151.989C84.9727 153.679 85.2279 155.439 85.0466 157.439C88.767 159.08 92.602 160.484 96.5101 161.601C98.3349 162.126 100.18 162.594 102.042 162.98C102.895 163.156 103.832 163.214 104.667 163.463C104.704 163.477 104.739 163.473 104.784 163.476C105.53 163.575 105.356 164.742 104.601 164.635C102.274 164.322 99.9601 163.749 97.6962 163.142C96.1528 162.727 94.6306 162.264 93.1141 161.774C91.8945 163.469 90.4903 164.666 89.0297 165.691C87.4255 166.787 85.7378 167.633 83.962 168.266C82.195 168.898 80.3477 169.307 78.407 169.459C76.4641 169.593 74.443 169.521 72.2028 168.813C73.4976 166.85 75.0214 165.531 76.6224 164.408C78.2266 163.312 79.9231 162.465 81.6912 161.842C83.4592 161.219 85.3065 160.81 87.2473 160.658C88.0991 160.601 88.9562 160.588 89.8482 160.643C86.9016 159.563 84.0086 158.333 81.1968 156.959C79.4871 156.125 77.8053 155.225 76.1446 154.278C74.4825 155.712 72.7772 156.561 71.0398 157.216C69.2142 157.882 67.3669 158.291 65.4999 158.46C63.6339 158.639 61.7384 158.57 59.8212 158.244C57.9007 157.892 55.9637 157.327 53.9642 156.089C55.7065 154.502 57.5134 153.605 59.3358 152.913C61.1614 152.247 63.0097 151.847 64.8768 151.678C66.7438 151.508 68.6393 151.577 70.5566 151.903C71.4711 152.071 72.4008 152.291 73.3333 152.609C69.0807 149.957 65.0614 146.938 61.3723 143.538C60.367 142.611 59.3928 141.645 58.4351 140.667C56.5562 141.635 54.7473 142.066 52.9712 142.323C51.0421 142.571 49.153 142.556 47.2903 142.313C45.4277 142.07 43.5993 141.59 41.8021 140.847C40.0105 140.077 38.2487 139.106 36.5653 137.445C38.6182 136.287 40.5728 135.802 42.4998 135.536C44.4289 135.287 46.3181 135.303 48.1818 135.555C50.0454 135.806 51.8738 136.286 53.671 137.029C54.5481 137.408 55.4128 137.832 56.2716 138.356C51.8624 133.423 48.1349 127.906 45.1719 121.976C42.9578 122.161 41.0493 121.834 39.2453 121.333C37.382 120.786 35.6533 120.017 34.0434 119.046C32.4335 118.075 30.9514 116.9 29.595 115.505C28.2618 114.079 27.0331 112.481 26.1633 110.293C28.5055 110.058 30.4964 110.402 32.3752 110.929Z" fill="#BFD8CD"/>
<path d="M345.288 123.136C343.393 122.691 341.511 122.513 339.64 122.576C337.759 122.631 335.889 122.926 334.033 123.479C333.248 123.725 332.461 124.025 331.671 124.379C334.85 122.012 337.83 119.408 340.625 116.604C342.666 117.138 344.531 117.175 346.321 117.033C348.257 116.846 350.102 116.419 351.858 115.771C353.624 115.13 355.3 114.258 356.892 113.137C358.472 111.99 359.977 110.655 361.25 108.668C358.996 107.988 356.978 107.943 355.038 108.104C353.102 108.29 351.265 108.716 349.501 109.374C348.08 109.902 346.711 110.576 345.406 111.404C346.991 109.549 348.496 107.624 349.942 105.651C351.716 104.705 353.051 103.525 354.242 102.264C355.556 100.835 356.649 99.2813 357.524 97.6279C358.409 95.9734 359.082 94.201 359.518 92.3048C359.934 90.402 360.159 88.3966 359.783 86.0694C357.648 87.0676 356.124 88.3867 354.782 89.8005C353.468 91.2288 352.375 92.7829 351.509 94.4441C350.634 96.1063 349.961 97.8788 349.525 99.7749C349.185 101.338 348.978 102.974 349.114 104.784C345.971 109.098 342.504 113.165 338.671 116.864C338.932 116.502 339.183 116.132 339.425 115.762C340.453 114.118 341.23 112.386 341.794 110.591C342.357 108.796 342.68 106.931 342.761 104.988C342.814 103.039 342.662 101.025 341.861 98.8114C339.95 100.186 338.699 101.768 337.643 103.407C336.614 105.052 335.838 106.783 335.283 108.577C334.728 110.371 334.405 112.236 334.325 114.179C334.28 116.046 334.413 117.982 335.13 120.089C334.278 120.818 333.425 121.538 332.542 122.234C328.798 125.179 324.775 127.746 320.545 129.917C320.747 129.741 320.941 129.565 321.134 129.381C322.538 128.032 323.711 126.548 324.691 124.945C325.671 123.342 326.448 121.611 326.994 119.746C327.521 117.866 327.874 115.881 327.629 113.538C325.444 114.408 323.836 115.63 322.413 116.964C321.009 118.313 319.836 119.796 318.865 121.407C317.894 123.01 317.117 124.741 316.571 126.605C316.102 128.291 315.776 130.057 315.877 132.095C312.84 133.399 309.707 134.507 306.511 135.382C304.216 136.005 301.888 136.507 299.549 136.921C299.904 136.753 300.25 136.578 300.587 136.403C302.291 135.465 303.81 134.335 305.167 133.036C306.523 131.737 307.725 130.268 308.734 128.608C309.732 126.931 310.577 125.102 310.952 122.774C308.614 123.045 306.747 123.814 305.033 124.735C303.329 125.673 301.81 126.804 300.463 128.111C299.107 129.41 297.915 130.886 296.905 132.538C296.028 134.03 295.255 135.644 294.827 137.602C290.75 138.063 286.627 138.216 282.522 138.071C282.091 138.06 281.667 138.03 281.236 138.01C281.654 137.915 282.062 137.813 282.468 137.692C284.324 137.13 286.045 136.343 287.644 135.355C289.245 134.376 290.721 133.187 292.055 131.775C293.377 130.336 294.589 128.732 295.445 126.535C293.102 126.314 291.115 126.677 289.247 127.214C287.391 127.776 285.67 128.563 284.071 129.56C282.472 130.548 281.004 131.735 279.662 133.149C278.49 134.426 277.407 135.836 276.579 137.662C272.532 137.26 268.507 136.586 264.548 135.637C262.697 135.195 260.866 134.689 259.052 134.109C258.224 133.841 257.379 133.432 256.533 133.238C256.497 133.233 256.458 133.211 256.43 133.196C255.725 132.914 255.31 134.011 256.015 134.293C258.195 135.17 260.49 135.808 262.76 136.396C264.301 136.794 265.855 137.145 267.422 137.459C267.652 139.535 268.28 141.269 269.045 142.878C269.906 144.619 270.953 146.195 272.187 147.614C273.412 149.034 274.825 150.298 276.432 151.395C278.063 152.471 279.847 153.403 282.15 153.889C281.985 151.536 281.311 149.638 280.474 147.876C279.622 146.134 278.566 144.56 277.323 143.142C276.089 141.723 274.677 140.459 273.071 139.371C272.362 138.901 271.621 138.461 270.814 138.074C273.907 138.582 277.027 138.943 280.162 139.132C282.063 139.245 283.965 139.295 285.879 139.29C286.617 141.35 287.693 142.94 288.874 144.366C290.133 145.844 291.545 147.108 293.086 148.177C294.628 149.255 296.307 150.128 298.13 150.787C299.968 151.427 301.938 151.89 304.288 151.797C303.555 149.557 302.425 147.884 301.181 146.385C299.922 144.907 298.51 143.643 296.96 142.575C295.419 141.506 293.74 140.633 291.909 139.974C291.022 139.668 290.115 139.41 289.153 139.221C294.154 139.008 299.139 138.358 304.021 137.219C305.352 136.908 306.678 136.552 307.991 136.163C309.151 137.931 310.51 139.2 311.93 140.302C313.482 141.468 315.14 142.389 316.879 143.094C318.618 143.799 320.447 144.288 322.38 144.522C324.32 144.738 326.335 144.756 328.605 144.145C327.389 142.124 325.927 140.741 324.381 139.556C322.828 138.39 321.17 137.469 319.424 136.774C317.685 136.069 315.847 135.59 313.923 135.355C312.972 135.254 312.007 135.19 311.001 135.23C317.268 133.111 323.219 130.143 328.717 126.451C330.557 127.699 332.38 128.359 334.196 128.813C336.092 129.258 337.974 129.435 339.846 129.382C341.727 129.336 343.588 129.042 345.454 128.487C347.317 127.907 349.173 127.121 351.009 125.648C349.075 124.286 347.178 123.608 345.288 123.136Z" fill="#BFD8CD"/>
<path d="M281.153 149.425C283.267 148.403 285.29 147.14 287.248 145.859C292.176 142.646 296.788 138.953 301.012 134.849C306.749 129.275 311.767 122.919 315.682 115.934C320.37 107.567 323.411 98.3682 324.626 88.8502C326.174 76.741 324.744 64.4061 321.439 52.6981C320.945 50.9579 320.407 49.2229 319.843 47.4999C319.606 46.7941 318.453 47.0215 318.691 47.745C322.628 59.646 324.799 72.1967 323.866 84.7426C323.139 94.5156 320.494 104.115 316.019 112.841C312.326 120.033 307.477 126.61 301.825 132.38C297.593 136.708 292.919 140.624 287.904 144.017C286.332 145.082 284.718 146.098 283.07 147.048C282.316 147.478 281.436 147.825 280.726 148.321C280.693 148.343 280.659 148.356 280.625 148.369C279.94 148.702 280.468 149.749 281.153 149.425Z" fill="#7CBFA1"/>
<path d="M297.833 137.216C296.794 135.112 296.431 133.123 296.262 131.183C296.119 129.239 296.242 127.353 296.585 125.504C296.927 123.655 297.508 121.858 298.345 120.102C299.209 118.351 300.283 116.638 302.026 115.06C303.075 117.173 303.446 119.152 303.607 121.102C303.75 123.045 303.627 124.931 303.276 126.781C302.924 128.631 302.343 130.429 301.507 132.185C300.632 133.919 299.566 135.63 297.833 137.216Z" fill="#7CBFA1"/>
<path d="M301.202 120.136C301.365 122.623 301.09 125.109 300.63 127.545C300.133 129.968 299.413 132.399 298.15 134.556C298.719 132.133 299.241 129.77 299.706 127.369C300.188 124.966 300.624 122.559 301.202 120.136Z" fill="#9BE0BF"/>
<path d="M290.706 142.777C292.618 141.412 294.513 140.729 296.405 140.243C298.292 139.793 300.175 139.604 302.058 139.647C303.933 139.692 305.809 139.969 307.672 140.516C309.538 141.09 311.394 141.87 313.241 143.332C311.33 144.707 309.435 145.39 307.544 145.876C305.656 146.325 303.774 146.514 301.889 146.462C300.015 146.418 298.138 146.132 296.275 145.585C294.408 145.011 292.545 144.24 290.706 142.777Z" fill="#7CBFA1"/>
<path d="M308.091 143.34C305.662 143.899 303.174 144.035 300.698 143.973C298.226 143.874 295.72 143.556 293.386 142.663C295.866 142.832 298.279 142.964 300.729 143.038C303.163 143.123 305.61 143.162 308.091 143.34Z" fill="#9BE0BF"/>
<path d="M119.526 158.929C117.447 160.019 115.226 160.894 113.033 161.702C107.516 163.74 101.803 165.256 95.9949 166.201C88.0985 167.485 80.0158 167.735 72.0675 166.716C62.566 165.498 53.3648 162.453 45.0051 157.768C34.363 151.799 25.3139 143.293 17.8923 133.662C16.7905 132.227 15.712 130.762 14.6765 129.284C14.2457 128.673 15.1267 127.887 15.5586 128.507C22.7589 138.755 31.5375 147.992 42.1713 154.714C50.4543 159.955 59.7297 163.545 69.3944 165.156C77.3697 166.476 85.5303 166.503 93.5293 165.403C99.5219 164.58 105.453 163.163 111.161 161.156C112.955 160.529 114.732 159.834 116.476 159.079C117.275 158.733 118.074 158.234 118.891 157.958C118.925 157.945 118.958 157.923 118.992 157.901C119.671 157.524 120.2 158.58 119.526 158.929Z" fill="#7CBFA1"/>
<path d="M23.8866 140.25C24.0178 137.907 23.5853 135.935 22.9782 134.074C22.3467 132.234 21.4997 130.536 20.4636 128.977C19.4264 127.409 18.1902 125.972 16.7307 124.688C15.2546 123.414 13.5962 122.26 11.375 121.488C11.236 123.841 11.6684 125.812 12.2745 127.664C12.906 129.505 13.752 131.194 14.798 132.761C15.8429 134.319 17.0791 135.755 18.5386 137.04C20.0235 138.313 21.6742 139.476 23.8866 140.25Z" fill="#7CBFA1"/>
<path d="M14.124 125.85C14.9511 128.204 16.168 130.377 17.5418 132.442C18.9478 134.476 20.5503 136.433 22.5617 137.92C21.0961 135.911 19.6887 133.94 18.3191 131.91C16.9339 129.9 15.5974 127.849 14.124 125.85Z" fill="#9BE0BF"/>
<path d="M34.0466 149.742C32.5746 147.903 30.9405 146.729 29.258 145.749C27.561 144.797 25.8054 144.103 23.9869 143.631C22.1684 143.159 20.2882 142.918 18.3492 142.935C16.4036 142.971 14.4029 143.219 12.2302 144.123C13.6944 145.971 15.3286 147.146 17.0199 148.125C18.7169 149.077 20.4725 149.771 22.2987 150.233C24.1161 150.696 25.9964 150.937 27.9353 150.92C29.8711 150.876 31.8729 150.637 34.0466 149.742Z" fill="#7CBFA1"/>
<path d="M17.167 145.538C19.3496 146.737 21.7094 147.547 24.1087 148.164C26.5127 148.745 29.0091 149.127 31.5033 148.891C29.0715 148.376 26.7091 147.844 24.3394 147.25C21.9619 146.666 19.5978 146.044 17.167 145.538Z" fill="#9BE0BF"/>
<path d="M39.3146 153.113C39.8828 150.834 39.8207 148.819 39.5709 146.879C39.2957 144.951 38.7831 143.133 38.0486 141.403C37.3229 139.673 36.3665 138.033 35.1815 136.5C33.9613 134.972 32.5544 133.529 30.5182 132.358C29.9421 134.647 30.0042 136.663 30.253 138.593C30.5282 140.521 31.0496 142.339 31.7841 144.068C32.5186 145.797 33.475 147.438 34.66 148.97C35.8704 150.49 37.2773 151.934 39.3146 153.113Z" fill="#7CBFA1"/>
<path d="M32.3975 137.147C32.7723 139.608 33.5651 141.975 34.527 144.26C35.5308 146.521 36.7441 148.739 38.4398 150.577C37.3753 148.332 36.3612 146.135 35.3937 143.878C34.4019 141.643 33.4708 139.391 32.3975 137.147Z" fill="#9BE0BF"/>
<path d="M46.612 158.337C44.6358 157.069 42.7133 156.476 40.7975 156.087C38.8848 155.725 36.9949 155.629 35.1237 155.763C33.2525 155.897 31.391 156.263 29.5613 156.893C27.7258 157.552 25.9069 158.423 24.134 159.977C26.1113 161.254 28.0348 161.856 29.9496 162.236C31.8623 162.598 33.7522 162.695 35.6223 162.552C37.4936 162.417 39.3539 162.043 41.1925 161.411C43.0269 160.744 44.8469 159.882 46.612 158.337Z" fill="#7CBFA1"/>
<path d="M29.2833 159.737C31.7331 160.179 34.2304 160.194 36.6957 160.015C39.1567 159.802 41.653 159.36 43.9298 158.353C41.4596 158.64 39.0567 158.891 36.6102 159.076C34.1834 159.277 31.7425 159.434 29.2833 159.737Z" fill="#9BE0BF"/>
<path d="M59.7652 163.541C59.7522 161.189 59.2072 159.248 58.4897 157.436C57.7555 155.635 56.808 153.994 55.6723 152.501C54.5445 150.997 53.2197 149.643 51.6904 148.447C50.1356 147.263 48.4172 146.206 46.1578 145.563C46.162 147.917 46.707 149.857 47.4256 151.678C48.1598 153.479 49.1073 155.121 50.243 156.614C51.3786 158.108 52.7044 159.471 54.2337 160.667C55.7962 161.841 57.5059 162.898 59.7652 163.541Z" fill="#7CBFA1"/>
<path d="M49.1631 149.752C50.127 152.054 51.4688 154.149 52.9665 156.128C54.4875 158.077 56.2117 159.929 58.2987 161.3C56.7103 159.386 55.1967 157.499 53.712 155.555C52.2107 153.622 50.7504 151.657 49.1631 149.752Z" fill="#9BE0BF"/>
<path d="M68.2573 165.596C65.9404 165.22 63.9376 165.45 62.0275 165.858C60.1382 166.29 58.3578 166.959 56.6997 167.829C55.0328 168.699 53.4805 169.78 52.0547 171.096C50.6409 172.438 49.3198 173.957 48.3138 176.091C50.6406 176.476 52.6434 176.245 54.5448 175.839C56.4429 175.406 58.2057 174.739 59.8715 173.859C61.5285 172.981 63.0808 171.9 64.5154 170.582C65.9303 169.249 67.2503 167.722 68.2573 165.596Z" fill="#7CBFA1"/>
<path d="M52.9272 173.821C55.3538 173.245 57.6415 172.255 59.8386 171.106C62.004 169.916 64.1187 168.526 65.8028 166.678C63.6536 167.928 61.551 169.12 59.3902 170.273C57.2403 171.443 55.0753 172.562 52.9272 173.821Z" fill="#9BE0BF"/>
<path d="M81.4736 166.907C80.862 164.635 79.8235 162.906 78.6695 161.334C77.4912 159.783 76.1598 158.447 74.6798 157.291C73.1998 156.134 71.5723 155.164 69.7906 154.402C67.9846 153.66 66.0554 153.085 63.6992 153.053C64.3108 155.326 65.3416 157.064 66.4955 158.636C67.6738 160.187 69.0052 161.523 70.4941 162.679C71.974 163.836 73.6015 164.805 75.392 165.567C77.1872 166.292 79.1252 166.866 81.4736 166.907Z" fill="#7CBFA1"/>
<path d="M67.668 156.321C69.1921 158.296 71.0296 159.974 72.9835 161.504C74.9597 162.995 77.0975 164.342 79.4717 165.123C77.4479 163.682 75.4968 162.251 73.5559 160.755C71.6161 159.268 69.6995 157.752 67.668 156.321Z" fill="#9BE0BF"/>
<path d="M90.4163 166.6C88.0724 166.745 86.1664 167.412 84.404 168.231C82.6535 169.076 81.0694 170.116 79.6409 171.334C78.2123 172.553 76.9304 173.95 75.8336 175.549C74.7478 177.165 73.7987 178.953 73.2953 181.251C75.6491 181.113 77.5462 180.447 79.3175 179.627C81.068 178.782 82.6521 177.742 84.0707 176.516C85.4993 175.298 86.7713 173.893 87.8769 172.292C88.9529 170.669 89.903 168.89 90.4163 166.6Z" fill="#7CBFA1"/>
<path d="M77.2808 178.008C79.5196 176.908 81.5355 175.441 83.4178 173.828C85.2705 172.192 87.0195 170.363 88.2625 168.191C86.4437 169.885 84.6527 171.514 82.8046 173.114C80.9675 174.73 79.0986 176.305 77.2808 178.008Z" fill="#9BE0BF"/>
<path d="M99.7849 165.059C98.7119 162.967 97.3371 161.493 95.8766 160.199C94.4015 158.935 92.8196 157.897 91.1296 157.079C89.4386 156.251 87.6484 155.642 85.7434 155.27C83.824 154.927 81.8189 154.763 79.5031 155.219C80.5772 157.32 81.9431 158.795 83.4037 160.088C84.8787 161.353 86.4607 162.391 88.1584 163.199C89.8484 164.018 91.6386 164.627 93.5523 164.998C95.4728 165.35 97.4779 165.513 99.7849 165.059Z" fill="#7CBFA1"/>
<path d="M84.0801 157.591C85.9807 159.198 88.1354 160.463 90.3671 161.548C92.6122 162.595 94.9783 163.458 97.4709 163.733C95.188 162.744 92.9856 161.754 90.7758 160.702C88.5484 159.652 86.3619 158.571 84.0801 157.591Z" fill="#9BE0BF"/>
<path d="M108.505 162.655C106.266 163.379 104.592 164.493 103.075 165.721C101.588 166.973 100.315 168.37 99.2288 169.905C98.1422 171.441 97.25 173.105 96.5739 174.932C95.9176 176.774 95.4359 178.729 95.5116 181.083C97.7517 180.368 99.4341 179.254 100.941 178.017C102.428 176.765 103.701 175.368 104.778 173.825C105.856 172.291 106.747 170.618 107.423 168.791C108.089 166.957 108.571 165.002 108.505 162.655Z" fill="#7CBFA1"/>
<path d="M98.588 176.956C100.488 175.341 102.073 173.415 103.504 171.391C104.896 169.344 106.136 167.146 106.805 164.739C105.463 166.833 104.131 168.854 102.725 170.857C101.356 172.874 99.9287 174.853 98.588 176.956Z" fill="#9BE0BF"/>
<path d="M248.278 237.826L243.516 238.395L242.946 233.63L240.371 233.937L240.941 238.703L236.17 239.274L236.479 241.851L241.249 241.28L241.82 246.055L244.395 245.747L243.824 240.973L248.586 240.403L248.278 237.826Z" fill="#BAD9C8"/>
<path d="M320.556 248.95L310.001 250.212L308.739 239.656L303.033 240.339L304.295 250.894L293.748 252.155L294.431 257.866L304.978 256.605L306.241 267.169L311.947 266.487L310.683 255.922L321.239 254.66L320.556 248.95Z" fill="#BAD9C8"/>
<path d="M56.1107 262.539L66.6575 261.278L65.3954 250.722L71.1009 250.04L72.363 260.596L82.9186 259.334L83.6014 265.044L73.0458 266.306L74.3089 276.871L68.6034 277.553L67.3403 266.988L56.7935 268.249L56.1107 262.539Z" fill="#BAD9C8"/>
<path d="M58.8014 191.013L63.5633 190.444L62.9924 185.669L65.5674 185.361L66.1383 190.136L70.909 189.566L71.2171 192.143L66.4464 192.713L67.0162 197.479L64.4413 197.787L63.8714 193.021L59.1095 193.59L58.8014 191.013Z" fill="#BAD9C8"/>
<path d="M204.151 95.3591C204.151 95.3591 214.81 110.145 232.91 112.662L231.564 120.325C231.564 120.325 215.224 123.335 196.411 105.058L204.151 95.3591Z" fill="#7CBFA1"/>
<path opacity="0.3" d="M202.011 105.507C203.509 106.294 204.906 107.13 206.287 107.985L210.384 110.53L214.454 113.078C215.818 113.936 217.22 114.735 218.622 115.695C216.93 115.602 215.274 115.218 213.708 114.618C212.143 114.017 210.624 113.286 209.219 112.379C207.807 111.492 206.477 110.469 205.258 109.326C204.033 108.21 202.901 106.967 202.011 105.507Z" fill="white"/>
<path d="M203.988 95.1904C204.975 95.9676 204.061 98.7894 201.942 101.496C199.823 104.193 197.3 105.757 196.303 104.972C195.315 104.195 196.23 101.373 198.348 98.6667C200.467 95.9606 203 94.4045 203.988 95.1904Z" fill="#5DA582"/>
<path d="M201.535 145.347C201.535 145.347 213.168 131.325 231.394 130.032L230.559 122.298C230.559 122.298 214.458 118.181 194.457 135.146L201.535 145.347Z" fill="#D94A70"/>
<path opacity="0.3" d="M200.084 135.073C201.639 134.395 203.08 133.65 204.518 132.887L208.773 130.624L213.01 128.353C214.43 127.584 215.876 126.892 217.347 126.027C215.654 126.005 213.969 126.278 212.373 126.765C210.767 127.252 209.205 127.877 207.737 128.688C206.267 129.482 204.875 130.409 203.578 131.46C202.283 132.519 201.062 133.676 200.084 135.073Z" fill="white"/>
<path d="M201.355 145.502C202.398 144.796 201.668 141.911 199.738 139.08C197.806 136.241 195.391 134.515 194.349 135.23C193.307 135.937 194.036 138.822 195.967 141.653C197.907 144.491 200.314 146.218 201.355 145.502Z" fill="#B53059"/>
<path d="M233.518 138.47C233.518 138.47 195.851 146.832 198.627 170.044C201.403 193.264 210.973 273.306 210.973 273.306L221.917 271.997L209.654 169.432C209.654 169.432 207.987 154.521 240.175 148.21L233.518 138.47Z" fill="#F25C93"/>
<path opacity="0.3" d="M203.072 158.967C204.731 157.954 206.258 156.885 207.765 155.8L212.253 152.569L216.715 149.341C218.213 148.249 219.746 147.233 221.284 146.029C219.362 146.267 217.489 146.832 215.743 147.64C213.996 148.44 212.313 149.402 210.777 150.544C209.23 151.668 207.79 152.942 206.481 154.334C205.171 155.726 203.975 157.238 203.072 158.967Z" fill="white"/>
<path d="M225.8 109.063C225.8 109.063 202.516 100.075 202.912 71.2919C203.307 42.5087 234.923 32.4621 257.156 41.5578C279.396 50.6437 300.599 74.5527 307.966 107.511C315.331 140.46 308.633 169.271 295.742 188.26C285.309 203.634 258.094 215.705 236.596 203.398C215.097 191.081 218.088 163.805 234.343 150.671C234.343 150.671 208.345 135.285 225.8 109.063Z" fill="#D84444"/>
<path d="M243.944 98.5595C240.778 100.29 237.78 101.919 234.806 103.68C233.339 104.572 231.84 105.423 230.368 106.36C228.874 107.254 227.415 108.217 225.8 109.072C226.79 107.548 227.995 106.187 229.347 104.996C230.676 103.771 232.152 102.727 233.705 101.798C235.259 100.878 236.914 100.134 238.624 99.5536C240.326 98.9742 242.11 98.555 243.944 98.5595Z" fill="#C12929"/>
<path d="M254.233 157.532C250.792 156.43 247.548 155.404 244.296 154.244C242.678 153.65 241.046 153.093 239.432 152.462C237.795 151.861 236.178 151.204 234.433 150.67C235.698 151.978 237.136 153.086 238.686 154.002C240.221 154.946 241.876 155.697 243.568 156.309C245.269 156.921 247.036 157.336 248.827 157.578C250.609 157.813 252.441 157.88 254.233 157.532Z" fill="#C12929"/>
<path d="M307.964 107.502C300.599 74.5531 279.395 50.6441 257.154 41.5494C249.443 38.3982 240.603 37.5484 232.322 38.9861C237.891 38.8842 243.509 39.8597 248.587 41.9381C268.89 50.235 288.253 72.0635 294.972 102.145C301.69 132.226 295.578 158.532 283.813 175.865C274.284 189.904 249.439 200.922 229.812 189.68C226.51 187.792 223.857 185.504 221.774 182.969C223.192 190.937 227.875 198.389 236.594 203.38C258.093 215.697 285.306 203.616 295.74 188.243C308.633 169.272 315.33 140.451 307.964 107.502Z" fill="#C93535"/>
<path d="M217.089 52.2926C215.178 56.0571 213.715 59.9113 212.717 63.8263C211.754 67.746 211.311 71.7468 211.646 75.6724C211.982 79.5981 213.033 83.456 214.763 87.0806C216.511 90.703 218.823 94.1059 221.416 97.4573C217.889 95.1217 214.833 92.0048 212.515 88.3252C210.206 84.6445 208.717 80.3465 208.37 75.9478C208.232 73.7443 208.298 71.5341 208.621 69.3738C208.981 67.2182 209.487 65.0898 210.283 63.0699C211.82 59.0189 214.064 55.2683 217.089 52.2926Z" fill="#F98787"/>
<path d="M228.527 118.038C228.268 120.656 228.199 123.144 228.389 125.557C228.579 127.969 229.088 130.28 229.953 132.433C230.843 134.564 231.934 136.654 233.521 138.478L234.073 139.209C234.262 139.446 234.5 139.641 234.699 139.877L235.963 141.248C236.831 142.156 237.82 142.942 238.719 143.953C237.467 143.584 236.206 143.135 235.01 142.553L233.293 141.514C233.003 141.333 232.714 141.162 232.449 140.961L231.681 140.301C229.546 138.605 227.945 136.209 226.904 133.639C225.87 131.05 225.523 128.218 225.827 125.523C226.147 122.817 226.978 120.193 228.527 118.038Z" fill="#F98787"/>
<path d="M234.294 161.196C233.555 162.94 232.895 164.532 232.317 166.132C231.729 167.724 231.238 169.296 230.865 170.889C230.483 172.483 230.147 174.09 229.971 175.758C229.715 177.436 229.679 179.15 229.424 181.061C228.353 179.506 227.635 177.694 227.392 175.807C227.077 173.92 227.218 171.961 227.675 170.098C228.122 168.227 228.939 166.455 230.051 164.908C231.173 163.368 232.567 162.011 234.294 161.196Z" fill="#F98787"/>
<path d="M169.242 99.5334C169.242 99.5334 162.369 116.415 145.373 123.129L148.488 130.258C148.488 130.258 165.077 129.331 179.05 107.134L169.242 99.5334Z" fill="#7CBFA1"/>
<path opacity="0.3" d="M173.706 108.891C172.435 110.01 171.275 111.152 170.134 112.308L166.753 115.748L163.398 119.183C162.275 120.338 161.101 121.445 159.964 122.709C161.587 122.22 163.106 121.456 164.486 120.503C165.866 119.551 167.169 118.482 168.321 117.27C169.484 116.074 170.535 114.767 171.45 113.369C172.386 111.994 173.194 110.519 173.706 108.891Z" fill="white"/>
<path d="M169.359 99.3309C168.583 100.319 170.137 102.846 172.834 104.976C175.529 107.098 178.35 108.023 179.134 107.025C179.911 106.037 178.356 103.51 175.66 101.38C172.955 99.259 170.135 98.3341 169.359 99.3309Z" fill="#5DA582"/>
<path d="M183.57 147.495C183.57 147.495 168.959 136.61 150.942 139.651L149.931 131.939C149.931 131.939 164.606 124.141 188.044 135.913L183.57 147.495Z" fill="#D94A70"/>
<path opacity="0.3" d="M182.559 137.168C180.887 136.876 179.312 136.491 177.734 136.089L173.065 134.893L168.413 133.685C166.852 133.272 165.283 132.941 163.649 132.447C165.29 132.027 166.991 131.895 168.657 131.991C170.332 132.086 171.998 132.326 173.616 132.768C175.232 133.192 176.803 133.765 178.311 134.48C179.82 135.204 181.27 136.042 182.559 137.168Z" fill="white"/>
<path d="M183.781 147.604C182.601 147.163 182.63 144.187 183.839 140.981C185.046 137.766 186.987 135.52 188.168 135.97C189.348 136.411 189.319 139.386 188.11 142.592C186.893 145.808 184.953 148.054 183.781 147.604Z" fill="#B53059"/>
<path d="M150.858 148.353C150.858 148.353 189.435 147.599 192.21 170.811C194.986 194.032 204.556 274.073 204.556 274.073L193.613 275.382L181.35 172.817C181.35 172.817 179.454 157.933 146.685 159.389L150.858 148.353Z" fill="#F25C93"/>
<path opacity="0.3" d="M185.288 161.094C183.437 160.5 181.702 159.822 179.981 159.123L174.858 157.041L169.76 154.956C168.048 154.248 166.318 153.622 164.54 152.814C166.464 152.593 168.417 152.7 170.304 153.074C172.191 153.439 174.053 153.977 175.815 154.725C177.584 155.453 179.283 156.351 180.884 157.395C182.475 158.44 184.004 159.627 185.288 161.094Z" fill="white"/>
<path d="M151.436 117.955C151.436 117.955 171.944 103.731 164.774 75.852C157.603 47.9734 124.519 45.6627 105.049 59.7446C85.5789 73.8266 70.6086 102.052 71.22 135.817C71.8304 169.574 85.1324 195.994 102.136 211.409C115.9 223.889 145.194 229.204 163.184 212.175C181.174 195.137 171.837 169.335 152.942 160.404C152.942 160.404 174.581 139.322 151.436 117.955Z" fill="#D84444"/>
<path d="M131.326 112.024C134.81 112.96 138.108 113.837 141.413 114.847C143.05 115.367 144.707 115.841 146.358 116.404C148.021 116.921 149.666 117.513 151.437 117.963C150.116 116.716 148.623 115.677 147.029 114.838C145.449 113.961 143.768 113.294 142.04 112.758C140.313 112.23 138.529 111.897 136.73 111.736C134.94 111.575 133.099 111.589 131.326 112.024Z" fill="#C12929"/>
<path d="M135.222 171.761C138.306 169.879 141.217 168.117 144.103 166.223C145.536 165.264 146.991 164.338 148.41 163.345C149.86 162.375 151.276 161.355 152.846 160.424C151.925 161.994 150.788 163.41 149.498 164.665C148.229 165.945 146.798 167.065 145.298 168.059C143.789 169.054 142.17 169.874 140.486 170.532C138.811 171.18 137.054 171.676 135.222 171.761Z" fill="#C12929"/>
<path d="M71.2102 135.81C70.5998 102.053 85.569 73.8191 105.039 59.7371C111.79 54.8568 120.181 51.9468 128.567 51.3917C123.131 52.6056 117.901 54.878 113.456 58.0952C95.6814 70.9449 82.0107 96.723 82.5737 127.54C83.1368 158.357 95.2787 182.481 110.798 196.551C123.368 207.948 150.111 212.799 166.533 197.246C169.298 194.633 171.336 191.784 172.763 188.829C173.264 196.907 170.469 205.253 163.173 212.159C145.184 229.197 115.889 223.873 102.125 211.392C85.1325 195.994 71.8294 169.565 71.2102 135.81Z" fill="#C93535"/>
<path d="M146.517 60.731C149.261 63.9388 151.591 67.3395 153.485 70.9088C155.344 74.491 156.718 78.2746 157.318 82.1687C157.917 86.0627 157.805 90.0598 156.978 93.9901C156.133 97.9226 154.689 101.775 152.96 105.643C155.836 102.542 158.071 98.792 159.456 94.6695C160.833 90.5482 161.267 86.0203 160.567 81.6638C160.182 79.4898 159.596 77.3576 158.772 75.3344C157.915 73.3243 156.922 71.3751 155.672 69.5999C153.223 66.0254 150.158 62.9095 146.517 60.731Z" fill="#F98787"/>
<path d="M150.901 127.32C151.771 129.803 152.424 132.205 152.808 134.594C153.192 136.983 153.243 139.349 152.909 141.645C152.547 143.926 151.98 146.214 150.868 148.361L150.503 149.201C150.375 149.476 150.19 149.722 150.053 149.998L149.148 151.628C148.517 152.715 147.742 153.712 147.107 154.907C148.236 154.253 149.356 153.519 150.381 152.671L151.804 151.257C152.044 151.014 152.284 150.779 152.495 150.521L153.085 149.698C154.76 147.547 155.751 144.841 156.156 142.098C156.551 139.338 156.221 136.504 155.29 133.957C154.341 131.403 152.915 129.049 150.901 127.32Z" fill="#F98787"/>
<path d="M155.461 170.621C156.591 172.142 157.607 173.534 158.546 174.952C159.492 176.361 160.341 177.772 161.079 179.233C161.826 180.692 162.531 182.175 163.096 183.754C163.739 185.324 164.179 186.982 164.877 188.778C165.552 187.014 165.822 185.084 165.613 183.194C165.475 181.285 164.875 179.415 163.992 177.712C163.116 175.999 161.905 174.47 160.46 173.228C159.015 171.996 157.34 171.005 155.461 170.621Z" fill="#F98787"/>
<path d="M155.701 267.713C157.488 270.167 159.557 272.436 161.652 274.62C166.512 279.661 171.854 284.241 177.798 287.944C185.104 292.495 193.25 295.845 201.873 296.667C210.956 297.532 219.963 295.507 228.103 291.472C243.032 284.074 254.505 271.109 263.435 257.303C271.896 244.206 278.52 229.959 283.883 215.344C285.8 210.128 287.557 204.851 289.13 199.525C289.946 196.778 290.847 193.993 291.433 191.184C291.454 191.065 291.494 190.944 291.515 190.825C291.823 189.508 290.669 188.16 289.412 187.97C287.982 187.756 286.875 188.748 286.56 190.075C286.137 191.853 285.651 193.621 285.154 195.372C285.097 195.567 285.039 195.762 284.991 195.956C284.777 196.706 285.081 195.658 284.94 196.132C284.796 196.641 284.642 197.152 284.496 197.653C284.171 198.748 283.836 199.836 283.502 200.932C282.687 203.545 281.834 206.136 280.936 208.723C276.135 222.581 270.261 236.139 262.838 248.789C254.962 262.219 244.782 275.369 231.401 283.898C228.309 285.87 225.031 287.551 221.371 288.956C217.291 290.518 213.1 291.52 208.724 291.802C200.603 292.334 192.59 290.177 185.267 286.451C179.087 283.314 173.207 278.878 167.99 273.916C167.496 273.447 167.01 272.977 166.532 272.497C166.391 272.362 166.257 272.216 166.116 272.081C165.658 271.617 166.483 272.458 166.034 271.992C165.778 271.728 165.523 271.463 165.268 271.198C164.449 270.338 163.647 269.458 162.86 268.567C161.888 267.466 160.948 266.334 160.048 265.171C159.931 265.014 159.805 264.859 159.687 264.694C157.792 262.083 153.797 265.103 155.701 267.713Z" fill="#7CBFA1"/>
<path d="M149.388 167.265C144.972 169.825 140.555 172.386 136.139 174.946C133.211 176.647 135.847 181.184 138.775 179.491C142.363 177.406 145.961 175.329 149.548 173.244C149.666 173.48 149.784 173.717 149.883 173.947C150.83 176.036 151.745 178.147 152.624 180.262C152.648 180.312 152.7 180.449 152.749 180.56C152.786 180.645 152.823 180.73 152.836 180.764C152.976 181.115 153.116 181.465 153.265 181.814C153.547 182.524 153.828 183.224 154.109 183.933C154.739 185.532 155.353 187.151 155.948 188.762C157.274 192.373 158.505 196.012 159.641 199.681C160.871 203.679 161.981 207.727 162.916 211.804C163.386 213.87 163.822 215.948 164.197 218.034C164.387 219.094 164.568 220.165 164.731 221.229C164.817 221.8 164.904 222.372 164.981 222.944C165.019 223.19 165.049 223.438 165.078 223.685C165.089 223.773 165.093 223.808 165.096 223.835C165.1 223.861 165.105 223.905 165.114 223.985C165.605 228.089 165.876 232.228 165.746 236.37C165.714 237.377 165.663 238.377 165.585 239.371C165.547 239.868 165.498 240.357 165.449 240.846C165.422 241.073 165.396 241.3 165.368 241.518C165.359 241.591 165.346 241.709 165.33 241.8C165.071 243.667 164.71 245.518 164.213 247.341C163.97 248.229 163.7 249.112 163.384 249.982C163.23 250.413 163.074 250.834 162.901 251.258C162.893 251.267 162.893 251.267 162.893 251.267C162.879 251.296 162.858 251.343 162.829 251.4C162.744 251.59 162.659 251.779 162.575 251.968C161.838 253.587 160.961 255.151 159.936 256.607C159.821 256.764 159.714 256.92 159.599 257.077C159.552 257.137 159.491 257.224 159.428 257.295C159.148 257.642 158.866 257.98 158.576 258.319C158.009 258.968 157.403 259.587 156.766 260.164C156.403 260.494 156.039 260.815 155.656 261.13C155.533 261.225 155.419 261.319 155.297 261.423C155.24 261.466 155.125 261.551 155.043 261.615C154.277 262.163 153.49 262.687 152.67 263.161C152.494 263.262 152.338 263.379 152.209 263.493C152.037 263.55 151.858 263.625 151.682 263.726C150.862 264.2 150.018 264.624 149.162 265.021C149.061 265.069 148.942 265.119 148.864 265.146C148.72 265.208 148.574 265.262 148.428 265.315C147.975 265.486 147.511 265.648 147.046 265.794C146.227 266.053 145.385 266.27 144.547 266.441C144.11 266.529 143.673 266.609 143.234 266.679C143.146 266.69 143.041 266.711 142.961 266.721C142.767 266.744 142.573 266.767 142.387 266.78C140.609 266.948 138.827 266.928 137.046 266.765C136.837 266.746 136.628 266.717 136.429 266.696C136.365 266.686 136.32 266.682 136.284 266.677C136.284 266.677 136.275 266.679 136.266 266.68C135.811 266.618 135.365 266.546 134.917 266.465C134.011 266.296 133.111 266.099 132.215 265.866C130.397 265.394 128.607 264.784 126.859 264.08C126.774 264.046 126.661 263.997 126.595 263.969C126.387 263.877 126.181 263.794 125.973 263.703C125.52 263.506 125.075 263.3 124.629 263.085C123.719 262.656 122.825 262.208 121.945 261.732C118.295 259.787 114.837 257.497 111.528 255.028C111.459 254.973 111.429 254.95 111.401 254.936C111.381 254.92 111.342 254.898 111.282 254.842C111.086 254.696 110.888 254.54 110.692 254.394C110.238 254.036 109.775 253.68 109.329 253.321C108.489 252.652 107.655 251.964 106.829 251.266C105.208 249.902 103.626 248.489 102.068 247.055C99 244.208 96.0423 241.24 93.182 238.189C90.5563 235.379 88.0201 232.495 85.5492 229.559C84.4435 228.241 83.3533 226.903 82.2719 225.564C81.7981 224.968 81.3242 224.371 80.8504 223.774C80.6184 223.479 80.3864 223.185 80.1533 222.882C80.1315 222.848 80.0691 222.775 80.0155 222.701C79.9421 222.611 79.8469 222.488 79.8152 222.448C78.4169 220.627 77.043 218.786 75.7022 216.924C75.5523 216.718 75.4004 216.494 75.2583 216.278C78.8462 214.193 82.4439 212.116 86.0318 210.031C88.9511 208.339 86.3223 203.783 83.3953 205.485C78.9787 208.045 74.5621 210.605 70.1456 213.166C68.9743 213.843 68.3946 215.577 69.1882 216.753C70.7983 219.148 72.5244 221.466 74.2651 223.756C78.5667 229.436 83.0974 234.937 87.8948 240.2C93.6692 246.528 99.8452 252.548 106.612 257.827C113.341 263.083 120.691 267.781 128.889 270.364C136.446 272.745 144.495 272.813 151.797 269.549C152.663 269.159 153.497 268.728 154.316 268.254C154.492 268.153 154.649 268.045 154.786 267.921C154.959 267.864 155.127 267.781 155.303 267.68C156.123 267.206 156.911 266.691 157.676 266.134C164.133 261.414 168.071 254.399 169.765 246.65C171.605 238.248 171.179 229.526 169.971 221.068C168.759 212.574 166.606 204.219 163.993 196.054C161.822 189.269 159.298 182.597 156.51 176.037C155.388 173.387 154.23 170.733 152.955 168.146C152.347 166.947 150.559 166.588 149.388 167.265Z" fill="#417157"/>
<path d="M97.427 200.387C99.3669 203.745 97.1887 208.643 92.5633 211.326C87.9378 214.01 84.42 212.416 82.48 209.059C80.5401 205.701 80.8952 201.863 85.5294 199.178C90.1537 196.486 95.4871 197.03 97.427 200.387Z" fill="#7CBFA1"/>
<path d="M91.0057 208.621C87.0156 210.934 83.8619 210.066 81.818 207.634C81.9917 208.115 82.2095 208.59 82.4792 209.05C84.4191 212.408 87.937 214.001 92.5624 211.318C97.1878 208.634 99.3661 203.737 97.4262 200.379C97.1565 199.919 96.8215 199.511 96.4301 199.155C97.1536 202.363 94.9869 206.31 91.0057 208.621Z" fill="#6DAF8F"/>
<path d="M124.711 184.565C126.651 187.923 131.984 188.467 136.61 185.784C141.235 183.1 141.598 179.252 139.659 175.903C137.719 172.545 134.201 170.952 129.576 173.635C124.942 176.32 122.762 181.209 124.711 184.565Z" fill="#7CBFA1"/>
<path d="M135.043 183.08C139.033 180.767 139.843 177.591 138.753 174.615C139.077 175.006 139.388 175.434 139.649 175.895C141.589 179.253 141.234 183.091 136.6 185.776C131.974 188.46 126.641 187.916 124.701 184.558C124.43 184.089 124.247 183.601 124.131 183.086C126.552 185.303 131.062 185.391 135.043 183.08Z" fill="#6DAF8F"/>
<path d="M169.612 224.585C167.965 225.543 166.316 226.492 164.668 227.45C164.037 227.704 163.56 228.28 163.624 229.186C164.048 235.804 163.83 242.509 161.718 248.857C161.601 249.221 161.474 249.585 161.338 249.941C161.31 250.007 161.096 250.534 161.036 250.703C160.972 250.845 160.902 251.005 160.88 251.044C160.682 251.488 160.466 251.926 160.24 252.355C159.566 253.671 158.809 254.97 157.893 256.136C156.929 257.353 155.82 258.479 154.635 259.489C153.572 260.395 152.344 261.043 151.224 261.857C149.959 262.42 148.787 263.169 147.475 263.639C146.086 264.137 144.629 264.526 143.173 264.762C141.637 265.009 140.056 265.028 138.51 264.962C137.916 264.934 137.319 264.872 136.722 264.818C136.811 264.816 135.922 264.716 135.867 264.705C135.493 264.642 135.118 264.571 134.743 264.499C128.19 263.179 122.277 260.037 116.741 256.375C116.178 256.003 115.353 256.057 114.783 256.385C113.111 257.355 111.446 258.324 109.774 259.294C108.385 260.095 108.607 261.877 109.789 262.711C116.736 267.628 124.543 271.958 133.002 273.507C136.907 274.222 140.856 274.332 144.783 273.737C148.473 273.179 152.683 271.96 155.749 269.704C159.232 268.16 162.383 265.115 164.699 262.189C167.171 259.073 169.035 255.592 170.358 251.844C173.225 243.731 173.347 234.8 172.539 226.321C172.434 224.847 171 223.774 169.612 224.585Z" fill="#7CBFA1"/>
<path d="M170.43 224.326C171.031 232.194 170.729 240.368 168.089 247.836C166.766 251.584 164.902 255.065 162.43 258.181C160.114 261.108 156.954 264.153 153.481 265.696C150.414 267.952 146.195 269.173 142.514 269.729C138.587 270.324 134.638 270.214 130.733 269.499C122.943 268.076 115.709 264.277 109.186 259.847C108.56 260.746 108.872 262.006 109.829 262.68C116.776 267.596 124.584 271.927 133.042 273.475C136.947 274.19 140.896 274.3 144.823 273.705C148.513 273.148 152.723 271.928 155.79 269.672C159.272 268.128 162.423 265.084 164.739 262.157C167.211 259.042 169.075 255.56 170.398 251.812C173.265 243.699 173.387 234.768 172.579 226.289C172.459 225.139 171.51 224.232 170.43 224.326Z" fill="#6DAF8F"/>
<path d="M311.461 191.552C312.087 179.158 302.555 168.604 290.171 167.98C277.786 167.356 267.239 176.898 266.613 189.292C265.987 201.687 275.519 212.24 287.904 212.864C300.288 213.488 310.835 203.946 311.461 191.552Z" fill="#417157"/>
<path d="M293.128 203.39C300.275 201.133 304.239 193.504 301.982 186.351C299.725 179.197 292.102 175.228 284.955 177.486C277.808 179.743 273.844 187.372 276.101 194.525C278.358 201.678 285.982 205.647 293.128 203.39Z" fill="#7CBFA1"/>
<path opacity="0.4" d="M296.831 169.375C298.527 171.67 299.82 174.326 300.556 177.264C303.569 189.302 296.272 201.508 284.244 204.522C279.676 205.668 275.091 205.321 270.991 203.797C276.241 210.895 285.412 214.516 294.505 212.238C306.532 209.224 313.839 197.017 310.816 184.98C308.948 177.514 303.533 171.868 296.831 169.375Z" fill="#417157"/>
</svg>
