<svg width="334" height="230" viewBox="0 0 334 230" fill="none" xmlns="http://www.w3.org/2000/svg">
<path d="M214.311 1.62274C196.108 -2.79271 177.436 1.88498 161.209 14.6495C148.127 24.9401 125.829 53.1509 88.4449 55.8043C40.0068 59.2432 29.0892 121.014 39.8597 154.52C51.1927 189.778 46.8714 209.088 41.4971 218.955C39.5216 222.582 41.2003 228.027 44.3178 228.027H364.289C364.289 228.027 368.272 191.961 352.339 172.539C336.406 153.116 327.996 138.394 331.536 104.155C335.077 69.9149 316.124 30.2004 282.01 30.2004C254.213 30.2004 230.056 5.44266 214.311 1.62274Z" fill="#E5CECA"/>
<path d="M183.531 224.399H63.9385C60.7578 224.399 58.1797 221.818 58.1797 218.633V50.4988C58.1797 47.3145 60.7578 44.7334 63.9385 44.7334H183.53C186.711 44.7334 189.289 47.3145 189.289 50.4988V218.633C189.29 221.816 186.712 224.399 183.531 224.399Z" fill="#4C495B"/>
<path d="M179.958 53.9827H66.8955V214.389H179.958V53.9827Z" fill="#DCEAE5"/>
<path d="M178.197 55.8726H68.5928V213.167H178.197V55.8726Z" fill="white"/>
<path d="M93.3526 78.7909H78.6492C78.3963 78.7909 78.1924 78.5868 78.1924 78.3336V63.6133C78.1924 63.3601 78.3963 63.156 78.6492 63.156H93.3526C93.6055 63.156 93.8094 63.3601 93.8094 63.6133V78.3336C93.8094 78.5855 93.6055 78.7909 93.3526 78.7909ZM79.1059 77.8763H92.8958V64.0706H79.1059V77.8763Z" fill="#749CB7"/>
<path d="M165.402 63.613H102.807V66.1011H165.402V63.613Z" fill="#CAEBFF"/>
<path d="M133.264 70.9727H102.807V73.4607H133.264V70.9727Z" fill="#CAEBFF"/>
<path d="M165.402 119.13H102.807V121.618H165.402V119.13Z" fill="#CAEBFF"/>
<path d="M165.049 126.49H102.807V128.978H165.049V126.49Z" fill="#CAEBFF"/>
<path d="M165.402 91.3721H102.807V93.8601H165.402V91.3721Z" fill="#CAEBFF"/>
<path d="M146.498 98.7314H102.807V101.219H146.498V98.7314Z" fill="#CAEBFF"/>
<path d="M165.402 146.889H102.807V149.377H165.402V146.889Z" fill="#CAEBFF"/>
<path d="M123.737 154.25H102.807V156.738H123.737V154.25Z" fill="#CAEBFF"/>
<path d="M68.5928 94.3521C68.5928 94.3521 97.89 113.068 94.5286 147.346C91.1673 181.625 153.554 195.922 156.284 213.167C68.5928 213.167 68.5928 213.167 68.5928 213.167V94.3521Z" fill="#CAEBFF"/>
<path d="M93.3526 134.308H78.6492C78.3963 134.308 78.1924 134.103 78.1924 133.851V119.131C78.1924 118.877 78.3963 118.673 78.6492 118.673H93.3526C93.6055 118.673 93.8094 118.877 93.8094 119.131V133.851C93.8094 134.104 93.6055 134.308 93.3526 134.308ZM79.1059 133.394H92.8958V119.588H79.1059V133.394Z" fill="#749CB7"/>
<path d="M93.3526 162.067H78.6492C78.3963 162.067 78.1924 161.861 78.1924 161.61V146.889C78.1924 146.637 78.3963 146.432 78.6492 146.432H93.3526C93.6055 146.432 93.8094 146.637 93.8094 146.889V161.61C93.8094 161.863 93.6055 162.067 93.3526 162.067ZM79.1059 161.152H92.8958V147.347H79.1059V161.152Z" fill="#749CB7"/>
<path d="M165.402 174.648H102.807V177.136H165.402V174.648Z" fill="#CAEBFF"/>
<path d="M152.379 182.009H102.807V184.497H152.379V182.009Z" fill="#CAEBFF"/>
<path d="M93.3526 189.827H78.6492C78.3963 189.827 78.1924 189.621 78.1924 189.37V174.649C78.1924 174.397 78.3963 174.192 78.6492 174.192H93.3526C93.6055 174.192 93.8094 174.397 93.8094 174.649V189.37C93.8094 189.621 93.6055 189.827 93.3526 189.827ZM79.1059 188.911H92.8958V175.105H79.1059V188.911Z" fill="#749CB7"/>
<path d="M93.3526 106.549H78.6492C78.3963 106.549 78.1924 106.345 78.1924 106.092V91.3719C78.1924 91.1187 78.3963 90.9146 78.6492 90.9146H93.3526C93.6055 90.9146 93.8094 91.1187 93.8094 91.3719V106.092C93.8094 106.344 93.6055 106.549 93.3526 106.549ZM79.1059 105.635H92.8958V91.8292H79.1059V105.635Z" fill="#749CB7"/>
<path d="M76.5479 64.3472L86.2267 76.9076L100.564 57.4683L85.7777 68.9823L76.5479 64.3472Z" fill="#F59678"/>
<path d="M76.5479 91.0193L86.2267 103.58L100.564 84.1404L85.7777 95.6544L76.5479 91.0193Z" fill="#F59678"/>
<path d="M76.5479 118.778L86.2267 131.338L100.564 111.9L85.7777 123.413L76.5479 118.778Z" fill="#F59678"/>
<path d="M76.5479 146.537L86.2267 159.097L100.564 139.659L85.7777 151.172L76.5479 146.537Z" fill="#F59678"/>
<path d="M18.0212 227.277C18.0212 227.277 -6.97659 211.496 2.4971 202.256C14.736 190.319 24.8136 213.143 24.8136 213.143C24.8136 213.143 -3.21137 171.282 19.3154 165.617C41.2112 160.111 35.4873 202.256 35.4873 202.256C35.4873 202.256 36.9337 177.604 54.6024 183.83C74.2272 190.747 44.9906 227.277 44.9906 227.277H18.0212Z" fill="#EFE1DF"/>
<path d="M368.358 227.482C368.358 227.482 388.161 214.981 380.656 207.66C370.961 198.204 362.977 216.286 362.977 216.286C362.977 216.286 385.178 183.122 367.334 178.636C349.988 174.275 354.523 207.66 354.523 207.66C354.523 207.66 353.377 188.131 339.38 193.064C323.834 198.543 346.994 227.482 346.994 227.482H368.358Z" fill="#EFE1DF"/>
<path d="M73.3284 185.676V182.182H49.43V185.676H49.4287C46.7409 185.676 44.5615 187.858 44.5615 190.549V223.457C44.5615 224.919 45.7461 226.104 47.2054 226.104H75.5504C77.011 226.104 78.1943 224.918 78.1943 223.457V190.549C78.1956 187.858 76.0162 185.676 73.3284 185.676Z" fill="white"/>
<path d="M75.5508 226.418H47.2045C45.5735 226.418 44.2471 225.09 44.2471 223.457V190.549C44.2471 187.795 46.4032 185.534 49.1155 185.372V182.183C49.1155 182.01 49.2562 181.87 49.4278 181.87H73.3262C73.4991 181.87 73.6385 182.01 73.6385 182.183V185.374C76.3495 185.535 78.5056 187.796 78.5056 190.55V223.459C78.5069 225.09 77.1805 226.418 75.5508 226.418ZM49.7413 182.496V185.676C49.7413 185.849 49.6007 185.989 49.4291 185.989C46.9168 185.989 44.8742 188.034 44.8742 190.548V223.457C44.8742 224.743 45.9206 225.791 47.2058 225.791H75.5508C76.8359 225.791 77.8824 224.743 77.8824 223.457V190.549C77.8824 188.035 75.8398 185.99 73.3288 185.99C73.1559 185.99 73.0165 185.85 73.0165 185.677V182.497H49.7413V182.496Z" fill="#A29088"/>
<path d="M53.3688 223.862C57.4779 223.862 60.8089 220.528 60.8089 216.414C60.8089 212.3 57.4779 208.965 53.3688 208.965C49.2598 208.965 45.9287 212.3 45.9287 216.414C45.9287 220.528 49.2598 223.862 53.3688 223.862Z" fill="#BDD1E5"/>
<path d="M54.0415 222.315C53.1937 222.315 52.3202 222.143 51.4453 221.793C48.5214 220.623 46.4504 217.756 46.7304 215.267C46.7498 215.095 46.9059 214.974 47.0762 214.99C47.2478 215.01 47.3717 215.165 47.3524 215.337C47.102 217.56 49.0027 220.141 51.6789 221.212C52.9628 221.726 56.2273 222.551 58.8132 219.137C58.9177 219 59.1138 218.973 59.2519 219.076C59.39 219.181 59.4171 219.377 59.3125 219.516C57.9203 221.35 56.0531 222.315 54.0415 222.315Z" fill="white"/>
<path d="M58.9665 217.086C58.9291 217.086 58.8917 217.079 58.8543 217.065L48.4851 213.085C48.3238 213.023 48.2438 212.842 48.3044 212.681C48.3664 212.519 48.547 212.439 48.7083 212.501L59.0775 216.481C59.2388 216.543 59.3188 216.724 59.2581 216.885C59.2104 217.009 59.0917 217.086 58.9665 217.086Z" fill="white"/>
<path d="M59.7979 212.974C59.6973 212.974 59.5979 212.924 59.5385 212.835C55.8262 207.31 50.5836 209.833 50.3616 209.944C50.2081 210.02 50.0197 209.958 49.9423 209.803C49.8649 209.648 49.9281 209.461 50.0816 209.384C50.141 209.354 56.0327 206.498 60.0573 212.485C60.154 212.629 60.1153 212.824 59.9721 212.921C59.9192 212.957 59.8586 212.974 59.7979 212.974Z" fill="#749CB7"/>
<path d="M68.8239 215.79C72.933 215.79 76.264 212.455 76.264 208.341C76.264 204.228 72.933 200.893 68.8239 200.893C64.7148 200.893 61.3838 204.228 61.3838 208.341C61.3838 212.455 64.7148 215.79 68.8239 215.79Z" fill="#BDD1E5"/>
<path d="M68.9261 215.088C68.7648 215.088 68.6281 214.963 68.6152 214.799C68.6023 214.627 68.73 214.476 68.9029 214.463C71.1313 214.29 73.3043 211.935 73.8501 209.102C74.112 207.743 74.3069 204.378 70.4694 202.479C70.3145 202.403 70.2513 202.214 70.3274 202.059C70.4036 201.904 70.592 201.841 70.7468 201.917C73.6772 203.366 75.0669 206.096 74.4643 209.22C73.8681 212.315 71.4462 214.892 68.9519 215.087C68.9429 215.088 68.9352 215.088 68.9261 215.088Z" fill="white"/>
<path d="M66.1719 214.029C66.1538 214.029 66.1358 214.028 66.1164 214.024C65.9461 213.994 65.8325 213.832 65.8635 213.661L67.8119 202.715C67.8416 202.545 68.0042 202.43 68.1745 202.462C68.3448 202.492 68.4584 202.655 68.4274 202.825L66.479 213.771C66.4532 213.923 66.3203 214.029 66.1719 214.029Z" fill="white"/>
<path d="M62.7959 213.022C62.7017 213.022 62.6088 212.979 62.5468 212.899C62.5068 212.847 58.5932 207.592 63.7094 202.507C63.832 202.386 64.0307 202.386 64.152 202.509C64.2733 202.631 64.2733 202.829 64.1507 202.952C59.4203 207.654 62.8939 212.323 63.0449 212.519C63.1494 212.656 63.1236 212.852 62.9869 212.958C62.9301 213.001 62.863 213.022 62.7959 213.022Z" fill="#749CB7"/>
<path d="M55.0104 204.155C59.1195 204.155 62.4505 200.82 62.4505 196.706C62.4505 192.592 59.1195 189.257 55.0104 189.257C50.9014 189.257 47.5703 192.592 47.5703 196.706C47.5703 200.82 50.9014 204.155 55.0104 204.155Z" fill="#BDD1E5"/>
<path d="M55.7177 202.819C54.2686 202.819 52.8428 202.301 51.5731 201.269C49.1292 199.281 48.004 195.927 49.0105 193.633C49.0802 193.475 49.2647 193.403 49.4221 193.473C49.5808 193.542 49.6518 193.727 49.5821 193.885C48.6827 195.932 49.7305 198.963 51.9666 200.782C53.0389 201.655 55.9099 203.416 59.3939 200.926C59.5345 200.826 59.7293 200.858 59.83 200.999C59.9306 201.14 59.8984 201.335 59.7577 201.435C58.4674 202.358 57.0829 202.819 55.7177 202.819Z" fill="white"/>
<path d="M60.2478 199.028C60.1794 199.028 60.111 199.006 60.0543 198.961L51.3367 192.072C51.2012 191.965 51.178 191.767 51.2851 191.633C51.3922 191.497 51.5883 191.474 51.7238 191.581L60.4414 198.47C60.5768 198.578 60.6001 198.775 60.493 198.91C60.4323 198.987 60.3407 199.028 60.2478 199.028Z" fill="white"/>
<path d="M62.2643 195.351C62.1301 195.351 62.0049 195.263 61.9649 195.127C60.0578 188.731 54.308 189.592 54.0642 189.633C53.8938 189.661 53.7325 189.545 53.7054 189.375C53.6771 189.204 53.7932 189.043 53.9635 189.015C54.0293 189.006 60.503 188.032 62.5649 194.949C62.614 195.114 62.5198 195.289 62.3546 195.339C62.3236 195.347 62.294 195.351 62.2643 195.351Z" fill="#749CB7"/>
<path d="M74.7226 184.532H48.0332V174.764C48.0332 174.109 48.5635 173.578 49.2177 173.578H73.5381C74.1923 173.578 74.7226 174.109 74.7226 174.764V184.532Z" fill="#749CB7"/>
<path d="M142.865 34.6038C145.904 34.6038 148.367 32.1377 148.367 29.0955C148.367 26.0533 145.904 23.5872 142.865 23.5872C139.827 23.5872 137.363 26.0533 137.363 29.0955C137.363 32.1377 139.827 34.6038 142.865 34.6038Z" fill="#BDD1E5"/>
<path d="M146.868 26.1221C146.937 26.219 146.922 26.3559 146.829 26.4347C146.731 26.5174 146.585 26.5045 146.503 26.4076C145.437 25.1429 143.086 24.8535 141.152 25.7475C140.224 26.1763 138.121 27.5121 138.638 30.6383C138.659 30.7649 138.573 30.8837 138.447 30.9044C138.321 30.9251 138.202 30.8398 138.181 30.7132C137.786 28.3259 138.824 26.312 140.957 25.3263C143.072 24.3484 145.661 24.692 146.855 26.1079C146.86 26.1118 146.864 26.1169 146.868 26.1221Z" fill="white"/>
<path d="M147.421 28.2357C147.429 28.246 147.437 28.2589 147.442 28.2705C147.497 28.3855 147.448 28.5237 147.334 28.5793L139.927 32.1318C139.812 32.1873 139.673 32.1395 139.619 32.0233C139.563 31.9083 139.612 31.7701 139.727 31.7145L147.134 28.162C147.237 28.1129 147.357 28.1465 147.421 28.2357Z" fill="white"/>
<path d="M148.274 30.6987C148.314 30.7556 148.329 30.8292 148.307 30.9016C148.293 30.9481 146.831 35.5689 141.573 34.6879C141.447 34.6672 141.361 34.5471 141.383 34.4218C141.404 34.2952 141.524 34.2099 141.649 34.2319C146.511 35.0457 147.812 30.9429 147.865 30.7672C147.902 30.6445 148.031 30.576 148.152 30.6122C148.203 30.6277 148.245 30.6587 148.274 30.6987Z" fill="#749CB7"/>
<path d="M194.962 96.6064L152.995 123.573C152.995 123.573 154.482 137.079 163.604 139.792C213.063 115.727 213.063 115.727 213.063 115.727L194.962 96.6064Z" fill="#A03F32"/>
<path d="M201.456 149.256C201.456 149.256 215.445 145.444 214.055 136.017C212.665 126.591 211.65 121.759 201.644 123.949C198.117 120.061 189.443 124.598 189.573 131.899C180.241 132.697 175.058 135.827 178.192 143.688C174.052 148.283 166.614 154.87 173.906 165.094C173.563 176.124 177.289 184.07 188.649 180.847C199.631 185.095 201.456 149.256 201.456 149.256Z" fill="#D8634C"/>
<path d="M256.178 72.7141C256.178 72.7141 239.605 93.2011 240.28 104.361C240.955 115.52 239.392 118.591 251.808 122.051C264.225 125.512 283.8 105.73 283.8 105.73C283.8 105.73 280.899 77.5636 256.178 72.7141Z" fill="#D8634C"/>
<path d="M163.415 48.4447C163.415 48.4447 165.033 67.2007 182.5 79.2043C182.092 103.845 199.96 132.029 215.574 129.738C219.613 121.76 225.849 87.959 240.368 74.7682C248.803 67.1051 249.535 53.8937 241.512 45.8004C238.462 42.722 235.569 41.7932 231.368 40.4199C226.446 23.7813 241.523 12.9429 241.523 12.9429L241.497 12.9158C239.84 11.2093 237.763 10.0738 235.546 9.56866C233.147 9.02222 232.448 8.60109 230.077 9.59967L228.751 9.18112C228.751 9.18112 212.371 23.8756 214.142 41.372C204.458 44.546 209.551 46.2667 209.551 46.2667C209.551 46.2667 182.185 24.7476 167.079 26.8649L162.786 36.1711C162.786 36.1711 188.23 39.7844 193.965 59.0454L189.754 66.8778C189.754 66.8778 180.278 68.9602 170.04 46.2758L163.415 48.4447Z" fill="#A03F32"/>
<path d="M162.134 98.0222C162.134 98.0222 164.678 131.687 187.287 154.817C194.426 151.632 207.994 125.246 207.994 125.246C207.994 125.246 188.722 113.337 183.433 89.6073C177.544 83.0229 161.539 92.771 162.134 98.0222Z" fill="#9FC1DD"/>
<path d="M174.274 96.4833C178.85 94.3263 181.88 91.1341 181.042 89.3532C180.205 87.5724 175.816 87.8774 171.241 90.0343C166.665 92.1913 163.635 95.3836 164.473 97.1644C165.31 98.9452 169.698 98.6403 174.274 96.4833Z" fill="#749CB7"/>
<path d="M163.763 99.119C163.763 99.119 173.088 103.478 182.971 90.7764C175.424 102.642 164.869 102.392 163.763 99.119Z" fill="#749CB7"/>
<path d="M253.075 54.8846L269.79 36.9748C269.79 36.9748 273.883 35.5422 276.563 38.9926C273.143 36.5834 269.715 37.8946 269.715 37.8946L253.075 54.8846Z" fill="#749CB7"/>
<path d="M186.467 76.2822C190.816 62.8783 200.793 47.016 213.796 40.7778C214.504 40.4187 215.163 41.4147 214.539 41.9198C213.802 42.5321 213.038 43.0927 212.291 43.6702C204.192 49.8348 197.62 57.8156 192.643 66.6956C190.844 69.9394 189.147 73.293 187.768 76.715C187.473 77.5224 186.217 77.1426 186.467 76.2822Z" fill="#7C271E"/>
<path d="M229.584 8.48878C229.584 8.48878 227.317 9.60879 229.172 11.4005C231.028 13.1936 238.495 16.0395 241.526 12.9417C244.557 9.8439 233.365 6.96701 229.584 8.48878Z" fill="#A03F32"/>
<path d="M230.372 9.12283C230.372 9.12283 228.367 10.0801 229.943 11.4804C231.518 12.8794 237.962 14.9929 240.681 12.4221C243.4 9.85142 233.708 7.80388 230.372 9.12283Z" fill="#7C271E"/>
<path d="M228.371 10.7854C230.594 14.0253 235.024 14.7164 238.656 13.9801C239.07 13.9168 239.205 14.5421 238.796 14.6506C235.068 15.8235 229.353 15.2203 227.761 11.0735C227.641 10.7105 228.171 10.4612 228.371 10.7854Z" fill="#7C271E"/>
<path d="M224.873 148.392C224.873 148.392 203.319 135.221 216.154 95.4669L211.561 80.0658C211.561 80.0658 201.3 63.112 224.657 56.5779L244.406 60.9055L269.3 36.6645C274.675 32.6431 286.626 43.2605 278.078 51.6768C272.682 56.4578 266.222 64.1144 260.007 72.1818C250.619 84.3663 242.237 97.2574 242.983 112.626C242.983 112.626 263.71 137.739 224.873 148.392Z" fill="#9FC1DD"/>
<path d="M246.109 94.8508C246.109 94.8508 261.565 67.72 279.199 50.4109C266.225 58.5726 247.286 79.4588 246.109 94.8508Z" fill="#749CB7"/>
<path d="M294.178 186.849C292.974 217.965 280.627 242.497 231.612 220.794C182.592 199.1 183.517 172.624 183.517 172.624C183.517 172.624 179.53 160.981 181.784 148.071C181.837 147.794 181.886 147.525 181.94 147.249C183.841 137.472 189.426 127.096 203.074 120.588C204.372 118.517 200.074 109.936 205.791 102.106C213.275 91.85 233.985 93.1832 246.383 92.6871C254.681 92.3564 262.305 95.7629 273.251 88.0469C273.984 87.9939 274.699 87.9771 275.408 88.0043C304.062 88.8052 311.692 149.256 294.178 186.849Z" fill="#F59678"/>
<path d="M183.211 98.6848C185.443 105.83 188.982 113.291 195.443 117.485L195.09 118.072C189.408 115.853 185.736 110.238 183.767 104.683C183.127 102.806 182.655 100.878 182.549 98.8631L183.211 98.6848Z" fill="#749CB7"/>
<path d="M294.178 186.849C292.974 217.965 280.627 242.497 231.612 220.794C182.592 199.1 183.517 172.624 183.517 172.624C183.517 172.624 179.53 160.981 181.784 148.071C182.431 148.747 183.059 149.654 183.64 150.791C183.64 150.791 216.112 195.131 250.581 178.941C266.925 191.284 289.969 171.375 287.773 149.464C301.341 140.088 287.654 101.097 275.406 88.0029C304.062 88.8052 311.692 149.256 294.178 186.849Z" fill="#E87A5D"/>
<path d="M203.258 119.315C212.483 121.329 218.64 130.164 220.41 138.976C220.844 140.813 221.541 143.407 222.283 145.12C222.906 146.523 223.701 148.062 224.567 149.324C227.274 153.226 231.534 156.327 236.3 156.942C236.714 156.98 236.685 157.67 236.225 157.623C231.695 157.183 227.612 154.711 224.643 151.347C222.439 148.817 220.856 145.719 219.768 142.563L218.828 139.357C217.251 133.21 213.927 127.397 208.466 124.093C206.74 123.036 204.807 122.196 202.817 121.851C201.142 121.544 201.552 119.039 203.258 119.315Z" fill="#E87A5D"/>
<path d="M211.154 124.245C211.718 124.228 211.843 124.315 211.853 124.406C211.953 125.044 211.997 125.694 212.017 126.335C212.172 131.37 209.966 136.429 206.098 139.651C205.955 139.776 205.738 139.761 205.614 139.617C205.501 139.487 205.505 139.297 205.611 139.169C207.254 137.057 208.596 134.749 209.32 132.182C210.015 129.775 210.253 127.215 209.878 124.737C209.829 124.658 210.096 124.547 210.163 124.515C210.469 124.401 210.826 124.241 211.154 124.245Z" fill="#E87A5D"/>
<path d="M219.029 136.087C213.054 140.417 210.047 148.37 211.684 155.579L211.981 157.051C212.038 157.243 211.921 157.451 211.721 157.49C211.542 157.526 211.368 157.415 211.323 157.241L210.937 155.745C208.788 148.075 211.68 139.452 217.894 134.472C218.987 133.652 220.174 135.324 219.029 136.087Z" fill="#E87A5D"/>
<path d="M214.365 126.42C220.671 128.302 226.361 123.085 229.355 117.979C229.566 117.611 230.159 117.934 229.952 118.315C227.061 124.317 220.83 130.236 213.649 128.42C212.244 127.966 212.987 125.875 214.365 126.42Z" fill="#E87A5D"/>
<path d="M233.633 126.85C230.302 128.948 225.511 129.736 222.438 126.756C222.129 126.49 222.095 126.025 222.36 125.716C222.634 125.396 223.127 125.372 223.43 125.666C225.938 128.486 230.24 127.87 233.277 126.265C233.655 126.039 234.01 126.613 233.633 126.85Z" fill="#E87A5D"/>
<path d="M247.867 91.2081C254.836 98.8595 262.854 110.162 263.274 120.811C263.415 124.338 262.431 128.079 260.288 130.947C256.226 135.6 259.418 139.759 263.021 143.577C272.53 153.597 291.612 164.013 286.096 180.419C286.034 180.598 285.839 180.693 285.66 180.631C285.482 180.569 285.387 180.375 285.447 180.198C288.47 171.417 282.647 163.55 276.385 157.911C273.218 154.978 269.794 152.31 266.418 149.522C261.72 145.397 253.873 139.747 256.259 132.497C256.644 131.336 257.347 130.345 258.026 129.356C260.937 125.162 260.627 119.81 258.92 114.989C256.036 107.19 250.7 100.105 244.842 94.1095C242.966 92.0878 245.864 89.2135 247.867 91.2081Z" fill="#D8634C"/>
<path d="M285.575 138.211C277.881 131.891 274.98 121.21 276.391 111.599C276.898 107.059 274.079 102.713 269.37 102.411C264.867 102.072 261.032 105.414 259.215 109.367C258.504 110.825 256.313 109.777 257.002 108.305C259.273 103.675 264.132 99.7998 269.556 100.406C275.278 100.953 278.743 106.29 277.949 111.794C276.76 118.788 277.711 126.184 281.487 132.249C282.714 134.257 284.221 136.152 285.989 137.664C286.34 137.912 285.958 138.509 285.575 138.211Z" fill="#D8634C"/>
<path d="M288.545 125.4C283.651 126.955 278.313 125.468 276.328 120.391C276.182 120.084 276.314 119.716 276.621 119.571C276.938 119.42 277.323 119.57 277.454 119.895C278.95 124.702 283.893 126.203 288.439 125.066C288.652 124.994 288.764 125.335 288.545 125.4Z" fill="#CE5760"/>
<path d="M218.508 171.9C227.708 173.545 239.607 171.28 248.121 167.582C256.489 163.921 263.689 157.325 261.939 147.432C261.911 146.889 261.666 146.174 261.556 145.641L261.448 145.196C261.443 145.118 261.381 145.056 261.434 144.962C261.543 144.791 261.795 144.678 262.017 144.547C262.332 144.343 262.792 144.344 263.115 144.36C263.346 144.39 263.414 144.45 263.437 144.658C263.596 145.424 263.885 146.334 263.956 147.113C266.667 164.058 247.453 171.489 233.783 173.049C231.215 173.351 228.632 173.51 226.046 173.485C223.464 173.462 220.861 173.268 218.331 172.564C217.939 172.422 218.032 171.812 218.508 171.9Z" fill="#D8634C"/>
<path d="M211.6 182.057C222.062 186.158 233.258 179.286 240.951 172.498L244.339 169.273C244.621 168.97 245.106 168.963 245.392 169.266C245.669 169.558 245.653 170.025 245.355 170.296C237.99 177.277 228.888 184.009 218.328 184.107C215.901 184.058 213.507 183.746 211.268 182.656C210.862 182.442 211.183 181.821 211.6 182.057Z" fill="#D8634C"/>
<path d="M261.004 192.458C260.833 192.514 260.647 192.429 260.58 192.258C260.51 192.082 260.597 191.882 260.772 191.812C260.937 191.748 277.281 185.157 281.67 174.32C283.221 170.491 283.107 166.543 281.328 162.589C281.251 162.416 281.327 162.213 281.5 162.135C281.664 162.06 281.876 162.134 281.953 162.307C283.811 166.44 283.93 170.568 282.305 174.579C277.803 185.689 261.191 192.383 261.025 192.451C261.017 192.453 261.011 192.456 261.004 192.458Z" fill="#D8634C"/>
<path d="M277.441 210.798C277.295 210.846 277.132 210.792 277.045 210.656C276.946 210.5 267.278 194.893 277.551 180.615C277.661 180.461 277.875 180.426 278.03 180.537C278.183 180.648 278.218 180.863 278.107 181.015C268.108 194.913 277.528 210.137 277.623 210.289C277.725 210.449 277.677 210.661 277.517 210.762C277.493 210.777 277.467 210.789 277.441 210.798Z" fill="#D8634C"/>
<path d="M227.136 195.284C225.716 189.326 228.592 183.31 232.496 178.941C232.91 178.454 233.639 179.109 233.19 179.575C229.416 183.662 226.545 189.42 227.79 195.077C227.941 195.514 227.262 195.74 227.136 195.284Z" fill="#D8634C"/>
<path d="M226.026 170.773C217.933 171.141 209.958 168.389 203.185 164.073C200.744 162.522 198.167 161.177 195.299 160.73C190.715 159.853 185.724 161.285 182.132 164.201C181.059 165.17 179.625 163.558 180.742 162.608C185.749 158.703 192.697 157.601 198.594 159.96C200.495 160.663 202.291 161.803 203.961 162.907C207.191 165.111 210.703 166.932 214.425 168.172C218.117 169.407 222.076 170.19 225.965 170.089C226.16 170.07 226.338 170.22 226.344 170.417C226.352 170.603 226.209 170.761 226.026 170.773Z" fill="#D8634C"/>
<path d="M261.445 115.33C259.285 124.109 252.277 131.319 243.729 134.006L242.065 134.547C241.661 134.676 241.425 134.072 241.83 133.905L241.863 133.892L243.449 133.253C251.204 130.244 257.419 123.146 258.908 114.913C259.152 113.135 261.784 113.554 261.445 115.33Z" fill="#D8634C"/>
<path d="M247.804 104.057H210.875C210 104.057 209.289 103.346 209.289 102.47V87.2302C209.289 86.3544 210 85.6426 210.875 85.6426H247.804C248.679 85.6426 249.39 86.3544 249.39 87.2302V102.469C249.39 103.344 248.679 104.057 247.804 104.057ZM210.875 86.4771C210.459 86.4771 210.121 86.8156 210.121 87.2315V102.47C210.121 102.886 210.459 103.224 210.875 103.224H247.804C248.22 103.224 248.558 102.886 248.558 102.47V87.2302C248.558 86.8143 248.22 86.4758 247.804 86.4758H210.875V86.4771Z" fill="white"/>
<path d="M243.677 90.8929H215.002C214.772 90.8929 214.585 90.7068 214.585 90.4756C214.585 90.2444 214.771 90.0583 215.002 90.0583H243.677C243.907 90.0583 244.094 90.2444 244.094 90.4756C244.094 90.7068 243.907 90.8929 243.677 90.8929Z" fill="white"/>
<path d="M229.339 94.1844H215.002C214.772 94.1844 214.585 93.9983 214.585 93.7671C214.585 93.5359 214.771 93.3499 215.002 93.3499H229.339C229.568 93.3499 229.756 93.5359 229.756 93.7671C229.756 93.9983 229.568 94.1844 229.339 94.1844Z" fill="white"/>
<path d="M220.983 97.4756H215.001C214.771 97.4756 214.584 97.2896 214.584 97.0584C214.584 96.8271 214.77 96.6411 215.001 96.6411H220.983C221.212 96.6411 221.4 96.8271 221.4 97.0584C221.4 97.2896 221.214 97.4756 220.983 97.4756Z" fill="white"/>
<path d="M243.906 97.4756H223.815C223.586 97.4756 223.398 97.2896 223.398 97.0584C223.398 96.8271 223.584 96.6411 223.815 96.6411H243.906C244.136 96.6411 244.323 96.8271 244.323 97.0584C244.323 97.2896 244.136 97.4756 243.906 97.4756Z" fill="white"/>
<path d="M243.647 94.1844H233.511C233.281 94.1844 233.094 93.9983 233.094 93.7671C233.094 93.5359 233.28 93.3499 233.511 93.3499H243.647C243.877 93.3499 244.064 93.5359 244.064 93.7671C244.064 93.9983 243.877 94.1844 243.647 94.1844Z" fill="white"/>
<path d="M260.836 39.4267L236.817 46.1959C236.595 46.2579 236.366 46.1287 236.304 45.9078C236.242 45.6856 236.371 45.4556 236.591 45.3936L260.512 38.6516L274.456 25.4737C274.623 25.3148 274.887 25.3239 275.045 25.4905C275.202 25.6585 275.195 25.922 275.028 26.0796L261.008 39.3285C260.959 39.375 260.9 39.4086 260.836 39.4267Z" fill="white"/>
<path d="M311.281 153.275H282.478C281.604 153.275 280.893 152.563 280.893 151.687V140.086C280.893 139.211 281.604 138.499 282.478 138.499H311.281C312.156 138.499 312.867 139.211 312.867 140.086V151.687C312.867 152.563 312.156 153.275 311.281 153.275ZM282.478 139.333C282.063 139.333 281.725 139.672 281.725 140.088V151.688C281.725 152.104 282.063 152.443 282.478 152.443H311.281C311.697 152.443 312.035 152.104 312.035 151.688V140.088C312.035 139.672 311.697 139.333 311.281 139.333H282.478Z" fill="white"/>
<path d="M308.251 142.835H285.51C285.28 142.835 285.093 142.648 285.093 142.418C285.093 142.188 285.28 142.001 285.51 142.001H308.251C308.48 142.001 308.667 142.188 308.667 142.418C308.667 142.648 308.48 142.835 308.251 142.835Z" fill="white"/>
<path d="M296.88 145.445H285.51C285.28 145.445 285.093 145.258 285.093 145.028C285.093 144.798 285.28 144.611 285.51 144.611H296.88C297.11 144.611 297.297 144.798 297.297 145.028C297.297 145.258 297.11 145.445 296.88 145.445Z" fill="white"/>
<path d="M290.254 148.056H285.511C285.281 148.056 285.094 147.869 285.094 147.639C285.094 147.409 285.281 147.221 285.511 147.221H290.254C290.484 147.221 290.671 147.409 290.671 147.639C290.671 147.869 290.484 148.056 290.254 148.056Z" fill="white"/>
<path d="M308.43 148.056H292.497C292.267 148.056 292.08 147.869 292.08 147.639C292.08 147.409 292.267 147.221 292.497 147.221H308.43C308.66 147.221 308.847 147.409 308.847 147.639C308.847 147.869 308.66 148.056 308.43 148.056Z" fill="white"/>
<path d="M308.225 145.445H300.186C299.957 145.445 299.77 145.258 299.77 145.028C299.77 144.798 299.957 144.611 300.186 144.611H308.225C308.455 144.611 308.642 144.798 308.642 145.028C308.642 145.258 308.455 145.445 308.225 145.445Z" fill="white"/>
<path d="M280.77 148.056C280.747 148.056 280.722 148.055 280.699 148.049L262.109 144.853C262.015 144.837 261.93 144.789 261.867 144.718L249.374 130.516C249.221 130.342 249.238 130.079 249.411 129.926C249.584 129.774 249.847 129.791 249.998 129.964L262.394 144.055L280.84 147.225C281.067 147.264 281.219 147.48 281.179 147.707C281.144 147.912 280.969 148.056 280.77 148.056Z" fill="white"/>
<path d="M279.199 86.5497C279.046 86.5497 278.897 86.4645 278.825 86.3172C278.777 86.2203 273.96 76.644 263.5 73.4339C263.378 73.3964 263.28 73.306 263.234 73.1871C263.187 73.0683 263.198 72.9352 263.262 72.8254C267.574 65.4246 279.634 53.5527 279.755 53.4326C279.92 53.2711 280.184 53.2737 280.344 53.439C280.505 53.6031 280.502 53.8679 280.337 54.0281C280.22 54.1444 268.715 65.4698 264.248 72.797C274.711 76.263 279.523 85.8509 279.572 85.949C279.674 86.1557 279.589 86.405 279.382 86.5071C279.323 86.5355 279.26 86.5497 279.199 86.5497Z" fill="white"/>
<path d="M306.201 136.796C305.971 136.796 305.784 136.609 305.784 136.379C305.784 119.864 301.058 108.239 297.094 101.395C292.798 93.9776 288.444 90.4186 288.401 90.3838C288.221 90.2391 288.193 89.9768 288.337 89.7973C288.482 89.6177 288.744 89.5893 288.923 89.734C289.105 89.8799 293.419 93.4015 297.792 100.938C301.818 107.876 306.618 119.658 306.618 136.38C306.618 136.609 306.431 136.796 306.201 136.796Z" fill="white"/>
<path d="M297.184 26.0705H268.381C267.506 26.0705 266.795 25.3587 266.795 24.4829V12.8823C266.795 12.0065 267.506 11.2947 268.381 11.2947H297.184C298.059 11.2947 298.77 12.0065 298.77 12.8823V24.4829C298.771 25.3587 298.059 26.0705 297.184 26.0705ZM268.382 12.1292C267.967 12.1292 267.629 12.4677 267.629 12.8836V24.4842C267.629 24.9001 267.967 25.2386 268.382 25.2386H297.185C297.601 25.2386 297.939 24.9001 297.939 24.4842V12.8836C297.939 12.4677 297.601 12.1292 297.185 12.1292H268.382Z" fill="#E5CECA"/>
<path d="M294.153 15.6299H271.412C271.182 15.6299 270.995 15.4439 270.995 15.2127C270.995 14.9814 271.181 14.7954 271.412 14.7954H294.153C294.383 14.7954 294.57 14.9814 294.57 15.2127C294.57 15.4439 294.384 15.6299 294.153 15.6299Z" fill="#E5CECA"/>
<path d="M282.783 18.2405H271.413C271.183 18.2405 270.996 18.0545 270.996 17.8233C270.996 17.592 271.182 17.406 271.413 17.406H282.783C283.013 17.406 283.2 17.592 283.2 17.8233C283.2 18.0545 283.013 18.2405 282.783 18.2405Z" fill="#E5CECA"/>
<path d="M276.156 20.8514H271.413C271.183 20.8514 270.996 20.6653 270.996 20.4341C270.996 20.2029 271.182 20.0168 271.413 20.0168H276.156C276.386 20.0168 276.573 20.2029 276.573 20.4341C276.573 20.6653 276.386 20.8514 276.156 20.8514Z" fill="#E5CECA"/>
<path d="M294.335 20.8514H278.402C278.172 20.8514 277.985 20.6653 277.985 20.4341C277.985 20.2029 278.171 20.0168 278.402 20.0168H294.335C294.565 20.0168 294.752 20.2029 294.752 20.4341C294.752 20.6653 294.565 20.8514 294.335 20.8514Z" fill="#E5CECA"/>
<path d="M294.13 18.2405H286.092C285.862 18.2405 285.675 18.0545 285.675 17.8233C285.675 17.592 285.862 17.406 286.092 17.406H294.13C294.36 17.406 294.547 17.592 294.547 17.8233C294.547 18.0545 294.36 18.2405 294.13 18.2405Z" fill="#E5CECA"/>
<path d="M127.593 23.7153H85.4577C84.179 23.7153 83.1377 22.6728 83.1377 21.3927V4.42328C83.1377 3.14309 84.179 2.10059 85.4577 2.10059H127.593C128.873 2.10059 129.913 3.14309 129.913 4.42328V21.3927C129.913 22.6741 128.873 23.7153 127.593 23.7153ZM85.4577 3.32007C84.85 3.32007 84.3558 3.81483 84.3558 4.42328V21.3927C84.3558 22.0011 84.85 22.4959 85.4577 22.4959H127.593C128.2 22.4959 128.694 22.0011 128.694 21.3927V4.42328C128.694 3.81483 128.2 3.32007 127.593 3.32007H85.4577Z" fill="#E5CECA"/>
<path d="M123.16 8.4436H89.8922C89.5555 8.4436 89.2832 8.17103 89.2832 7.83386C89.2832 7.4967 89.5555 7.22412 89.8922 7.22412H123.159C123.495 7.22412 123.768 7.4967 123.768 7.83386C123.769 8.16973 123.495 8.4436 123.16 8.4436Z" fill="#E5CECA"/>
<path d="M106.526 12.262H89.8922C89.5555 12.262 89.2832 11.9894 89.2832 11.6522C89.2832 11.3151 89.5555 11.0425 89.8922 11.0425H106.526C106.863 11.0425 107.135 11.3151 107.135 11.6522C107.135 11.9881 106.863 12.262 106.526 12.262Z" fill="#E5CECA"/>
<path d="M96.8317 16.0796H89.8922C89.5555 16.0796 89.2832 15.807 89.2832 15.4698C89.2832 15.1327 89.5555 14.8601 89.8922 14.8601H96.8317C97.1685 14.8601 97.4407 15.1327 97.4407 15.4698C97.4407 15.807 97.1685 16.0796 96.8317 16.0796Z" fill="#E5CECA"/>
<path d="M123.424 16.0796H100.117C99.7801 16.0796 99.5078 15.807 99.5078 15.4698C99.5078 15.1327 99.7801 14.8601 100.117 14.8601H123.424C123.761 14.8601 124.033 15.1327 124.033 15.4698C124.033 15.807 123.761 16.0796 123.424 16.0796Z" fill="#E5CECA"/>
<path d="M123.122 12.262H111.362C111.025 12.262 110.753 11.9894 110.753 11.6522C110.753 11.3151 111.025 11.0425 111.362 11.0425H123.122C123.459 11.0425 123.731 11.3151 123.731 11.6522C123.732 11.9881 123.459 12.262 123.122 12.262Z" fill="#E5CECA"/>
<path d="M46.8926 129.228C49.9313 129.228 52.3947 126.761 52.3947 123.719C52.3947 120.677 49.9313 118.211 46.8926 118.211C43.854 118.211 41.3906 120.677 41.3906 123.719C41.3906 126.761 43.854 129.228 46.8926 129.228Z" fill="#E5CECA"/>
<path d="M46.893 128.963C49.9324 128.963 52.3963 126.496 52.3963 123.453C52.3963 120.41 49.9324 117.943 46.893 117.943C43.8536 117.943 41.3896 120.41 41.3896 123.453C41.3896 126.496 43.8536 128.963 46.893 128.963Z" fill="white"/>
<path d="M42.9514 124.628C42.7721 124.628 42.6095 124.507 42.5643 124.325C42.5566 124.292 42.5527 124.26 42.5527 124.229C42.5527 124.05 42.674 123.885 42.856 123.842L50.2496 122.018C50.4651 121.963 50.6806 122.096 50.7322 122.309C50.74 122.342 50.7438 122.374 50.7438 122.405C50.7438 122.585 50.6225 122.749 50.4406 122.793L43.0469 124.617C43.0147 124.624 42.9824 124.628 42.9514 124.628Z" fill="#E5CECA"/>
<path d="M25.3624 152.678C28.401 152.678 30.8644 150.212 30.8644 147.169C30.8644 144.127 28.401 141.661 25.3624 141.661C22.3237 141.661 19.8604 144.127 19.8604 147.169C19.8604 150.212 22.3237 152.678 25.3624 152.678Z" fill="#E5CECA"/>
<path d="M24.9367 151.351C24.929 151.351 24.9225 151.351 24.9135 151.351C24.6928 151.338 24.5251 151.15 24.5367 150.93L24.9638 143.284C24.9767 143.064 25.1574 142.9 25.3845 142.907C25.6051 142.92 25.7728 143.108 25.7612 143.328L25.3341 150.974C25.3238 151.186 25.147 151.351 24.9367 151.351Z" fill="white"/>
<path d="M374.105 226.454H11.8027V230H374.105V226.454Z" fill="#9D938C"/>
<path d="M128.415 226.167H117.76C117.542 226.167 117.364 225.99 117.364 225.771V224.325C117.364 224.107 117.541 223.928 117.76 223.928H128.415C128.633 223.928 128.811 224.105 128.811 224.325V225.771C128.811 225.99 128.634 226.167 128.415 226.167Z" fill="#C6C1C6"/>
<path d="M190.05 226.167H179.396C179.178 226.167 179 225.99 179 225.771V224.325C179 224.107 179.177 223.928 179.396 223.928H190.05C190.269 223.928 190.447 224.105 190.447 224.325V225.771C190.445 225.99 190.269 226.167 190.05 226.167Z" fill="#C6C1C6"/>
<path d="M191.468 225.015H116.34C115.877 225.015 115.5 224.639 115.5 224.174V203.613C115.5 203.149 115.875 202.772 116.34 202.772H191.468C191.931 202.772 192.308 203.148 192.308 203.613V224.174C192.308 224.637 191.932 225.015 191.468 225.015Z" fill="#D6D4D6"/>
<path d="M179.393 153.748H190.048C190.266 153.748 190.444 153.925 190.444 154.144V155.59C190.444 155.808 190.267 155.986 190.048 155.986H179.393C179.175 155.986 178.997 155.809 178.997 155.59V154.144C178.998 153.925 179.175 153.748 179.393 153.748Z" fill="#C6C1C6"/>
<path d="M117.759 153.748H128.414C128.632 153.748 128.81 153.925 128.81 154.144V155.59C128.81 155.808 128.633 155.986 128.414 155.986H117.759C117.541 155.986 117.363 155.809 117.363 155.59V154.144C117.363 153.925 117.541 153.748 117.759 153.748Z" fill="#C6C1C6"/>
<path d="M116.34 154.901H191.468C191.931 154.901 192.308 155.277 192.308 155.742V176.303C192.308 176.767 191.932 177.144 191.468 177.144H116.34C115.877 177.144 115.5 176.768 115.5 176.303V155.742C115.501 155.277 115.877 154.901 116.34 154.901Z" fill="#D6D4D6"/>
<path d="M110.649 199.341C105.529 199.341 93.5594 198.643 87.1851 192.515C84.3747 189.814 82.9928 186.372 83.0779 182.288C83.1863 177.053 85.0496 172.768 88.6161 169.556C97.3491 161.686 113.145 162.922 113.814 162.978C114.29 163.018 114.644 163.437 114.604 163.914C114.564 164.391 114.147 164.743 113.669 164.705C113.513 164.692 97.9427 163.479 89.7722 170.847C86.5773 173.728 84.9076 177.589 84.8096 182.325C84.7347 185.906 85.9386 188.913 88.3851 191.266C95.922 198.512 112.775 197.564 112.944 197.553C113.423 197.525 113.832 197.888 113.862 198.364C113.891 198.842 113.527 199.253 113.051 199.283C112.896 199.291 112.016 199.341 110.649 199.341Z" fill="#8A8E8F"/>
<path d="M152.392 223.18H100.369C97.4541 223.18 95.0928 220.292 95.0928 216.729V178.176L153.353 184.404L152.392 223.18Z" fill="#616768"/>
<path d="M95.0898 178.176L97.4112 183.099V215.548L125.17 213.201L153.35 184.405L113.897 180.285L95.0898 178.176Z" fill="#707777"/>
<path d="M156.231 185.32L155.295 219.163H99.4111V179.884L102.846 180.213L105.967 180.512L156.231 185.32Z" fill="#4F5455"/>
<path d="M116.287 181.4L115.887 213.787L102.846 213.201V180.213L116.287 181.4Z" fill="#4C5051"/>
<path d="M96.9993 221.767C96.9877 221.767 96.9774 221.766 96.9658 221.763C96.909 221.752 96.8587 221.712 96.8264 221.652L94.6651 217.543C94.6431 217.502 94.6328 217.454 94.6328 217.406L94.8831 178.175C94.8844 178.062 94.9464 177.964 95.0354 177.934C95.1257 177.906 95.2186 177.954 95.2651 178.051L97.5864 182.973C97.6045 183.01 97.6135 183.054 97.6135 183.098V215.548C97.6135 215.607 97.5967 215.663 97.5658 215.709L96.4354 217.372C96.3799 217.454 96.2896 217.484 96.2083 217.447C96.127 217.411 96.0728 217.318 96.0728 217.212V190.99C96.0728 190.851 96.1644 190.739 96.278 190.739C96.3915 190.739 96.4819 190.851 96.4819 190.99V216.52L97.2032 215.458V183.165L95.2857 179.097L95.0418 217.334L97.047 221.147L99.2045 219.041V179.882C99.2045 179.744 99.2961 179.632 99.4084 179.632C99.5206 179.632 99.6122 179.744 99.6122 179.882V219.162C99.6122 219.238 99.5839 219.31 99.5348 219.357L97.1245 221.71C97.0909 221.749 97.0457 221.767 96.9993 221.767Z" fill="#939696"/>
<path d="M187.428 223.489H120.381C117.88 223.489 115.824 221.515 115.719 219.014L113.267 160.82C113.155 158.166 115.275 155.953 117.929 155.953H189.878C192.533 155.953 194.653 158.166 194.54 160.82L192.089 219.014C191.984 221.515 189.929 223.489 187.428 223.489Z" fill="#E7E2E6"/>
<path d="M184.669 220.709H123.142C120.848 220.709 118.96 218.898 118.864 216.602L116.615 163.2C116.512 160.763 118.458 158.733 120.893 158.733H186.918C189.354 158.733 191.299 160.763 191.196 163.2L188.947 216.602C188.85 218.898 186.963 220.709 184.669 220.709Z" fill="#E7E2E6"/>
<path d="M191.36 163.084L189.709 202.267C189.658 203.462 188.172 203.979 187.394 203.071C187.192 202.836 186.983 202.61 186.765 202.391C184.586 200.208 181.569 198.862 178.241 198.875C171.61 198.901 166.302 204.417 166.302 211.055V217.082C166.302 219.16 164.619 220.845 162.543 220.845H123.008C120.702 220.845 118.81 219.027 118.713 216.72L116.452 163.084C116.35 160.637 118.302 158.597 120.75 158.597H187.065C189.507 158.597 191.462 160.637 191.36 163.084Z" fill="#9FC1DD"/>
<path d="M178.288 219.827C183.338 219.827 187.431 215.728 187.431 210.673C187.431 205.617 183.338 201.519 178.288 201.519C173.238 201.519 169.145 205.617 169.145 210.673C169.145 215.728 173.238 219.827 178.288 219.827Z" fill="#A29088"/>
<path d="M178.288 210.714C178.145 210.714 178.028 210.598 178.028 210.455V207.675C178.028 207.531 178.145 207.415 178.288 207.415C178.431 207.415 178.548 207.531 178.548 207.675V210.455C178.548 210.598 178.431 210.714 178.288 210.714Z" fill="#E7E2E6"/>
<path d="M178.288 213.347C176.8 213.347 175.59 212.135 175.59 210.646C175.59 209.382 176.483 208.273 177.715 208.005C177.856 207.974 177.994 208.065 178.023 208.204C178.054 208.345 177.965 208.483 177.825 208.513C176.831 208.729 176.11 209.625 176.11 210.645C176.11 211.847 177.087 212.825 178.288 212.825C179.489 212.825 180.466 211.847 180.466 210.645C180.466 209.632 179.75 208.737 178.765 208.516C178.626 208.485 178.537 208.345 178.569 208.206C178.6 208.066 178.74 207.977 178.879 208.009C180.1 208.282 180.986 209.391 180.986 210.646C180.986 212.135 179.776 213.347 178.288 213.347Z" fill="#E7E2E6"/>
<path d="M160.999 211.622H124.729C123.298 211.622 122.138 210.461 122.138 209.028V165.936C122.138 164.503 123.298 163.342 124.729 163.342H160.999C162.43 163.342 163.59 164.503 163.59 165.936V209.028C163.59 210.461 162.43 211.622 160.999 211.622Z" fill="#749CB7"/>
<path d="M156.275 211.882H129.454C125.277 211.882 121.88 208.481 121.88 204.299V170.667C121.88 166.485 125.277 163.083 129.454 163.083H156.275C160.452 163.083 163.85 166.485 163.85 170.667V204.299C163.85 208.481 160.452 211.882 156.275 211.882ZM129.454 163.603C125.564 163.603 122.399 166.772 122.399 170.667V204.299C122.399 208.194 125.564 211.363 129.454 211.363H156.275C160.166 211.363 163.331 208.194 163.331 204.299V170.667C163.331 166.772 160.166 163.603 156.275 163.603H129.454Z" fill="white"/>
<path d="M158.443 168.496H127.016V206.56H158.443V168.496Z" fill="#E6F7FF"/>
<path d="M133.928 174.877L133.067 175.37L133.931 175.84H136.295L137.114 175.37L136.292 174.877H133.928Z" fill="#CAEBFF"/>
<path d="M136.307 172.318L136.801 171.846L136.304 171.353H133.94L133.438 171.846L133.942 172.318H136.307Z" fill="#CAEBFF"/>
<path d="M136.464 174.709L137.441 175.268L137.438 172.487L136.957 172.002L136.464 172.487V174.709Z" fill="#38444C"/>
<path d="M137.442 175.515L136.468 175.999L136.467 178.297L136.962 178.78L137.455 178.297L137.442 175.515Z" fill="#38444C"/>
<path d="M133.946 178.468L133.44 178.939L133.948 179.431H136.313L136.803 178.939L136.313 178.468H133.946Z" fill="#CAEBFF"/>
<path d="M133.775 172.487L133.29 172.002L132.801 172.487L132.8 175.268L133.762 174.675L133.775 172.487Z" fill="#CAEBFF"/>
<path d="M133.778 175.999L132.801 175.515L132.803 178.297L133.295 178.78L133.778 178.297V175.999Z" fill="#CAEBFF"/>
<path d="M141.531 174.877L140.67 175.37L141.533 175.84H143.897L144.716 175.37L143.894 174.877H141.531Z" fill="#38444C"/>
<path d="M143.91 172.318L144.404 171.846L143.907 171.353H141.543L141.04 171.846L141.545 172.318H143.91Z" fill="#38444C"/>
<path d="M144.066 174.709L145.042 175.268L145.041 172.487L144.559 172.002L144.066 172.487V174.709Z" fill="#38444C"/>
<path d="M145.045 175.515L144.071 175.999L144.069 178.297L144.565 178.78L145.058 178.297L145.045 175.515Z" fill="#CAEBFF"/>
<path d="M141.548 178.468L141.044 178.939L141.551 179.431H143.915L144.407 178.939L143.916 178.468H141.548Z" fill="#38444C"/>
<path d="M141.377 172.487L140.893 172.002L140.403 172.487L140.401 175.268L141.365 174.675L141.377 172.487Z" fill="#CAEBFF"/>
<path d="M141.38 175.999L140.403 175.515L140.405 178.297L140.898 178.78L141.379 178.297L141.38 175.999Z" fill="#38444C"/>
<path d="M149.133 174.877L148.272 175.37L149.134 175.84H151.5L152.319 175.37L151.497 174.877H149.133Z" fill="#CAEBFF"/>
<path d="M151.511 172.318L152.006 171.846L151.509 171.353H149.144L148.642 171.846L149.146 172.318H151.511Z" fill="#38444C"/>
<path d="M151.668 174.709L152.645 175.268L152.643 172.487L152.162 172.002L151.669 172.487L151.668 174.709Z" fill="#38444C"/>
<path d="M152.647 175.515L151.673 175.999L151.672 178.297L152.167 178.78L152.66 178.297L152.647 175.515Z" fill="#38444C"/>
<path d="M149.151 178.468L148.646 178.939L149.154 179.431H151.517L152.009 178.939L151.519 178.468H149.151Z" fill="#38444C"/>
<path d="M148.979 172.487L148.496 172.002L148.005 172.487L148.004 175.268L148.968 174.675L148.979 172.487Z" fill="#38444C"/>
<path d="M148.983 175.999L148.006 175.515L148.007 178.297L148.5 178.78L148.981 178.297L148.983 175.999Z" fill="#38444C"/>
<path d="M133.928 184.607L133.067 185.1L133.931 185.572H136.295L137.114 185.1L136.292 184.607H133.928Z" fill="#CAEBFF"/>
<path d="M136.307 182.047L136.801 181.577L136.304 181.084H133.94L133.438 181.577L133.942 182.047H136.307Z" fill="#CAEBFF"/>
<path d="M136.464 184.44L137.441 184.998L137.438 182.218L136.957 181.732L136.464 182.218V184.44Z" fill="#CAEBFF"/>
<path d="M137.442 185.245L136.468 185.73L136.467 188.028L136.962 188.51L137.455 188.028L137.442 185.245Z" fill="#CAEBFF"/>
<path d="M133.946 188.199L133.44 188.669L133.948 189.163H136.313L136.803 188.669L136.313 188.199H133.946Z" fill="#CAEBFF"/>
<path d="M133.775 182.218L133.29 181.732L132.801 182.218L132.8 184.998L133.762 184.407L133.775 182.218Z" fill="#CAEBFF"/>
<path d="M133.778 185.73L132.801 185.245L132.803 188.028L133.295 188.51L133.778 188.028V185.73Z" fill="#CAEBFF"/>
<path d="M141.531 184.607L140.67 185.1L141.533 185.572H143.897L144.716 185.1L143.894 184.607H141.531Z" fill="#38444C"/>
<path d="M143.91 182.047L144.404 181.577L143.907 181.084H141.543L141.04 181.577L141.545 182.047H143.91Z" fill="#38444C"/>
<path d="M144.066 184.44L145.042 184.998L145.041 182.218L144.559 181.732L144.066 182.218V184.44Z" fill="#CAEBFF"/>
<path d="M145.045 185.245L144.071 185.73L144.069 188.028L144.565 188.51L145.058 188.028L145.045 185.245Z" fill="#38444C"/>
<path d="M141.548 188.199L141.044 188.669L141.551 189.163H143.915L144.407 188.669L143.916 188.199H141.548Z" fill="#38444C"/>
<path d="M141.377 182.218L140.893 181.732L140.403 182.218L140.401 184.998L141.365 184.407L141.377 182.218Z" fill="#38444C"/>
<path d="M141.38 185.73L140.403 185.245L140.405 188.028L140.898 188.51L141.379 188.028L141.38 185.73Z" fill="#38444C"/>
<path d="M149.133 184.607L148.272 185.1L149.134 185.572H151.5L152.319 185.1L151.497 184.607H149.133Z" fill="#CAEBFF"/>
<path d="M151.511 182.047L152.006 181.577L151.509 181.084H149.144L148.642 181.577L149.146 182.047H151.511Z" fill="#38444C"/>
<path d="M151.668 184.44L152.645 184.998L152.643 182.218L152.162 181.732L151.669 182.218L151.668 184.44Z" fill="#38444C"/>
<path d="M152.647 185.245L151.673 185.73L151.672 188.028L152.167 188.51L152.66 188.028L152.647 185.245Z" fill="#38444C"/>
<path d="M149.151 188.199L148.646 188.669L149.154 189.163H151.517L152.009 188.669L151.519 188.199H149.151Z" fill="#38444C"/>
<path d="M148.979 182.218L148.496 181.732L148.005 182.218L148.004 184.998L148.968 184.407L148.979 182.218Z" fill="#38444C"/>
<path d="M148.983 185.73L148.006 185.245L148.007 188.028L148.5 188.51L148.981 188.028L148.983 185.73Z" fill="#38444C"/>
<path d="M133.928 197.631L133.067 198.124L133.931 198.595H136.295L137.114 198.124L136.292 197.631H133.928Z" fill="#38444C"/>
<path d="M136.307 195.072L136.801 194.6L136.304 194.107H133.94L133.438 194.6L133.942 195.072H136.307Z" fill="#38444C"/>
<path d="M136.464 197.463L137.441 198.022L137.438 195.241L136.957 194.756L136.464 195.241V197.463Z" fill="#E6F7FF"/>
<path d="M137.442 198.269L136.468 198.753L136.467 201.051L136.962 201.535L137.455 201.051L137.442 198.269Z" fill="#38444C"/>
<path d="M133.946 201.222L133.44 201.694L133.948 202.186H136.313L136.803 201.694L136.313 201.222H133.946Z" fill="#38444C"/>
<path d="M133.775 195.241L133.29 194.756L132.801 195.241L132.8 198.022L133.762 197.429L133.775 195.241Z" fill="#38444C"/>
<path d="M133.778 198.753L132.801 198.269L132.803 201.051L133.295 201.535L133.778 201.051V198.753Z" fill="#38444C"/>
<path d="M141.531 197.631L140.67 198.124L141.533 198.595H143.897L144.716 198.124L143.894 197.631H141.531Z" fill="#E6F7FF"/>
<path d="M143.91 195.072L144.404 194.6L143.907 194.107H141.543L141.04 194.6L141.545 195.072H143.91Z" fill="#38444C"/>
<path d="M144.066 197.463L145.042 198.022L145.041 195.241L144.559 194.756L144.066 195.241V197.463Z" fill="#38444C"/>
<path d="M145.045 198.269L144.071 198.753L144.069 201.051L144.565 201.535L145.058 201.051L145.045 198.269Z" fill="#38444C"/>
<path d="M141.548 201.222L141.044 201.694L141.551 202.186H143.915L144.407 201.694L143.916 201.222H141.548Z" fill="#38444C"/>
<path d="M141.377 195.241L140.893 194.756L140.403 195.241L140.401 198.022L141.365 197.429L141.377 195.241Z" fill="#38444C"/>
<path d="M141.38 198.753L140.403 198.269L140.405 201.051L140.898 201.535L141.379 201.051L141.38 198.753Z" fill="#38444C"/>
<path d="M149.133 197.631L148.272 198.124L149.134 198.595H151.5L152.319 198.124L151.497 197.631H149.133Z" fill="#E6F7FF"/>
<path d="M151.511 195.072L152.006 194.6L151.509 194.107H149.144L148.642 194.6L149.146 195.072H151.511Z" fill="#E6F7FF"/>
<path d="M151.668 197.463L152.645 198.022L152.643 195.241L152.162 194.756L151.669 195.241L151.668 197.463Z" fill="#E6F7FF"/>
<path d="M152.647 198.269L151.673 198.753L151.672 201.051L152.167 201.535L152.66 201.051L152.647 198.269Z" fill="#E6F7FF"/>
<path d="M149.151 201.222L148.646 201.694L149.154 202.186H151.517L152.009 201.694L151.519 201.222H149.151Z" fill="#E6F7FF"/>
<path d="M148.979 195.241L148.496 194.756L148.005 195.241L148.004 198.022L148.968 197.429L148.979 195.241Z" fill="#E6F7FF"/>
<path d="M148.983 198.753L148.006 198.269L148.007 201.051L148.5 201.535L148.981 201.051L148.983 198.753Z" fill="#E6F7FF"/>
<path d="M151.649 195.209C151.634 195.227 151.617 195.246 151.599 195.263L150.64 196.223C150.622 196.241 150.604 196.256 150.586 196.273C150.568 196.257 150.549 196.241 150.531 196.223L149.572 195.263C149.555 195.246 149.538 195.227 149.521 195.209C149.537 195.19 149.554 195.171 149.572 195.153L150.531 194.193C150.549 194.175 150.567 194.16 150.586 194.143C150.725 194.028 150.894 193.971 151.065 193.971C151.258 193.971 151.452 194.045 151.599 194.192C151.878 194.472 151.894 194.911 151.649 195.209Z" fill="#38444C"/>
<path d="M151.649 195.209C151.633 195.227 151.616 195.246 151.598 195.263L150.639 196.223C150.621 196.241 150.603 196.256 150.585 196.273C150.567 196.258 150.548 196.241 150.53 196.223L149.571 195.263C149.554 195.246 149.538 195.227 149.521 195.209C149.277 194.912 149.294 194.471 149.571 194.193C149.718 194.046 149.913 193.972 150.105 193.972C150.276 193.972 150.445 194.029 150.585 194.144C150.603 194.16 150.621 194.177 150.639 194.195L151.598 195.154C151.616 195.173 151.633 195.191 151.649 195.209Z" fill="#38444C"/>
<path d="M174.104 179.111C176.273 179.111 178.031 177.351 178.031 175.179C178.031 173.007 176.273 171.247 174.104 171.247C171.934 171.247 170.176 173.007 170.176 175.179C170.176 177.351 171.934 179.111 174.104 179.111Z" fill="#749CB7"/>
<path d="M174.103 172.758L171.709 176.909H176.496L174.103 172.758Z" fill="#E7E2E6"/>
<path d="M174.104 189.344C176.273 189.344 178.031 187.583 178.031 185.412C178.031 183.24 176.273 181.479 174.104 181.479C171.934 181.479 170.176 183.24 170.176 185.412C170.176 187.583 171.934 189.344 174.104 189.344Z" fill="#749CB7"/>
<path d="M174.103 187.832L176.496 183.683H171.709L174.103 187.832Z" fill="#E7E2E6"/>
<path d="M233.925 213.696C233.744 213.696 233.586 213.573 233.54 213.397L222.017 169.411L211.782 201.588C211.73 201.749 211.583 201.86 211.413 201.865C211.245 201.874 211.089 201.768 211.028 201.609L204.024 183.449L200.871 191.221C200.81 191.372 200.663 191.47 200.5 191.47H191.898C191.677 191.47 191.499 191.29 191.499 191.071C191.499 190.85 191.678 190.672 191.898 190.672H200.232L203.663 182.214C203.724 182.063 203.871 181.965 204.033 181.965C204.035 181.965 204.036 181.965 204.037 181.965C204.201 181.966 204.347 182.068 204.406 182.221L211.365 200.262L221.674 167.855C221.728 167.686 221.88 167.562 222.065 167.578C222.243 167.582 222.395 167.703 222.44 167.876L233.907 211.647L238.807 190.979C238.857 190.765 239.07 190.629 239.287 190.683C239.501 190.734 239.634 190.949 239.582 191.164L234.314 213.388C234.271 213.567 234.114 213.693 233.931 213.696C233.929 213.696 233.927 213.696 233.925 213.696Z" fill="white"/>
<path d="M273.482 213.696C273.293 213.696 273.131 213.564 273.091 213.379L263.758 169.712L255.491 201.567C255.445 201.74 255.292 201.861 255.114 201.867C254.933 201.863 254.776 201.757 254.723 201.588L249.084 183.666L246.591 191.199C246.537 191.363 246.385 191.473 246.212 191.473H239.194C238.973 191.473 238.795 191.293 238.795 191.073C238.795 190.852 238.974 190.674 239.194 190.674H245.924L248.715 182.243C248.769 182.078 248.922 181.969 249.094 181.969C249.096 181.969 249.097 181.969 249.097 181.969C249.27 181.97 249.423 182.082 249.475 182.248L255.067 200.022L263.408 167.88C263.455 167.7 263.612 167.585 263.803 167.58C263.988 167.584 264.146 167.715 264.185 167.897L273.46 211.297L277.386 190.998C277.428 190.781 277.637 190.639 277.855 190.682C278.072 190.723 278.212 190.934 278.171 191.151L273.873 213.375C273.837 213.561 273.674 213.697 273.484 213.7C273.484 213.696 273.483 213.696 273.482 213.696Z" fill="white"/>
<path d="M313.075 213.696C312.888 213.696 312.726 213.565 312.686 213.382L303.067 169.665L294.545 201.571C294.5 201.741 294.346 201.863 294.169 201.867C293.994 201.883 293.834 201.759 293.78 201.59L287.963 183.631L285.383 191.2C285.328 191.362 285.176 191.47 285.005 191.47H277.781C277.56 191.47 277.382 191.29 277.382 191.071C277.382 190.85 277.561 190.672 277.781 190.672H284.72L287.594 182.236C287.649 182.075 287.801 181.966 287.972 181.966C287.973 181.966 287.974 181.966 287.974 181.966C288.146 181.967 288.298 182.079 288.351 182.243L294.121 200.058L302.719 167.875C302.767 167.697 302.929 167.573 303.114 167.579C303.298 167.583 303.456 167.713 303.495 167.893L313.055 211.351L317.108 190.996C317.15 190.779 317.363 190.638 317.577 190.682C317.794 190.725 317.933 190.935 317.891 191.152L313.466 213.377C313.429 213.563 313.268 213.697 313.079 213.698C313.078 213.696 313.077 213.696 313.075 213.696Z" fill="white"/>
<path d="M352.992 213.696C352.805 213.696 352.643 213.565 352.603 213.382L342.984 169.665L334.462 201.571C334.417 201.741 334.263 201.863 334.086 201.867C333.908 201.883 333.751 201.759 333.697 201.59L327.88 183.631L325.3 191.2C325.245 191.362 325.093 191.47 324.922 191.47H317.698C317.477 191.47 317.299 191.29 317.299 191.071C317.299 190.85 317.478 190.672 317.698 190.672H324.637L327.512 182.236C327.567 182.075 327.72 181.966 327.89 181.966C327.891 181.966 327.893 181.966 327.893 181.966C328.064 181.967 328.216 182.079 328.269 182.243L334.04 200.058L342.637 167.875C342.685 167.697 342.841 167.573 343.032 167.579C343.217 167.583 343.374 167.713 343.413 167.893L352.973 211.351L357.026 190.996C357.068 190.779 357.281 190.638 357.496 190.682C357.712 190.725 357.852 190.935 357.809 191.152L353.385 213.377C353.347 213.563 353.186 213.697 352.997 213.698C352.995 213.696 352.994 213.696 352.992 213.696Z" fill="white"/>
</svg>
