<svg width="297" height="265" viewBox="0 0 297 265" fill="none" xmlns="http://www.w3.org/2000/svg">
<path d="M161.976 31.1818C85.6641 36.8876 40.019 118.648 59.4408 203.902C74.9826 272.128 158.483 301.036 216.111 289.897C268.664 279.736 334.341 208.933 320.733 137.45C305.879 59.3699 243.843 25.0588 161.976 31.1818Z" fill="#B7CFEA"/>
<path d="M53.5577 66.9414L74.9163 93.4173C76.8522 95.8239 80.381 96.2031 82.7954 94.2624C85.2112 92.3294 85.5956 88.8104 83.6521 86.4053L62.2936 59.9294L53.5577 66.9414Z" fill="#E0F0FF"/>
<path d="M70.1041 74.4907C69.9347 75.9154 69.9929 77.3753 69.7597 78.7965C69.5196 80.3056 68.8865 81.7403 67.9863 82.9745L75.8368 92.7062C77.3774 94.6141 80.1728 94.9133 82.0805 93.3764C83.9958 91.838 84.2991 89.0504 82.7599 87.15L70.6783 72.1704C70.342 72.8876 70.1946 73.7261 70.1041 74.4907Z" fill="#BC3939"/>
<path d="M58.3342 53.996L48.5967 61.8105L53.0583 67.3406L62.7959 59.526L58.3342 53.996Z" fill="#3A739A"/>
<path d="M62.8386 58.824L52.3701 67.2251L53.0304 68.0435L63.4989 59.6423L62.8386 58.824Z" fill="#245472"/>
<path d="M50.5734 61.2583L49.9512 61.7576L53.2282 65.8194L53.8504 65.3201L50.5734 61.2583Z" fill="#6199C8"/>
<path d="M52.4279 59.7617L51.8057 60.261L55.0827 64.3228L55.7049 63.8235L52.4279 59.7617Z" fill="#6199C8"/>
<path d="M54.2823 58.2839L53.6602 58.7832L56.9372 62.845L57.5594 62.3457L54.2823 58.2839Z" fill="#6199C8"/>
<path d="M56.1378 56.7963L55.5156 57.2957L58.7927 61.3575L59.4149 60.8581L56.1378 56.7963Z" fill="#6199C8"/>
<path d="M57.9904 55.3L57.3682 55.7993L60.6452 59.8611L61.2674 59.3618L57.9904 55.3Z" fill="#6199C8"/>
<path d="M262.337 26.037L274.631 58.2978C275.325 60.1158 277.371 61.0305 279.196 60.3431L301.884 51.7248C303.708 51.0298 304.628 48.9896 303.94 47.1702L291.647 14.9094L262.337 26.037Z" fill="#E84D4D"/>
<path d="M294.263 21.8103L272.948 29.9043L281.041 51.1475L302.356 43.0535L294.263 21.8103Z" fill="white"/>
<path d="M295.485 26.5925L283.951 30.9736L284.298 31.8834L295.832 27.5023L295.485 26.5925Z" fill="#245472"/>
<path d="M296.745 29.9403L280.299 36.1855L280.645 37.0953L297.091 30.8501L296.745 29.9403Z" fill="#245472"/>
<path d="M298.011 33.2599L281.565 39.5051L281.912 40.4149L298.358 34.1697L298.011 33.2599Z" fill="#245472"/>
<path d="M299.279 36.5822L282.833 42.8274L283.18 43.7372L299.626 37.492L299.279 36.5822Z" fill="#245472"/>
<path d="M289.414 6.07887L258.108 17.9668L261.159 25.9745L292.464 14.0866L289.414 6.07887Z" fill="#245472"/>
<path d="M292.546 11.7823L259.574 24.303L260.523 26.7941L293.495 14.2734L292.546 11.7823Z" fill="#6199C8"/>
<path d="M47.3182 126.44L31.6971 142.218C30.8181 143.11 30.8235 144.541 31.7183 145.424L42.791 156.325C43.6844 157.2 45.1193 157.193 46.0058 156.3L61.6193 140.523L47.3182 126.44Z" fill="#3A739A"/>
<path d="M58.295 143.888L47.8887 133.645L37.6036 144.032L48.01 154.276L58.295 143.888Z" fill="white"/>
<path d="M50.1698 140.345L49.7285 140.791L55.3561 146.33L55.7974 145.884L50.1698 140.345Z" fill="#245472"/>
<path d="M46.1639 139.602L45.7227 140.047L53.7479 147.947L54.1891 147.501L46.1639 139.602Z" fill="#245472"/>
<path d="M44.5565 141.224L44.1152 141.67L52.1405 149.569L52.5817 149.123L44.5565 141.224Z" fill="#245472"/>
<path d="M42.953 142.851L42.5117 143.297L50.5369 151.196L50.9782 150.751L42.953 142.851Z" fill="#245472"/>
<path d="M66.213 136.864L50.9287 121.819L47.05 125.737L62.3343 140.781L66.213 136.864Z" fill="#6199C8"/>
<path d="M63.7068 140.202L47.6123 124.36L46.4084 125.576L62.5029 141.418L63.7068 140.202Z" fill="#162A45"/>
<path d="M100.477 226.41L91.8625 256.833C91.448 258.296 92.2991 259.817 93.7666 260.229L142.462 273.885C143.93 274.297 145.456 273.447 145.87 271.983L154.485 241.56C154.899 240.096 154.048 238.576 152.581 238.164L103.885 224.508C102.416 224.088 100.89 224.939 100.477 226.41Z" fill="#245472"/>
<path d="M100.611 248.324L99.5327 252.133L103.835 253.339L104.914 249.53C105.247 248.342 104.562 247.112 103.37 246.781C102.178 246.451 100.946 247.143 100.611 248.324Z" fill="#BC3939"/>
<path d="M98.4487 255.951C98.1157 257.139 98.8007 258.369 99.9924 258.7C101.184 259.03 102.418 258.346 102.751 257.157L103.83 253.348L99.5272 252.142L98.4487 255.951Z" fill="#E0F0FF"/>
<path d="M105.639 230.583L104.561 234.392L108.863 235.599L109.942 231.79C110.275 230.601 109.582 229.373 108.398 229.041C107.205 228.702 105.972 229.394 105.639 230.583Z" fill="#BC3939"/>
<path d="M103.475 238.203C103.142 239.391 103.827 240.621 105.019 240.952C106.21 241.282 107.445 240.598 107.778 239.409L108.856 235.6L104.554 234.394L103.475 238.203Z" fill="#E0F0FF"/>
<path d="M113.261 251.875L112.182 255.684L116.485 256.891L117.563 253.082C117.896 251.893 117.204 250.665 116.02 250.333C114.835 250 113.603 250.692 113.261 251.875Z" fill="#BC3939"/>
<path d="M111.105 259.501C110.772 260.689 111.457 261.919 112.649 262.25C113.84 262.58 115.075 261.896 115.407 260.707L116.486 256.898L112.183 255.692L111.105 259.501Z" fill="#E0F0FF"/>
<path d="M118.285 234.127L117.207 237.936L121.509 239.143L122.588 235.334C122.921 234.145 122.236 232.915 121.044 232.585C119.86 232.253 118.627 232.945 118.285 234.127Z" fill="#BC3939"/>
<path d="M116.13 241.753C115.797 242.941 116.482 244.171 117.674 244.502C118.866 244.832 120.1 244.148 120.433 242.959L121.511 239.15L117.209 237.944L116.13 241.753Z" fill="#E0F0FF"/>
<path d="M125.919 255.424L124.84 259.233L129.143 260.44L130.221 256.631C130.554 255.442 129.869 254.212 128.678 253.882C127.494 253.55 126.253 254.243 125.919 255.424Z" fill="#BC3939"/>
<path d="M123.764 263.05C123.431 264.238 124.116 265.468 125.308 265.799C126.499 266.13 127.734 265.445 128.067 264.257L129.145 260.447L124.843 259.241L123.764 263.05Z" fill="#E0F0FF"/>
<path d="M130.945 237.676L129.867 241.485L134.169 242.692L135.248 238.883C135.581 237.694 134.888 236.466 133.704 236.134C132.52 235.802 131.28 236.495 130.945 237.676Z" fill="#BC3939"/>
<path d="M128.789 245.302C128.457 246.49 129.142 247.72 130.333 248.051C131.525 248.381 132.759 247.697 133.092 246.508L134.171 242.699L129.868 241.493L128.789 245.302Z" fill="#E0F0FF"/>
<path d="M138.575 258.975L137.497 262.784L141.799 263.99L142.878 260.181C143.211 258.993 142.526 257.763 141.334 257.432C140.15 257.1 138.91 257.794 138.575 258.975Z" fill="#BC3939"/>
<path d="M136.42 266.6C136.087 267.789 136.78 269.017 137.964 269.349C139.155 269.68 140.39 268.995 140.723 267.807L141.801 263.998L137.499 262.791L136.42 266.6Z" fill="#E0F0FF"/>
<path d="M143.6 241.227L142.522 245.036L146.824 246.242L147.903 242.433C148.236 241.245 147.543 240.016 146.359 239.684C145.175 239.352 143.935 240.046 143.6 241.227Z" fill="#BC3939"/>
<path d="M141.445 248.852C141.112 250.041 141.805 251.269 142.989 251.601C144.173 251.933 145.415 251.247 145.748 250.059L146.826 246.25L142.524 245.043L141.445 248.852Z" fill="#E0F0FF"/>
<path d="M100.643 242.874L144.936 255.296" stroke="#3A739A" stroke-width="0.5" stroke-miterlimit="10" stroke-linecap="round" stroke-linejoin="round"/>
<path d="M318.656 80.053L289.226 70.6253C287.806 70.1731 286.29 70.9509 285.833 72.3597L270.69 119.229C270.235 120.645 271.013 122.156 272.425 122.61L301.855 132.038C303.275 132.49 304.791 131.712 305.248 130.303L320.391 83.434C320.854 82.0161 320.076 80.5051 318.656 80.053Z" fill="#6199C8"/>
<path d="M297.22 79.4167L293.53 78.2346L292.192 82.3765L295.882 83.5587C297.026 83.9298 298.254 83.2939 298.627 82.1526C298.993 81.0128 298.364 79.7879 297.22 79.4167Z" fill="#BC3939"/>
<path d="M289.849 77.0587C288.705 76.6875 287.477 77.3235 287.104 78.4648C286.73 79.6061 287.366 80.8295 288.511 81.2006L292.201 82.3828L293.539 78.2408L289.849 77.0587Z" fill="#E0F0FF"/>
<path d="M293.284 91.5994L289.593 90.4172L288.255 94.5592L291.945 95.7413C293.089 96.1125 294.317 95.4765 294.691 94.3352C295.057 93.1954 294.428 91.9705 293.284 91.5994Z" fill="#BC3939"/>
<path d="M285.912 89.2411C284.767 88.8699 283.54 89.5059 283.166 90.6472C282.793 91.7884 283.429 93.0119 284.573 93.383L288.263 94.5652L289.602 90.4232L285.912 89.2411Z" fill="#E0F0FF"/>
<path d="M289.348 103.782L285.658 102.6L284.32 106.742L288.01 107.924C289.154 108.295 290.382 107.659 290.755 106.518C291.12 105.37 290.491 104.145 289.348 103.782Z" fill="#BC3939"/>
<path d="M281.975 101.416C280.831 101.045 279.603 101.681 279.23 102.822C278.856 103.963 279.492 105.187 280.637 105.558L284.327 106.74L285.665 102.598L281.975 101.416Z" fill="#E0F0FF"/>
<path d="M299.142 106.92C297.998 106.548 296.77 107.184 296.397 108.326C296.023 109.467 296.659 110.69 297.804 111.061L301.494 112.244L302.832 108.102L299.142 106.92Z" fill="#E0F0FF"/>
<path d="M285.411 115.957L281.72 114.775L280.382 118.917L284.072 120.099C285.216 120.47 286.444 119.834 286.818 118.693C287.184 117.553 286.555 116.328 285.411 115.957Z" fill="#BC3939"/>
<path d="M278.039 113.599C276.895 113.228 275.668 113.864 275.294 115.005C274.92 116.146 275.557 117.37 276.701 117.741L280.391 118.923L281.73 114.781L278.039 113.599Z" fill="#E0F0FF"/>
<path d="M302.577 121.46L298.886 120.278L297.548 124.42L301.238 125.602C302.382 125.974 303.61 125.338 303.984 124.196C304.348 123.049 303.719 121.824 302.577 121.46Z" fill="#BC3939"/>
<path d="M295.204 119.095C294.059 118.723 292.832 119.359 292.458 120.501C292.085 121.642 292.721 122.865 293.865 123.237L297.555 124.419L298.894 120.277L295.204 119.095Z" fill="#E0F0FF"/>
<path d="M302.55 79.6403L288.773 122.268" stroke="#162A45" stroke-width="0.5" stroke-miterlimit="10"/>
<path d="M74.2822 196.1C74.0148 194.743 73.8682 193.976 73.6084 192.618L64.1558 186.268C62.7946 186.536 62.0257 186.683 60.6631 186.944L39.0074 218.948L52.6265 228.104L74.2822 196.1Z" fill="#8AB6E3"/>
<path d="M43.3662 233.902L53.9043 218.328L47.0963 213.752L36.5581 229.326L43.3662 233.902Z" fill="#6199C8"/>
<path d="M43.8026 238.248L46.2441 234.639L34.7861 226.939L32.3445 230.547L43.8026 238.248Z" fill="#162A45"/>
<path d="M55.8796 220.397L58.2734 216.859L46.8154 209.158L44.4215 212.696L55.8796 220.397Z" fill="#3A739A"/>
<path d="M54.6896 227.944L38.376 216.979L36.9405 219.101L53.2541 230.065L54.6896 227.944Z" fill="#3A739A"/>
<path d="M74.4572 189.432L66.7949 184.282L65.0472 186.865L72.7095 192.015L74.4572 189.432Z" fill="#8AB6E3"/>
<path d="M71.6705 178.912L68.0537 184.258L74.014 188.263L77.6307 182.918L71.6705 178.912Z" fill="#BC3939"/>
<path d="M67.049 183.113L66.3291 184.177L74.7364 189.828L75.4563 188.764L67.049 183.113Z" fill="#BC3939"/>
<path d="M82.1903 168.786L74.1923 180.605L75.1154 181.223L82.5589 170.218L82.1903 168.786Z" fill="#162A45"/>
<path d="M67.2799 191.226L62.1738 187.794L61.8876 188.217L66.9936 191.649L67.2799 191.226Z" fill="#162A45"/>
<path d="M63.6823 192.901L60.2783 190.613L59.9921 191.036L63.3961 193.324L63.6823 192.901Z" fill="#162A45"/>
<path d="M61.7741 195.709L58.3701 193.421L58.0839 193.844L61.4879 196.132L61.7741 195.709Z" fill="#162A45"/>
<path d="M59.8718 198.528L56.4678 196.24L56.1816 196.663L59.5856 198.951L59.8718 198.528Z" fill="#162A45"/>
<path d="M57.9655 201.337L54.5615 199.049L54.2753 199.472L57.6793 201.76L57.9655 201.337Z" fill="#162A45"/>
<path d="M57.7603 205.295L52.6543 201.863L52.3681 202.286L57.4741 205.718L57.7603 205.295Z" fill="#162A45"/>
<path d="M54.153 206.964L50.749 204.676L50.4628 205.099L53.8668 207.387L54.153 206.964Z" fill="#162A45"/>
<path d="M52.2566 209.778L48.8525 207.49L48.5663 207.913L51.9703 210.201L52.2566 209.778Z" fill="#162A45"/>
<path d="M50.3464 212.593L46.9424 210.305L46.6562 210.728L50.0602 213.016L50.3464 212.593Z" fill="#162A45"/>
<path d="M48.445 215.405L45.041 213.117L44.7548 213.54L48.1588 215.828L48.445 215.405Z" fill="#162A45"/>
<path d="M48.2427 219.364L43.1367 215.932L42.8505 216.355L47.9565 219.787L48.2427 219.364Z" fill="#162A45"/>
<path d="M289.416 260.05C290.133 258.685 290.532 257.925 291.244 256.569L287.475 244.539C286.108 243.825 285.345 243.428 283.987 242.72L243.041 255.515L248.47 272.844L289.416 260.05Z" fill="#8AB6E3"/>
<path d="M236.441 271.464L256.363 265.241L253.65 256.577L233.728 262.8L236.441 271.464Z" fill="#162A45"/>
<path d="M233.789 275.533L238.405 274.091L233.84 259.513L229.224 260.955L233.789 275.533Z" fill="#245472"/>
<path d="M256.638 268.398L261.165 266.984L256.6 252.406L252.073 253.82L256.638 268.398Z" fill="#245472"/>
<path d="M250.347 274.131L243.845 253.366L241.13 254.215L247.632 274.979L250.347 274.131Z" fill="#3A739A"/>
<path d="M294.177 254.388L291.125 244.64L287.818 245.673L290.871 255.421L294.177 254.388Z" fill="#8AB6E3"/>
<path d="M299.083 243.371L292.247 245.506L294.621 253.086L301.456 250.951L299.083 243.371Z" fill="#FFB552"/>
<path d="M292.165 243.826L290.804 244.251L294.154 254.95L295.515 254.525L292.165 243.826Z" fill="#FFB552"/>
<path d="M286.727 250.988L284.692 244.492L284.152 244.661L286.187 251.157L286.727 250.988Z" fill="#162A45"/>
<path d="M282.448 249.956L281.09 245.62L280.55 245.789L281.908 250.124L282.448 249.956Z" fill="#162A45"/>
<path d="M278.851 251.076L277.493 246.74L276.953 246.909L278.311 251.245L278.851 251.076Z" fill="#162A45"/>
<path d="M275.247 252.205L273.89 247.869L273.35 248.038L274.707 252.374L275.247 252.205Z" fill="#162A45"/>
<path d="M271.649 253.325L270.291 248.989L269.751 249.158L271.109 253.494L271.649 253.325Z" fill="#162A45"/>
<path d="M268.723 256.616L266.688 250.12L266.148 250.289L268.183 256.785L268.723 256.616Z" fill="#162A45"/>
<path d="M264.451 255.582L263.094 251.246L262.554 251.415L263.911 255.75L264.451 255.582Z" fill="#162A45"/>
<path d="M260.846 256.704L259.488 252.368L258.948 252.537L260.306 256.872L260.846 256.704Z" fill="#162A45"/>
<path d="M257.249 257.831L255.892 253.495L255.352 253.664L256.709 257.999L257.249 257.831Z" fill="#162A45"/>
<path d="M253.653 258.95L252.295 254.615L251.755 254.783L253.113 259.119L253.653 258.95Z" fill="#162A45"/>
<path d="M250.724 262.234L248.689 255.738L248.149 255.907L250.184 262.403L250.724 262.234Z" fill="#162A45"/>
<path d="M225.524 212.281L197.482 215.677L170.165 222.868C169.386 227.745 171.305 232.79 175.197 236.097C175.197 236.097 189.1 237.041 201.128 234.74C213.156 232.44 225.729 226.433 225.729 226.433C228.126 221.923 228.048 216.526 225.524 212.281Z" fill="#BC3939"/>
<path d="M229.85 224.543C222.754 222.014 218.167 228.028 200.491 231.409C182.814 234.79 176.331 230.885 170.67 235.861C165.007 240.83 166.431 262.136 176.73 262.927C187.029 263.718 192.738 256.475 204.842 254.16C216.953 251.844 224.931 256.462 234.205 251.935C243.485 247.399 236.954 227.07 229.85 224.543Z" fill="white"/>
<path d="M212.241 142.828L184.199 146.225L156.882 153.416C156.102 158.293 158.022 163.338 161.914 166.645C161.914 166.645 175.817 167.588 187.845 165.288C199.872 162.988 212.446 156.98 212.446 156.98C214.843 152.471 214.764 147.066 212.241 142.828Z" fill="#BC3939"/>
<path d="M218.882 177.555L190.839 180.951L163.523 188.142C162.743 193.019 164.663 198.064 168.554 201.371C168.554 201.371 182.457 202.315 194.485 200.014C206.513 197.714 219.087 191.706 219.087 191.706C221.483 187.197 221.406 181.8 218.882 177.555Z" fill="#BC3939"/>
<path d="M216.566 155.083C209.47 152.554 204.883 158.568 187.206 161.949C169.53 165.33 163.046 161.425 157.386 166.401C151.723 171.37 153.146 192.676 163.446 193.467C173.745 194.258 179.454 187.015 191.558 184.7C203.669 182.384 211.647 187.002 220.921 182.475C230.201 177.939 223.67 157.611 216.566 155.083Z" fill="white"/>
<path d="M223.207 189.809C216.11 187.28 211.524 193.294 193.847 196.675C176.171 200.056 169.687 196.151 164.026 201.128C158.364 206.096 159.787 227.402 170.086 228.193C180.385 228.984 186.094 221.741 198.198 219.426C210.31 217.11 218.287 221.728 227.561 217.201C236.842 212.665 230.312 192.344 223.207 189.809Z" fill="white"/>
<path d="M205.598 108.095L177.556 111.491L150.24 118.682C149.46 123.559 151.38 128.604 155.271 131.911C155.271 131.911 169.174 132.855 181.202 130.554C193.23 128.254 205.803 122.246 205.803 122.246C208.2 117.737 208.123 112.34 205.598 108.095Z" fill="#BC3939"/>
<path d="M187.269 107.974C185.74 107.323 184.056 107.102 182.395 107.042C177.533 106.871 172.623 108.054 168.374 110.431C167.212 111.079 166.085 111.829 165.173 112.798C164.263 113.774 163.58 114.99 163.423 116.311L164.14 116.968C165.651 118.512 167.658 119.52 169.754 120.04C171.858 120.558 174.053 120.61 176.21 120.418C179.221 120.149 182.225 119.393 184.83 117.872C187.435 116.352 189.631 114.012 190.635 111.177C189.922 109.677 188.804 108.617 187.269 107.974Z" fill="#8AB6E3"/>
<path d="M128.114 60.1401C128.411 56.9054 131.915 45.2302 127.216 40.2212C122.526 35.2107 118.623 44.6337 124.126 49.8112C124.712 59.0603 116.891 71.1047 119.959 79.0608C123.027 87.0168 129.719 85.7371 133.7 89.8843L135.819 69.0266C131.072 67.48 127.825 63.3734 128.114 60.1401Z" fill="#8AB6E3"/>
<path d="M205.009 45.4339C203.539 42.537 195.975 32.9787 198.493 26.5895C201.004 20.2016 208.109 27.5194 204.904 34.3625C207.773 43.1748 219.486 51.4834 219.57 60.0101C219.654 68.5369 212.963 69.8167 210.793 75.1402L201.127 56.5363C204.975 53.346 206.478 48.3309 205.009 45.4339Z" fill="#8AB6E3"/>
<path d="M198.507 49.5566C187.978 42.6576 184.857 53.528 185.448 59.9597C186.039 66.3915 171.861 66.6489 171.625 79.2407C166.76 67.6243 153.488 72.617 151.663 66.4211C149.839 60.2252 142.927 51.2737 135.688 61.5708C128.448 71.8679 128.554 100.725 131.975 110.981C135.396 121.238 145.54 125.96 156.449 123.874C167.358 121.788 174.772 112.857 177.916 112.13C181.104 111.639 191.292 117.21 202.201 115.124C213.11 113.038 220.793 104.898 220.19 94.1102C219.585 83.3153 209.034 56.448 198.507 49.5566Z" fill="white"/>
<path d="M209.924 120.357C202.828 117.828 198.241 123.842 180.565 127.223C162.888 130.604 156.405 126.699 150.744 131.675C145.082 136.644 146.505 157.95 156.804 158.741C167.103 159.532 172.812 152.289 184.916 149.974C197.028 147.658 205.005 152.276 214.279 147.749C223.56 143.213 217.028 122.884 209.924 120.357Z" fill="white"/>
<path d="M138.57 64.9291C133.363 65.1384 129.735 107.484 140.271 115.578C152.703 125.126 167.14 111.658 163.696 100.415C160.251 89.1723 146.561 84.5535 144.009 77.9382C141.452 71.3319 143.229 64.7383 138.57 64.9291Z" fill="#8AB6E3"/>
<path d="M197.058 53.7433C201.975 52.0163 220.972 90.0353 214.167 101.445C206.136 114.907 187.747 107.717 186.8 95.9966C185.853 84.276 196.873 74.9314 196.803 67.8414C196.75 60.7561 192.658 55.285 197.058 53.7433Z" fill="#8AB6E3"/>
<path d="M295.595 134.619C294.546 128.968 290.487 123.962 285.16 121.771C285.768 118.556 283.768 115.068 280.641 114.069C282.029 111.711 282.225 108.692 281.146 106.185C280.066 103.677 277.361 101.001 274.694 100.386C276.655 97.0615 276.791 92.7404 275.051 89.2972C273.312 85.8541 269.701 83.3116 265.858 82.8981C266.286 81.2587 265.712 79.4569 264.621 78.1632C263.529 76.8695 261.959 76.0449 260.321 75.5714C256.688 74.52 252.589 75.2017 249.491 77.3674C246.394 79.533 245.046 83.3384 244.796 87.107C239.422 88.0091 234.55 91.5445 232.041 96.3744C229.533 101.204 229.442 107.208 231.805 112.097C226.785 113.411 223.645 118.653 224.025 123.819C218.689 123.974 213.49 126.747 210.389 131.076C207.289 135.414 206.355 141.217 207.949 146.292C204.337 145.89 200.763 149.153 200.847 152.772C195.657 151.011 189.358 153.474 186.743 158.285C182.537 154.779 175.781 154.812 171.599 158.365C170.335 154.973 165.809 153.258 162.608 154.964C162.217 149.658 159.207 144.609 154.725 141.722C150.243 138.835 144.39 138.184 139.373 140.009C137.822 135.075 132.968 131.354 127.817 131.985C128.208 126.561 125.908 121.015 121.796 117.459C117.682 113.896 111.85 112.407 106.521 113.552C104.9 110.149 102.242 107.102 98.5637 106.232C94.8859 105.362 90.8244 106.241 87.8351 108.56C86.4958 109.602 85.3406 110.948 84.7957 112.555C84.2507 114.162 84.3888 116.039 85.3932 117.412C81.9739 119.214 79.5482 122.911 79.2096 126.752C78.8633 130.594 80.5921 134.559 83.6333 136.927C81.3819 138.482 79.8549 141.968 79.777 144.697C79.6992 147.426 80.9953 150.159 83.1551 151.838C80.6164 153.913 80.0515 157.891 81.7972 160.665C77.6557 164.674 75.7293 170.816 76.8395 176.457C77.9498 182.097 82.0696 187.051 87.4185 189.191C86.3211 193.397 89.412 198.005 93.6938 198.815C91.7383 204.475 92.1831 210.927 94.8996 216.26C97.6176 221.6 102.564 225.759 108.307 227.525C109.043 232.694 112.508 237.073 117.262 239.24C122.018 241.414 127.874 241.002 132.29 238.183C135.383 239.251 138.804 239.029 141.727 237.558C144.649 236.086 146.927 233.393 147.901 230.273C151.86 230.633 155.756 229.589 159.003 227.3C162.251 225.011 164.65 221.547 165.627 217.703C168.752 218.733 172.367 218.616 175.236 216.99C178.105 215.363 180.23 212.487 180.934 209.277C183.362 209.638 185.692 209.728 188.077 209.122C190.463 208.516 194.561 206.057 195.441 203.765C197.104 205.57 201.821 206.344 204.262 206.027C206.702 205.709 208.834 204.767 210.958 203.534C212.804 206.257 215.841 208.146 219.1 208.601C222.367 209.054 225.762 207.83 228.294 205.718C230.627 208.921 234.129 211.264 237.992 212.193C241.854 213.122 245.868 212.654 249.407 210.86C251.464 213.4 254.574 215.055 257.834 215.352C261.093 215.641 264.355 214.585 266.835 212.451C271.973 213.443 277.567 211.665 281.192 207.888C284.81 204.112 286.415 198.763 285.193 193.695C289.872 189.937 292.942 184.244 293.497 178.278C294.053 172.311 292.087 166.158 288.181 161.619C291.862 159.286 293.041 153.861 290.462 150.358C294.644 146.396 296.645 140.271 295.595 134.619Z" fill="#E84D4D"/>
<path d="M126.208 193.092C128.082 190.964 131.168 189.98 133.929 190.632C136.689 191.284 139.006 193.539 139.72 196.282C140.477 195.492 141.497 195.053 142.595 195.016C143.693 194.979 144.794 195.374 145.613 196.107C145.625 193.736 146.804 191.403 148.693 189.972C150.589 188.539 153.163 188.055 155.445 188.68C157.736 189.312 159.686 191.047 160.572 193.246" stroke="#681B1B" stroke-miterlimit="10" stroke-linejoin="round"/>
<path d="M218.767 186.355C217.433 183.92 217.591 180.743 219.173 178.451C220.747 176.16 223.663 174.862 226.424 175.231C226.008 174.375 226.048 173.305 226.537 172.48C227.019 171.656 227.929 171.089 228.887 171.024C226.259 168.262 225.141 164.149 226.009 160.435C226.877 156.721 229.698 153.523 233.287 152.192C236.867 150.862 241.104 151.436 244.194 153.685C244.596 151.665 246.435 150.015 248.492 149.834C250.548 149.654 252.644 150.96 253.39 152.878" stroke="#681B1B" stroke-miterlimit="10" stroke-linejoin="round"/>
<path d="M235.906 193.367C236.244 191.257 237.847 189.408 239.887 188.767C241.926 188.125 244.307 188.732 245.786 190.274C245.896 189.285 246.584 188.383 247.508 188.017C248.433 187.651 249.559 187.845 250.314 188.495C249.771 187.018 249.835 185.33 250.485 183.9C251.142 182.468 252.373 181.313 253.853 180.754C255.699 180.055 257.84 180.314 259.57 181.274C261.299 182.225 262.616 183.83 263.417 185.627" stroke="#681B1B" stroke-miterlimit="10" stroke-linejoin="round"/>
<path d="M96.781 165.524C97.3531 163.935 98.7961 162.692 100.459 162.35C102.114 162.01 103.937 162.59 105.089 163.825C105.339 161.212 106.971 158.769 109.288 157.515C111.606 156.27 114.547 156.258 116.874 157.488C119.2 158.719 120.841 161.15 121.111 163.758C122.575 162.998 124.776 163.945 125.13 165.546C126.483 162.801 129.932 161.276 132.879 162.121C135.826 162.965 137.93 166.087 137.605 169.13" stroke="#681B1B" stroke-miterlimit="10" stroke-linejoin="round"/>
<path d="M271.94 118.951C272.056 116.624 270.156 114.367 267.837 114.079C265.517 113.792 263.114 115.502 262.643 117.787C261.648 116.71 260.054 116.213 258.619 116.55C257.183 116.88 255.973 118.024 255.556 119.433C253.08 116.139 248.126 114.994 244.434 116.856C240.744 118.726 238.747 123.387 239.951 127.334" stroke="#681B1B" stroke-miterlimit="10" stroke-linejoin="round"/>
<path d="M285.447 138.535C285.024 140.448 283.126 141.913 281.166 141.894C279.199 141.885 277.352 140.437 276.811 138.558C276.321 136.866 276.914 134.888 278.308 133.804C281.431 131.397 286.269 134.83 285.447 138.535Z" fill="#FF837B"/>
<path d="M278.618 147.385C278.353 148.56 277.192 149.459 275.983 149.454C274.775 149.449 273.634 148.558 273.301 147.395C272.999 146.351 273.366 145.132 274.224 144.465C276.144 142.989 279.128 145.1 278.618 147.385Z" fill="#FF837B"/>
<path d="M276.241 131.91C275.976 133.085 274.815 133.984 273.606 133.979C272.398 133.974 271.257 133.083 270.924 131.92C270.622 130.876 270.989 129.658 271.847 128.99C273.767 127.514 276.751 129.625 276.241 131.91Z" fill="#FF837B"/>
<path d="M273.2 141.05C273.085 141.567 272.57 141.965 272.039 141.956C271.51 141.955 271.009 141.563 270.865 141.056C270.731 140.602 270.895 140.059 271.273 139.766C272.112 139.118 273.426 140.047 273.2 141.05Z" fill="#FF837B"/>
<path d="M280.89 128.409C280.776 128.926 280.26 129.324 279.73 129.315C279.201 129.314 278.7 128.922 278.555 128.415C278.421 127.961 278.586 127.418 278.964 127.125C279.802 126.477 281.109 127.407 280.89 128.409Z" fill="#FF837B"/>
<path d="M286.344 144.216C286.23 144.733 285.714 145.131 285.184 145.122C284.653 145.113 284.154 144.729 284.009 144.222C283.875 143.767 284.04 143.225 284.418 142.932C285.257 142.284 286.563 143.214 286.344 144.216Z" fill="#FF837B"/>
<path d="M270.174 148.999C270.06 149.517 269.544 149.914 269.014 149.906C268.485 149.904 267.984 149.513 267.84 149.005C267.705 148.551 267.87 148.008 268.248 147.716C269.087 147.068 270.393 147.998 270.174 148.999Z" fill="#FF837B"/>
</svg>
