<svg width="525" height="484" viewBox="0 0 525 484" fill="none" xmlns="http://www.w3.org/2000/svg">
<path d="M413.804 219.753C413.804 219.753 366.236 219.043 337.958 255.563C309.681 292.084 319.511 338.497 319.511 338.497C319.511 338.497 390.903 340.602 410.483 308.949C430.09 277.297 413.804 219.753 413.804 219.753Z" fill="#81F2EF"/>
<path d="M322.805 340.707C337.458 340.707 394.566 338.813 412.355 310.081C432.225 277.98 416.598 221.542 415.912 219.148C415.649 218.227 414.805 217.569 413.857 217.569C413.251 217.675 364.865 217.28 336.272 254.221C307.704 291.11 317.007 336.997 317.403 338.944C317.613 339.918 318.457 340.628 319.458 340.654C319.774 340.681 320.96 340.707 322.805 340.707ZM412.144 221.963C414.542 231.436 425.716 280.243 408.639 307.818C391.614 335.34 332.319 336.392 321.356 336.366C319.985 327.762 315.373 288.321 339.698 256.905C364.075 225.384 403.631 222.253 412.144 221.963Z" fill="#2D918A"/>
<path d="M346.815 320.711C347.658 320.711 348.475 320.211 348.818 319.369C355.617 303.266 368.029 285.322 377.253 273.113C377.965 272.166 377.78 270.798 376.832 270.061C375.883 269.324 374.512 269.535 373.774 270.482C364.419 282.901 351.796 301.161 344.812 317.685C344.337 318.79 344.865 320.053 345.971 320.527C346.235 320.658 346.525 320.711 346.815 320.711Z" fill="#2D918A"/>
<path d="M383.496 263.747C384.128 263.747 384.761 263.457 385.209 262.931C390.137 256.721 392.087 254.643 392.113 254.643C392.93 253.774 392.904 252.38 392.034 251.564C391.165 250.749 389.768 250.775 388.951 251.643C388.872 251.722 386.895 253.827 381.809 260.221C381.071 261.168 381.229 262.536 382.152 263.273C382.547 263.589 383.021 263.747 383.496 263.747Z" fill="#2D918A"/>
<path d="M478.529 328.63C478.529 328.63 466.565 388.646 432.885 411.774C399.205 434.902 360.702 440.006 320.856 424.825C281.009 409.643 303.199 321.789 372.957 309.054C442.662 296.319 478.529 328.63 478.529 328.63Z" fill="#81F2EF"/>
<path d="M365.763 435.613C389.666 435.613 412.778 428.219 434.124 413.564C441.872 408.249 449.093 400.592 455.602 390.857C456.261 389.857 455.998 388.515 454.996 387.831C453.995 387.173 452.651 387.436 451.992 388.436C445.773 397.724 438.921 404.96 431.647 409.959C398.125 433.008 360.071 437.428 321.621 422.773C308.602 417.8 301.856 403.776 303.569 385.226C306.441 354.231 331.319 318.842 373.326 311.186C434.968 299.951 470.044 324.683 476.132 329.472C475.315 333.051 472.732 343.917 467.857 356.784C467.435 357.915 467.989 359.152 469.122 359.573C470.255 359.994 471.494 359.441 471.915 358.31C477.977 342.233 480.533 329.577 480.638 329.051C480.797 328.288 480.533 327.525 479.953 327.025C478.451 325.683 442.505 294.136 372.509 306.923C328.367 314.975 302.224 352.232 299.22 384.832C297.323 405.433 305.097 421.141 320.04 426.851C335.43 432.692 350.741 435.613 365.763 435.613Z" fill="#2D918A"/>
<path d="M325.071 405.249C325.73 405.249 326.362 404.959 326.784 404.407C327.048 404.091 352.479 371.938 380.44 357.967C408.19 344.101 433.542 347.364 433.78 347.416C434.992 347.6 436.072 346.758 436.23 345.574C436.389 344.39 435.572 343.285 434.386 343.127C433.305 342.996 407.505 339.602 378.49 354.099C349.659 368.518 324.412 400.407 323.358 401.749C322.62 402.697 322.778 404.065 323.727 404.802C324.122 405.091 324.597 405.249 325.071 405.249Z" fill="#2D918A"/>
<path d="M194.172 440.56H259.582V470.897H194.172V440.56Z" fill="#6A8F9B"/>
<path d="M71.6812 442.612H382.048C389.058 442.612 394.75 436.929 394.75 429.93V249.249C394.75 242.25 389.058 236.567 382.048 236.567H71.6812C64.6712 236.567 58.9788 242.25 58.9788 249.249V429.93C58.9788 436.929 64.6712 442.612 71.6812 442.612Z" fill="#BCE4ED"/>
<path d="M71.6819 451.295H382.048C393.855 451.295 403.447 441.718 403.447 429.93V249.249C403.447 237.462 393.855 227.884 382.048 227.884H71.6819C59.8754 227.884 50.2826 237.462 50.2826 249.249V429.93C50.2826 441.718 59.8754 451.295 71.6819 451.295ZM382.048 245.276C384.262 245.276 386.054 247.065 386.054 249.276V429.956C386.054 432.167 384.262 433.956 382.048 433.956H71.6819C69.4681 433.956 67.6761 432.167 67.6761 429.956V249.276C67.6761 247.065 69.4681 245.276 71.6819 245.276H382.048Z" fill="#6A8F9B"/>
<path d="M159.758 484H294.794C299.59 484 303.49 480.106 303.49 475.317C303.49 470.528 299.59 466.634 294.794 466.634H159.758C154.961 466.634 151.061 470.528 151.061 475.317C151.035 480.132 154.935 484 159.758 484Z" fill="#6A8F9B"/>
<path d="M14.8895 317.501H233.124C240.134 317.501 245.826 311.818 245.826 304.819V93.1958C245.826 86.197 240.134 80.5137 233.124 80.5137H14.8895C7.87949 80.5137 2.18709 86.197 2.18709 93.1958V304.845C2.18709 311.818 7.85313 317.501 14.8895 317.501Z" fill="white"/>
<path d="M26.4854 133.374L231.016 133.531V294.268L26.4854 293.637V133.374Z" fill="#81F2EF"/>
<path d="M231.017 297.163C231.781 297.163 232.519 296.847 233.073 296.321C233.626 295.768 233.916 295.032 233.916 294.268V133.532C233.916 131.927 232.625 130.637 231.017 130.637L26.4867 130.479C25.7225 130.479 24.9845 130.795 24.4311 131.321C23.8777 131.874 23.5879 132.611 23.5879 133.374V293.637C23.5879 295.242 24.8792 296.531 26.4867 296.531L231.017 297.163ZM228.118 136.426V291.348L29.3856 290.743V136.268L228.118 136.426Z" fill="#81F2EF"/>
<path d="M250.201 107.851C250.201 110.956 252.705 113.456 255.814 113.456C258.924 113.456 261.428 110.956 261.428 107.851C261.428 104.747 258.924 102.247 255.814 102.247C252.705 102.247 250.201 104.773 250.201 107.851Z" fill="#F7B0B0"/>
<path d="M213.149 107.851C213.149 110.956 215.652 113.456 218.762 113.456C221.872 113.456 224.375 110.956 224.375 107.851C224.375 104.747 221.872 102.247 218.762 102.247C215.652 102.247 213.149 104.773 213.149 107.851Z" fill="#F7B0B0"/>
<path d="M176.094 107.851C176.094 110.956 178.597 113.456 181.707 113.456C184.817 113.456 187.32 110.956 187.32 107.851C187.32 104.747 184.817 102.247 181.707 102.247C178.624 102.247 176.094 104.773 176.094 107.851Z" fill="#F7B0B0"/>
<path d="M139.041 107.851C139.041 110.956 141.545 113.456 144.654 113.456C147.764 113.456 150.268 110.956 150.268 107.851C150.268 104.747 147.764 102.247 144.654 102.247C141.571 102.247 139.041 104.773 139.041 107.851Z" fill="#F7B0B0"/>
<path d="M102.016 107.851C102.016 110.956 104.519 113.456 107.629 113.456C110.739 113.456 113.242 110.956 113.242 107.851C113.242 104.747 110.739 102.247 107.629 102.247C104.519 102.247 102.016 104.773 102.016 107.851Z" fill="#F7B0B0"/>
<path d="M64.9608 107.851C64.9608 110.956 67.4644 113.456 70.5742 113.456C73.6839 113.456 76.1875 110.956 76.1875 107.851C76.1875 104.747 73.6839 102.247 70.5742 102.247C67.4644 102.247 64.9608 104.773 64.9608 107.851Z" fill="#F7B0B0"/>
<path d="M27.9081 107.851C27.9081 110.956 30.4117 113.456 33.5214 113.456C36.6312 113.456 39.1348 110.956 39.1348 107.851C39.1348 104.747 36.6312 102.247 33.5214 102.247C30.4117 102.247 27.9081 104.773 27.9081 107.851Z" fill="#F7B0B0"/>
<path d="M39.1344 146.108H64.9609V281.06H39.1344V146.108Z" fill="white"/>
<path d="M39.1345 283.243H64.961C66.1733 283.243 67.1484 282.27 67.1484 281.059V146.108C67.1484 144.897 66.1733 143.924 64.961 143.924H39.1345C37.9223 143.924 36.9472 144.897 36.9472 146.108V281.059C36.9472 282.27 37.9223 283.243 39.1345 283.243ZM62.7738 278.902H41.2956V148.292H62.7738V278.902Z" fill="white"/>
<path d="M39.1344 187.417H64.9609V281.059H39.1344V187.417Z" fill="#2D918A"/>
<path d="M39.1345 283.243H64.961C66.1733 283.243 67.1484 282.27 67.1484 281.059V187.417C67.1484 186.206 66.1733 185.233 64.961 185.233H39.1345C37.9223 185.233 36.9472 186.206 36.9472 187.417V281.059C36.9472 282.27 37.9223 283.243 39.1345 283.243ZM62.7738 278.902H41.2956V189.601H62.7738V278.902Z" fill="#2D918A"/>
<path d="M86.5171 146.108H112.344V281.06H86.5171V146.108Z" fill="white"/>
<path d="M86.5447 283.243H112.371C113.583 283.243 114.559 282.27 114.559 281.059V146.108C114.559 144.897 113.583 143.924 112.371 143.924H86.5447C85.3324 143.924 84.3575 144.897 84.3575 146.108V281.059C84.3575 282.27 85.3324 283.243 86.5447 283.243ZM110.184 278.902H88.7057V148.292H110.184V278.902Z" fill="white"/>
<path d="M86.5171 173.34H112.344V281.06H86.5171V173.34Z" fill="#2D918A"/>
<path d="M86.5447 283.243H112.371C113.583 283.243 114.559 282.27 114.559 281.059V173.34C114.559 172.13 113.583 171.156 112.371 171.156H86.5447C85.3324 171.156 84.3575 172.13 84.3575 173.34V281.059C84.3575 282.27 85.3324 283.243 86.5447 283.243ZM110.184 278.902H88.7057V175.524H110.184V278.902Z" fill="#2D918A"/>
<path d="M133.929 146.108H159.756V281.06H133.929V146.108Z" fill="white"/>
<path d="M133.929 283.243H159.756C160.968 283.243 161.943 282.27 161.943 281.059V146.108C161.943 144.897 160.968 143.924 159.756 143.924H133.929C132.717 143.924 131.742 144.897 131.742 146.108V281.059C131.742 282.27 132.717 283.243 133.929 283.243ZM157.569 278.902H136.09V148.292H157.569V278.902Z" fill="white"/>
<path d="M133.929 161.527H159.756V281.06H133.929V161.527Z" fill="#2D918A"/>
<path d="M133.929 283.244H159.756C160.968 283.244 161.943 282.27 161.943 281.06V161.527C161.943 160.316 160.968 159.343 159.756 159.343H133.929C132.717 159.343 131.742 160.316 131.742 161.527V281.06C131.742 282.27 132.717 283.244 133.929 283.244ZM157.569 278.902H136.09V163.71H157.569V278.902Z" fill="#2D918A"/>
<path d="M14.8905 319.685H22.1642C23.3764 319.685 24.3516 318.711 24.3516 317.501C24.3516 316.291 23.3764 315.317 22.1642 315.317H14.8905C9.09275 315.317 4.37548 310.608 4.37548 304.819V264.168C4.37548 262.957 3.40036 261.984 2.18809 261.984C0.975824 261.984 0.000858307 262.957 0.000858307 264.168V304.819C0.000858307 313.028 6.66822 319.685 14.8905 319.685Z" fill="#939AA0"/>
<path d="M191.301 319.685H233.124C241.32 319.685 248.014 313.028 248.014 304.819V93.1956C248.014 85.0127 241.346 78.3296 233.124 78.3296H14.8896C6.69368 78.3296 -4.57764e-05 84.9864 -4.57764e-05 93.1956V245.25C-4.57764e-05 246.46 0.97493 247.433 2.18719 247.433C3.39946 247.433 4.37459 246.46 4.37459 245.25V93.1956C4.37459 87.4071 9.09186 82.6973 14.8896 82.6973H233.124C238.922 82.6973 243.639 87.4071 243.639 93.1956V304.845C243.639 310.634 238.922 315.343 233.124 315.343H191.301C190.088 315.343 189.113 316.317 189.113 317.527C189.113 318.711 190.088 319.685 191.301 319.685Z" fill="#939AA0"/>
<path d="M155.513 125.953C155.513 125.953 154.064 156.843 157.384 169.446C160.679 181.97 175.516 188.706 175.516 188.706C175.516 188.706 166.16 198.099 170.956 220.885C176.649 247.828 192.118 265.22 211.014 264.115C218.419 263.668 337.59 250.459 348.343 213.834C356.644 185.575 343.335 180.523 343.335 180.523C343.335 180.523 361.757 158.001 351.61 127.874C328.156 58.1486 218.103 91.0379 218.103 91.0379L165.132 101.536L155.513 125.953Z" fill="#773128"/>
<path d="M194.359 87.6178V97.9845C194.359 97.9845 204.742 147.529 207.298 158.606C209.907 169.736 214.73 179.419 229.303 185.496C233.362 187.18 240.741 188.575 246.723 188.391C247.118 193.206 247.698 199.284 247.698 199.284L217.339 214.123C217.339 214.123 242.77 255.801 247.566 255.801C252.363 255.801 298.64 209.15 298.64 209.15L272.866 195.995L271.944 182.313C275.369 180.813 279.56 176.63 281.167 174.604C283.961 171.183 286.043 167.184 287.439 163.184V163.132C289.706 156.817 290.391 150.45 289.943 145.687C289.89 145.161 289.758 144.345 289.653 143.319C291.788 144.003 295.108 144.24 299.167 141.977C306.598 137.925 310.657 125.585 303.278 117.166C299.167 112.482 290.154 111.956 285.226 116.192C282.669 98.2213 280.403 78.6456 279.533 78.0141C278.084 76.909 213.939 70.5942 213.939 70.5942L194.359 87.6178Z" fill="#F9AA8F"/>
<path d="M271.969 182.313C271.969 182.313 265.38 185.549 256.684 186.76C247.987 187.97 246.696 188.417 246.696 188.417L247.697 199.31L223.215 207.546L218.444 213.624L253.363 204.257L252.678 192.601C252.678 192.601 258.581 190.601 263.878 187.996C269.202 185.391 271.969 182.313 271.969 182.313Z" fill="#CC6148"/>
<path d="M242.48 117.561C242.48 117.561 241.557 113.482 242.427 111.64C243.296 109.799 248.857 109.799 254.549 111.588C260.242 113.377 263.299 117.508 263.299 117.508C263.299 117.508 255.156 115.877 250.754 115.85C246.38 115.824 242.48 117.561 242.48 117.561Z" fill="#773128"/>
<path d="M201.237 129.663C201.237 129.663 201.368 125.375 203.292 122.454C205.19 119.534 211.699 116.455 214.203 116.455C216.706 116.455 220.791 120.139 220.791 120.139C220.791 120.139 214.466 121.323 210.856 122.875C207.245 124.427 201.237 129.663 201.237 129.663Z" fill="#773128"/>
<path d="M256.869 132.873C257.475 135.873 256.5 138.583 254.682 138.951C252.863 139.319 250.913 137.188 250.307 134.189C249.701 131.189 250.676 128.479 252.494 128.111C254.313 127.742 256.263 129.874 256.869 132.873Z" fill="#773128"/>
<path d="M219.314 139.03C219.92 142.029 218.945 144.739 217.127 145.108C215.309 145.476 213.358 143.345 212.752 140.345C212.146 137.346 213.121 134.636 214.94 134.267C216.758 133.925 218.708 136.03 219.314 139.03Z" fill="#773128"/>
<path d="M253.021 164L238.606 167.894C238.606 167.894 245.379 174.998 249.174 172.999C252.969 171.025 253.021 164 253.021 164Z" fill="white"/>
<path d="M245.826 76.1983C245.826 76.1983 237.05 96.3003 224.717 102.22C212.357 108.14 209.037 106.562 209.037 106.562C209.037 106.562 207.798 114.218 192.223 125.769C182.578 132.926 170.481 135.268 160.361 134.899C145.788 134.373 129.238 123.559 135.167 90.7485C141.097 57.9644 152.218 54.4913 161.837 50.8077C171.483 47.0978 183.948 46.6242 183.948 46.6242C183.948 46.6242 194.7 25.1803 216.047 24.9172C237.393 24.6804 245.22 40.3357 245.22 40.3357C245.22 40.3357 251.492 27.6273 271.995 34.0473C292.498 40.4673 291.023 59.1221 291.023 59.1221C291.023 59.1221 305.86 52.5706 324.861 70.5676C343.888 88.5647 358.751 127.9 354.693 153.159C350.107 181.734 334.901 190.969 316.269 192.837C281.983 196.258 289.125 148.108 287.228 133.794C285.33 119.454 284.513 117.034 284.513 117.034C284.513 117.034 275 123.743 259.899 103.799C249.12 89.5119 245.826 76.1983 245.826 76.1983Z" fill="#A54D3C"/>
<path d="M280.719 120.927L287.439 163.105C289.706 156.79 290.391 150.422 289.943 145.66C289.89 145.134 289.758 144.318 289.653 143.292C291.788 143.976 295.108 144.213 299.167 141.95C306.598 137.898 310.657 125.558 303.278 117.138C299.167 112.455 290.154 111.929 285.226 116.165L280.719 120.927Z" fill="#F9AA8F"/>
<path d="M233.387 158.5C234.757 158.5 235.733 158.369 235.864 158.369C236.655 158.264 237.208 157.553 237.129 156.738C237.024 155.948 236.286 155.369 235.495 155.475C235.416 155.475 227.194 156.395 226.482 152.58C225.824 149.107 226.061 141.187 227.141 130.847C227.958 123.006 220.21 119.296 219.868 119.138C219.156 118.796 218.286 119.112 217.944 119.823C217.601 120.559 217.917 121.401 218.629 121.743C218.892 121.875 224.822 124.743 224.242 130.531C223.61 136.741 222.661 147.949 223.636 153.08C224.479 157.79 230.066 158.5 233.387 158.5Z" fill="#CC6148"/>
<path d="M287.544 134.978C288.177 134.978 288.783 134.557 288.941 133.899C288.994 133.742 290.074 129.979 294.792 129.295C295.582 129.19 296.136 128.453 296.004 127.664C295.899 126.874 295.213 126.322 294.37 126.427C287.703 127.4 286.2 132.9 286.121 133.136C285.911 133.899 286.385 134.689 287.175 134.899C287.307 134.978 287.439 134.978 287.544 134.978Z" fill="#CC6148"/>
<path d="M238.659 169.341C238.791 169.341 238.896 169.314 239.028 169.288L253.443 165.394C254.208 165.183 254.682 164.394 254.471 163.631C254.26 162.868 253.47 162.421 252.679 162.605L238.264 166.499C237.5 166.709 237.025 167.499 237.236 168.262C237.447 168.92 238.027 169.341 238.659 169.341Z" fill="#CC6148"/>
<path d="M195.572 433.877H288.099L310.342 214.492L295.821 207.309C295.584 207.204 295.347 207.072 295.188 207.019C295.004 206.914 294.846 206.835 294.714 206.783C294.609 206.73 294.53 206.73 294.53 206.73L287.441 203.257C287.441 203.257 263.59 228.121 253.55 236.646C244.273 244.54 240.663 232.989 238.238 226.806C235.629 220.254 233.257 204.02 233.257 204.02L228.725 205.993L210.962 213.65L195.572 433.877Z" fill="#FF7769"/>
<path d="M241.268 433.877H344.468C345.048 433.403 345.338 433.193 345.338 433.193L346.84 380.28C346.84 380.28 350.846 276.85 345.865 252.433C344.02 243.171 346.629 234.462 334.428 226.306C327.049 221.438 314.109 215.36 304.991 211.229C300.352 209.203 296.689 207.625 295.187 206.993C295.003 206.888 294.844 206.809 294.713 206.756C294.607 206.704 294.528 206.704 294.528 206.704L294.476 206.809C293.263 208.598 273.34 237.988 265.118 267.01C258.45 290.374 245.431 325.368 242.085 391.594C241.373 404.487 241.083 418.511 241.268 433.877Z" fill="white"/>
<path d="M296.426 245.566L274.368 259.984L284.751 281.665C284.751 281.665 267.331 308.082 257.712 324.132C248.067 340.129 241.821 396.83 241.821 396.83C245.194 330.604 251.387 287.454 258.055 264.089C266.303 235.067 286.2 205.678 287.413 203.888L287.465 203.783C287.465 203.783 287.755 202.573 288.809 202.573C289.863 202.573 297.164 205.467 297.796 206.572C297.849 206.756 297.901 207.335 297.901 208.309C297.98 215.886 296.426 245.566 296.426 245.566Z" fill="#DD4231"/>
<path d="M167.61 392.015L168.295 433.85H218.156C218.209 422.431 218.34 405.802 218.446 387.437V387.253C218.841 343.049 219.421 289.032 220.29 274.376C221.634 250.144 227.907 210.992 228.697 205.94C228.697 205.598 228.75 205.414 228.75 205.414C228.75 205.414 224.164 206.282 218.367 208.65C209.196 212.413 207.562 213.571 198.865 218.491C188.824 224.174 178.889 232.462 175.41 248.46C171.589 265.852 169.85 311.791 169.85 311.791L167.61 392.015Z" fill="white"/>
<path d="M233.178 204.678C233.178 204.678 226.168 247.723 224.692 273.64C223.822 288.295 218.868 355.784 218.446 399.988C217.682 395.646 215.864 346.76 213.307 332.209C210.567 316.686 201.237 275.719 201.237 275.719L215.047 256.011L203.319 239.251C203.319 239.251 218.288 214.86 222.768 207.888C223.453 206.835 223.928 206.151 224.033 206.046C224.903 205.178 231.939 202.967 233.152 203.204C234.337 203.52 233.178 204.678 233.178 204.678Z" fill="#DD4231"/>
<path d="M299.535 307.344C301.142 307.344 302.434 306.055 302.434 304.45V282.822C302.434 281.217 301.142 279.928 299.535 279.928C297.927 279.928 296.636 281.217 296.636 282.822V304.45C296.636 306.055 297.927 307.344 299.535 307.344Z" fill="#81F2EF"/>
<path d="M312.16 317.132C313.767 317.132 315.059 315.843 315.059 314.238V274.297C315.059 272.692 313.767 271.403 312.16 271.403C310.552 271.403 309.261 272.692 309.261 274.297V314.238C309.261 315.843 310.579 317.132 312.16 317.132Z" fill="#2D918A"/>
<path d="M308.1 270.22C308.1 272.483 309.918 274.298 312.185 274.298C314.425 274.298 316.27 272.483 316.27 270.22C316.27 267.957 314.451 266.142 312.185 266.142C309.918 266.142 308.1 267.957 308.1 270.22Z" fill="#2D918A"/>
<path d="M312.159 277.192C316.007 277.192 319.143 274.061 319.143 270.22C319.143 266.378 316.007 263.247 312.159 263.247C308.311 263.247 305.175 266.378 305.175 270.22C305.175 274.061 308.311 277.192 312.159 277.192ZM312.159 269.036C312.818 269.036 313.345 269.562 313.345 270.22C313.345 271.509 310.999 271.509 310.999 270.22C310.999 269.562 311.526 269.036 312.159 269.036Z" fill="#2D918A"/>
<path d="M284.883 295.926H322.437C322.437 295.926 326.627 352.153 303.673 352.153C280.666 352.18 284.883 295.926 284.883 295.926Z" fill="#939AA0"/>
<path d="M101.225 362.283H155.198H166.187C166.187 362.283 175.332 361.836 180.365 358.231C185.373 354.626 187.981 348.496 187.981 348.496L188.034 362.309H353.561C360.571 362.309 366.264 367.992 366.264 374.991V401.513C366.264 408.512 360.571 414.195 353.561 414.195H201.237H101.225C94.2154 414.195 88.523 408.512 88.523 401.513V374.991C88.523 367.94 94.2154 362.283 101.225 362.283Z" fill="white"/>
<path d="M333.875 389.147C333.875 392.252 336.379 394.751 339.488 394.751C342.598 394.751 345.102 392.252 345.102 389.147C345.102 386.042 342.598 383.542 339.488 383.542C336.379 383.542 333.875 386.042 333.875 389.147Z" fill="#939AA0"/>
<path d="M296.822 389.147C296.822 392.252 299.326 394.751 302.436 394.751C305.545 394.751 308.049 392.252 308.049 389.147C308.049 386.042 305.545 383.542 302.436 383.542C299.352 383.542 296.822 386.042 296.822 389.147Z" fill="#939AA0"/>
<path d="M259.77 389.147C259.77 392.252 262.273 394.751 265.383 394.751C268.493 394.751 270.996 392.252 270.996 389.147C270.996 386.042 268.493 383.542 265.383 383.542C262.3 383.542 259.77 386.042 259.77 389.147Z" fill="#939AA0"/>
<path d="M222.742 389.147C222.742 392.252 225.246 394.751 228.355 394.751C231.465 394.751 233.969 392.252 233.969 389.147C233.969 386.042 231.465 383.542 228.355 383.542C225.246 383.542 222.742 386.042 222.742 389.147Z" fill="#939AA0"/>
<path d="M185.689 389.147C185.689 392.252 188.193 394.751 191.303 394.751C194.412 394.751 196.916 392.252 196.916 389.147C196.916 386.042 194.412 383.542 191.303 383.542C188.193 383.542 185.689 386.042 185.689 389.147Z" fill="#939AA0"/>
<path d="M148.637 389.147C148.637 392.252 151.14 394.751 154.25 394.751C157.36 394.751 159.863 392.252 159.863 389.147C159.863 386.042 157.36 383.542 154.25 383.542C151.14 383.542 148.637 386.042 148.637 389.147Z" fill="#939AA0"/>
<path d="M111.582 389.147C111.582 392.252 114.086 394.751 117.195 394.751C120.305 394.751 122.809 392.252 122.809 389.147C122.809 386.042 120.305 383.542 117.195 383.542C114.086 383.542 111.582 386.042 111.582 389.147Z" fill="#939AA0"/>
<path d="M163.263 416.327H176.809C178.021 416.327 178.996 415.353 178.996 414.143C178.996 412.933 178.021 411.959 176.809 411.959H163.263C162.051 411.959 161.076 412.933 161.076 414.143C161.076 415.353 162.051 416.327 163.263 416.327Z" fill="#939AA0"/>
<path d="M191.301 416.327H353.587C361.783 416.327 368.477 409.67 368.477 401.487V374.965C368.477 366.782 361.809 360.125 353.587 360.125H340.99C339.777 360.125 338.802 361.099 338.802 362.309C338.802 363.52 339.777 364.493 340.99 364.493H353.587C359.385 364.493 364.102 369.203 364.102 374.991V401.513C364.102 407.302 359.385 412.012 353.587 412.012H191.301C190.089 412.012 189.114 412.985 189.114 414.196C189.114 415.353 190.089 416.327 191.301 416.327Z" fill="#939AA0"/>
<path d="M321.384 364.44H329.897C331.109 364.44 332.084 363.467 332.084 362.257C332.084 361.046 331.109 360.073 329.897 360.073H321.384C320.172 360.073 319.197 361.046 319.197 362.257C319.197 363.467 320.199 364.44 321.384 364.44Z" fill="#939AA0"/>
<path d="M144.525 364.44H166.187C166.688 364.414 176.149 363.914 181.657 359.967C183.291 358.783 184.714 357.363 185.873 355.968L185.9 362.283C185.9 363.467 186.875 364.44 188.087 364.44H267.754C268.966 364.44 269.941 363.467 269.941 362.256C269.941 361.046 268.966 360.073 267.754 360.073H190.248L190.195 348.443C190.195 347.417 189.458 346.522 188.456 346.312C187.455 346.101 186.427 346.654 186.031 347.575C186.005 347.627 183.554 353.232 179.127 356.415C175.411 359.073 168.48 359.967 166.108 360.073H144.551C143.339 360.073 142.364 361.046 142.364 362.256C142.364 363.467 143.312 364.44 144.525 364.44Z" fill="#939AA0"/>
<path d="M333.371 2.18408H447.667C454.677 2.18408 460.369 7.86736 460.369 14.8662V142.714C460.369 149.713 454.677 155.396 447.667 155.396H382.415C380.491 155.554 373.086 156.29 368.711 159.421C363.704 163.026 361.095 169.157 361.095 169.157L361.042 155.396H333.398C326.387 155.396 320.695 149.713 320.695 142.714V14.8662C320.669 7.86736 326.335 2.18408 333.371 2.18408Z" fill="white"/>
<path d="M379.796 76.1943C365.473 70.3159 358.635 53.9577 364.523 39.6575C370.411 25.3572 386.795 18.5299 401.118 24.4084C415.441 30.2868 422.28 46.6449 416.392 60.9452C410.504 75.2455 394.12 82.0727 379.796 76.1943Z" fill="#6A8F9B"/>
<path d="M373.429 72.4616C378.199 76.1189 384.102 78.2501 390.506 78.2501C396.883 78.2501 402.76 76.1189 407.451 72.5668C404.421 66.7783 399.44 62.6474 393.589 61.5686V57.2272C398.412 55.7801 401.891 51.0967 401.891 45.5186C401.891 38.8092 396.778 33.3364 390.506 33.3364C384.181 33.3364 379.121 38.7829 379.121 45.5186C379.121 51.0177 382.547 55.7275 387.238 57.2272V61.5686C381.414 62.6737 376.433 66.7257 373.429 72.4616Z" fill="white"/>
<path d="M390.481 81.1451C397.254 81.1451 403.737 78.9875 409.166 74.883C416.966 68.9102 421.42 59.938 421.42 50.2554C421.42 33.2319 407.532 19.3657 390.481 19.3657C373.43 19.3657 359.542 33.2319 359.542 50.2554C359.542 59.938 363.943 68.8839 371.638 74.7514C377.093 78.9349 383.629 81.1451 390.481 81.1451ZM390.481 25.1806C404.343 25.1806 415.622 36.4419 415.622 50.2817C415.622 58.1488 411.985 65.4371 405.661 70.3048C396.806 76.9616 383.998 76.9616 375.169 70.1995C368.924 65.4108 365.34 58.1752 365.34 50.308C365.34 36.4156 376.619 25.1806 390.481 25.1806Z" fill="#1E5259"/>
<path d="M337.59 120.059H441.001C442.609 120.059 443.9 118.77 443.9 117.165C443.9 115.56 442.609 114.271 441.001 114.271H337.59C335.982 114.271 334.691 115.56 334.691 117.165C334.691 118.77 335.982 120.059 337.59 120.059Z" fill="#939AA0"/>
<path d="M337.59 136.268H441.001C442.609 136.268 443.9 134.978 443.9 133.373C443.9 131.768 442.609 130.479 441.001 130.479H337.59C335.982 130.479 334.691 131.768 334.691 133.373C334.691 134.978 335.982 136.268 337.59 136.268Z" fill="#939AA0"/>
<path d="M337.59 93.0645H441.002V104.51H337.59V93.0645Z" fill="#939AA0"/>
<path d="M460.344 78.724C461.556 78.724 462.531 77.7504 462.531 76.5401V14.866C462.531 6.68312 455.864 0 447.641 0H333.346C325.15 0 318.482 6.65681 318.482 14.866V22.3121C318.482 23.5225 319.458 24.496 320.67 24.496C321.882 24.496 322.857 23.5225 322.857 22.3121V14.866C322.857 9.07747 327.574 4.36771 333.372 4.36771H447.668C453.466 4.36771 458.183 9.07747 458.183 14.866V76.5401C458.183 77.7504 459.158 78.724 460.344 78.724Z" fill="#939AA0"/>
<path d="M320.668 49.8076C321.88 49.8076 322.855 48.8341 322.855 47.6238V37.7044C322.855 36.494 321.88 35.5205 320.668 35.5205C319.456 35.5205 318.481 36.494 318.481 37.7044V47.6238C318.481 48.8341 319.456 49.8076 320.668 49.8076Z" fill="#939AA0"/>
<path d="M361.069 171.341C361.912 171.341 362.729 170.841 363.072 170.025C363.098 169.972 365.549 164.368 369.976 161.184C373.956 158.343 381.15 157.659 382.574 157.553H447.667C455.863 157.553 462.557 150.897 462.557 142.687V126.401C462.557 125.19 461.582 124.217 460.369 124.217C459.157 124.217 458.182 125.19 458.182 126.401V142.714C458.182 148.502 453.465 153.212 447.667 153.212H382.415C379.991 153.396 372.243 154.212 367.447 157.632C365.813 158.816 364.389 160.237 363.23 161.632L363.204 155.343C363.204 154.159 362.229 153.186 361.016 153.186H337.588C336.376 153.186 335.401 154.159 335.401 155.37C335.401 156.58 336.376 157.553 337.588 157.553H358.829L358.882 169.157C358.882 170.183 359.619 171.078 360.621 171.288C360.779 171.314 360.911 171.341 361.069 171.341Z" fill="#939AA0"/>
<path d="M410.565 202.093C389.498 181.06 389.498 146.958 410.565 125.925C431.632 104.891 465.788 104.891 486.855 125.925C507.922 146.958 507.922 181.06 486.855 202.093C465.788 223.126 431.632 223.126 410.565 202.093Z" fill="white"/>
<path d="M453.939 219.779C454.018 219.779 454.071 219.779 454.15 219.779C459.631 219.253 464.981 217.937 470.041 215.859C471.148 215.411 471.675 214.122 471.227 213.017C470.779 211.912 469.488 211.386 468.381 211.833C463.716 213.754 458.788 214.964 453.728 215.464C452.542 215.569 451.646 216.648 451.778 217.832C451.884 218.937 452.832 219.779 453.939 219.779Z" fill="#939AA0"/>
<path d="M438.682 219.122C439.71 219.122 440.633 218.385 440.817 217.359C441.054 216.175 440.264 215.043 439.078 214.833C414.648 210.255 396.912 188.89 396.912 164.025C396.912 135.53 420.13 112.35 448.671 112.35C463.27 112.35 477.264 118.559 487.068 129.347C495.712 138.872 500.455 151.185 500.455 164.025C500.455 171.998 498.69 179.628 495.211 186.732C494.684 187.811 495.132 189.1 496.212 189.653C497.293 190.179 498.584 189.732 499.138 188.653C502.906 180.944 504.83 172.682 504.83 164.052C504.83 150.133 499.665 136.767 490.336 126.453C479.715 114.744 464.535 108.008 448.723 108.008C417.784 108.008 392.59 133.136 392.59 164.052C392.59 190.995 411.802 214.149 438.287 219.122C438.419 219.095 438.551 219.122 438.682 219.122Z" fill="#939AA0"/>
<path d="M415.518 169.077C417.284 173.129 420.209 176.392 423.767 178.576L425.216 179.418L448.671 192.81L448.698 192.836V192.81L472.152 179.418L473.654 178.576C477.186 176.418 480.111 173.155 481.903 169.077C486.489 158.447 481.613 146.107 470.993 141.503C463.218 138.161 454.601 139.792 448.698 145.081C442.768 139.819 434.124 138.161 426.402 141.503C415.755 146.081 410.88 158.421 415.518 169.077Z" fill="#FF7769"/>
<path d="M448.802 195.152C449.119 195.152 449.435 195.073 449.777 194.915C450.094 194.783 450.357 194.52 450.542 194.231L474.734 180.417C478.819 177.918 481.982 174.287 483.905 169.919C488.965 158.184 483.589 144.528 471.888 139.477C464.193 136.161 455.312 137.266 448.723 142.239C442.109 137.266 433.227 136.161 425.558 139.477C419.892 141.924 415.491 146.423 413.225 152.159C410.959 157.921 411.064 164.209 413.515 169.893C415.439 174.287 418.575 177.891 422.633 180.365L447.59 194.625C447.959 194.994 448.354 195.152 448.802 195.152ZM462.638 141.95C465.168 141.95 467.724 142.45 470.122 143.502C479.61 147.607 484.011 158.684 479.873 168.209C478.292 171.761 475.736 174.708 472.468 176.707L448.592 190.337L424.821 176.681C421.579 174.708 419.023 171.787 417.468 168.209C415.465 163.578 415.386 158.473 417.231 153.816C419.076 149.159 422.633 145.502 427.245 143.502C433.939 140.608 441.792 141.871 447.247 146.686C448.064 147.423 449.303 147.423 450.146 146.686C453.625 143.581 458.105 141.95 462.638 141.95Z" fill="#DD4231"/>
</svg>
