<svg width="609" height="551" viewBox="0 0 609 551" fill="none" xmlns="http://www.w3.org/2000/svg">
<path d="M496.548 315.076C499.046 314.21 499.825 312.623 498.18 310.661C497.126 309.42 491.481 310.776 488.493 311.584C485.52 312.392 483.917 313.085 483.383 311.815C482.849 310.546 487.555 310.257 491.294 309.247C494.758 308.324 496.346 306.679 494.571 304.616C492.795 302.567 484.567 304.76 481.03 305.582C477.436 306.419 473.466 306.78 471.907 305.9C470.348 305.005 470.94 301.658 471.445 298.325C471.95 294.992 470.016 291.674 467.389 292.381C464.761 293.088 465.873 299.277 465.469 301.918C465.065 304.558 461.225 311.253 461.037 314.023L466.378 325.709C468.731 330.24 475.617 329.965 478.923 330.023C482.228 330.066 482.965 328.71 487.281 330.038C490.226 330.947 493.113 331.538 494.672 331.322C495.509 331.206 496.274 330.73 496.635 329.965C496.866 329.489 496.981 328.941 496.62 328.45C495.798 327.296 488.869 326.055 487.526 325.695C486.169 325.334 486.516 324.31 486.516 324.31C486.516 324.31 490.283 323.401 490.89 323.329C495.206 322.766 498.54 322.102 500.879 320.544C503.434 318.842 500.763 316.634 498.584 316.937C496.404 317.24 486.66 319.072 486.01 318.409C485.375 317.759 494.051 315.942 496.548 315.076Z" fill="#FFBF9D"/>
<path d="M379.361 303.216C379.361 303.216 397.911 334.597 406.962 337.078C416.013 339.56 470.81 327.325 470.81 327.325L467.836 313.878L415.464 315.09L402.198 286.552L379.361 303.216Z" fill="#FFBF9D"/>
<path d="M68.0752 141.538C68.0752 141.538 124.171 130.962 143.197 148.983C143.197 148.983 216.399 140.629 261.785 155.216C261.785 155.216 341.569 142.548 382.811 158.779C382.811 158.779 450.369 143.644 500.634 153.903C500.634 153.903 521.089 134.613 582.396 148.838L537.718 114.226L343.605 84.6924L129.931 103.752L68.0752 141.538Z" fill="#0E6BAD"/>
<g opacity="0.2">
<path d="M68.0752 141.538C68.0752 141.538 124.171 130.962 143.197 148.983C143.197 148.983 216.399 140.629 261.785 155.216C261.785 155.216 341.569 142.548 382.811 158.779C382.811 158.779 450.369 143.644 500.634 153.903C500.634 153.903 521.089 134.613 582.396 148.838L537.718 114.226L343.605 84.6924L129.931 103.752L68.0752 141.538Z" fill="#141414"/>
</g>
<path d="M158.124 129.909C158.355 130.083 154.126 135.06 149.246 141.394C144.352 147.728 140.642 153.037 140.383 152.893C140.267 152.821 141.032 151.407 142.447 149.199C143.862 146.992 145.926 144.02 148.38 140.831C150.834 137.643 153.216 134.873 155.021 132.91C156.811 130.963 158.009 129.823 158.124 129.909Z" fill="#263238"/>
<path d="M271.413 122.45C271.702 122.522 269.565 130.861 266.635 141.091C263.704 151.32 261.106 159.558 260.817 159.486C260.528 159.414 262.665 151.075 265.595 140.845C268.526 130.63 271.139 122.392 271.413 122.45Z" fill="#263238"/>
<path d="M382.45 160.713C382.292 160.727 382.032 158.563 381.454 155.086C380.891 151.609 379.895 146.848 378.74 141.581C377.586 136.315 376.705 131.496 376.33 127.976C375.94 124.456 375.954 122.263 376.084 122.248C376.243 122.234 376.503 124.398 377.08 127.875C377.643 131.352 378.639 136.113 379.794 141.379C380.949 146.646 381.83 151.464 382.205 154.985C382.595 158.505 382.58 160.713 382.45 160.713Z" fill="#263238"/>
<path d="M489.432 134.786C489.663 134.67 492.723 139.071 496.245 144.683C499.797 150.281 501.875 155.244 501.572 155.345C501.327 155.432 498.858 150.743 495.322 145.174C491.799 139.59 489.143 134.93 489.432 134.786Z" fill="#263238"/>
<g opacity="0.2">
<path d="M176.197 126.995C176.197 126.995 263.893 133.978 323.266 133.127C382.639 132.275 451.554 129.289 451.554 129.289C451.554 129.289 384.689 100.39 334.323 100.549C283.972 100.722 176.197 126.995 176.197 126.995Z" fill="#141414"/>
</g>
<path d="M310.259 363.914L302.377 355.531C302.377 355.531 293.904 352.559 289.082 346.543C284.275 340.526 281.966 336.155 286.325 334.019C286.325 334.019 282.124 327.123 287.956 324.713C287.956 324.713 284.636 315.032 291.132 315.941C291.132 315.941 287.307 305.207 294.019 306.967C300.732 308.727 316.899 321.352 316.899 321.352L319.382 340.454L325.243 345.966C325.257 345.98 322.587 360.321 310.259 363.914Z" fill="#FFBF9D"/>
<path d="M323.395 23.4174L325.3 2.46818C325.358 1.81893 325.661 1.22739 326.166 0.765699C327.249 -0.215393 328.967 -0.258676 330.093 0.664704L330.194 0.751271C330.771 1.22739 331.118 1.9055 331.147 2.62689L331.897 23.6194L323.395 23.4174Z" fill="#263238"/>
<path d="M311.831 106.998C311.066 130.861 310.286 154.725 309.521 178.589C308.727 203 307.947 227.398 307.153 251.81C306.735 264.91 306.302 278.011 305.883 291.126C305.796 294.011 310.272 294.155 310.373 291.27C311.138 267.406 311.917 243.543 312.682 219.679C313.476 195.267 314.256 170.87 315.05 146.458C315.469 133.357 315.902 120.257 316.32 107.142C316.407 104.256 311.932 104.112 311.831 106.998Z" fill="#E0E0E0"/>
<path d="M311.831 106.998C311.831 106.998 311.831 106.911 311.846 106.753C311.846 106.579 311.904 106.334 312.019 106.031C312.265 105.425 313.203 104.632 314.56 104.862C315.21 104.963 315.931 105.382 316.278 106.161C316.581 106.969 316.393 107.849 316.422 108.772C316.379 110.648 316.321 112.783 316.263 115.207C315.989 124.917 315.585 138.898 315.094 156.168C314.011 190.78 312.524 238.551 310.879 291.299C310.879 292.265 310.229 293.333 309.262 293.665C308.338 294.04 307.27 293.925 306.447 293.333C305.552 292.785 305.335 291.515 305.422 290.736L305.509 288.283C305.61 285.023 305.725 281.791 305.826 278.573C306.043 272.153 306.245 265.819 306.447 259.601C306.865 247.164 307.255 235.16 307.631 223.719C308.41 200.865 309.103 180.277 309.695 162.978C310.316 145.722 310.821 131.742 311.167 122.032C311.355 117.227 311.514 113.49 311.615 110.893C311.673 109.653 311.73 108.686 311.759 107.993C311.788 107.33 311.831 106.998 311.831 106.998C311.831 106.998 311.86 107.33 311.846 107.993C311.831 108.686 311.817 109.653 311.803 110.893C311.745 113.476 311.644 117.227 311.528 122.032C311.254 131.742 310.85 145.722 310.359 162.992C309.825 180.291 309.204 200.88 308.497 223.748C308.136 235.189 307.761 247.178 307.371 259.63C307.169 265.848 306.967 272.182 306.764 278.602C306.663 281.82 306.562 285.052 306.447 288.312L306.375 290.765C306.331 291.573 306.447 292.15 306.995 292.54C307.486 292.915 308.28 293.001 308.872 292.756C309.493 292.54 309.839 291.948 309.868 291.27C311.629 238.522 313.217 190.766 314.372 156.153C314.993 138.898 315.498 124.917 315.845 115.207C315.946 112.798 316.018 110.648 316.105 108.787C316.105 107.863 316.278 106.969 316.032 106.276C315.744 105.584 315.108 105.194 314.502 105.079C313.246 104.834 312.366 105.541 312.091 106.103C311.831 106.652 311.889 107.012 311.831 106.998Z" fill="#263238"/>
<path d="M272.538 309.579C264.252 318.394 265.407 333.327 275.439 340.339C285.155 347.12 298.955 345.735 306.115 335.924C307.775 333.644 308.987 331.119 309.695 328.392C310.027 327.123 310.186 325.868 310.243 324.555C310.243 324.237 310.258 323.92 310.258 323.602C310.243 323.905 310.229 323.992 310.229 323.877C310.229 323.804 310.229 323.732 310.229 323.66C310.272 321.871 310.344 320.068 310.402 318.279C310.633 311.209 310.864 304.125 311.081 297.055C311.254 291.818 311.413 286.595 311.586 281.358C311.644 279.453 310.691 277.635 308.641 277.318C306.938 277.044 304.657 278.342 304.599 280.261C304.267 290.39 303.95 300.518 303.618 310.646C303.488 314.657 303.343 318.683 303.228 322.694C303.112 326.647 302.058 330.008 299.359 332.981C296.212 336.443 291.535 338.074 286.916 337.468C281.704 336.789 276.739 333.63 274.833 328.594C272.913 323.516 274.342 317.932 277.995 314.051C281.156 310.733 275.642 306.289 272.538 309.579Z" fill="#263238"/>
<path d="M314.809 266.841L311.145 266.722L310.89 274.61L314.555 274.729L314.809 266.841Z" fill="#263238"/>
<path d="M71.8711 142.014C71.8711 142.014 148.004 59.2561 208.257 39.6775C208.257 39.6775 231.816 31.7278 248.691 31.8577C248.691 31.8577 263.718 14.6597 295.765 18.1368C327.812 21.6139 344.701 20.9214 364.348 18.2234C383.994 15.5254 404.45 27.5726 412.447 36.8353C412.447 36.8353 452.087 41.986 476.266 58.4048C500.445 74.8093 520.366 86.8565 538.021 103.218C555.675 119.579 582.352 147.901 582.352 147.901C582.352 147.901 518.389 123.763 486.775 135.118C477.161 129.895 387.401 120.199 324.506 120.964C263.357 121.7 176.138 122.695 167.116 131.049C167.318 129.88 101.146 128.654 71.8711 142.014Z" fill="#0E6BAD"/>
<path d="M248.677 31.8433C248.706 31.8722 248.374 32.204 247.725 32.8244C246.988 33.5025 246.05 34.3826 244.866 35.4791C244.231 36.0562 243.538 36.6911 242.788 37.3836C242.066 38.1194 241.272 38.9129 240.435 39.7642C238.775 41.4955 236.754 43.3567 234.747 45.6075C226.461 54.3796 215.721 67.0761 204.404 81.4462C193.072 95.8163 183.241 109.133 176.168 118.771C172.704 123.532 169.86 127.428 167.824 130.227C166.886 131.511 166.121 132.535 165.544 133.329C165.009 134.036 164.721 134.396 164.692 134.382C164.663 134.367 164.894 133.963 165.37 133.228C165.904 132.405 166.612 131.352 167.492 130.025C169.355 127.254 172.097 123.272 175.562 118.396C182.476 108.643 192.206 95.268 203.567 80.869C214.898 66.4701 225.754 53.8169 234.199 45.1458C236.248 42.9239 238.298 41.0771 240.016 39.3891C240.882 38.5522 241.691 37.7731 242.441 37.0518C243.221 36.3881 243.943 35.7677 244.592 35.205C245.834 34.1518 246.83 33.315 247.595 32.6657C248.273 32.103 248.648 31.8289 248.677 31.8433Z" fill="#263238"/>
<path d="M487.237 135.579C486.992 135.738 469.958 113.519 449.185 85.9765C428.413 58.4193 411.768 35.9552 411.999 35.7965C412.245 35.6378 429.279 57.8422 450.051 85.3993C470.838 112.956 487.482 135.421 487.237 135.579Z" fill="#263238"/>
<path d="M324.232 346.096L320.392 340.05L321.359 321.756C321.359 321.756 315.08 310.04 314.43 310.113C313.766 310.185 298.537 317.254 298.537 317.254C298.537 317.254 296.776 321.698 305.682 321.655C314.589 321.612 312.857 321.049 312.857 321.049C312.857 321.049 305.134 333.543 308.902 338.925C312.669 344.307 324.232 346.096 324.232 346.096Z" fill="#FFBF9D"/>
<path d="M303.749 326.878C303.749 326.878 313.94 324.411 299.663 316.345L287.32 335.058C287.32 335.058 299.678 340.382 302.81 338.579C305.943 336.775 304.21 334.755 304.21 334.755C304.21 334.755 307.516 333.24 306.679 330.34C305.813 327.455 303.749 326.878 303.749 326.878Z" fill="#FFBF9D"/>
<path d="M399.455 329.735C399.455 329.735 359.266 386.075 357.953 384.56C356.625 383.045 320.651 339.185 320.651 339.185L302.391 355.532C302.391 355.532 334.625 428.623 360.493 425.03C386.362 421.438 408.029 380.795 408.029 380.795L399.455 329.735Z" fill="#FFBF9D"/>
<path d="M224.685 69.8316C224.67 69.8171 224.814 69.5863 225.132 69.1535C225.507 68.6629 225.969 68.0425 226.532 67.2779C227.774 65.6619 229.578 63.3391 231.873 60.5256C236.478 54.9276 242.989 47.1799 251.664 40.1535C260.34 33.1272 269.68 28.7844 276.782 27.0819C280.319 26.2018 283.264 25.8123 285.299 25.7113C286.31 25.6247 287.103 25.6536 287.638 25.6392C288.172 25.6392 288.46 25.6536 288.46 25.6824C288.46 25.7546 287.334 25.7979 285.328 25.9999C283.307 26.2018 280.405 26.6491 276.926 27.6013C269.94 29.4193 260.744 33.7909 252.141 40.7451C243.552 47.6993 236.984 55.346 232.292 60.8575C230.011 63.5843 228.149 65.8206 226.778 67.451C226.157 68.1724 225.666 68.7639 225.262 69.24C224.901 69.644 224.699 69.846 224.685 69.8316Z" fill="white"/>
<path d="M226.186 41.8707C226.2 41.9139 225.479 42.1592 224.18 42.5488C222.75 42.9816 220.888 43.5443 218.68 44.208C214.031 45.6219 207.665 47.6995 200.736 50.3109C193.807 52.9224 187.643 55.5771 183.226 57.5825C181.119 58.5492 179.357 59.3572 178 59.9776C176.759 60.5402 176.066 60.8288 176.052 60.7855C176.023 60.7422 176.672 60.3527 177.871 59.7179C179.069 59.0686 180.815 58.1741 183.01 57.1064C187.384 54.9711 193.533 52.2298 200.477 49.604C207.42 46.9925 213.844 44.9871 218.535 43.6886C220.874 43.0393 222.794 42.5488 224.122 42.2602C225.435 41.9572 226.172 41.8129 226.186 41.8707Z" fill="white"/>
<path d="M366.528 370.45C365.893 368.935 389.192 333.904 394.692 328.089C400.856 321.583 416.735 321.583 416.735 321.583L412.202 400.95" fill="#455A64"/>
<path d="M408.781 254.032C398.835 239.719 394.663 209.738 386.911 190.261C385.107 178.242 375.984 169.167 368.492 164.651C355.947 157.091 338.495 158.88 327.74 168.821C326.369 170.091 325.099 171.476 323.482 172.414C321.302 173.683 318.733 174.015 316.293 174.65C306.246 177.29 300.746 187.649 297.57 197.532C294.394 207.415 287.639 253.599 292.431 262.804L348.845 257.062L348.426 260.712C361.072 266.627 376.287 267.32 388.831 262.544C387.792 258.331 387.489 254.003 387.965 249.79C389.004 254.075 390.65 259.053 395.154 260.784C396.569 261.332 398.099 261.476 399.6 261.52C404.984 261.678 410.239 260.654 415.436 259.644C412.491 258.908 410.441 256.412 408.781 254.032Z" fill="#263238"/>
<path d="M374.034 251.55C378.163 247.741 381.627 242.143 381.901 234.035C382.291 222.724 380.227 209.854 377.975 195.022C375.954 181.676 360.768 172.847 347.877 175.516L328.49 181.864C319.223 184.62 307.111 191.848 308.266 201.702L313.853 216.606L327.653 278.617L361.215 276.64L359.555 259.096C359.555 259.096 367.596 257.509 374.034 251.55Z" fill="#FFBF9D"/>
<path d="M359.498 258.374C359.498 258.374 344.933 260.755 329.603 253.195C329.603 253.195 338.336 268.445 359.96 264.261L359.498 258.374Z" fill="#FF9A6C"/>
<path d="M358.257 230.053C358.228 229.923 360.076 229.461 363.079 228.827C363.844 228.682 364.551 228.48 364.652 228.047C364.797 227.586 364.436 226.965 364.003 226.302C363.165 224.902 362.299 223.445 361.375 221.916C360.394 220.314 357.795 215.019 357.68 214.11C358.012 213.98 358.921 215.178 362.574 221.44C363.454 222.983 364.306 224.455 365.1 225.869C365.446 226.533 365.995 227.254 365.677 228.221C365.504 228.697 364.97 229.086 364.479 229.245C364.003 229.418 363.57 229.476 363.194 229.534C360.163 229.966 358.286 230.183 358.257 230.053Z" fill="#263238"/>
<path d="M347.561 219.91C347.749 221.425 346.652 222.839 345.121 223.07C343.591 223.301 342.191 222.276 342.003 220.761C341.816 219.246 342.913 217.832 344.429 217.602C345.973 217.356 347.374 218.395 347.561 219.91Z" fill="#263238"/>
<path d="M348.527 211.874C348.238 212.235 346.275 210.907 343.59 211.109C340.905 211.268 339.014 212.855 338.711 212.538C338.566 212.393 338.84 211.758 339.663 211.037C340.472 210.33 341.886 209.594 343.547 209.479C345.221 209.363 346.65 209.912 347.488 210.518C348.368 211.109 348.671 211.715 348.527 211.874Z" fill="#263238"/>
<path d="M349.639 230.212C350.101 230.111 350.779 232.376 352.988 233.905C355.168 235.463 357.651 235.42 357.68 235.867C357.708 236.069 357.088 236.387 355.991 236.43C354.908 236.473 353.349 236.17 351.977 235.204C350.606 234.237 349.841 232.91 349.567 231.914C349.292 230.904 349.422 230.24 349.639 230.212Z" fill="#263238"/>
<path d="M347.69 202.597C347.676 203.621 344.991 203.809 342.104 205.064C339.173 206.247 337.051 208.065 336.43 207.3C336.156 206.939 336.344 205.93 337.094 204.746C337.845 203.578 339.173 202.308 340.92 201.572C342.667 200.851 344.428 200.822 345.669 201.154C346.925 201.515 347.676 202.121 347.69 202.597Z" fill="#263238"/>
<path d="M369.878 217.933C370.066 219.448 368.968 220.862 367.438 221.093C365.908 221.324 364.508 220.3 364.32 218.785C364.132 217.27 365.215 215.856 366.745 215.625C368.29 215.38 369.69 216.419 369.878 217.933Z" fill="#263238"/>
<path d="M374.814 209.132C374.525 209.493 372.562 208.166 369.877 208.368C367.192 208.526 365.301 210.114 364.998 209.796C364.853 209.652 365.128 209.017 365.95 208.296C366.759 207.589 368.174 206.853 369.834 206.737C371.508 206.622 372.937 207.17 373.775 207.776C374.641 208.368 374.958 208.959 374.814 209.132Z" fill="#263238"/>
<path d="M374.035 198.6C373.602 199.509 371.321 198.975 368.708 199.322C366.096 199.567 363.988 200.591 363.353 199.798C363.078 199.408 363.309 198.528 364.161 197.605C364.998 196.681 366.5 195.816 368.29 195.614C370.08 195.412 371.74 195.931 372.765 196.638C373.804 197.359 374.223 198.167 374.035 198.6Z" fill="#263238"/>
<path d="M381.758 187.202C377.182 179.974 369.185 175.314 360.798 173.626C352.411 171.938 343.648 173.02 335.435 175.444C327.221 177.867 319.469 181.59 311.761 185.298C309.898 186.192 307.863 187.26 307.098 189.179C306.578 190.492 306.751 191.949 306.925 193.349C307.184 195.383 307.444 197.417 307.704 199.466C306.102 204.732 305.986 210.417 306.131 215.957C306.535 231.438 308.686 246.89 312.526 261.938C322.833 264.016 326.716 265.358 336.2 260.972C336.2 260.972 330.454 248.867 329.588 241.48C328.65 233.458 327.842 225.494 327.726 217.558C333.01 209.436 335.565 202.135 334.15 191.357C335.391 192.743 335.882 194.633 336.633 196.335C337.369 198.052 338.596 199.783 340.429 200.13C343.49 200.721 345.756 197.143 346.001 194.041C346.247 190.939 345.482 187.635 346.795 184.822C350.144 189.006 354.461 192.396 359.311 194.676C361.592 195.758 364.58 196.479 366.428 194.777C367.741 193.565 367.943 191.502 367.38 189.799C366.817 188.097 365.648 186.683 364.493 185.312C368.405 189.02 373.458 194.835 378.77 195.772C379.939 195.974 382.581 195.325 383.447 194.503C384.703 193.32 382.682 188.659 381.758 187.202Z" fill="#263238"/>
<path d="M311.371 169.86C311.255 169.239 311.905 168.503 313.204 167.998C314.489 167.508 316.438 167.335 318.459 167.825C320.48 168.33 322.125 169.369 323.035 170.408C323.959 171.447 324.19 172.399 323.8 172.904C322.934 173.899 320.335 173.048 317.347 172.356C314.373 171.577 311.674 171.129 311.371 169.86Z" fill="#263238"/>
<path d="M324.536 174.015C323.468 174.708 320.913 172.601 319.686 168.965C318.444 165.33 319.195 162.127 320.465 162.011C321.765 161.896 323.049 164.406 324.103 167.465C325.128 170.538 325.648 173.323 324.536 174.015Z" fill="#263238"/>
<path d="M328.462 446.902C327.884 448.287 324.709 481.702 327.105 498.958C329.877 518.94 333.688 559.584 333.688 559.584C336.849 561.589 356.828 563.219 356.293 560.392C356.091 559.338 360.754 455.126 360.754 455.126L328.462 446.902Z" fill="#FFBF9D"/>
<path d="M369.848 443.079C369.271 444.464 375.045 483.376 377.441 500.632C380.213 520.614 384.024 561.257 384.024 561.257C387.185 563.263 407.164 564.893 406.63 562.065C406.427 561.012 404.493 446.455 404.493 446.455L369.848 443.079Z" fill="#FFBF9D"/>
<path d="M302.391 331.739L285.776 326.315C285.343 342.041 256.833 347.394 245.92 325.911L218.824 334.639L233.534 494.485L292.979 505.652C292.979 505.652 307.039 339.098 306.65 337.236C306.289 335.39 302.391 331.739 302.391 331.739Z" fill="#EBEBEB"/>
<path d="M290.093 524.668L288.23 506.792L199.467 479.062L182.52 497.226C182.52 497.226 154.876 499.982 149.044 521.811C143.197 543.626 150.733 561.459 150.733 561.459C126.784 556.842 94.2612 562.483 53.1346 568.803L49.4824 602.131C49.4824 602.131 289.039 607.412 302.911 602.65C316.784 597.904 319.685 578.051 314.532 553.105C309.349 528.131 290.093 524.668 290.093 524.668Z" fill="#263238"/>
<g opacity="0.3">
<path d="M286.528 542.804C286.528 542.804 281.374 539.428 281.244 533.152C281.042 523.701 284.622 505.652 284.622 505.652L246.224 492.826L215.058 529.372C215.058 529.372 217.685 558.271 210.756 571.183C210.756 571.183 225.567 563.089 241.994 553.625C256.819 545.098 274.113 539.11 286.528 542.804Z" fill="#141414"/>
</g>
<path d="M227.761 522.144C227.717 522.259 229.421 523.009 232.192 524.163C235.253 525.433 238.934 526.948 243.019 528.636C247.09 530.353 250.771 531.911 253.817 533.195C256.574 534.364 258.306 535.042 258.364 534.927C258.421 534.811 256.79 533.917 254.091 532.604C251.391 531.291 247.609 529.559 243.38 527.799C239.15 526.039 235.267 524.553 232.438 523.557C229.594 522.547 227.804 522.028 227.761 522.144Z" fill="#455A64"/>
<path d="M211.462 570.722C211.477 570.751 211.766 570.635 212.3 570.375C212.92 570.058 213.7 569.683 214.624 569.221C216.746 568.11 219.619 566.624 223.112 564.806C230.243 561.041 240.131 555.832 250.929 549.931C256.342 547.031 261.683 544.578 266.794 543.193C271.889 541.765 276.725 541.462 280.695 541.895C284.679 542.299 287.768 543.424 289.789 544.376C291.81 545.358 292.821 546.093 292.878 546.021C292.893 545.992 292.662 545.805 292.171 545.444C291.695 545.083 290.944 544.607 289.948 544.059C287.956 542.977 284.823 541.751 280.767 541.246C276.725 540.741 271.774 540.972 266.577 542.385C261.366 543.756 255.953 546.223 250.51 549.138C239.756 555.01 230.012 560.334 222.823 564.258C219.388 566.177 216.573 567.75 214.479 568.918C213.584 569.438 212.834 569.87 212.228 570.231C211.708 570.52 211.448 570.693 211.462 570.722Z" fill="#455A64"/>
<path d="M214.119 526.284C214.09 526.284 214.09 526.602 214.134 527.208C214.191 527.915 214.264 528.78 214.35 529.819C214.509 532.099 214.726 535.388 214.726 539.457C214.783 547.58 213.816 558.891 210.38 570.838C208.692 576.811 206.584 582.351 204.346 587.242C202.167 592.147 199.684 596.375 196.768 599.145C193.765 601.814 190.604 603.026 188.482 603.747C186.317 604.425 185.046 604.555 185.061 604.627C185.061 604.656 185.378 604.656 185.985 604.599C186.591 604.526 187.471 604.382 188.583 604.094C190.777 603.473 194.025 602.348 197.215 599.635C200.29 596.808 202.874 592.523 205.126 587.603C207.436 582.697 209.572 577.114 211.275 571.097C214.74 559.05 215.606 547.638 215.39 539.457C215.317 535.36 215 532.056 214.726 529.79C214.567 528.752 214.451 527.886 214.336 527.179C214.22 526.587 214.148 526.27 214.119 526.284Z" fill="#455A64"/>
<path d="M231.845 328.219L203.349 340.67L194.919 458.618C194.919 458.618 164.07 481.544 152.941 497.991C139.977 517.137 145.867 516.488 145.867 516.488C145.867 516.488 178.535 503.676 191.974 509.346C205.399 515.016 220.094 538.591 228.063 536.413C236.031 534.234 252.819 510.226 254.09 459.599C255.346 408.972 257.453 408.539 254.09 387.59C250.726 366.626 231.845 328.219 231.845 328.219Z" fill="#455A64"/>
<path d="M172.731 501.411C172.789 501.584 175.474 500.675 179.964 500.112C182.201 499.809 184.915 499.694 187.889 499.81C190.877 499.983 194.139 500.415 197.488 501.252C200.823 502.132 203.898 503.315 206.597 504.6C209.267 505.941 211.592 507.326 213.41 508.668C217.077 511.323 218.997 513.415 219.127 513.285C219.17 513.242 218.708 512.708 217.842 511.77C217.409 511.294 216.861 510.731 216.168 510.14C215.475 509.548 214.739 508.812 213.8 508.149C211.996 506.72 209.686 505.249 206.972 503.835C204.244 502.493 201.126 501.252 197.719 500.358C194.312 499.507 190.963 499.088 187.932 498.973C184.886 498.901 182.143 499.088 179.877 499.478C178.737 499.607 177.726 499.882 176.845 500.084C175.95 500.271 175.2 500.502 174.594 500.704C173.367 501.108 172.703 501.353 172.731 501.411Z" fill="#263238"/>
<path d="M310.995 334.87C312.236 380.217 324.073 433.455 312.857 469.453C312.857 469.453 318.949 553.192 319.165 558.747C319.353 563.565 316.119 569.899 310.259 561.531C301.525 549.066 271.99 540.914 271.99 540.914C308.209 447.335 296.083 329.056 296.083 329.056C296.083 329.056 306.173 331.667 310.995 334.87Z" fill="#455A64"/>
<path d="M298.753 480.577C298.696 480.577 298.696 481.313 298.753 482.64C298.811 483.968 298.941 485.887 299.143 488.253C299.547 492.985 300.255 499.521 301.308 506.691C302.362 513.876 303.546 520.326 304.528 524.986C305.018 527.309 305.437 529.184 305.755 530.483C306.072 531.767 306.274 532.474 306.347 532.474C306.404 532.46 306.318 531.724 306.116 530.425C305.856 528.925 305.553 527.078 305.177 524.885C304.369 520.21 303.286 513.747 302.232 506.576C301.193 499.42 300.37 492.913 299.807 488.195C299.533 485.988 299.302 484.126 299.129 482.611C298.941 481.284 298.825 480.563 298.753 480.577Z" fill="#263238"/>
<path opacity="0.3" d="M203.898 473.421C203.898 473.421 205.717 484.862 224.137 485.468C242.542 486.074 316.899 440.222 316.899 440.222L315.6 424.554L203.898 473.421Z" fill="#141414"/>
<path d="M298.278 391.341C300.963 393.332 301.512 396.91 300.588 400.676C299.65 404.442 302.869 406.216 302.869 406.216C302.869 406.216 312.468 398.613 316.236 394.212C320.018 389.826 326.774 379.886 330.339 378.731C333.905 377.577 336.474 379.308 333.789 382.584C331.104 385.859 323.078 397.257 323.887 398.469C324.695 399.681 343.952 386.147 345.67 387.301C347.388 388.456 348.644 391.298 343.49 394.559C338.625 397.632 329.805 403.793 329.805 403.793C329.805 403.793 348.427 395.482 349.105 398.627C349.784 401.758 347.922 402.537 344.847 404.11C341.772 405.683 330.238 413.863 330.238 413.863C330.238 413.863 346.218 408.193 347.171 411.223C348.109 414.253 348.066 414.887 344.775 415.941C341.484 416.994 309.249 432.98 308.181 433.427C307.113 433.86 286.802 446.917 286.802 446.917L273.449 428.363L292.36 418.668C292.36 418.668 292.129 401.34 293.847 397.213C295.579 393.087 295.593 389.35 298.278 391.341Z" fill="#FFBF9D"/>
<path d="M283.611 421.091L233.246 439.155L232.842 432.388L228.453 357.739C228.453 357.739 221.438 336.674 203.35 340.671C201.935 340.988 183.588 350.51 185.291 381.804C186.345 401.267 189.651 422.938 191.989 436.529C194.588 454.405 198.918 469.093 203.899 473.407C214.09 482.265 225.667 483.593 246.064 473.407C266.462 463.221 295.03 442.704 295.03 442.704L283.611 421.091Z" fill="#455A64"/>
<path d="M309.854 305.539C308.381 306.895 289.442 315.278 280.81 319.115C279.684 319.62 240.318 319.115 240.318 319.115L238.658 302.264C238.658 302.264 270.315 295.252 270.965 294.098C271.614 292.929 304.57 277.765 305.249 277.607C305.927 277.448 309.854 305.539 309.854 305.539Z" fill="#FFBF9D"/>
<path d="M325.127 267.247C318.414 267.651 309.854 266.266 291.03 283.767L309.767 307.429C310.128 312.522 311.124 349.01 311.76 354.218C312.38 359.427 312.222 457.493 314.329 459.974C324.16 471.531 428.672 464.533 429.943 461.85C418.466 406.505 411.379 359.383 401.548 330.989C396.741 317.11 392.945 304.716 392.945 304.716L409.95 291.688C409.95 291.688 397.03 272.744 388.816 268.488C381.295 264.593 367.163 263.453 360.118 264.997C360.118 264.982 361.215 276.64 325.127 267.247Z" fill="#DD2A1B"/>
<path d="M369.69 460.825C369.661 460.825 369.588 460.537 369.487 459.96C369.372 459.31 369.228 458.488 369.04 457.464C368.636 455.199 368.087 452.097 367.423 448.316C366.716 444.45 365.835 439.862 364.781 434.783C364.233 432.244 363.655 429.589 363.063 426.833C362.746 425.463 362.457 424.049 362.082 422.649C361.894 421.957 361.678 421.279 361.36 420.644C361.042 420.024 360.638 419.432 360.075 419.244C359.512 419.042 358.949 419.317 358.675 419.894C358.386 420.456 358.328 421.163 358.314 421.87C358.343 423.299 358.401 424.756 358.458 426.155C358.588 428.969 358.733 431.696 358.92 434.278C359.281 439.458 359.743 444.104 360.176 447.999C360.609 451.895 361.042 455.04 361.331 457.218C361.461 458.243 361.576 459.065 361.663 459.729C361.735 460.306 361.75 460.609 361.735 460.609C361.706 460.609 361.634 460.32 361.519 459.758C361.403 459.195 361.23 458.358 361.042 457.276C360.653 455.112 360.147 451.967 359.642 448.071C359.137 444.176 358.617 439.515 358.213 434.336C358.011 431.739 357.838 429.026 357.708 426.199C357.635 424.785 357.578 423.356 357.549 421.87C357.563 421.12 357.592 420.326 357.982 419.547C358.17 419.172 358.487 418.812 358.92 418.595C359.353 418.393 359.873 418.379 360.292 418.537C361.187 418.855 361.663 419.634 361.995 420.312C362.342 421.019 362.573 421.74 362.76 422.447C363.136 423.876 363.424 425.275 363.727 426.66C364.334 429.416 364.897 432.085 365.402 434.639C366.427 439.732 367.25 444.334 367.885 448.215C368.52 452.097 368.982 455.242 369.271 457.42C369.401 458.445 369.502 459.282 369.574 459.931C369.689 460.522 369.718 460.825 369.69 460.825Z" fill="#263238"/>
<path d="M400.898 458.358C400.71 458.445 398.054 453.078 394.979 446.383C391.904 439.689 389.551 434.177 389.739 434.091C389.927 434.004 392.583 439.357 395.658 446.066C398.747 452.775 401.086 458.272 400.898 458.358Z" fill="#263238"/>
<path d="M310.706 320.587C310.503 320.602 309.955 315.263 309.478 308.67C309.002 302.062 308.786 296.709 309.002 296.695C309.204 296.68 309.753 302.018 310.229 308.626C310.706 315.206 310.922 320.573 310.706 320.587Z" fill="#263238"/>
<path d="M387.503 288.76C387.59 288.716 388.167 289.798 388.961 291.616C389.755 293.42 390.765 295.959 391.718 298.816C392.685 301.672 393.422 304.298 393.884 306.232C394.346 308.151 394.548 309.362 394.447 309.391C394.23 309.449 392.931 304.746 391.011 299.075C389.091 293.376 387.301 288.846 387.503 288.76Z" fill="#263238"/>
<path d="M229.088 368.531C229.088 368.531 229.146 368.964 229.203 369.801C229.261 370.666 229.348 371.907 229.463 373.523C229.68 376.813 229.983 381.603 230.373 387.734C231.123 400.041 232.206 417.687 233.534 439.155L233.13 438.895C248.013 433.543 265.061 427.396 283.481 420.774L283.769 420.673L283.914 420.947C287.566 427.844 291.406 435.115 295.332 442.56L295.491 442.849L295.231 443.036C288.851 447.581 282.052 452.198 275.05 456.757C265.003 463.25 255.057 469.41 244.909 474.388C239.828 476.841 234.617 478.918 229.276 480.101C226.591 480.635 223.891 480.967 221.206 480.938C218.521 480.852 215.879 480.39 213.397 479.539C210.899 478.702 208.618 477.418 206.54 475.946C205.471 475.239 204.533 474.402 203.566 473.594C202.628 472.714 201.848 471.704 201.199 470.637C198.629 466.366 197.186 461.764 195.901 457.334C194.674 452.89 193.735 448.519 192.956 444.32C192.191 440.107 191.642 436.039 190.964 432.187C188.438 416.72 186.951 404.124 186.171 395.396C185.767 391.038 185.551 387.633 185.421 385.339C185.363 384.214 185.334 383.334 185.305 382.714C185.276 382.122 185.291 381.819 185.291 381.819C185.291 381.819 185.334 382.122 185.377 382.714C185.421 383.334 185.493 384.2 185.579 385.325C185.767 387.619 186.027 391.01 186.474 395.367C187.355 404.081 188.914 416.648 191.512 432.086C192.205 435.938 192.768 440.006 193.548 444.205C194.327 448.403 195.28 452.746 196.522 457.161C197.806 461.547 199.264 466.135 201.776 470.276C202.411 471.3 203.162 472.267 204.028 473.089C204.966 473.869 205.919 474.691 206.958 475.383C208.994 476.826 211.217 478.067 213.642 478.875C216.053 479.697 218.622 480.145 221.249 480.217C223.877 480.246 226.518 479.914 229.16 479.394C234.415 478.226 239.568 476.163 244.62 473.724C254.711 468.761 264.657 462.6 274.675 456.122C281.662 451.563 288.461 446.946 294.827 442.43L294.711 442.906C290.785 435.462 286.945 428.19 283.307 421.279L283.755 421.452C265.321 428.046 248.258 434.149 233.361 439.473L232.985 439.602L232.957 439.198C231.744 417.73 230.748 400.07 230.055 387.763C229.737 381.631 229.478 376.841 229.304 373.552C229.232 371.936 229.174 370.695 229.131 369.83C229.088 368.964 229.088 368.531 229.088 368.531Z" fill="#263238"/>
<g opacity="0.3">
<path d="M348.556 41.6978L323.381 33.3008L298.451 41.5823C295.275 42.9818 292.475 43.8187 292.475 46.5599V60.2664C292.475 69.7887 295.16 79.2245 300.688 87.5494C305.337 94.5613 312.54 101.775 323.626 106.363C333.818 103.29 341.425 95.0951 346.073 88.0832C351.602 79.7584 354.287 70.3226 354.287 60.8002V48.4788C354.287 44.5545 352.05 42.6356 348.556 41.6978Z" fill="white"/>
</g>
<path d="M339.563 63.3396H327.004V50.7729H319.772V63.3396H307.213V70.5535H319.772V83.1201H327.004V70.5535H339.563V63.3396Z" fill="#DD2A1B"/>
<path d="M229.031 296.507C226.88 283.753 224.743 271.013 222.592 258.259L218.781 240.816C212.949 236.214 196.002 241.638 190.647 246.804C185.306 251.954 183.241 259.76 183.241 267.176C183.241 272.096 183.92 277.463 181.134 281.531C177.943 286.192 171.116 287.533 168.459 292.511C166.713 295.757 167.261 299.855 168.979 303.13C170.697 306.39 173.44 308.987 176.197 311.44C178.68 313.662 181.249 315.855 184.31 317.154C187.37 318.452 191.036 318.741 193.938 317.139C193.332 321.973 197.114 326.763 201.849 327.874C206.583 328.999 211.766 326.763 214.754 322.91C217.728 319.058 218.637 313.85 217.829 309.06C218.781 311.714 222.347 312.753 224.916 311.599C227.486 310.445 229.045 307.689 229.507 304.904C229.969 302.12 229.507 299.278 229.031 296.507Z" fill="#263238"/>
<path d="M217.771 240.83C225.797 227.182 238.024 218.136 253.643 215.438C262.448 213.923 266.389 215.178 273.015 215.914C279.641 216.635 285.92 219.16 290.54 223.95C296.04 229.649 300.948 236.214 303.012 243.86C305.134 251.709 307.256 259.616 307.906 267.724C308.555 275.832 307.631 284.244 303.921 291.472L284.073 298.181C272.871 300.316 261.51 302.466 250.135 301.6C238.76 300.735 227.183 296.493 219.806 287.793C209.571 275.717 209.73 254.494 217.771 240.83Z" fill="#263238"/>
<path d="M268.627 222.565L261.395 222.839L235.887 237.873C231.99 238.681 229.363 242.331 229.839 246.284L246.873 326.792L279.612 351.478L285.805 326.965L285.329 318.51C285.329 318.51 303.243 313.908 304.528 291.891C305.163 280.94 302.853 263.324 300.5 248.968C298.393 236.041 284.621 220.141 268.627 222.565Z" fill="#FFBF9D"/>
<path d="M271.788 291.876C271.759 290.736 272.236 289.64 272.929 288.832C274.315 287.216 276.61 286.726 278.501 287.635C280.392 288.543 281.735 290.809 281.764 293.103C281.013 294.56 279.685 295.685 278.082 296.075C277.837 296.132 277.577 296.19 277.332 296.219C276.105 296.378 274.777 296.161 273.708 295.397C272.626 294.632 271.817 293.29 271.788 291.876Z" fill="#FF9A6C"/>
<path d="M294.019 268.113C294.221 269.571 293.139 270.956 291.623 271.186C290.107 271.417 288.707 270.436 288.505 268.965C288.303 267.507 289.385 266.122 290.901 265.891C292.431 265.661 293.832 266.656 294.019 268.113Z" fill="#263238"/>
<path d="M296.762 256.903C296.459 257.293 294.192 255.951 291.204 256.254C288.216 256.514 286.166 258.274 285.805 257.942C285.632 257.798 285.92 257.105 286.801 256.312C287.667 255.518 289.212 254.696 291.074 254.508C292.936 254.335 294.582 254.869 295.549 255.475C296.531 256.11 296.906 256.73 296.762 256.903Z" fill="#263238"/>
<path d="M281.302 283.133C281.273 282.96 283.092 282.455 286.08 281.776C286.831 281.618 287.538 281.401 287.625 280.868C287.755 280.29 287.35 279.511 286.888 278.66C285.979 276.885 285.041 275.024 284.045 273.062C280.075 265.098 277.13 258.504 277.447 258.36C277.765 258.201 281.244 264.535 285.214 272.499C286.167 274.462 287.091 276.337 287.957 278.141C288.332 278.977 288.924 279.915 288.65 281.098C288.505 281.69 287.986 282.166 287.509 282.339C287.033 282.541 286.6 282.584 286.224 282.642C283.222 283.104 281.331 283.306 281.302 283.133Z" fill="#263238"/>
<path d="M285.372 318.481C285.372 318.481 270.879 320.876 255.562 313.633C255.562 313.633 263.993 328.58 285.502 324.396L285.372 318.481Z" fill="#FF9A6C"/>
<path d="M272.698 286.09C273.174 286.018 273.506 289.264 276.523 291.284C279.526 293.319 282.962 292.612 283.019 293.059C283.091 293.261 282.312 293.766 280.854 293.953C279.425 294.141 277.288 293.896 275.44 292.655C273.607 291.414 272.683 289.596 272.438 288.283C272.192 286.927 272.481 286.09 272.698 286.09Z" fill="#263238"/>
<path d="M294.135 246.674C293.701 247.453 291.363 247.193 288.707 247.684C286.036 248.088 283.899 249.098 283.25 248.506C282.961 248.218 283.178 247.467 284.029 246.645C284.867 245.822 286.382 244.986 288.216 244.683C290.049 244.38 291.738 244.668 292.806 245.173C293.86 245.678 294.308 246.299 294.135 246.674Z" fill="#263238"/>
<path d="M261.568 272.442C261.712 273.914 263.083 274.996 264.628 274.866C266.158 274.736 267.284 273.452 267.14 271.98C266.996 270.509 265.624 269.427 264.094 269.556C262.535 269.672 261.409 270.97 261.568 272.442Z" fill="#263238"/>
<path d="M256.415 262.011C256.805 262.328 258.696 260.481 261.669 260.077C264.643 259.63 267.04 260.871 267.314 260.452C267.444 260.265 267.011 259.673 265.957 259.111C264.918 258.548 263.229 258.101 261.381 258.36C259.518 258.62 258.06 259.529 257.252 260.351C256.444 261.174 256.227 261.866 256.415 262.011Z" fill="#263238"/>
<path d="M256.718 252.228C257.397 252.82 259.606 251.81 262.363 251.391C265.106 250.886 267.531 251.146 267.978 250.367C268.166 249.992 267.704 249.371 266.593 248.866C265.495 248.361 263.734 248.073 261.843 248.39C259.952 248.708 258.393 249.545 257.527 250.367C256.646 251.189 256.415 251.925 256.718 252.228Z" fill="#263238"/>
<path d="M239.15 281.834C238.991 280.218 236.739 276.597 235.122 276.51C230.791 276.28 223.155 277.376 224.165 288.197C225.551 302.986 242.095 298.556 242.08 298.123C242.066 297.791 239.727 287.403 239.15 281.834Z" fill="#FFBF9D"/>
<path d="M235.513 293.103C235.441 293.059 235.267 293.305 234.849 293.55C234.445 293.781 233.723 293.983 232.929 293.766C231.312 293.333 229.767 290.982 229.45 288.327C229.291 286.985 229.45 285.672 229.825 284.576C230.171 283.45 230.807 282.628 231.586 282.412C232.351 282.152 232.958 282.57 233.174 282.974C233.405 283.364 233.347 283.681 233.42 283.696C233.463 283.724 233.708 283.422 233.535 282.816C233.448 282.527 233.246 282.195 232.871 281.935C232.496 281.676 231.947 281.575 231.413 281.69C230.272 281.878 229.349 283.018 228.93 284.229C228.454 285.456 228.237 286.927 228.425 288.428C228.8 291.4 230.59 294.04 232.784 294.459C233.853 294.632 234.69 294.242 235.109 293.853C235.527 293.463 235.571 293.131 235.513 293.103Z" fill="#FF9A6C"/>
<path d="M234.53 276.64L238.861 279.916C252.545 262.039 277.981 218.626 276.581 221.194C276.581 221.194 264.859 218.381 253.224 222.276C241.589 226.172 219.835 235.68 222.375 249.718C224.916 263.771 234.53 276.64 234.53 276.64Z" fill="#263238"/>
<path d="M238.053 314.34C238.732 314.34 243.423 314.874 247.061 317.702C250.684 320.529 255.26 323.53 255.26 325.925V328.046C255.26 328.046 262.593 327.945 262.146 330.701C262.146 330.701 266.144 329.922 266.015 333.284C265.885 336.645 259.028 337.179 259.028 337.179C259.028 337.179 265.61 339.329 263.459 341.753C261.309 344.177 257.685 342.691 257.685 342.691C257.685 342.691 259.706 344.638 256.473 345.547C253.254 346.456 233.491 336.775 233.491 336.775C233.491 336.775 224.845 331.783 226.635 315.682C227.501 307.963 238.053 314.34 238.053 314.34Z" fill="#FFBF9D"/>
<path d="M242.76 293.117L228.353 312.45L245.777 316.822C245.777 316.822 248.823 312.06 248.144 307.631C247.466 303.202 242.76 293.117 242.76 293.117Z" fill="#FFBF9D"/>
<path d="M255.232 327.412C255.275 327.412 255.333 327.686 255.117 328.133C254.9 328.552 254.337 329.085 253.471 329.244C252.605 329.403 251.594 329.158 250.613 328.811C249.602 328.479 248.519 328.061 247.408 327.542C242.947 325.478 240.045 322.665 240.19 322.535C240.334 322.362 243.366 324.858 247.725 326.849C248.808 327.354 249.862 327.787 250.829 328.148C251.796 328.523 252.662 328.782 253.384 328.696C254.092 328.624 254.611 328.263 254.857 327.946C255.117 327.657 255.174 327.397 255.232 327.412Z" fill="#FF9A6C"/>
<path d="M262.406 330.831C262.493 330.874 261.67 331.913 259.75 332.36C257.873 332.779 255.289 332.966 252.416 333.024C249.544 333.067 246.945 332.865 245.068 332.62C243.206 332.375 242.066 332.101 242.08 332C242.109 331.783 246.714 332.36 252.402 332.259C255.231 332.202 257.844 332.086 259.649 331.826C261.468 331.552 262.334 330.744 262.406 330.831Z" fill="#FF9A6C"/>
<path d="M259.895 337.382C259.88 337.584 256.242 337.627 251.753 337.454C247.263 337.281 243.64 336.978 243.64 336.776C243.654 336.574 247.292 336.53 251.782 336.703C256.271 336.862 259.895 337.165 259.895 337.382Z" fill="#FF9A6C"/>
<path d="M246.065 340.584C246.094 340.382 248.548 340.613 251.536 341.089C254.524 341.58 256.921 342.128 256.892 342.344C256.863 342.546 254.409 342.316 251.42 341.84C248.432 341.349 246.036 340.786 246.065 340.584Z" fill="#FF9A6C"/>
<path d="M244.549 315.927C244.347 315.985 243.192 312.032 241.965 307.126C240.738 302.206 239.9 298.181 240.102 298.138C240.304 298.094 241.459 302.033 242.686 306.939C243.913 311.844 244.751 315.869 244.549 315.927Z" fill="#FF9A6C"/>
<path d="M256.472 345.331C256.458 345.273 256.818 345.201 257.396 344.869C257.67 344.682 258.017 344.437 258.132 344.004C258.219 343.571 257.973 343.037 257.555 342.619L256.992 342.056L257.757 342.316C258.45 342.561 259.301 342.72 260.24 342.705C261.164 342.676 262.188 342.402 262.982 341.652C263.401 341.291 263.675 340.83 263.589 340.368C263.488 339.892 263.04 339.444 262.549 339.069C261.539 338.334 260.269 337.756 258.941 337.309L257.483 336.819L259.013 336.66C260.023 336.559 261.091 336.357 262.131 336.04C263.17 335.722 264.224 335.275 264.989 334.525C265.335 334.135 265.624 333.688 265.653 333.168C265.696 332.649 265.61 332.072 265.335 331.668C264.772 330.831 263.415 330.687 262.275 330.86H262.246L261.77 330.947L261.799 330.47C261.842 329.951 261.423 329.518 260.875 329.215C260.341 328.912 259.691 328.739 259.07 328.595C257.815 328.321 256.501 328.22 255.288 328.191H254.927V327.83C254.913 327.008 254.971 326.07 254.899 325.377C254.769 324.685 254.278 324.036 253.801 323.458C252.791 322.304 251.607 321.352 250.496 320.472C249.37 319.592 248.302 318.769 247.306 317.99C246.324 317.197 245.386 316.591 244.447 316.115C242.585 315.177 240.954 314.73 239.842 314.47C238.716 314.21 238.096 314.153 238.096 314.109C238.096 314.066 238.731 314.037 239.886 314.225C241.026 314.412 242.701 314.787 244.649 315.696C245.617 316.144 246.641 316.778 247.638 317.543C248.648 318.308 249.731 319.116 250.871 319.967C252.011 320.847 253.21 321.785 254.307 322.997C254.826 323.617 255.389 324.295 255.591 325.233C255.693 326.185 255.62 326.936 255.649 327.816L255.288 327.455C256.573 327.469 257.887 327.57 259.244 327.859C259.908 328.018 260.601 328.191 261.25 328.552C261.871 328.869 262.622 329.561 262.549 330.499L262.102 330.11L262.145 330.095C262.824 329.994 263.488 329.994 264.166 330.124C264.83 330.254 265.523 330.615 265.942 331.221C266.36 331.841 266.432 332.548 266.389 333.212C266.346 333.919 265.956 334.539 265.523 335.001C264.585 335.91 263.444 336.357 262.347 336.674C261.25 336.992 260.168 337.179 259.085 337.28L259.157 336.631C260.557 337.136 261.842 337.713 262.939 338.55C263.459 338.968 264.007 339.473 264.166 340.224C264.325 341.003 263.805 341.681 263.358 342.027C262.434 342.864 261.25 343.138 260.254 343.138C259.244 343.124 258.363 342.922 257.627 342.633L257.829 342.33C258.305 342.835 258.58 343.47 258.435 344.047C258.248 344.61 257.815 344.855 257.526 345.014C257.208 345.158 256.948 345.244 256.775 345.273C256.573 345.345 256.472 345.345 256.472 345.331Z" fill="#FF9A6C"/>
<path d="M304.644 293.117C304.687 293.117 304.673 293.593 304.601 294.444C304.5 295.295 304.312 296.522 303.951 298.008C303.244 300.98 301.699 304.991 299.129 308.915C296.646 312.984 292.951 315.48 290.222 316.807C287.451 318.192 285.473 318.308 285.487 318.192C285.487 318.135 285.935 318.048 286.743 317.788C287.537 317.514 288.663 317.053 289.991 316.346C292.604 314.917 296.112 312.45 298.509 308.526C301.021 304.673 302.623 300.792 303.446 297.892C304.269 294.978 304.514 293.102 304.644 293.117Z" fill="#FF9A6C"/>
<path d="M486.646 505.552C483.831 505.927 430.348 524.221 430.348 524.221C430.348 524.221 387.2 511.352 364.825 516.906C342.45 522.461 330.31 531.666 332.981 551.678C335.666 571.689 348.687 587.949 384.126 596.62C419.565 605.306 519.328 622.23 519.328 622.23L530.645 581.11L493.503 572.425L486.646 505.552Z" fill="#263238"/>
<path d="M493.502 572.424C493.488 572.439 493.142 572.222 492.506 571.79C491.814 571.299 490.89 570.65 489.72 569.842C487.252 568.226 483.701 565.845 479.067 563.292C474.462 560.709 468.847 557.867 462.481 554.996C456.115 552.124 449.012 549.196 441.506 546.238C434.014 543.266 426.868 540.423 420.372 537.841C413.848 535.374 407.756 533.729 402.545 532.979C397.333 532.214 393.032 532.358 390.116 532.705C389.394 532.806 388.744 532.892 388.167 532.964C387.633 533.065 387.157 533.152 386.752 533.238C385.987 533.383 385.583 533.44 385.583 533.426C385.583 533.397 385.973 533.282 386.723 533.094C387.128 532.993 387.59 532.878 388.124 532.748C388.701 532.647 389.351 532.546 390.072 532.416C393.003 531.969 397.333 531.738 402.617 532.445C407.886 533.137 414.035 534.739 420.603 537.192C423.895 538.404 427.287 539.818 430.824 541.217C434.36 542.617 438.027 544.059 441.78 545.545C449.287 548.518 456.389 551.461 462.755 554.375C469.121 557.29 474.736 560.175 479.312 562.83C483.917 565.456 487.44 567.908 489.865 569.597C490.991 570.462 491.9 571.155 492.579 571.674C493.214 572.136 493.517 572.396 493.502 572.424Z" fill="#455A64"/>
<path d="M474.52 555.27C474.405 555.342 473.308 553.192 470.868 550.234C468.458 547.248 464.56 543.597 459.652 540.38C454.744 537.163 449.937 534.854 446.472 533.166C444.841 532.387 443.47 531.709 442.358 531.175C441.391 530.699 440.857 530.41 440.886 530.367C440.9 530.324 441.478 530.511 442.474 530.915C443.484 531.319 444.928 531.911 446.689 532.69C450.226 534.248 455.105 536.499 460.071 539.76C465.036 543.006 468.948 546.8 471.287 549.917C472.471 551.461 473.308 552.802 473.813 553.755C474.318 554.692 474.549 555.241 474.52 555.27Z" fill="#455A64"/>
<path d="M551.778 559.151L527.844 609.908L521.074 655.658C520.583 658.962 517.292 661.083 513.9 660.29C511.994 659.843 510.421 658.573 509.656 656.827C504.762 645.747 486.977 604.887 488.941 601.28C491.221 597.096 510.45 546.021 510.45 546.021L551.778 559.151Z" fill="#263238"/>
<path d="M499.118 508.004C499.118 508.004 546.568 437.193 559.935 430.772C573.302 424.352 585.024 427.064 595.475 434.35C605.926 441.636 611.83 448.23 607.644 466.496C603.458 484.761 576.637 552.529 570.213 563.234C566.344 569.669 553.944 579.09 553.944 579.09L548.473 594.716L495.177 580.995L477.422 510.371L499.118 508.004Z" fill="#263238"/>
<path d="M495.192 513.689C495.249 513.703 495.177 514.353 495.018 515.521C494.86 516.69 494.643 518.392 494.412 520.499C493.95 524.697 493.531 530.526 493.647 536.975C493.777 543.425 494.412 549.225 495.047 553.409C495.365 555.501 495.639 557.189 495.856 558.357C496.058 559.526 496.144 560.175 496.101 560.19C496.043 560.204 495.87 559.569 495.581 558.415C495.278 557.261 494.917 555.587 494.542 553.495C493.777 549.326 493.055 543.482 492.925 536.99C492.81 530.497 493.3 524.64 493.907 520.441C494.21 518.335 494.499 516.647 494.759 515.492C494.975 514.324 495.134 513.689 495.192 513.689Z" fill="#455A64"/>
<path d="M595.143 483.737C595.143 483.737 595.071 483.924 594.912 484.285C594.739 484.674 594.493 485.194 594.176 485.886C593.497 487.315 592.53 489.392 591.289 492.061C588.763 497.443 585.11 505.263 580.664 515.117C571.786 534.811 559.733 562.57 547.448 594.917L547.333 595.22L547.015 595.134C536.983 592.407 526.517 589.565 515.777 586.636C508.025 584.529 500.418 582.452 493.157 580.475L492.781 580.374L492.911 579.999C504.849 545.141 516.672 514.814 526.647 493.749C531.598 483.203 535.929 474.921 539.162 469.366C540.707 466.553 542.078 464.461 542.93 463.018C543.363 462.326 543.695 461.777 543.941 461.388C544.171 461.027 544.301 460.854 544.301 460.854C544.301 460.854 544.215 461.056 543.998 461.431C543.767 461.835 543.45 462.383 543.046 463.09C542.223 464.562 540.895 466.668 539.393 469.496C536.232 475.094 531.973 483.405 527.094 493.951C517.249 515.045 505.528 545.372 493.619 580.23L493.359 579.754C500.62 581.73 508.227 583.793 515.979 585.914C526.705 588.843 537.17 591.685 547.203 594.427L546.77 594.643C559.098 562.31 571.238 534.566 580.231 514.915C584.735 505.09 588.459 497.299 591.058 491.946C592.357 489.306 593.367 487.242 594.06 485.829C594.407 485.15 594.667 484.631 594.854 484.256C595.028 483.91 595.143 483.737 595.143 483.737Z" fill="#455A64"/>
<path d="M485.188 247.034C486.92 247.149 488.696 246.904 490.226 246.111C491.771 245.317 493.041 243.946 493.503 242.273C493.965 240.599 493.518 238.666 492.233 237.512C494.774 237.007 496.607 234.179 496.044 231.654C495.481 229.115 492.623 227.34 490.111 227.96C490.024 224.945 489.057 221.973 487.353 219.491L474.274 227.196L485.188 247.034Z" fill="#263238"/>
<path d="M414.036 231.048C409.431 231.827 404.465 229.043 402.747 224.7C402.227 223.401 401.982 221.93 402.401 220.573C402.805 219.232 403.988 218.063 405.389 217.962C403.483 216.721 402.011 214.759 401.592 212.523C401.173 210.286 401.924 207.819 403.642 206.348C405.374 204.876 408.074 204.559 409.979 205.785C409.864 203.332 411.308 200.879 413.487 199.769L423.564 201.803L414.036 231.048Z" fill="#263238"/>
<path d="M430.795 317.572L431.199 305.827C431.199 305.827 410.167 302.985 409.488 282.036C409.156 271.922 410.181 251.031 411.336 232.145C412.563 211.83 429.193 195.873 449.547 195.469L451.568 195.426C473.394 196.263 484.885 215.264 483.441 237.05L477.84 312.666L442.906 344.884L430.795 317.572Z" fill="#FFBF9D"/>
<path d="M431.186 305.827C431.186 305.827 444.423 306.678 458.396 299.479C458.396 299.479 452.305 312.652 431.359 311.18L431.186 305.827Z" fill="#FF9A6C"/>
<path d="M421.268 253.469C421.239 255.056 422.567 256.369 424.213 256.427C425.859 256.484 427.216 255.243 427.245 253.671C427.273 252.084 425.945 250.771 424.3 250.713C422.654 250.655 421.297 251.882 421.268 253.469Z" fill="#263238"/>
<path d="M416.028 242.316C416.403 242.706 418.641 240.974 421.86 240.917C425.079 240.816 427.476 242.417 427.808 242.028C427.981 241.854 427.591 241.147 426.537 240.426C425.512 239.705 423.765 239.012 421.759 239.055C419.752 239.113 418.078 239.878 417.125 240.657C416.172 241.436 415.84 242.143 416.028 242.316Z" fill="#263238"/>
<path d="M450.067 252.257C450.038 253.844 451.366 255.157 453.012 255.215C454.658 255.272 456.015 254.032 456.043 252.459C456.072 250.872 454.744 249.559 453.098 249.501C451.453 249.444 450.096 250.67 450.067 252.257Z" fill="#263238"/>
<path d="M447.699 242.288C448.075 242.677 450.312 240.946 453.531 240.888C456.751 240.787 459.147 242.403 459.494 241.999C459.667 241.826 459.277 241.119 458.223 240.397C457.198 239.676 455.451 238.984 453.445 239.027C451.438 239.085 449.764 239.849 448.811 240.628C447.844 241.407 447.526 242.114 447.699 242.288Z" fill="#263238"/>
<path d="M436.497 266.396C436.512 266.209 434.505 265.906 431.242 265.56C430.42 265.487 429.64 265.343 429.481 264.78C429.279 264.189 429.597 263.294 429.987 262.328C430.723 260.322 431.488 258.216 432.296 256.023C435.501 247.049 437.796 239.662 437.436 239.546C437.075 239.416 434.187 246.601 430.983 255.575C430.218 257.783 429.481 259.904 428.774 261.924C428.485 262.862 427.965 263.929 428.413 265.156C428.644 265.762 429.265 266.194 429.784 266.324C430.319 266.468 430.781 266.468 431.185 266.497C434.462 266.598 436.483 266.569 436.497 266.396Z" fill="#263238"/>
<path d="M446.01 268.431C445.491 268.416 445.548 271.908 442.603 274.447C439.658 277.001 435.934 276.684 435.919 277.16C435.876 277.376 436.757 277.823 438.33 277.838C439.875 277.867 442.113 277.318 443.917 275.76C445.707 274.202 446.458 272.153 446.544 270.725C446.66 269.268 446.256 268.402 446.01 268.431Z" fill="#263238"/>
<path d="M446.616 229.692C446.948 230.557 450.153 230.081 453.95 230.456C457.747 230.759 460.821 231.798 461.298 231.005C461.514 230.63 460.966 229.807 459.71 228.985C458.468 228.162 456.505 227.398 454.239 227.196C451.972 226.994 449.893 227.398 448.536 227.975C447.165 228.566 446.472 229.273 446.616 229.692Z" fill="#263238"/>
<path d="M417.024 232.967C417.601 233.688 419.81 232.88 422.481 232.794C425.151 232.606 427.418 233.183 427.923 232.419C428.14 232.044 427.779 231.322 426.768 230.644C425.786 229.98 424.141 229.447 422.307 229.533C420.474 229.634 418.901 230.327 417.991 231.091C417.067 231.87 416.778 232.621 417.024 232.967Z" fill="#263238"/>
<path d="M413.14 222.507C413.14 222.507 418.409 209.277 424.674 206.088C432.267 202.236 435.732 210.575 442.993 208.382C450.254 206.203 457.5 202.496 465.079 207.993C473.365 214.009 469.626 218.409 470.319 227.701C473.119 265.343 480.207 275.861 481.824 258.071C481.997 256.124 487.367 254.465 488.002 246.241C488.825 235.564 488.984 222.622 486.443 215.105C484.307 208.772 480.582 204.443 473.971 199.711C463.52 192.252 449.388 192.367 439.802 193.521C430.232 194.69 411.942 206.102 413.14 222.507Z" fill="#263238"/>
<path d="M480.468 257.523C480.54 254.291 483.269 251.68 486.502 251.925C490.414 252.214 494.817 254.349 494.716 262.429C494.543 276.755 480.179 273.625 480.165 273.221C480.15 272.946 480.352 263.525 480.468 257.523Z" fill="#FFBF9D"/>
<path d="M483.354 267.868C483.412 267.825 483.6 268.041 484.018 268.243C484.422 268.431 485.13 268.575 485.88 268.301C487.396 267.767 488.71 265.372 488.811 262.789C488.869 261.491 488.609 260.236 488.161 259.211C487.743 258.158 487.064 257.422 486.299 257.278C485.548 257.09 485 257.538 484.812 257.942C484.61 258.346 484.697 258.634 484.625 258.649C484.581 258.677 484.321 258.403 484.437 257.812C484.495 257.523 484.668 257.191 485.014 256.917C485.361 256.643 485.866 256.499 486.4 256.571C487.512 256.658 488.493 257.696 488.984 258.822C489.533 259.961 489.865 261.361 489.807 262.833C489.677 265.718 488.176 268.402 486.083 268.979C485.072 269.224 484.235 268.921 483.802 268.575C483.369 268.214 483.296 267.897 483.354 267.868Z" fill="#FF9A6C"/>
<path d="M432.716 219.477C432.687 219.477 432.644 219.491 432.615 219.491C432.528 219.506 432.441 219.506 432.354 219.506L432.716 219.477Z" fill="#FF725E"/>
<path d="M405.98 195.007C407.193 191.357 410.614 188.717 414.324 187.707C418.034 186.682 422.018 187.101 425.743 188.024C425.411 182.83 431.141 178.891 436.353 179.108C441.564 179.324 446.169 182.369 450.47 185.312C456.822 181.474 466.248 184.403 469.294 191.184C473.091 189.121 477.97 189.265 481.651 191.516C485.332 193.767 487.656 198.066 487.526 202.38C490.919 203.058 493.82 205.713 494.816 209.017C495.812 212.321 494.831 216.144 492.377 218.568C494.758 220.112 495.971 223.271 495.235 226.013C494.484 228.754 491.842 230.86 489.013 230.99L478.721 221.699C473.033 222.665 467.071 217.847 466.811 212.09C462.452 213.735 457.154 212.479 454.007 209.046C453.04 211.715 450.673 213.821 447.915 214.485C445.158 215.163 442.083 214.369 440.005 212.451C439.615 216.303 436.829 219.794 433.177 221.05C429.51 222.305 425.18 221.252 422.495 218.453C418.871 221.41 412.982 221.021 409.777 217.616C406.587 214.211 406.572 208.31 409.748 204.89C406.269 203.231 404.768 198.658 405.98 195.007Z" fill="#263238"/>
<path d="M467.533 214.47C467.475 214.485 467.504 214.918 467.793 215.653C468.082 216.389 468.674 217.428 469.785 218.366C470.882 219.304 472.586 220.141 474.607 220.083C476.599 220.04 478.836 219.145 480.352 217.255L479.529 217.226C480.222 218.265 481.189 219.188 482.315 219.866C484.74 221.309 487.656 221.554 489.951 220.703C492.29 219.881 493.82 218.121 494.672 216.548C495.524 214.932 495.697 213.446 495.682 212.451C495.639 211.455 495.451 210.921 495.394 210.936C495.177 210.907 495.74 213.23 494.022 216.187C493.171 217.601 491.713 219.131 489.634 219.809C487.599 220.501 485 220.256 482.835 218.972C481.824 218.366 480.987 217.558 480.366 216.663L479.962 216.086L479.529 216.635C478.259 218.265 476.296 219.102 474.549 219.203C472.773 219.318 471.243 218.654 470.175 217.861C468.038 216.202 467.692 214.384 467.533 214.47Z" fill="#455A64"/>
<path d="M479.226 309.088C474.751 309.045 520.829 306.405 525.521 312.767C532.406 322.102 545.903 454.319 543.652 455.848C541.385 457.377 524.063 513.631 485.188 523.125C446.313 532.604 419.189 521.292 419.189 521.292C424.213 499.276 413.271 389.538 398.445 321.857L430.867 315.234C442.907 323.559 458.555 325.695 479.226 309.088Z" fill="#455A64"/>
<path opacity="0.3" d="M396.164 439.025C397.608 438.982 426.392 443.267 443.426 447.768C460.445 452.27 520.771 474.792 532.781 471.04C544.791 467.289 542.727 457.377 542.727 457.377L420.892 433.124L396.164 439.025Z" fill="#141414"/>
<path d="M433.813 391.212C431.994 394.573 433.149 398.526 435.92 401.96C438.692 405.394 435.978 407.832 435.978 407.832C435.978 407.832 422.639 405.538 416.62 402.811C410.6 400.085 398.835 393.073 394.591 393.592C390.362 394.111 388.529 397.127 392.874 399.233C397.219 401.34 412.116 409.924 410.745 410.891C410.369 411.151 391.531 407.097 384.544 409.636C382.307 410.444 380.243 415.378 386.739 416.215C392.469 416.951 407.179 419.245 407.179 419.245C407.179 419.245 385.208 419.288 384.746 423.184C384.328 426.819 386.782 427.324 390.723 427.483C394.664 427.642 411.567 429.864 411.567 429.864C411.567 429.864 394.736 432.215 392.816 435.274C391.719 437.005 393.653 439.487 397.565 438.996C401.477 438.491 438.591 440.785 439.904 440.728C441.218 440.67 467.909 445.503 467.909 445.503L469.266 418.134L454.47 415.248C454.47 415.248 444.899 398.599 441.146 395.165C437.45 391.702 435.631 387.85 433.813 391.212Z" fill="#FFBF9D"/>
<path d="M454.773 415.681L445.202 440.554L506.322 459.051C530.53 466.279 542.338 466.712 551.779 455.098C556.384 449.428 554.493 433.038 554.984 413.012C555.446 394.472 553.872 380.463 551.303 359.008C547.174 324.526 520.252 313.82 518.65 313.748C498.137 312.839 502.857 335.967 502.857 335.967L512.37 418.292L513.222 425.766L454.773 415.681Z" fill="#FFBF9D"/>
<path d="M502.165 391.355L559.04 382.526C559.04 382.526 546.669 303.75 511.735 310.04C493.186 313.373 502.165 391.355 502.165 391.355Z" fill="#455A64"/>
<path d="M544.445 430.556C544.387 430.671 542.727 429.849 539.941 428.796C537.155 427.742 533.214 426.516 528.725 425.795C524.235 425.088 520.107 425.001 517.133 425.131C514.159 425.261 512.312 425.521 512.297 425.391C512.283 425.333 512.745 425.232 513.568 425.059C514.39 424.886 515.603 424.727 517.104 424.583C520.107 424.309 524.293 424.309 528.855 425.03C533.402 425.766 537.386 427.079 540.158 428.276C541.543 428.868 542.641 429.402 543.362 429.82C544.084 430.267 544.474 430.513 544.445 430.556Z" fill="#FF9A6C"/>
<path d="M517.105 313.373C517.134 313.46 516.08 313.705 514.492 314.715C512.889 315.696 510.897 317.673 509.295 320.645C507.649 323.602 506.437 327.469 505.426 331.855C504.387 336.227 503.535 341.103 503.044 346.269C502.034 356.599 502.698 366.035 503.694 372.758C504.199 376.12 504.733 378.818 505.123 380.693C505.311 381.559 505.455 382.266 505.585 382.843C505.686 383.334 505.715 383.593 505.7 383.608C505.671 383.608 505.585 383.363 505.44 382.886C505.282 382.324 505.08 381.617 504.834 380.766C504.358 378.919 503.737 376.221 503.16 372.845C502.019 366.107 501.268 356.613 502.279 346.196C502.77 341.002 503.65 336.097 504.733 331.697C505.787 327.31 507.086 323.372 508.819 320.385C510.522 317.37 512.644 315.393 514.333 314.455C514.737 314.196 515.141 314.022 515.474 313.878C515.806 313.719 516.109 313.618 516.354 313.546C516.845 313.402 517.105 313.344 517.105 313.373Z" fill="#263238"/>
</svg>
